# Blender 5.1.1
# www.blender.org
mtllib REV_14.mtl
o REV_cube_14
v -8.389999 -4.470000 -4.480000
v -7.390000 -4.470000 -4.480000
v -8.387039 -4.044556 -3.839242
v -8.369953 -4.051738 -4.040126
v -8.365974 -4.011058 -4.111177
v -8.386144 -4.368385 -4.043797
v -8.355309 -3.899365 -4.166913
v -8.328991 -3.748313 -4.037047
v -8.381950 -4.403015 -4.435905
v -8.379854 -4.424652 -4.001739
v -8.389591 -3.889739 -3.761158
v -8.315288 -4.074630 -3.966199
v -8.359243 -3.760291 -3.855205
v -8.318000 -4.389156 -4.313941
v -8.346428 -3.734655 -3.950123
v -8.343139 -3.966258 -3.723176
v -8.347901 -4.027894 -3.772696
v -8.315086 -4.458072 -4.302269
v -8.337127 -3.813320 -3.769071
v -8.338628 -4.334239 -4.090600
v -8.333680 -3.811555 -4.122216
v -8.332942 -4.298883 -4.198064
v -8.361497 -4.334367 -4.249925
v -8.335173 -4.080256 -3.892713
v -8.320354 -4.353948 -4.475035
v -8.334920 -3.960711 -4.131980
v -8.308942 -3.882737 -3.704651
v -8.240335 -4.451913 -4.087833
v -8.304412 -4.394454 -4.048108
v -8.243979 -4.414353 -4.358408
v -8.295625 -4.046967 -4.032549
v -8.308362 -4.083274 -3.814757
v -8.302733 -3.996044 -4.080990
v -8.294081 -4.440472 -4.425027
v -8.254196 -4.354857 -4.357971
v -8.265717 -3.964480 -3.658450
v -8.280540 -4.304718 -4.139808
v -8.248585 -4.098491 -3.895828
v -8.275132 -3.910526 -4.101860
v -8.256333 -3.763072 -3.975704
v -8.278972 -3.744220 -3.904571
v -8.277310 -4.054682 -3.718154
v -8.254303 -3.816583 -4.050086
v -8.259886 -3.762138 -3.820480
v -8.213420 -4.038311 -3.630239
v -8.287970 -4.304203 -4.287098
v -8.236309 -4.282149 -4.313492
v -8.235992 -4.069202 -3.972545
v -8.231622 -4.343953 -4.109828
v -8.229582 -4.388554 -4.460124
v -8.228294 -4.267225 -4.209584
v -8.195165 -4.467215 -4.145793
v -8.230786 -3.972409 -4.041080
v -8.244662 -3.811025 -3.725898
v -8.194051 -3.894548 -4.029356
v -8.177575 -4.341942 -4.410777
v -8.186733 -4.120369 -3.699124
v -8.221196 -4.115041 -3.798239
v -8.219497 -3.877676 -3.650954
v -8.184410 -4.088590 -3.922462
v -8.214546 -4.457774 -4.331643
v -8.185082 -3.994486 -4.411994
v -8.177419 -4.305408 -4.162939
v -8.196656 -4.030025 -3.990664
v -8.174150 -3.825133 -3.980465
v -8.189512 -3.906699 -4.439507
v -8.147506 -3.816029 -3.685694
v -8.181725 -3.948506 -3.597495
v -8.124756 -4.146884 -3.766324
v -8.168929 -4.279488 -4.381220
v -8.162077 -3.779685 -3.785550
v -8.140745 -3.940279 -4.350158
v -8.181744 -4.063080 -4.456738
v -8.109097 -3.904692 -3.969963
v -8.181177 -3.775885 -3.897621
v -8.138374 -4.054790 -4.363297
v -8.147021 -3.968833 -3.991461
v -8.118423 -4.156665 -3.673043
v -8.153643 -4.243155 -4.298579
v -8.148766 -4.382326 -4.144056
v -8.133576 -4.464293 -3.930009
v -8.152228 -4.009577 -3.566953
v -8.124379 -4.467094 -4.028003
v -8.145608 -4.099078 -3.595020
v -8.108124 -4.016157 -4.288029
v -8.118996 -4.459272 -4.205605
v -8.101374 -4.347407 -4.463862
v -8.114735 -4.281718 -4.429758
v -8.154706 -4.110569 -3.859651
v -8.107396 -4.038401 -3.528826
v -8.122040 -3.875752 -3.607087
v -8.111915 -4.032906 -3.942649
v -8.078007 -3.936120 -4.260849
v -8.074422 -4.120519 -3.531160
v -8.133569 -4.431570 -4.400551
v -8.125957 -3.857706 -4.409892
v -8.088916 -4.172340 -3.620197
v -8.049982 -4.441585 -4.252096
v -8.081211 -4.235599 -4.371654
v -8.089940 -3.846102 -3.918526
v -8.086281 -4.124520 -4.379807
v -8.093176 -3.807173 -3.849522
v -8.091906 -3.950057 -3.539328
v -8.086816 -4.394351 -4.184235
v -8.101079 -4.080823 -3.892744
v -8.049021 -4.468493 -4.349400
v -8.114805 -4.268401 -4.225183
v -8.058058 -3.856156 -4.343863
v -8.069092 -3.811497 -3.758631
v -8.059040 -4.412642 -4.464511
v -8.081635 -4.094455 -4.291137
v -8.074467 -4.237823 -4.290276
v -8.064255 -3.978956 -3.933485
v -8.031892 -3.919403 -3.900123
v -8.050070 -4.415995 -4.084947
v -8.062216 -4.288074 -4.475344
v -8.048392 -3.834451 -3.661693
v -8.058110 -4.032364 -4.206041
v -8.047324 -4.020411 -3.485319
v -8.063375 -3.813248 -4.444600
v -8.039331 -4.456720 -4.183454
v -8.022454 -3.881337 -3.574243
v -8.046480 -4.197532 -3.590835
v -8.069641 -4.119072 -3.834805
v -8.030201 -4.224728 -4.349722
v -8.020899 -4.155333 -3.783587
v -8.014451 -3.862224 -3.833466
v -8.024557 -4.129641 -4.222634
v -7.985751 -4.441801 -3.905149
v -8.012933 -4.163410 -4.329677
v -8.033846 -4.254909 -4.446216
v -8.004563 -4.220962 -4.381787
v -8.018121 -4.363459 -4.228084
v -7.991446 -3.993217 -3.870372
v -8.003255 -3.878818 -4.251616
v -7.992292 -4.395813 -4.000092
v -8.035664 -4.050084 -3.889112
v -8.044101 -4.187301 -3.693722
v -8.015769 -3.946176 -4.181479
v -7.968186 -4.156020 -4.156177
v -7.979188 -3.851238 -3.730412
v -8.000431 -4.088399 -4.142357
v -7.975393 -4.459198 -4.379090
v -7.978117 -4.219637 -3.655531
v -8.014516 -4.283793 -4.252805
v -8.027100 -4.150998 -4.438942
v -7.966214 -3.861541 -3.641585
v -7.971241 -4.178729 -3.752332
v -7.973207 -4.240226 -3.562873
v -8.024404 -4.449283 -4.428771
v -7.943327 -4.163735 -4.410376
v -7.956381 -4.097542 -4.069544
v -7.962656 -4.265262 -4.302878
v -7.990469 -3.819294 -4.405541
v -7.986704 -3.939175 -3.500377
v -7.974837 -4.381215 -4.164384
v -7.932401 -4.112350 -3.794000
v -7.964978 -4.184576 -4.232683
v -7.959414 -3.836908 -4.328295
v -7.971264 -4.423107 -4.301003
v -7.934762 -3.983659 -4.061343
v -7.971465 -4.424026 -4.243585
v -7.952854 -4.366296 -4.076427
v -7.954174 -4.348692 -4.270845
v -7.968583 -3.932430 -3.839979
v -7.941206 -3.894018 -4.173594
v -7.928008 -4.227154 -4.381599
v -7.927280 -4.199876 -4.178503
v -7.906096 -4.280275 -3.544929
v -7.905396 -4.454949 -4.416057
v -7.899825 -4.221351 -3.693016
v -7.917679 -4.010235 -3.812815
v -7.929123 -3.910481 -3.775282
v -7.916219 -4.188905 -4.325303
v -7.888885 -4.415584 -4.352839
v -7.940220 -4.453381 -4.466653
v -7.909967 -3.899371 -3.565429
v -7.887687 -4.343473 -4.317398
v -7.902893 -4.041934 -3.994922
v -7.899914 -4.274003 -4.331256
v -7.905961 -3.842528 -4.414349
v -7.909714 -4.381596 -4.016188
v -7.902020 -4.137156 -4.004200
v -7.908093 -3.856012 -4.251659
v -7.892542 -3.900701 -3.676574
v -7.902535 -4.420859 -3.957652
v -7.906168 -4.413132 -4.306530
v -7.847634 -4.214753 -4.010764
v -7.905086 -4.251842 -3.628303
v -7.876440 -4.161346 -3.733287
v -7.885949 -4.335529 -4.140634
v -7.904080 -4.352538 -4.230154
v -7.857418 -3.968832 -3.738362
v -7.873539 -3.910321 -4.095976
v -7.845718 -4.317978 -3.516342
v -7.832534 -3.880560 -4.365106
v -7.855197 -4.354290 -4.064554
v -7.865582 -4.219385 -4.472177
v -7.876955 -3.850089 -4.325853
v -7.832760 -4.253772 -4.401644
v -7.819493 -4.223922 -3.669542
v -7.840004 -3.916023 -4.459547
v -7.874429 -4.211452 -4.247900
v -7.857050 -4.086390 -3.932788
v -7.835524 -4.342717 -4.355094
v -7.852962 -4.068222 -3.759206
v -7.858589 -4.152720 -4.394952
v -7.836398 -4.339250 -4.304441
v -7.828279 -4.402326 -4.386247
v -7.840015 -3.875843 -4.184029
v -7.839217 -4.166079 -3.926311
v -7.845563 -4.230118 -4.163988
v -7.811445 -3.978419 -4.459926
v -7.817061 -3.958753 -3.669771
v -7.787019 -4.031662 -3.697095
v -7.824948 -4.407393 -4.009584
v -7.782670 -4.206385 -4.234430
v -7.840404 -4.424715 -4.359879
v -7.831841 -4.085113 -4.453115
v -7.807447 -4.243086 -4.083302
v -7.830352 -3.927443 -3.613133
v -7.765347 -4.254606 -4.470716
v -7.807703 -3.941912 -3.545167
v -7.802654 -4.442822 -4.452557
v -7.802271 -4.229898 -3.937974
v -7.830520 -4.005401 -3.942565
v -7.821336 -4.180348 -4.318272
v -7.805966 -4.108806 -3.867025
v -7.778822 -4.024629 -3.882169
v -7.770823 -4.390348 -4.419982
v -7.806830 -3.878411 -4.276113
v -7.776243 -3.942435 -4.364173
v -7.810803 -4.300663 -3.584358
v -7.803830 -4.325467 -4.118889
v -7.819479 -4.308799 -4.195330
v -7.788255 -4.115086 -4.368372
v -7.759348 -4.283774 -4.245254
v -7.771843 -4.318378 -4.408441
v -7.769915 -3.995071 -4.394647
v -7.769454 -4.314656 -4.335293
v -7.748547 -4.269953 -3.612971
v -7.780513 -4.360632 -3.492036
v -7.772267 -4.197267 -3.845717
v -7.787250 -4.131755 -3.703685
v -7.782888 -4.046421 -4.402215
v -7.771718 -3.917700 -4.041059
v -7.749334 -4.088212 -3.812028
v -7.714255 -4.429461 -4.431276
v -7.771938 -4.264451 -4.004668
v -7.737172 -4.069961 -4.339153
v -7.760975 -3.901470 -4.127169
v -7.756214 -3.994790 -3.621151
v -7.743831 -3.908817 -4.206569
v -7.747918 -4.364433 -4.075797
v -7.717324 -4.092370 -3.647135
v -7.743917 -4.148623 -4.291811
v -7.746031 -4.272780 -3.919373
v -7.696382 -3.969623 -3.905882
v -7.724008 -3.954330 -4.271936
v -7.742066 -4.236329 -4.153865
v -7.721363 -4.393456 -4.462057
v -7.726527 -4.458256 -4.033402
v -7.710276 -4.260643 -4.078443
v -7.730002 -4.303173 -4.453609
v -7.711787 -4.017414 -4.311417
v -7.691061 -4.010336 -3.837336
v -7.724651 -4.337739 -3.558678
v -7.740154 -4.304584 -4.152798
v -7.685962 -4.020515 -3.515925
v -7.713082 -4.151656 -3.758632
v -7.723130 -4.339512 -4.400111
v -7.731005 -3.989910 -3.554648
v -7.693068 -4.273941 -4.318481
v -7.719081 -4.272842 -3.848740
v -7.720303 -4.191485 -3.642697
v -7.681366 -3.968163 -4.214261
v -7.691599 -4.178744 -4.215025
v -7.705436 -4.242359 -3.777372
v -7.675063 -4.062061 -3.586493
v -7.684512 -4.293939 -3.995565
v -7.676630 -3.944156 -4.150049
v -7.688643 -3.940999 -3.988877
v -7.653949 -4.299441 -4.403083
v -7.675962 -4.276286 -4.210113
v -7.685271 -4.096972 -4.259177
v -7.665516 -4.058033 -3.770116
v -7.650586 -4.144373 -3.591505
v -7.669952 -4.311512 -3.912806
v -7.650923 -4.402953 -4.094244
v -7.651396 -4.362741 -4.448550
v -7.668178 -4.036591 -4.249880
v -7.653506 -4.080135 -3.569400
v -7.679811 -3.934398 -4.069983
v -7.650704 -4.257155 -3.586714
v -7.655377 -4.317678 -3.818891
v -7.607015 -3.990624 -4.094244
v -7.658789 -4.392637 -3.505420
v -7.658458 -4.330080 -4.133587
v -7.656524 -4.281345 -3.737581
v -7.616337 -4.187347 -3.652866
v -7.622651 -4.452136 -4.465308
v -7.622596 -3.965163 -3.939956
v -7.601092 -4.256132 -4.265497
v -7.619576 -4.115645 -4.180852
v -7.639592 -4.114091 -3.705774
v -7.646167 -4.213243 -4.138583
v -7.626942 -4.018033 -4.169580
v -7.594646 -4.129179 -3.526169
v -7.607193 -4.338552 -3.745044
v -7.602642 -4.012258 -3.805511
v -7.623979 -4.276237 -3.680835
v -7.622380 -4.325921 -3.545094
v -7.599459 -3.986285 -3.871746
v -7.579170 -4.342278 -3.896830
v -7.571792 -4.345026 -3.679655
v -7.615605 -4.256590 -4.059179
v -7.577937 -4.198479 -3.542578
v -7.595612 -4.258360 -4.361668
v -7.543884 -4.005034 -4.455616
v -7.559445 -4.366688 -3.816319
v -7.572768 -4.044461 -3.739530
v -7.573931 -4.301280 -3.977141
v -7.555664 -4.354159 -3.505348
v -7.569839 -4.352242 -4.141500
v -7.571273 -4.434937 -4.119968
v -7.548310 -4.187702 -3.597332
v -7.570495 -4.183025 -4.099959
v -7.529044 -4.360686 -3.611933
v -7.565685 -4.082281 -4.111773
v -7.546273 -4.103136 -3.655305
v -7.536662 -4.035657 -4.035446
v -7.573429 -4.278743 -3.536198
v -7.515394 -4.274091 -3.550676
v -7.524213 -4.226631 -4.030402
v -7.510560 -4.133152 -4.049223
v -7.509857 -4.340501 -4.163370
v -7.514328 -4.259328 -3.494401
v -7.516654 -4.237053 -4.309974
v -7.526497 -4.386618 -3.737211
v -7.505832 -4.446056 -4.153519
v -7.503369 -4.065351 -4.438404
v -7.501053 -4.021980 -3.828673
v -7.488190 -4.005724 -4.397831
v -7.482339 -4.133337 -3.595414
v -7.526538 -4.007133 -3.941512
v -7.499388 -4.246161 -4.410985
v -7.509187 -4.399301 -3.667660
v -7.427329 -4.270112 -4.479002
v -7.504354 -4.363608 -3.861133
v -7.443088 -4.088440 -3.639638
v -7.486367 -4.323084 -3.915869
v -7.478554 -4.052442 -3.722989
v -7.478494 -4.182230 -3.552599
v -7.494456 -3.911986 -4.445868
v -7.464947 -4.132001 -4.463822
v -7.437120 -4.219674 -3.505039
v -7.467074 -4.393597 -3.795856
v -7.475266 -4.085005 -3.979546
v -7.470687 -4.373922 -3.540775
v -7.465974 -4.256957 -3.962322
v -7.480552 -4.379757 -4.165513
v -7.434738 -4.243237 -4.269400
v -7.431629 -4.085035 -4.377647
v -7.457254 -4.171590 -3.984195
v -7.458912 -4.309199 -3.499266
v -7.457755 -4.058218 -3.908692
v -7.456189 -4.426065 -3.613028
v -7.441474 -3.944207 -4.382332
v -7.396884 -4.197536 -3.919340
v -7.445843 -4.223467 -4.353017
v -7.431196 -4.445269 -4.184830
v -7.434378 -4.433369 -3.703613
v -7.419863 -4.074440 -3.863646
v -7.417663 -4.353732 -3.850992
v -7.407349 -3.881911 -4.409266
v -7.421631 -4.121093 -3.921812
v -7.404140 -4.450215 -3.529981
v -7.409628 -4.065670 -3.793589
v -7.391591 -4.078976 -3.711013
v -7.401508 -4.227980 -4.418712
v -7.393464 -4.281291 -3.893042
v -8.012357 -4.181014 -3.494720
v -7.891171 -4.127903 -4.455813
v -7.665938 -4.209431 -3.707833
v -7.603231 -3.971826 -4.012535
v -7.585945 -4.298553 -4.183282
v -7.430153 -4.319851 -4.199450
v -7.421043 -4.009028 -4.338597
v -8.091827 -4.317960 -4.188281
v -7.999613 -4.013231 -4.123693
v -7.584064 -4.297833 -4.443089
v -7.515237 -4.269842 -4.222468
v -7.960287 -3.945333 -4.121682
v -7.786232 -4.386949 -4.384616
v -8.064775 -4.451647 -3.890101
v -8.065207 -4.426013 -3.975737
v -7.856956 -3.965227 -4.007660
v -7.581844 -4.271763 -3.625560
v -7.985712 -4.076312 -3.836942
v -7.392502 -4.135697 -3.558802
v -7.902137 -4.191626 -4.085658
v -8.118076 -4.119061 -4.446781
v -7.771761 -3.960981 -3.952294
v -7.406472 -4.388499 -4.182892
v -8.389999 -4.458431 -3.989082
v -8.389999 -4.428154 -3.997566
v -8.389999 -4.470000 -4.245255
v -8.389999 -4.470000 -4.402174
v -8.389999 -4.424901 -4.260238
v -8.389999 -4.432008 -4.255257
v -8.389999 -4.470000 -3.987064
v -8.389999 -4.403820 -4.254862
v -8.389999 -4.418659 -4.261466
v -8.389999 -4.344253 -4.225740
v -8.389999 -4.333570 -4.193962
v -8.389999 -4.352937 -4.079632
v -8.389999 -4.367611 -4.046584
v -8.389999 -4.420815 -4.004342
v -8.389999 -4.369727 -4.042684
v -8.389999 -4.050524 -4.057275
v -8.389999 -4.053320 -4.035290
v -8.389999 -4.326041 -4.141362
v -8.389999 -4.329456 -4.130712
v -8.389999 -4.066343 -3.924626
v -8.389999 -4.064075 -3.942703
v -8.389999 -4.046690 -3.851677
v -8.389999 -3.969345 -3.768128
v -8.389999 -3.990902 -3.783930
v -8.389999 -3.891166 -3.761666
v -8.389999 -3.823260 -3.794505
v -8.389999 -3.888215 -3.762152
v -8.389999 -3.889753 -3.761462
v -8.389999 -4.036092 -3.833590
v -8.389999 -4.056468 -3.988394
v -8.389999 -4.042905 -3.840040
v -8.389999 -4.382125 -4.480000
v -8.389999 -4.398445 -4.450147
v -8.389999 -4.406317 -4.436178
v -8.389999 -4.414499 -4.428900
v -8.389999 -3.889378 -4.194540
v -8.389999 -3.834933 -4.181705
v -8.389999 -3.944798 -4.174234
v -8.389999 -3.971286 -4.165019
v -8.389999 -3.993327 -4.145439
v -8.389999 -4.020839 -4.111285
v -8.389999 -3.727443 -3.989235
v -8.389999 -3.730364 -4.017053
v -8.389999 -3.740874 -4.079612
v -8.389999 -3.741906 -4.080936
v -8.389999 -3.740268 -3.933259
v -8.389999 -3.781217 -4.136874
v -8.389999 -3.823026 -4.178404
v -8.389999 -3.753899 -3.882135
v -8.389999 -3.774711 -3.852934
v -8.389999 -3.803233 -3.820943
v -7.390000 -4.423750 -3.480000
v -7.390000 -4.136591 -3.557278
v -7.390000 -4.188806 -3.514991
v -7.390000 -4.132593 -3.566002
v -7.390000 -4.219587 -3.480000
v -7.390000 -4.080420 -3.790452
v -7.390000 -4.079726 -3.710725
v -7.390000 -4.080180 -3.713261
v -7.390000 -4.097533 -3.828011
v -7.390000 -4.098950 -3.635232
v -7.390000 -4.080544 -3.706061
v -7.390000 -4.458713 -3.616380
v -7.390000 -4.457854 -3.568091
v -7.390000 -4.459722 -3.529353
v -7.390000 -4.441002 -3.701609
v -7.390000 -4.457705 -3.642465
v -7.390000 -4.470000 -4.215140
v -7.390000 -4.408811 -3.752250
v -7.390000 -4.453186 -3.507761
v -7.390000 -4.378039 -4.188429
v -7.390000 -4.405396 -4.191004
v -7.390000 -4.336034 -4.200736
v -7.390000 -4.376648 -3.811222
v -7.390000 -4.343571 -3.840803
v -7.390000 -4.395389 -3.781957
v -7.390000 -4.277711 -3.890532
v -7.390000 -4.282833 -3.889509
v -7.390000 -4.253554 -4.257826
v -7.390000 -4.297172 -4.218130
v -7.390000 -4.445554 -4.197905
v -7.390000 -4.227099 -4.309798
v -7.390000 -4.224910 -4.389647
v -7.390000 -4.220101 -4.337358
v -7.390000 -4.153072 -4.432434
v -7.390000 -4.163587 -4.480000
v -7.390000 -4.133430 -4.407251
v -7.390000 -4.226024 -4.416830
v -7.390000 -4.104535 -4.361222
v -7.390000 -4.039666 -4.324183
v -7.390000 -4.072284 -4.337062
v -7.390000 -3.956168 -4.338181
v -7.390000 -4.012180 -4.314664
v -7.390000 -3.878414 -4.401477
v -7.390000 -3.912579 -4.367934
v -7.390000 -3.869487 -4.424768
v -7.390000 -3.844814 -4.476912
v -7.390000 -3.844441 -4.480000
v -7.390000 -3.936630 -4.346705
v -7.390000 -4.125992 -3.884722
v -7.390000 -4.179571 -3.904310
v -7.390000 -4.107524 -3.862647
v -7.390000 -4.232739 -4.430936
v -7.390000 -4.262278 -4.480000
v -7.390000 -4.198567 -3.912128
v -7.973342 -4.470000 -3.881636
v -7.933520 -4.470000 -3.905054
v -7.893179 -4.470000 -3.922391
v -7.731558 -4.470000 -4.029846
v -7.789371 -4.470000 -3.989565
v -7.720832 -4.470000 -4.040101
v -7.819586 -4.470000 -3.972144
v -7.827587 -4.470000 -3.967685
v -7.621556 -4.470000 -4.096511
v -7.564410 -4.470000 -4.135947
v -7.544881 -4.470000 -4.144739
v -7.631654 -4.470000 -4.092721
v -7.662131 -4.470000 -4.072873
v -7.460989 -4.470000 -4.186082
v -7.506699 -4.470000 -4.166635
v -7.424087 -4.470000 -4.204488
v -8.366147 -4.470000 -4.406547
v -8.363124 -4.470000 -4.252049
v -8.297739 -4.470000 -4.425744
v -8.295892 -4.470000 -4.295340
v -8.328124 -4.470000 -4.409211
v -8.318450 -4.470000 -4.290978
v -8.289788 -4.470000 -4.054382
v -8.328334 -4.470000 -4.025938
v -8.351319 -4.470000 -4.012851
v -8.195679 -4.470000 -4.475198
v -8.190693 -4.470000 -4.480000
v -8.136583 -4.470000 -4.335744
v -8.173472 -4.470000 -4.324190
v -8.138551 -4.470000 -3.936408
v -8.132987 -4.470000 -3.908219
v -8.140087 -4.470000 -3.927341
v -8.225168 -4.470000 -4.461009
v -8.248609 -4.470000 -4.448591
v -8.223137 -4.470000 -4.316370
v -8.196321 -4.470000 -4.150181
v -8.138970 -4.470000 -4.207107
v -8.198727 -4.470000 -4.146042
v -8.249613 -4.470000 -4.101558
v -8.281877 -4.470000 -4.059604
v -8.084963 -4.470000 -4.108743
v -8.059469 -4.470000 -4.164176
v -8.041807 -4.470000 -4.184795
v -8.029989 -4.470000 -4.199199
v -8.114623 -4.470000 -4.251562
v -8.132210 -4.470000 -4.223353
v -7.990251 -4.470000 -4.242447
v -7.958096 -4.470000 -4.270419
v -7.855438 -4.470000 -4.350170
v -7.801440 -4.470000 -4.379889
v -7.884254 -4.470000 -4.327058
v -7.931818 -4.470000 -4.297019
v -7.779520 -4.470000 -4.390366
v -7.751450 -4.470000 -4.408269
v -7.700839 -4.470000 -4.427439
v -7.544732 -4.470000 -4.480000
v -7.601797 -4.470000 -4.462902
v -7.621901 -4.470000 -4.456168
v -7.645355 -4.470000 -4.451307
v -8.059908 -4.470000 -4.345490
v -8.113456 -4.470000 -4.299680
v -8.122530 -4.470000 -4.036455
v -8.125814 -4.470000 -4.029362
v -8.127589 -4.470000 -4.025745
v -8.015467 -4.470000 -3.857748
v -8.050391 -4.470000 -3.858512
v -8.100335 -4.470000 -3.867145
v -8.008996 -3.812538 -4.480000
v -7.984743 -3.813499 -4.480000
v -7.906410 -3.857043 -4.480000
v -7.967808 -3.818331 -4.480000
v -7.563597 -4.008807 -4.480000
v -7.825148 -3.988263 -4.480000
v -7.844100 -3.947348 -4.480000
v -7.555828 -3.971509 -4.480000
v -7.547972 -4.040067 -4.480000
v -7.535573 -3.923223 -4.480000
v -7.529760 -4.081227 -4.480000
v -7.861991 -3.899609 -4.480000
v -7.849274 -3.919350 -4.480000
v -7.432999 -4.273651 -4.480000
v -7.440392 -4.144754 -4.480000
v -7.467840 -4.136484 -4.480000
v -7.494241 -4.302668 -4.480000
v -7.513725 -4.308349 -4.480000
v -7.491201 -4.121483 -4.480000
v -7.457371 -3.870522 -4.480000
v -7.404932 -4.265652 -4.480000
v -7.426566 -4.271290 -4.480000
v -7.397246 -3.845478 -4.480000
v -7.432193 -3.855730 -4.480000
v -7.502305 -3.891376 -4.480000
v -8.375890 -4.376489 -4.480000
v -8.246877 -4.358318 -4.480000
v -8.311341 -4.348439 -4.480000
v -8.319886 -4.352125 -4.480000
v -8.325487 -4.353602 -4.480000
v -8.219039 -3.961533 -4.480000
v -8.222003 -3.985245 -4.480000
v -8.210779 -4.015577 -4.480000
v -8.185870 -4.464596 -4.480000
v -8.187367 -4.417228 -4.480000
v -8.196160 -4.363076 -4.480000
v -8.188793 -4.064404 -4.480000
v -8.210716 -3.896882 -4.480000
v -8.169626 -4.078292 -4.480000
v -8.126903 -4.117068 -4.480000
v -8.089533 -4.128367 -4.480000
v -8.149214 -3.833033 -4.480000
v -8.165893 -3.851476 -4.480000
v -8.124028 -3.822073 -4.480000
v -8.035522 -4.413135 -4.480000
v -8.006218 -4.425588 -4.480000
v -8.054566 -4.386371 -4.480000
v -8.012917 -4.268289 -4.480000
v -8.037535 -4.146532 -4.480000
v -8.055833 -4.288288 -4.480000
v -7.967597 -4.233633 -4.480000
v -7.979154 -4.140011 -4.480000
v -8.059592 -4.301716 -4.480000
v -8.076962 -4.351121 -4.480000
v -8.069309 -3.805946 -4.480000
v -7.965956 -4.232847 -4.480000
v -7.965150 -4.232913 -4.480000
v -7.953754 -4.231371 -4.480000
v -7.959980 -4.439720 -4.480000
v -7.936686 -4.448798 -4.480000
v -7.948399 -4.141349 -4.480000
v -7.885968 -4.110893 -4.480000
v -7.870777 -4.221352 -4.480000
v -7.859801 -4.220096 -4.480000
v -7.781567 -4.450505 -4.480000
v -7.824254 -4.451066 -4.480000
v -7.866961 -4.458567 -4.480000
v -7.855657 -4.088283 -4.480000
v -7.840018 -4.053599 -4.480000
v -7.912458 -4.455477 -4.480000
v -7.920325 -4.130607 -4.480000
v -7.746607 -4.262200 -4.480000
v -7.760592 -4.253162 -4.480000
v -7.771523 -4.250900 -4.480000
v -7.722908 -4.411309 -4.480000
v -7.737426 -4.421908 -4.480000
v -7.708206 -4.404744 -4.480000
v -7.701412 -4.392272 -4.480000
v -7.764686 -4.437635 -4.480000
v -7.585775 -4.402324 -4.480000
v -7.582797 -4.369624 -4.480000
v -7.701353 -4.375163 -4.480000
v -7.700869 -4.314085 -4.480000
v -7.567179 -4.357068 -4.480000
v -7.570289 -4.454194 -4.480000
v -7.706400 -4.298199 -4.480000
v -8.041742 -4.030746 -3.480000
v -8.033837 -4.101936 -3.480000
v -8.037174 -4.019004 -3.480000
v -7.880074 -3.951461 -3.480000
v -7.906003 -3.949595 -3.480000
v -7.887120 -3.949226 -3.480000
v -7.977818 -3.962394 -3.480000
v -8.011386 -4.151861 -3.480000
v -8.001678 -4.179893 -3.480000
v -7.979129 -4.210774 -3.480000
v -7.939599 -4.246916 -3.480000
v -7.950807 -4.239686 -3.480000
v -7.897606 -4.282990 -3.480000
v -7.841288 -4.323425 -3.480000
v -7.876474 -4.296610 -3.480000
v -7.769263 -3.979510 -3.480000
v -7.753403 -3.988310 -3.480000
v -7.780136 -3.972445 -3.480000
v -7.788212 -4.356691 -3.480000
v -7.776693 -4.365770 -3.480000
v -7.726835 -4.387327 -3.480000
v -7.710544 -4.392866 -3.480000
v -7.715928 -4.391185 -3.480000
v -7.689941 -4.022589 -3.480000
v -7.534425 -4.176954 -3.480000
v -7.534426 -4.176953 -3.480000
v -7.534423 -4.176959 -3.480000
v -7.525077 -4.383611 -3.480000
v -7.507721 -4.334447 -3.480000
v -7.591495 -4.409197 -3.480000
v -7.578335 -4.123183 -3.480000
v -7.431618 -4.342966 -3.480000
v -7.431615 -4.258739 -3.480000
v -7.442637 -4.297224 -3.480000
v -7.494967 -4.281084 -3.480000
v -7.406241 -4.393274 -3.480000
v -7.421152 -4.373559 -3.480000
v -7.398025 -4.223353 -3.480000
v -7.622776 -4.420904 -3.480000
v -7.505203 -4.251592 -3.480000
v -7.620843 -4.072235 -3.480000
v -7.624806 -4.067370 -3.480000
v -7.663024 -4.406644 -3.480000
v -7.630288 -4.061628 -3.480000
vn -1.0000 -0.0000 -0.0000
vn 1.0000 -0.0000 -0.0000
vn -0.0000 -1.0000 -0.0000
vn -0.0000 -0.0000 -1.0000
vn -0.0000 -0.0000 1.0000
vn -0.4674 0.3916 0.7926
vn -0.5956 0.1207 0.7942
vn -0.5904 0.1757 0.7878
vn 0.0563 -0.9942 -0.0919
vn 0.2621 -0.8915 -0.3695
vn 0.1238 -0.9335 -0.3366
vn -0.5236 -0.7153 0.4628
vn -0.3823 -0.8913 0.2440
vn -0.5172 -0.7637 0.3864
vn -0.0491 0.7173 0.6950
vn 0.0213 0.7614 0.6479
vn -0.1264 0.8968 0.4239
vn -0.3177 0.7239 0.6124
vn -0.1358 0.6732 0.7269
vn -0.3341 0.8261 0.4539
vn 0.3246 -0.7917 -0.5176
vn 0.4643 -0.6106 -0.6416
vn 0.4043 -0.7191 -0.5652
vn -0.2309 0.8842 0.4060
vn -0.6248 -0.5728 0.5305
vn -0.2869 -0.9576 0.0271
vn -0.2488 -0.9685 0.0052
vn 0.3020 0.4041 0.8634
vn 0.0387 0.6290 0.7765
vn -0.1857 0.8790 0.4392
vn 0.1099 0.9913 0.0725
vn -0.0302 0.9692 0.2446
vn -0.1105 0.9312 0.3473
vn 0.0844 0.4751 0.8759
vn -0.1588 -0.9757 -0.1507
vn -0.3016 0.7383 0.6032
vn -0.3550 0.8218 0.4456
vn -0.3308 0.8281 0.4527
vn -0.2595 0.9464 0.1922
vn -0.3707 0.9286 -0.0181
vn -0.5194 0.8307 -0.2005
vn -0.4784 -0.4043 -0.7795
vn -0.2375 -0.2473 -0.9394
vn -0.5185 -0.4292 -0.7396
vn -0.0046 0.8325 0.5540
vn -0.1743 0.9264 0.3337
vn -0.6000 -0.5909 0.5393
vn -0.6123 -0.5145 0.6004
vn 0.5106 0.1124 0.8524
vn 0.5270 0.1548 0.8357
vn 0.5489 0.1437 0.8234
vn 0.5247 -0.4210 -0.7399
vn 0.5578 -0.4029 -0.7256
vn -0.4226 -0.8764 0.2308
vn -0.3838 0.7281 0.5680
vn 0.6202 -0.0151 -0.7843
vn 0.6180 -0.0449 -0.7849
vn 0.5357 -0.2807 -0.7964
vn 0.6661 0.1932 -0.7204
vn 0.3981 0.8110 -0.4288
vn 0.3983 0.8542 -0.3343
vn 0.5920 0.4758 -0.6505
vn 0.4750 0.7001 -0.5332
vn 0.5021 0.6649 -0.5530
vn -0.6408 -0.2056 0.7397
vn -0.6792 -0.0656 0.7311
vn -0.6477 -0.3090 0.6964
vn -0.0747 -0.9651 -0.2509
vn -0.1811 -0.9737 -0.1385
vn -0.1398 0.7594 0.6354
vn -0.3381 0.8477 0.4087
vn 0.6274 0.3432 -0.6990
vn 0.4230 0.3587 0.8321
vn 0.1084 0.4204 0.9008
vn 0.1629 0.4281 0.8889
vn 0.6486 -0.0490 -0.7595
vn 0.5309 0.0795 0.8437
vn -0.6022 0.1186 -0.7895
vn -0.4200 -0.4559 -0.7847
vn -0.5653 -0.3061 -0.7660
vn -0.5999 0.0430 -0.7989
vn -0.3739 0.6565 0.6551
vn 0.0035 0.9491 0.3148
vn -0.5270 0.3326 0.7821
vn -0.3200 0.8987 0.2998
vn 0.4800 -0.5598 -0.6755
vn 0.2417 -0.7581 -0.6057
vn 0.4504 -0.0774 0.8894
vn 0.2778 0.2333 0.9319
vn 0.1595 0.3168 0.9350
vn -0.5956 0.6013 -0.5327
vn -0.6459 0.3145 -0.6956
vn -0.2424 0.7734 0.5857
vn 0.1632 0.9852 0.0526
vn -0.4351 -0.5512 -0.7119
vn -0.6092 -0.6128 0.5033
vn -0.0228 0.8661 0.4993
vn 0.5692 0.0420 0.8211
vn 0.4219 0.8504 -0.3145
vn -0.6328 -0.0528 0.7725
vn 0.3567 0.4763 0.8037
vn 0.5979 0.4986 -0.6276
vn 0.0126 0.6580 0.7530
vn -0.5227 0.7222 -0.4530
vn -0.4354 -0.3566 -0.8266
vn -0.6074 0.2257 -0.7616
vn -0.1139 -0.9737 -0.1973
vn -0.2098 -0.7174 -0.6644
vn -0.1833 -0.6975 -0.6927
vn -0.4295 0.4873 0.7603
vn -0.1664 -0.7220 -0.6716
vn 0.5799 -0.0642 0.8122
vn 0.5386 -0.6670 0.5148
vn 0.6081 -0.2974 0.7361
vn -0.6820 -0.3405 0.6473
vn 0.2733 0.3131 0.9096
vn 0.0775 0.5782 0.8122
vn 0.2069 -0.8317 -0.5153
vn 0.5361 -0.3383 -0.7734
vn -0.3324 -0.9431 0.0110
vn -0.1394 0.9603 0.2414
vn 0.4605 0.0008 0.8877
vn 0.4503 0.0147 0.8927
vn 0.6132 0.1123 -0.7819
vn 0.5198 -0.7075 0.4788
vn 0.4594 -0.7998 0.3864
vn 0.5733 -0.5999 0.5580
vn 0.2589 0.6403 0.7232
vn -0.5489 -0.7998 0.2431
vn 0.3972 0.8978 -0.1903
vn 0.1681 0.9683 0.1846
vn 0.4154 -0.5395 -0.7324
vn -0.5624 0.0775 -0.8232
vn -0.5054 0.6772 -0.5348
vn -0.5080 0.7744 -0.3772
vn 0.5737 0.5746 -0.5837
vn -0.5585 0.2200 0.7998
vn -0.0568 0.8698 0.4901
vn 0.0156 -0.9320 -0.3621
vn -0.6382 0.7657 0.0806
vn -0.5317 0.8420 0.0914
vn -0.6951 0.7126 -0.0952
vn -0.7793 0.3781 0.4997
vn -0.8677 0.1092 0.4849
vn -0.7804 0.3648 0.5078
vn 0.3060 0.3027 0.9026
vn -0.1516 -0.8334 -0.5314
vn -0.2271 0.9739 -0.0026
vn 0.1799 -0.8465 -0.5011
vn -0.3412 -0.6611 -0.6683
vn 0.5898 -0.5264 0.6124
vn 0.4819 -0.1014 0.8703
vn 0.4736 -0.0803 0.8771
vn 0.5218 -0.2176 -0.8249
vn -0.6822 -0.5056 0.5282
vn -0.8555 -0.3259 0.4024
vn -0.7609 -0.5926 0.2643
vn -0.7717 -0.5487 0.3216
vn -0.2555 0.6679 0.6990
vn 0.4433 0.0317 0.8958
vn -0.3549 0.9020 0.2458
vn -0.5427 0.6854 0.4855
vn -0.5313 0.7284 0.4326
vn -0.6590 0.6073 0.4438
vn -0.8556 -0.1042 0.5071
vn -0.8805 -0.0806 0.4671
vn 0.6191 0.1776 -0.7650
vn -0.6462 -0.0280 0.7627
vn -0.2438 -0.9441 -0.2220
vn 0.5227 -0.0071 0.8525
vn -0.1188 -0.8516 -0.5105
vn 0.4864 0.8470 -0.2143
vn 0.4240 -0.4945 -0.7587
vn -0.7879 0.2737 0.5517
vn -0.3489 0.8545 0.3848
vn -0.1639 0.9438 0.2871
vn -0.8196 -0.3870 0.4225
vn 0.6105 0.5782 -0.5412
vn -0.6406 -0.7515 0.1577
vn -0.5145 -0.8534 0.0837
vn -0.4359 0.4228 0.7945
vn -0.7584 0.5430 -0.3605
vn -0.6817 0.7019 -0.2065
vn -0.7089 0.6047 -0.3630
vn 0.4272 -0.8417 0.3302
vn 0.4996 -0.6993 0.5113
vn 0.4147 -0.8819 0.2243
vn 0.1473 0.9312 0.3334
vn 0.1383 -0.8007 -0.5830
vn -0.4932 0.5968 -0.6329
vn -0.2762 0.9324 -0.2331
vn 0.3606 0.9319 0.0394
vn -0.6330 -0.0824 0.7698
vn 0.1625 0.8210 0.5473
vn 0.0944 0.9392 0.3303
vn 0.2723 -0.7311 -0.6255
vn -0.5268 -0.8357 0.1552
vn -0.1035 0.9706 0.2175
vn 0.6001 -0.1320 -0.7890
vn 0.5487 -0.2494 0.7979
vn -0.8634 -0.0861 0.4972
vn -0.7247 0.4168 0.5487
vn -0.5992 -0.7783 0.1879
vn -0.5813 -0.0483 -0.8122
vn 0.4254 0.3874 0.8179
vn -0.3709 0.9156 0.1553
vn 0.3991 -0.9053 0.1456
vn 0.4879 -0.7355 0.4700
vn -0.6973 -0.4005 0.5944
vn -0.3191 -0.9477 -0.0087
vn -0.5210 -0.8491 0.0875
vn -0.4223 0.7915 0.4418
vn -0.5894 -0.7878 0.1791
vn -0.7658 -0.5318 0.3616
vn 0.3027 -0.9400 0.1575
vn 0.0837 -0.9856 -0.1469
vn 0.0983 -0.9949 -0.0229
vn -0.0547 0.8142 0.5780
vn -0.4998 0.5069 -0.7023
vn -0.3749 0.8157 -0.4405
vn -0.3049 -0.9256 -0.2244
vn -0.5933 0.7902 -0.1535
vn -0.7108 0.6120 -0.3467
vn -0.1500 0.9113 0.3834
vn -0.7325 0.4534 -0.5078
vn -0.7355 0.5587 -0.3834
vn -0.8385 -0.0804 0.5389
vn -0.5327 0.1798 -0.8270
vn -0.5600 -0.1175 -0.8201
vn -0.5849 -0.7958 0.1571
vn -0.7501 0.2034 -0.6292
vn -0.4493 -0.5837 -0.6763
vn -0.5427 -0.3561 -0.7607
vn -0.1485 -0.9865 -0.0696
vn -0.1907 -0.9771 -0.0944
vn 0.6927 0.2509 -0.6762
vn -0.3098 -0.9103 -0.2745
vn 0.6287 0.6650 -0.4032
vn -0.4338 -0.9007 0.0241
vn -0.6717 0.4715 0.5714
vn -0.5552 0.1782 0.8124
vn 0.4919 -0.4612 -0.7385
vn -0.4035 0.7943 0.4541
vn -0.1955 0.6760 0.7104
vn -0.2206 0.9277 0.3012
vn -0.3176 0.9361 0.1510
vn 0.1218 0.8308 0.5431
vn -0.0392 0.8561 0.5153
vn 0.0813 0.8334 0.5467
vn 0.0259 -0.8059 -0.5914
vn -0.7203 -0.5182 0.4610
vn 0.4885 0.8653 -0.1122
vn 0.0374 0.9771 0.2095
vn 0.5844 -0.1137 0.8035
vn -0.7188 0.2592 -0.6451
vn 0.4341 0.5661 0.7008
vn 0.0551 0.9780 0.2011
vn 0.0521 0.9936 0.0999
vn -0.0300 0.9719 0.2337
vn -0.7429 -0.5817 0.3312
vn -0.4062 -0.6938 -0.5947
vn -0.0072 -0.9639 -0.2663
vn -0.7340 -0.1913 0.6517
vn -0.7023 -0.0130 0.7117
vn -0.7038 -0.3014 0.6433
vn 0.6406 -0.0736 -0.7643
vn -0.5646 0.7956 -0.2195
vn 0.0394 -0.9580 -0.2841
vn -0.4435 0.7047 -0.5538
vn -0.4668 0.5811 -0.6667
vn -0.4693 0.3900 0.7923
vn -0.0425 0.9990 0.0148
vn 0.4616 -0.6799 0.5698
vn -0.7833 0.1382 0.6061
vn -0.2983 0.5625 0.7711
vn 0.1621 0.9828 0.0890
vn 0.3639 0.6857 0.6303
vn -0.3404 0.8249 0.4512
vn 0.2392 0.9149 0.3252
vn -0.2949 -0.8231 -0.4854
vn -0.1917 -0.9149 -0.3551
vn -0.6745 0.4757 -0.5646
vn -0.6803 0.2610 -0.6849
vn 0.3274 0.9246 0.1947
vn 0.4342 -0.4557 -0.7771
vn 0.1510 -0.9772 0.1492
vn 0.3648 0.6676 0.6491
vn 0.2449 0.7322 0.6356
vn 0.0270 -0.7915 -0.6106
vn 0.3850 -0.4452 -0.8084
vn -0.5241 -0.8516 0.0118
vn 0.1498 -0.9380 -0.3125
vn -0.1212 0.9786 -0.1661
vn -0.4350 0.8401 -0.3239
vn -0.4883 -0.8696 0.0729
vn -0.7136 -0.6067 0.3503
vn 0.0016 0.9646 0.2636
vn -0.7267 -0.4011 0.5577
vn 0.6947 0.3164 -0.6460
vn -0.0780 -0.9669 -0.2431
vn 0.5844 -0.0420 0.8103
vn 0.0095 0.8772 0.4800
vn 0.6812 0.5669 -0.4632
vn -0.8174 -0.3052 0.4886
vn -0.8206 -0.2250 0.5253
vn -0.2709 -0.8440 -0.4629
vn -0.1669 -0.9588 -0.2299
vn 0.4545 -0.6467 0.6125
vn -0.2204 -0.8900 -0.3992
vn -0.7043 -0.6695 0.2361
vn -0.3175 0.9423 0.1059
vn -0.6778 0.2136 -0.7036
vn 0.4514 0.8884 -0.0840
vn 0.3417 0.9395 0.0244
vn -0.0972 -0.9727 -0.2106
vn -0.6201 0.3790 -0.6869
vn -0.6412 0.1638 -0.7496
vn -0.0285 0.8397 0.5423
vn -0.2876 -0.8799 -0.3783
vn -0.6352 -0.7250 0.2664
vn 0.3301 0.6139 0.7171
vn 0.3862 0.5852 0.7130
vn 0.6387 0.0313 -0.7688
vn 0.5572 0.8140 -0.1642
vn 0.1667 0.9400 0.2976
vn -0.0021 0.9983 -0.0576
vn 0.5627 -0.0511 0.8251
vn 0.4628 0.5151 0.7214
vn -0.4793 -0.8706 0.1113
vn 0.1557 0.8707 0.4665
vn 0.6127 0.7708 -0.1746
vn -0.5781 0.5793 0.5746
vn -0.2582 0.8517 0.4560
vn -0.5280 0.7991 -0.2876
vn 0.0390 -0.8096 -0.5857
vn 0.1753 -0.9536 0.2447
vn -0.4757 -0.8693 -0.1342
vn 0.3528 -0.4950 -0.7940
vn -0.5937 0.0609 -0.8024
vn 0.3133 0.9493 0.0248
vn -0.5930 -0.8040 0.0439
vn -0.5722 -0.8110 0.1214
vn 0.3672 -0.8633 -0.3461
vn 0.4113 -0.7990 -0.4386
vn -0.0037 0.8748 0.4844
vn 0.3600 -0.8066 -0.4688
vn 0.1069 0.9698 0.2191
vn 0.6814 0.4420 -0.5834
vn -0.2091 -0.9739 -0.0889
vn -0.4758 -0.8535 -0.2126
vn -0.5578 -0.8298 0.0158
vn -0.1337 0.9910 -0.0119
vn 0.0992 0.9928 0.0677
vn -0.1163 0.9788 -0.1688
vn 0.5306 0.8433 -0.0854
vn -0.6598 0.4226 0.6214
vn -0.4688 0.6762 0.5683
vn -0.5482 0.1967 -0.8129
vn -0.5730 0.0145 -0.8194
vn 0.7080 0.6699 -0.2235
vn 0.7619 0.5160 -0.3915
vn -0.5640 -0.8240 -0.0548
vn 0.5923 -0.0824 -0.8015
vn -0.5283 0.7155 -0.4571
vn 0.4341 0.5106 0.7422
vn 0.4704 0.6966 0.5417
vn 0.3098 -0.8403 -0.4450
vn 0.4860 0.8702 -0.0811
vn 0.0930 -0.9894 0.1119
vn -0.0962 -0.9944 -0.0440
vn -0.3208 -0.9450 -0.0632
vn -0.6522 -0.7205 0.2358
vn 0.6580 0.6388 -0.3987
vn -0.3210 0.9456 0.0522
vn 0.3179 0.6278 0.7105
vn -0.8057 -0.3317 0.4908
vn -0.7934 -0.3394 0.5053
vn 0.4672 -0.5641 0.6808
vn 0.8370 0.3337 -0.4336
vn 0.1255 -0.9730 0.1935
vn 0.3136 -0.8344 0.4533
vn 0.6158 0.7554 -0.2240
vn 0.4358 0.8883 0.1451
vn 0.2530 0.8766 0.4094
vn 0.5314 -0.2040 -0.8222
vn 0.4291 0.4904 0.7585
vn -0.1795 -0.8073 -0.5622
vn 0.2147 -0.6291 -0.7471
vn 0.8201 -0.2331 -0.5226
vn 0.7003 -0.4586 -0.5471
vn 0.6291 -0.6069 -0.4857
vn 0.7468 0.2923 -0.5973
vn 0.5963 -0.0111 0.8027
vn 0.2435 0.9630 0.1156
vn 0.1996 0.9781 0.0586
vn -0.0564 0.9050 0.4217
vn 0.2231 -0.8850 -0.4087
vn -0.0263 0.9455 0.3247
vn -0.4443 0.0135 -0.8958
vn 0.5126 -0.7503 -0.4174
vn -0.3063 0.9519 -0.0100
vn 0.4258 0.8751 0.2299
vn 0.2408 0.6458 0.7246
vn -0.6828 -0.6592 0.3152
vn 0.6974 0.2838 -0.6581
vn 0.4397 0.7886 0.4299
vn 0.2874 0.9400 0.1840
vn -0.7680 0.0822 0.6352
vn -0.7493 0.0686 0.6587
vn -0.5734 0.5181 0.6347
vn -0.7544 0.2057 0.6233
vn 0.8193 0.1395 -0.5561
vn 0.8212 0.0200 -0.5703
vn -0.2626 0.8209 0.5071
vn 0.1156 -0.9234 -0.3659
vn -0.4191 -0.8530 -0.3110
vn -0.5564 -0.8265 -0.0853
vn 0.6576 0.2044 0.7251
vn 0.7703 0.5230 -0.3648
vn 0.5709 -0.5898 -0.5712
vn 0.6341 -0.5261 -0.5667
vn -0.4173 -0.9082 -0.0312
vn -0.7783 -0.3379 0.5292
vn 0.5962 -0.3866 0.7036
vn 0.5192 0.8446 -0.1308
vn -0.5289 0.3131 -0.7888
vn -0.4888 0.0209 -0.8721
vn 0.6735 0.6306 -0.3857
vn 0.3563 -0.7921 0.4956
vn -0.0051 -0.9368 -0.3498
vn 0.4964 -0.2460 -0.8325
vn 0.4450 0.4683 0.7633
vn 0.5219 0.1844 0.8328
vn 0.6145 -0.0245 0.7885
vn -0.4696 -0.8560 -0.2164
vn 0.5897 0.7986 -0.1200
vn 0.5183 0.8422 0.1483
vn 0.4602 -0.6739 0.5780
vn 0.7801 -0.2149 -0.5876
vn -0.5636 -0.8091 0.1662
vn -0.0337 0.8937 0.4474
vn -0.1182 0.8879 0.4446
vn -0.5264 0.5544 0.6446
vn 0.6768 0.1765 -0.7147
vn 0.8385 0.1282 -0.5297
vn 0.1893 -0.5734 -0.7971
vn -0.6495 0.3021 0.6978
vn -0.4284 0.0181 -0.9034
vn -0.4954 -0.0379 -0.8678
vn 0.7330 0.5734 -0.3660
vn 0.1570 0.9616 0.2251
vn -0.0238 -0.7062 -0.7076
vn 0.6324 0.3229 0.7042
vn 0.3932 0.8564 0.3345
vn -0.6696 -0.6910 0.2725
vn 0.4801 0.8686 0.1225
vn 0.6132 0.7855 -0.0837
vn 0.4406 -0.6700 0.5975
vn 0.7604 -0.2486 -0.6000
vn 0.6108 0.7681 -0.1922
vn -0.4514 0.7587 -0.4696
vn -0.2950 0.9290 -0.2234
vn -0.4542 0.5373 -0.7106
vn 0.5344 0.6301 0.5633
vn -0.2928 -0.8145 -0.5008
vn -0.7320 0.0895 0.6754
vn -0.7642 -0.4244 0.4857
vn 0.4115 -0.6636 0.6248
vn 0.5956 -0.3334 0.7309
vn 0.5075 0.8551 0.1056
vn -0.0522 0.9445 0.3243
vn 0.5185 -0.6199 -0.5889
vn 0.5424 -0.2021 0.8155
vn 0.4079 0.9130 0.0089
vn -0.1525 -0.9540 -0.2579
vn 0.6452 0.3981 0.6521
vn -0.2982 0.7633 0.5731
vn 0.3707 0.3296 0.8683
vn -0.2670 -0.8107 -0.5211
vn -0.4034 0.2986 -0.8649
vn 0.7337 -0.2654 -0.6255
vn 0.8365 0.1640 -0.5229
vn 0.7325 0.5632 -0.3823
vn -0.3487 -0.9323 -0.0961
vn 0.1757 0.6779 0.7138
vn 0.7253 0.4870 -0.4866
vn -0.4293 0.6154 0.6611
vn -0.1167 0.9716 0.2060
vn 0.8197 0.1461 -0.5538
vn 0.4310 -0.6909 -0.5804
vn 0.6698 -0.0044 0.7425
vn 0.6865 0.0866 0.7220
vn 0.4213 -0.2733 -0.8648
vn -0.3165 -0.2025 -0.9267
vn 0.4316 0.1443 0.8904
vn 0.5365 0.1523 0.8300
vn -0.0397 -0.7232 -0.6895
vn -0.2517 -0.8163 -0.5198
vn 0.2753 -0.7882 -0.5503
vn -0.5703 -0.8120 0.1241
vn -0.5520 0.4467 0.7041
vn 0.6598 0.1190 -0.7420
vn 0.2903 -0.4482 -0.8455
vn 0.7426 0.4596 -0.4871
vn -0.3794 0.7248 -0.5750
vn 0.2625 0.9518 0.1586
vn -0.7617 -0.0954 0.6409
vn 0.6661 -0.1493 0.7308
vn 0.6749 0.6933 -0.2526
vn -0.0415 0.8926 0.4489
vn 0.0933 0.7704 0.6306
vn 0.1569 0.9474 0.2788
vn -0.2656 -0.8250 -0.4988
vn 0.8046 0.3783 -0.4578
vn 0.7125 0.6255 -0.3180
vn 0.6512 0.1456 -0.7448
vn -0.2591 0.9329 -0.2502
vn 0.1468 -0.8379 -0.5258
vn 0.6941 0.6491 -0.3111
vn 0.7505 -0.1761 -0.6370
vn 0.5010 0.8595 -0.1011
vn -0.6724 0.1585 0.7230
vn -0.7493 -0.3823 0.5408
vn -0.6112 -0.7630 0.2106
vn -0.7414 -0.5236 0.4197
vn -0.1758 -0.9254 -0.3357
vn 0.2770 0.4252 0.8616
vn -0.3399 0.6549 -0.6750
vn -0.3461 -0.9277 -0.1400
vn 0.0861 -0.6033 -0.7929
vn -0.1442 0.9827 0.1164
vn -0.1387 0.8417 0.5218
vn -0.3543 0.4197 -0.8356
vn -0.3784 0.2716 -0.8849
vn -0.3407 0.6746 0.6548
vn -0.3765 0.0055 -0.9264
vn 0.3919 0.0524 0.9185
vn 0.4523 0.0095 0.8918
vn 0.3818 -0.3529 -0.8542
vn 0.1926 -0.5112 -0.8376
vn 0.7322 0.4616 -0.5008
vn 0.7320 0.5994 -0.3239
vn 0.6369 -0.3864 -0.6672
vn -0.2679 -0.3137 -0.9109
vn -0.2603 -0.4210 -0.8689
vn -0.2665 -0.4275 -0.8638
vn 0.4524 -0.2950 0.8416
vn 0.7384 0.5372 -0.4077
vn 0.7966 0.1706 -0.5799
vn 0.5593 0.8202 -0.1206
vn 0.5585 -0.4857 -0.6725
vn -0.4582 -0.8873 -0.0518
vn -0.6919 0.2470 0.6785
vn -0.7654 -0.1046 0.6350
vn -0.7409 -0.0247 0.6711
vn -0.6997 -0.6448 0.3076
vn 0.3422 0.9316 0.1227
vn 0.2535 0.4238 0.8696
vn 0.0520 0.8102 0.5839
vn -0.7470 -0.2179 0.6281
vn -0.5876 0.3081 0.7482
vn 0.5323 -0.1560 -0.8320
vn -0.0036 -0.8936 -0.4488
vn 0.2639 -0.7259 -0.6351
vn -0.7240 -0.5377 0.4322
vn 0.7270 0.5996 -0.3347
vn 0.5341 -0.4556 -0.7122
vn 0.6707 0.0906 -0.7362
vn 0.7302 0.3035 -0.6121
vn 0.7371 0.2868 -0.6119
vn -0.2525 0.8876 -0.3853
vn -0.6999 -0.0256 0.7137
vn -0.0858 -0.9240 -0.3726
vn 0.3077 0.1165 0.9443
vn 0.3997 -0.1867 0.8974
vn -0.5714 -0.8153 0.0937
vn 0.1112 0.9374 0.3301
vn 0.7729 0.0235 -0.6341
vn 0.4010 -0.3424 0.8497
vn 0.3915 -0.4529 0.8010
vn -0.5682 0.5420 0.6191
vn -0.6502 0.3793 0.6584
vn -0.4490 0.4721 0.7586
vn -0.3240 0.6624 0.6755
vn -0.7294 -0.4557 0.5102
vn -0.4685 0.7045 0.5331
vn -0.4010 -0.8618 0.3105
vn -0.4763 -0.7641 0.4350
vn -0.5782 -0.6102 0.5416
vn 0.5070 -0.1391 -0.8507
vn 0.3678 -0.3570 -0.8586
vn 0.7729 0.4139 -0.4809
vn 0.5156 0.8547 -0.0604
vn -0.2191 0.7097 -0.6695
vn -0.3292 0.7047 -0.6285
vn -0.2721 0.7345 -0.6217
vn -0.0179 0.8912 0.4532
vn -0.6911 0.0105 0.7227
vn -0.6671 -0.4122 0.6205
vn -0.1395 0.9902 0.0008
vn -0.7353 -0.0727 0.6739
vn -0.4875 0.4584 0.7432
vn 0.7461 -0.0311 -0.6651
vn -0.5626 -0.8146 0.1412
vn 0.6694 0.6904 -0.2743
vn 0.1760 0.4867 0.8556
vn -0.2667 -0.9316 -0.2470
vn 0.3059 -0.7134 -0.6305
vn -0.5741 0.4180 0.7040
vn -0.5848 -0.4986 0.6398
vn 0.3606 0.9262 0.1102
vn -0.1482 0.9379 -0.3137
vn -0.0010 0.8730 0.4876
vn 0.7223 0.0003 -0.6916
vn -0.7866 0.0853 0.6115
vn -0.7227 0.2979 0.6237
vn -0.6542 -0.7114 0.2566
vn 0.6417 0.7149 -0.2775
vn 0.3193 -0.3151 0.8937
vn -0.4157 0.7358 0.5346
vn 0.5732 -0.3806 -0.7257
vn -0.3312 -0.9174 0.2206
vn -0.2428 0.8937 0.3774
vn -0.2147 0.9282 0.3040
vn -0.1406 0.9830 0.1185
vn -0.7072 -0.4061 0.5788
vn -0.7402 -0.2400 0.6281
vn -0.0895 0.9903 0.1063
vn -0.0722 0.9512 0.3000
vn 0.7564 0.3677 -0.5409
vn -0.7029 -0.4837 0.5215
vn 0.1538 0.9239 0.3504
vn 0.1924 0.9517 0.2394
vn -0.3428 -0.9173 0.2028
vn -0.4031 -0.8158 0.4147
vn -0.4536 -0.7153 0.5315
vn 0.0641 -0.8809 -0.4689
vn 0.0151 -0.8980 -0.4396
vn 0.1541 -0.8059 -0.5716
vn -0.3907 -0.9169 -0.0813
vn -0.4427 -0.8966 -0.0100
vn -0.0497 0.9951 -0.0854
vn -0.1088 0.7856 0.6092
vn 0.1336 0.8923 0.4312
vn -0.4575 -0.8892 0.0085
vn -0.7469 -0.5275 0.4048
vn -0.7897 -0.4209 0.4463
vn -0.3742 0.6333 0.6774
vn -0.5672 0.3271 0.7558
vn -0.5551 0.4338 0.7097
vn -0.6328 0.0235 0.7740
vn -0.5129 0.5722 0.6399
vn 0.0334 0.5995 0.7997
vn 0.0132 0.7713 0.6364
vn -0.5220 -0.6289 0.5763
vn -0.5913 -0.3625 0.7204
vn -0.6169 -0.2787 0.7361
vn 0.6954 0.6165 -0.3692
vn 0.7121 0.6689 -0.2132
vn -0.1383 -0.9080 -0.3955
vn 0.5436 -0.4301 -0.7208
vn 0.4603 -0.5734 -0.6778
vn 0.6092 0.7746 -0.1699
vn 0.5711 0.8201 -0.0348
vn 0.7094 0.4454 -0.5462
vn -0.6099 0.0104 0.7924
vn 0.6897 -0.1746 -0.7027
vn 0.7253 0.0321 -0.6877
vn -0.1295 0.9681 -0.2147
vn 0.4239 0.9055 0.0160
vn 0.1616 0.3270 0.9311
vn -0.3892 0.7548 0.5281
vn 0.7507 0.2303 -0.6192
vn -0.2744 0.8765 0.3954
vn -0.5582 -0.8237 0.0991
vn -0.1492 0.7260 0.6713
vn 0.2178 0.4192 0.8814
vn -0.6135 0.6412 -0.4610
vn -0.7230 0.6710 -0.1642
vn -0.3699 -0.2081 -0.9055
vn -0.3459 -0.2657 -0.8999
vn -0.2301 -0.4509 -0.8624
vn -0.2666 0.6651 -0.6975
vn -0.1736 0.5686 -0.8041
vn 0.2599 0.0426 0.9647
vn 0.2770 -0.3833 0.8811
vn 0.3151 -0.1433 0.9382
vn -0.4333 0.7713 0.4662
vn -0.3674 0.8228 0.4336
vn 0.2422 0.9622 -0.1247
vn 0.1760 0.9843 -0.0145
vn -0.2427 0.9055 0.3480
vn -0.6119 -0.7724 0.1704
vn -0.7280 -0.3324 0.5996
vn -0.6693 -0.4455 0.5947
vn -0.3323 0.7081 0.6230
vn -0.2724 0.6458 0.7133
vn 0.7331 0.3769 -0.5662
vn -0.4374 0.5899 0.6787
vn -0.1895 0.8366 -0.5141
vn -0.1656 0.8563 -0.4893
vn -0.1901 0.8411 -0.5064
vn 0.5690 -0.0374 -0.8215
vn 0.7385 0.2749 -0.6156
vn 0.3577 -0.4718 0.8059
vn 0.2972 -0.5403 0.7872
vn 0.2475 -0.5583 0.7919
vn 0.2205 0.1619 0.9618
vn 0.4965 -0.5228 0.6930
vt 0.431186 0.009498
vt 0.433686 0.000000
vt 0.498234 0.000000
vt 0.497729 0.002892
vt 0.495609 0.010462
vt 0.493915 0.012296
vt 0.484329 0.025068
vt 0.483354 0.025597
vt 0.475092 0.029266
vt 0.462322 0.035136
vt 0.459660 0.035990
vt 0.446510 0.034107
vt 0.438565 0.031437
vt 0.431284 0.016545
vt 0.429634 0.012835
vt 0.429941 0.011275
vt 0.375000 0.021969
vt 0.375000 0.000000
vt 0.394457 0.000000
vt 0.387775 0.013875
vt 0.385956 0.015921
vt 0.382463 0.017889
vt 0.450399 0.161743
vt 0.449574 0.158767
vt 0.446365 0.145156
vt 0.451442 0.131300
vt 0.453745 0.124679
vt 0.458640 0.119168
vt 0.467179 0.112290
vt 0.480681 0.104869
vt 0.486177 0.104170
vt 0.497901 0.103383
vt 0.509324 0.101481
vt 0.513844 0.100914
vt 0.532081 0.105827
vt 0.534990 0.106774
vt 0.536603 0.108477
vt 0.549018 0.119774
vt 0.552968 0.125164
vt 0.554584 0.144709
vt 0.554634 0.145062
vt 0.554462 0.145446
vt 0.546374 0.161685
vt 0.539764 0.166692
vt 0.531767 0.173822
vt 0.524466 0.179025
vt 0.511685 0.182433
vt 0.497691 0.185639
vt 0.490737 0.184909
vt 0.475097 0.182282
vt 0.474766 0.182024
vt 0.460782 0.172196
vt 0.408324 0.616657
vt 0.410455 0.621542
vt 0.416334 0.635545
vt 0.413954 0.642417
vt 0.410735 0.650571
vt 0.404695 0.658634
vt 0.393187 0.665857
vt 0.386892 0.670768
vt 0.375000 0.673397
vt 0.375000 0.593610
vt 0.375772 0.593703
vt 0.388808 0.599872
vt 0.394631 0.602103
vt 0.403016 0.610645
vt 0.523819 0.663998
vt 0.529338 0.659381
vt 0.537997 0.656883
vt 0.547387 0.652605
vt 0.566685 0.652545
vt 0.567319 0.652432
vt 0.568485 0.652636
vt 0.586192 0.657238
vt 0.603500 0.665648
vt 0.605680 0.666648
vt 0.616252 0.679701
vt 0.625000 0.687397
vt 0.625000 0.738437
vt 0.618060 0.745797
vt 0.612662 0.747430
vt 0.602977 0.746964
vt 0.590905 0.747178
vt 0.584384 0.746926
vt 0.569598 0.742751
vt 0.556938 0.734703
vt 0.549511 0.731347
vt 0.542195 0.726662
vt 0.534799 0.718393
vt 0.522623 0.703208
vt 0.522367 0.701928
vt 0.516968 0.682142
vt 0.518922 0.677393
vt 0.390792 0.689006
vt 0.397588 0.688728
vt 0.410661 0.687525
vt 0.417551 0.689275
vt 0.430544 0.695888
vt 0.440468 0.706793
vt 0.444816 0.716509
vt 0.447893 0.727010
vt 0.447249 0.733849
vt 0.445524 0.743889
vt 0.441215 0.750000
vt 0.375000 0.750000
vt 0.375000 0.698070
vt 0.387266 0.690685
vt 0.394457 1.000000
vt 0.375000 1.000000
vt 0.375000 0.950173
vt 0.376200 0.951420
vt 0.379748 0.958792
vt 0.382852 0.964652
vt 0.388564 0.976935
vt 0.392697 0.984531
vt 0.393363 0.994037
vt 0.510898 0.937138
vt 0.488564 0.934397
vt 0.487660 0.933954
vt 0.485886 0.933133
vt 0.467814 0.923741
vt 0.453956 0.917367
vt 0.448801 0.912952
vt 0.445200 0.909997
vt 0.434388 0.900063
vt 0.427395 0.892024
vt 0.420745 0.885455
vt 0.413236 0.873563
vt 0.407458 0.866360
vt 0.400028 0.852860
vt 0.397409 0.847380
vt 0.392933 0.840362
vt 0.388140 0.827710
vt 0.382173 0.813839
vt 0.380958 0.807975
vt 0.379274 0.802949
vt 0.375000 0.788683
vt 0.443878 0.758522
vt 0.448480 0.767747
vt 0.453341 0.779175
vt 0.458815 0.788720
vt 0.461013 0.793602
vt 0.470872 0.807889
vt 0.471820 0.810414
vt 0.476782 0.818033
vt 0.484975 0.832708
vt 0.487539 0.835390
vt 0.497609 0.849843
vt 0.501964 0.857397
vt 0.503079 0.859397
vt 0.514402 0.875795
vt 0.518736 0.885880
vt 0.524591 0.895836
vt 0.530563 0.906367
vt 0.530372 0.915098
vt 0.528214 0.927584
vt 0.517945 0.935747
vt 0.513165 0.937522
vt 0.469610 0.964903
vt 0.480099 0.972969
vt 0.481404 0.974947
vt 0.488516 0.984583
vt 0.491787 0.990330
vt 0.498234 1.000000
vt 0.433686 1.000000
vt 0.431988 0.993281
vt 0.422255 0.982112
vt 0.421165 0.976473
vt 0.415907 0.958284
vt 0.413952 0.945868
vt 0.411064 0.936646
vt 0.408628 0.917477
vt 0.420080 0.930864
vt 0.432110 0.931156
vt 0.439162 0.935553
vt 0.443223 0.937243
vt 0.457455 0.951580
vt 0.458490 0.952182
vt 0.335507 0.642517
vt 0.331601 0.634702
vt 0.333543 0.625377
vt 0.338607 0.613306
vt 0.346924 0.605344
vt 0.358157 0.600130
vt 0.364452 0.596432
vt 0.373188 0.593870
vt 0.362402 0.668689
vt 0.355540 0.666621
vt 0.349700 0.662871
vt 0.340060 0.652807
vt 0.260181 0.612337
vt 0.261475 0.619337
vt 0.266213 0.629566
vt 0.262495 0.645900
vt 0.258586 0.654571
vt 0.251008 0.660223
vt 0.242419 0.665152
vt 0.235400 0.667837
vt 0.227712 0.667503
vt 0.213116 0.669133
vt 0.200117 0.664592
vt 0.190774 0.661767
vt 0.180093 0.652073
vt 0.175302 0.648601
vt 0.169805 0.636394
vt 0.166999 0.628811
vt 0.167740 0.622883
vt 0.169821 0.606721
vt 0.181027 0.595369
vt 0.185197 0.590758
vt 0.191493 0.588018
vt 0.205173 0.583987
vt 0.220251 0.585635
vt 0.226314 0.585875
vt 0.230548 0.587083
vt 0.245898 0.596761
vt 0.257002 0.607402
vt 0.336317 0.750000
vt 0.329928 0.746048
vt 0.326056 0.733081
vt 0.326801 0.724906
vt 0.330705 0.721767
vt 0.344069 0.709587
vt 0.348940 0.708167
vt 0.364250 0.700913
vt 0.365859 0.700323
vt 0.371267 0.698913
vt 0.176033 0.748649
vt 0.174827 0.750000
vt 0.125000 0.750000
vt 0.125000 0.728031
vt 0.128528 0.726622
vt 0.141128 0.720900
vt 0.142529 0.720531
vt 0.144665 0.719610
vt 0.160781 0.722080
vt 0.173460 0.723269
vt 0.175658 0.736807
vt 0.285848 0.698050
vt 0.295900 0.707050
vt 0.297283 0.711021
vt 0.297162 0.726291
vt 0.297147 0.730568
vt 0.295448 0.733686
vt 0.291773 0.735327
vt 0.288143 0.737977
vt 0.281328 0.741909
vt 0.277108 0.745126
vt 0.266437 0.745266
vt 0.255760 0.747142
vt 0.244385 0.746369
vt 0.238328 0.744700
vt 0.232505 0.742430
vt 0.220946 0.738897
vt 0.213619 0.735784
vt 0.208858 0.729093
vt 0.203260 0.720280
vt 0.207602 0.707929
vt 0.208542 0.704572
vt 0.219271 0.699572
vt 0.230601 0.690908
vt 0.231011 0.690712
vt 0.231212 0.690728
vt 0.234062 0.690343
vt 0.254806 0.687838
vt 0.257550 0.687524
vt 0.279619 0.695225
vt 0.282352 0.695791
vt 0.661106 0.676739
vt 0.661107 0.676738
vt 0.672084 0.663296
vt 0.682711 0.650559
vt 0.683702 0.649342
vt 0.685072 0.647907
vt 0.699985 0.638147
vt 0.715851 0.629577
vt 0.719816 0.627378
vt 0.722534 0.625611
vt 0.747518 0.620365
vt 0.749280 0.619807
vt 0.754001 0.619899
vt 0.771955 0.623099
vt 0.786794 0.637251
vt 0.787936 0.640186
vt 0.785959 0.657984
vt 0.780346 0.670465
vt 0.777919 0.677473
vt 0.772282 0.685194
vt 0.765202 0.692421
vt 0.762400 0.694229
vt 0.751902 0.703247
vt 0.746619 0.706653
vt 0.737822 0.713356
vt 0.724553 0.721673
vt 0.721673 0.723943
vt 0.709209 0.729332
vt 0.706482 0.730296
vt 0.705136 0.730717
vt 0.693256 0.734161
vt 0.683194 0.737726
vt 0.675374 0.734799
vt 0.658769 0.728403
vt 0.654430 0.716112
vt 0.651242 0.702771
vt 0.653801 0.695398
vt 0.661106 0.676740
vt 0.635404 0.718242
vt 0.632788 0.725890
vt 0.629060 0.730819
vt 0.627006 0.688338
vt 0.635404 0.697185
vt 0.638159 0.706806
vt 0.000000 0.000000
s 0
f 410/1/1 407/2/1 411/3/1 405/4/1 406/5/1 418/6/1 419/7/1 417/8/1 416/9/1 423/10/1 422/11/1 415/12/1 414/13/1 412/14/1 413/15/1 409/16/1
f 436/17/1 1/18/1 408/19/1 439/20/1 438/21/1 437/22/1
f 452/23/1 441/24/1 440/25/1 442/26/1 443/27/1 444/28/1 445/29/1 420/30/1 421/31/1 434/32/1 425/33/1 424/34/1 426/35/1 435/36/1 433/37/1 428/38/1 427/39/1 429/40/1 432/41/1 431/42/1 430/43/1 455/44/1 454/45/1 453/46/1 450/47/1 446/48/1 447/49/1 448/50/1 449/51/1 451/52/1
f 503/53/2 496/54/2 497/55/2 494/56/2 495/57/2 493/58/2 491/59/2 489/60/2 490/61/2 502/62/2 501/63/2 500/64/2 498/65/2 499/66/2
f 504/67/2 506/68/2 464/69/2 461/70/2 463/71/2 462/72/2 466/73/2 465/74/2 459/75/2 457/76/2 458/77/2 460/78/2 456/79/2 474/80/2 469/81/2 468/82/2 467/83/2 471/84/2 470/85/2 473/86/2 480/87/2 478/88/2 479/89/2 482/90/2 481/91/2 509/92/2 505/93/2
f 492/94/2 487/95/2 488/96/2 486/97/2 483/98/2 484/99/2 477/100/2 475/101/2 476/102/2 485/103/2 472/104/2 2/105/2 508/106/2 507/107/2
f 408/108/3 1/109/3 536/110/3 535/111/3 542/112/3 543/113/3 528/114/3 530/115/3 526/116/3
f 539/117/3 573/118/3 572/119/3 571/120/3 550/121/3 551/122/3 552/123/3 553/124/3 556/125/3 557/126/3 561/127/3 560/128/3 558/129/3 559/130/3 562/131/3 563/132/3 564/133/3 568/134/3 567/135/3 566/136/3 565/137/3 2/105/3 472/104/3 525/138/3 523/139/3 524/140/3 520/141/3 519/142/3 518/143/3 521/144/3 522/145/3 515/146/3 513/147/3 514/148/3 516/149/3 517/150/3 512/151/3 511/152/3 510/153/3 574/154/3 575/155/3 576/156/3 540/157/3 541/158/3
f 548/159/3 549/160/3 532/161/3 533/162/3 534/163/3 411/164/3 407/165/3 527/166/3 531/167/3 529/168/3 544/169/3 538/170/3 537/171/3 569/172/3 570/173/3 554/174/3 555/175/3 546/176/3 545/177/3 547/178/3
f 585/179/4 581/180/4 584/181/4 586/182/4 601/183/4 596/184/4 600/185/4 599/186/4 502/62/4 490/61/4 591/187/4 592/188/4 595/189/4 587/190/4
f 589/191/4 583/192/4 582/193/4 645/194/4 644/195/4 638/196/4 647/197/4 637/198/4 628/199/4 625/200/4 617/201/4 616/202/4 615/203/4 613/204/4 609/205/4 608/206/4 607/207/4 614/208/4 619/209/4 618/210/4 620/211/4 631/212/4 577/213/4 578/214/4 580/215/4 579/216/4 588/217/4
f 2/105/4 565/218/4 661/219/4 656/220/4 657/221/4 660/222/4 594/223/4 593/224/4 590/225/4 598/226/4 597/227/4 508/106/4
f 610/228/4 536/229/4 1/230/4 436/231/4 602/232/4 606/233/4 605/234/4 604/235/4 603/236/4 612/237/4 611/238/4
f 648/239/4 662/240/4 659/241/4 658/242/4 654/243/4 653/244/4 651/245/4 652/246/4 655/247/4 641/248/4 642/249/4 643/250/4 646/251/4 636/252/4 635/253/4 622/254/4 621/255/4 623/256/4 630/257/4 629/258/4 626/259/4 624/260/4 627/261/4 632/262/4 633/263/4 634/264/4 639/265/4 640/266/4 650/267/4 649/268/4
f 687/269/5 688/270/5 693/271/5 703/272/5 704/273/5 706/274/5 686/275/5 679/276/5 678/277/5 680/278/5 666/279/5 668/280/5 667/281/5 669/282/5 665/283/5 663/284/5 664/285/5 670/286/5 671/287/5 672/288/5 674/289/5 673/290/5 675/291/5 677/292/5 676/293/5 681/294/5 682/295/5 683/296/5 685/297/5 684/298/5 705/299/5 701/300/5 692/301/5 690/302/5 691/303/5 697/304/5 702/305/5 689/306/5
f 694/307/5 699/308/5 698/309/5 456/79/5 460/78/5 700/310/5 695/311/5 696/312/5
s 1
f 431/313/6 432/313/7 11/313/8
f 421/313/9 420/313/10 4/313/11
f 435/313/12 426/313/13 3/313/14
f 419/313/15 6/313/16 417/313/17
f 438/313/18 9/313/19 437/313/20
f 445/313/21 444/313/22 5/313/23
f 417/313/17 6/313/16 416/313/24
f 433/313/25 435/313/12 3/313/14
f 24/313/26 3/313/14 426/313/13 424/313/27
f 10/313/28 6/313/16 419/313/15 418/313/29
f 13/313/30 15/313/31 450/313/32 453/313/33
f 438/313/18 439/313/34 9/313/19
f 445/313/21 5/313/23 4/313/11 420/313/10
f 434/313/35 421/313/9 4/313/11
f 454/313/36 13/313/30 453/313/33
f 437/313/20 9/313/19 602/313/37 436/313/38
f 422/313/39 22/313/40 415/313/41
f 527/313/42 407/313/43 410/313/44
f 6/313/16 20/313/45 423/313/46 416/313/24
f 3/313/14 17/313/47 428/313/48 433/313/25
f 534/313/49 10/313/28 405/313/50 411/313/51
f 443/313/52 26/313/53 5/313/23 444/313/22
f 32/313/54 3/313/14 24/313/26
f 455/313/55 13/313/30 454/313/36
f 440/313/56 7/313/57 442/313/58
f 7/313/57 26/313/53 443/313/52 442/313/58
f 441/313/59 7/313/57 440/313/56
f 448/313/60 8/313/61 21/313/62 449/313/63
f 449/313/63 21/313/62 451/313/64
f 16/313/65 11/313/8 429/313/66 427/313/67
f 4/313/11 12/313/68 425/313/69 434/313/35
f 12/313/68 24/313/26 424/313/27 425/313/69
f 9/313/19 25/313/70 606/313/71 602/313/37
f 17/313/47 16/313/65 427/313/67 428/313/48
f 32/313/54 17/313/47 3/313/14
f 20/313/45 22/313/40 422/313/39 423/313/46
f 451/313/64 21/313/62 452/313/72
f 21/313/62 7/313/57 441/313/59 452/313/72
f 6/313/16 10/313/28 29/313/73
f 20/313/45 6/313/16 29/313/73
f 526/313/74 9/313/19 439/313/34 408/313/75
f 7/313/57 39/313/76 26/313/53
f 533/313/77 29/313/73 10/313/28 534/313/49
f 21/313/62 39/313/76 7/313/57
f 14/313/78 18/313/79 409/313/80 413/313/81
f 19/313/82 44/313/83 13/313/30
f 16/313/65 27/313/84 11/313/8
f 11/313/8 27/313/84 19/313/82
f 605/313/85 606/313/71 25/313/70
f 33/313/86 4/313/11 5/313/23
f 31/313/87 12/313/68 4/313/11
f 528/313/88 34/313/89 530/313/90
f 23/313/91 14/313/78 413/313/81 412/313/92
f 33/313/86 31/313/87 4/313/11
f 27/313/84 54/313/93 19/313/82
f 530/313/90 34/313/89 9/313/19 526/313/74
f 34/313/89 25/313/70 9/313/19
f 41/313/94 15/313/31 13/313/30
f 44/313/83 41/313/94 13/313/30
f 409/313/80 18/313/79 531/313/95 527/313/42 410/313/44
f 17/313/47 42/313/96 16/313/65
f 20/313/45 37/313/97 22/313/40
f 532/313/98 29/313/73 533/313/77
f 15/313/31 40/313/99 8/313/61
f 15/313/31 41/313/94 40/313/99
f 36/313/100 27/313/84 16/313/65
f 32/313/54 42/313/96 17/313/47
f 42/313/96 36/313/100 16/313/65
f 44/313/83 19/313/82 54/313/93
f 20/313/45 29/313/73 49/313/101
f 37/313/97 20/313/45 49/313/101
f 26/313/53 33/313/86 5/313/23
f 43/313/102 39/313/76 21/313/62
f 25/313/70 604/313/103 605/313/85
f 14/313/78 23/313/91 46/313/104
f 18/313/79 14/313/78 30/313/105
f 30/313/105 14/313/78 35/313/106
f 24/313/26 12/313/68 38/313/107
f 38/313/107 32/313/54 24/313/26
f 40/313/99 43/313/102 8/313/61
f 61/313/108 18/313/79 30/313/105
f 529/313/109 531/313/95 18/313/79
f 36/313/100 59/313/110 27/313/84
f 529/313/109 18/313/79 61/313/108 544/313/111
f 39/313/76 33/313/86 26/313/53
f 549/313/112 548/313/113 28/313/114
f 59/313/110 54/313/93 27/313/84
f 42/313/96 45/313/115 36/313/100
f 50/313/116 25/313/70 34/313/89
f 604/313/103 25/313/70 50/313/116 603/313/117
f 48/313/118 12/313/68 31/313/87
f 48/313/118 38/313/107 12/313/68
f 49/313/101 29/313/73 28/313/114
f 39/313/76 53/313/119 33/313/86
f 58/313/120 42/313/96 32/313/54
f 22/313/40 37/313/97 51/313/121
f 46/313/104 22/313/40 51/313/121
f 53/313/119 31/313/87 33/313/86
f 543/313/122 34/313/89 528/313/88
f 542/313/123 50/313/116 34/313/89 543/313/122
f 43/313/102 55/313/124 39/313/76
f 58/313/120 32/313/54 38/313/107
f 547/313/125 545/313/126 52/313/127
f 37/313/97 49/313/101 63/313/128
f 51/313/121 37/313/97 63/313/128
f 57/313/129 42/313/96 58/313/120
f 44/313/83 75/313/130 41/313/94
f 39/313/76 55/313/124 53/313/119
f 41/313/94 75/313/130 40/313/99
f 57/313/129 45/313/115 42/313/96
f 54/313/93 71/313/131 44/313/83
f 64/313/132 31/313/87 53/313/119
f 48/313/118 31/313/87 64/313/132
f 30/313/105 35/313/106 56/313/133
f 70/313/134 35/313/106 47/313/135
f 65/313/136 55/313/124 43/313/102
f 68/313/137 59/313/110 36/313/100
f 45/313/115 68/313/137 36/313/100
f 59/313/110 67/313/138 54/313/93
f 40/313/99 65/313/136 43/313/102
f 56/313/133 35/313/106 70/313/134
f 44/313/83 71/313/131 75/313/130
f 89/313/139 58/313/120 38/313/107
f 541/313/140 81/313/141 539/313/142
f 65/313/136 40/313/99 75/313/130
f 614/313/143 607/313/144 66/313/145
f 50/313/116 612/313/146 603/313/117
f 61/313/108 538/313/147 544/313/111
f 51/313/121 79/313/148 47/313/135
f 60/313/149 38/313/107 48/313/118
f 60/313/149 89/313/139 38/313/107
f 30/313/105 56/313/133 95/313/150
f 536/313/151 610/313/152 535/313/153
f 55/313/124 77/313/154 53/313/119
f 57/313/129 84/313/155 45/313/115
f 64/313/132 60/313/149 48/313/118
f 609/313/156 613/313/157 73/313/158
f 68/313/137 91/313/159 59/313/110
f 50/313/116 542/313/123 535/313/153 610/313/152 611/313/160
f 612/313/146 50/313/116 611/313/160
f 53/313/119 77/313/154 64/313/132
f 54/313/93 67/313/138 71/313/131
f 81/313/141 541/313/140 540/313/161
f 96/313/162 618/313/163 619/313/164 66/313/145
f 62/313/165 66/313/145 607/313/144 608/313/166
f 74/313/167 77/313/154 55/313/124
f 45/313/115 82/313/168 68/313/137
f 84/313/155 82/313/168 45/313/115
f 89/313/139 69/313/169 58/313/120
f 58/313/120 69/313/169 57/313/129
f 65/313/136 74/313/167 55/313/124
f 59/313/110 91/313/159 67/313/138
f 49/313/101 80/313/170 63/313/128
f 538/313/147 61/313/108 95/313/150 537/313/171
f 71/313/131 102/313/172 75/313/130
f 92/313/173 60/313/149 64/313/132
f 66/313/145 62/313/165 72/313/174
f 620/313/175 618/313/163 96/313/162 120/313/176
f 62/313/165 73/313/158 76/313/177
f 72/313/174 62/313/165 76/313/177
f 70/313/134 47/313/135 79/313/148
f 77/313/154 92/313/173 64/313/132
f 100/313/178 74/313/167 65/313/136
f 75/313/130 100/313/178 65/313/136
f 615/313/179 73/313/158 613/313/157
f 57/313/129 78/313/180 84/313/155
f 78/313/180 57/313/129 69/313/169
f 96/313/162 66/313/145 72/313/174
f 82/313/168 103/313/181 68/313/137
f 68/313/137 103/313/181 91/313/159
f 572/313/182 83/313/183 571/313/184
f 52/313/127 545/313/126 546/313/185 86/313/186
f 546/313/185 555/313/187 86/313/186
f 91/313/159 117/313/188 67/313/138
f 124/313/189 69/313/169 89/313/139
f 56/313/133 70/313/134 88/313/190
f 70/313/134 79/313/148 99/313/191
f 67/313/138 109/313/192 71/313/131
f 90/313/193 82/313/168 84/313/155
f 79/313/148 107/313/194 112/313/195
f 60/313/149 105/313/196 89/313/139
f 73/313/158 402/313/197 76/313/177
f 86/313/186 80/313/170 52/313/127
f 631/313/198 620/313/175 120/313/176
f 60/313/149 92/313/173 105/313/196
f 74/313/167 113/313/199 77/313/154
f 102/313/172 100/313/178 75/313/130
f 86/313/186 104/313/200 80/313/170
f 113/313/199 92/313/173 77/313/154
f 85/313/201 72/313/174 76/313/177
f 93/313/202 72/313/174 85/313/201
f 78/313/180 97/313/203 84/313/155
f 56/313/133 88/313/190 87/313/204
f 389/313/205 80/313/170 104/313/200
f 83/313/183 81/313/141 396/313/206
f 86/313/186 555/313/187 554/313/207 98/313/208
f 97/313/203 94/313/209 84/313/155
f 617/313/210 402/313/197 616/313/211
f 72/313/174 108/313/212 96/313/162
f 107/313/194 63/313/128 389/313/205
f 94/313/209 90/313/193 84/313/155
f 93/313/202 108/313/212 72/313/174
f 109/313/192 102/313/172 71/313/131
f 101/313/213 111/313/214 76/313/177
f 111/313/214 85/313/201 76/313/177
f 98/313/208 570/313/215 569/313/216 106/313/217
f 91/313/159 122/313/218 117/313/188
f 70/313/134 99/313/191 88/313/190
f 87/313/204 88/313/190 116/313/219
f 90/313/193 103/313/181 82/313/168
f 104/313/200 86/313/186 98/313/208
f 117/313/188 109/313/192 67/313/138
f 88/313/190 131/313/220 116/313/219
f 88/313/190 99/313/191 131/313/220
f 99/313/191 79/313/148 112/313/195
f 97/313/203 78/313/180 138/313/221
f 83/313/183 115/313/222 550/313/223 571/313/184
f 105/313/196 124/313/189 89/313/139
f 103/313/181 122/313/218 91/313/159
f 396/313/206 81/313/141 395/313/224
f 95/313/150 106/313/217 569/313/216 537/313/171
f 115/313/222 83/313/183 396/313/206
f 115/313/222 121/313/225 551/313/226 550/313/223
f 93/313/202 85/313/201 118/313/227
f 118/313/227 85/313/201 111/313/214
f 87/313/204 116/313/219 629/313/228 630/313/229
f 78/313/180 69/313/169 138/313/221
f 96/313/162 108/313/212 120/313/176
f 97/313/203 123/313/230 94/313/209
f 551/313/226 121/313/225 552/313/231
f 110/313/232 87/313/204 630/313/229 623/313/233
f 625/313/234 146/313/235 402/313/197 617/313/210
f 100/313/178 114/313/236 74/313/167
f 138/313/221 144/313/237 123/313/230
f 138/313/221 123/313/230 97/313/203
f 109/313/192 127/313/238 102/313/172
f 146/313/235 101/313/213 402/313/197
f 114/313/236 113/313/199 74/313/167
f 127/313/238 114/313/236 100/313/178
f 146/313/235 130/313/239 101/313/213
f 111/313/214 101/313/213 130/313/239
f 102/313/172 127/313/238 100/313/178
f 93/313/202 118/313/227 139/313/240
f 119/313/241 103/313/181 90/313/193
f 137/313/242 105/313/196 92/313/173
f 113/313/199 137/313/242 92/313/173
f 135/313/243 108/313/212 93/313/202
f 119/313/241 155/313/244 103/313/181
f 115/313/222 136/313/245 163/313/246
f 129/313/247 395/313/224 575/313/248 574/313/249
f 94/313/209 119/313/241 90/313/193
f 126/313/250 138/313/221 69/313/169
f 69/313/169 124/313/189 126/313/250
f 123/313/230 382/313/251 94/313/209
f 117/313/188 141/313/252 109/313/192
f 125/313/253 99/313/191 112/313/195
f 133/313/254 104/313/200 98/313/208
f 137/313/242 124/313/189 105/313/196
f 552/313/231 121/313/225 553/313/255
f 145/313/256 112/313/195 107/313/194
f 93/313/202 139/313/240 135/313/243
f 108/313/212 154/313/257 120/313/176
f 120/313/176 577/313/258 631/313/198
f 159/313/259 108/313/212 135/313/243
f 109/313/192 141/313/252 127/313/238
f 118/313/227 111/313/214 128/313/260
f 623/313/233 621/313/261 110/313/232
f 628/313/262 146/313/235 625/313/234
f 119/313/241 94/313/209 664/313/263 663/313/264
f 664/313/263 94/313/209 382/313/251 670/313/265
f 111/313/214 130/313/239 128/313/260
f 108/313/212 159/313/259 154/313/257
f 114/313/236 134/313/266 113/313/199
f 134/313/266 137/313/242 113/313/199
f 156/313/267 121/313/225 115/313/222
f 156/313/267 115/313/222 163/313/246
f 136/313/245 396/313/206 129/313/247
f 130/313/239 146/313/235 151/313/268
f 116/313/219 131/313/220 624/313/269 626/313/270
f 155/313/244 122/313/218 103/313/181
f 116/313/219 626/313/270 629/313/228
f 119/313/241 663/313/264 665/313/271
f 125/313/253 132/313/272 99/313/191
f 131/313/220 99/313/191 132/313/272
f 106/313/217 160/313/273 98/313/208
f 139/313/240 118/313/227 390/313/274
f 669/313/275 155/313/244 119/313/241 665/313/271
f 120/313/176 154/313/257 578/313/276 577/313/258
f 125/313/253 112/313/195 145/313/256
f 129/313/247 574/313/249 510/313/277
f 135/313/243 139/313/240 166/313/278
f 155/313/244 177/313/279 122/313/218
f 622/313/280 150/313/281 110/313/232 621/313/261
f 121/313/225 156/313/267 162/313/282
f 121/313/225 162/313/282 556/313/283 553/313/255
f 122/313/218 147/313/284 117/313/188
f 177/313/279 147/313/284 122/313/218
f 124/313/189 137/313/242 399/313/285
f 143/313/286 106/313/217 150/313/281
f 125/313/253 153/313/287 132/313/272
f 136/313/245 129/313/247 186/313/288
f 148/313/289 138/313/221 126/313/250
f 144/313/237 138/313/221 148/313/289
f 147/313/284 141/313/252 117/313/188
f 148/313/289 126/313/250 157/313/290
f 149/313/291 123/313/230 144/313/237
f 98/313/208 160/313/273 133/313/254
f 153/313/287 125/313/253 145/313/256
f 637/313/292 151/313/268 146/313/235 628/313/262
f 132/313/272 632/313/293 627/313/294 131/313/220
f 131/313/220 627/313/294 624/313/269
f 160/313/273 106/313/217 143/313/286
f 128/313/260 130/313/239 158/313/295
f 128/313/260 158/313/295 140/313/296
f 184/313/297 135/313/243 166/313/278
f 671/313/298 670/313/265 382/313/251
f 127/313/238 165/313/299 114/313/236
f 114/313/236 165/313/299 134/313/266
f 130/313/239 174/313/300 158/313/295
f 164/313/301 145/313/256 133/313/254
f 133/313/254 160/313/273 164/313/301
f 184/313/297 159/313/259 135/313/243
f 136/313/245 186/313/288 182/313/302
f 136/313/245 182/313/302 163/313/246
f 145/313/256 164/313/301 153/313/287
f 173/313/303 127/313/238 141/313/252
f 142/313/304 152/313/305 390/313/274
f 635/313/306 176/313/307 150/313/281 622/313/280
f 160/313/273 143/313/286 175/313/308
f 127/313/238 173/313/303 165/313/299
f 130/313/239 151/313/268 174/313/300
f 189/313/309 149/313/291 144/313/237
f 382/313/251 672/313/310 671/313/298
f 176/313/307 143/313/286 150/313/281
f 156/313/267 163/313/246 191/313/311
f 557/313/312 556/313/283 162/313/282
f 154/313/257 181/313/313 580/313/314 578/313/276
f 158/313/295 174/313/300 203/313/315
f 162/313/282 187/313/316 561/313/317 557/313/312
f 155/313/244 669/313/275 667/313/318
f 636/313/319 176/313/307 635/313/306
f 152/313/305 140/313/296 401/313/320
f 510/313/277 511/313/321 129/313/247
f 512/313/322 186/313/288 129/313/247 511/313/321
f 165/313/299 172/313/323 134/313/266
f 185/313/324 141/313/252 147/313/284
f 132/313/272 153/313/287 167/313/325
f 132/313/272 167/313/325 633/313/326 632/313/293
f 153/313/287 164/313/301 178/313/327
f 172/313/323 157/313/290 399/313/285
f 181/313/313 154/313/257 159/313/259
f 180/313/328 153/313/287 178/313/327
f 140/313/296 158/313/295 168/313/329
f 401/313/320 140/313/296 168/313/329
f 668/313/330 177/313/279 155/313/244 667/313/318
f 579/313/331 580/313/314 181/313/313
f 166/313/278 393/313/332 194/313/333
f 177/313/279 185/313/324 147/313/284
f 185/313/324 173/313/303 141/313/252
f 156/313/267 191/313/311 192/313/334
f 156/313/267 192/313/334 162/313/282
f 148/313/289 171/313/335 144/313/237
f 171/313/335 189/313/309 144/313/237
f 170/313/336 143/313/286 176/313/307
f 175/313/308 143/313/286 170/313/336
f 169/313/337 149/313/291 189/313/309
f 190/313/338 171/313/335 148/313/289
f 203/313/315 168/313/329 158/313/295
f 560/313/339 561/313/317 187/313/316
f 184/313/297 199/313/340 159/313/259
f 181/313/313 159/313/259 199/313/340
f 153/313/287 180/313/328 167/313/325
f 169/313/337 675/313/341 673/313/342
f 151/313/268 637/313/292 647/313/343 383/313/344
f 175/313/308 178/313/327 160/313/273
f 187/313/316 162/313/282 192/313/334
f 191/313/311 163/313/246 197/313/345
f 163/313/246 182/313/302 197/313/345
f 151/313/268 207/313/346 174/313/300
f 173/313/303 172/313/323 165/313/299
f 166/313/278 194/313/333 210/313/347
f 184/313/297 166/313/278 210/313/347
f 185/313/324 193/313/348 173/313/303
f 168/313/329 203/313/315 212/313/349
f 168/313/329 212/313/349 401/313/320
f 675/313/341 169/313/337 195/313/350 677/313/351
f 634/313/352 633/313/326 167/313/325 198/313/353
f 639/313/354 634/313/352 198/313/353
f 177/313/279 221/313/355 185/313/324
f 194/313/333 161/313/356 397/313/357
f 187/313/316 218/313/358 558/313/359 560/313/339
f 588/313/360 579/313/331 181/313/313 202/313/361
f 195/313/350 676/313/362 677/313/351
f 206/313/363 190/313/338 157/313/290
f 187/313/316 192/313/334 208/313/364
f 186/313/288 512/313/322 517/313/365
f 193/313/348 206/313/363 172/313/323
f 193/313/348 172/313/323 173/313/303
f 167/313/325 180/313/328 200/313/366
f 174/313/300 207/313/346 227/313/367
f 174/313/300 227/313/367 203/313/315
f 199/313/340 184/313/297 231/313/368
f 643/313/369 170/313/336 176/313/307 646/313/370
f 212/313/349 220/313/371 401/313/320
f 401/313/320 220/313/371 188/313/372
f 221/313/355 214/313/373 185/313/324
f 235/313/374 192/313/334 191/313/311
f 182/313/302 186/313/288 216/313/375
f 197/313/345 182/313/302 216/313/375
f 176/313/307 636/313/319 646/313/370
f 183/313/376 188/313/372 211/313/377
f 175/313/308 170/313/336 209/313/378
f 588/313/360 202/313/361 589/313/379
f 184/313/297 210/313/347 231/313/368
f 642/313/380 224/313/381 170/313/336 643/313/369
f 209/313/378 170/313/336 224/313/381
f 196/313/382 181/313/313 199/313/340
f 202/313/361 181/313/313 196/313/382
f 223/313/383 177/313/279 668/313/330 666/313/384
f 214/313/373 193/313/348 185/313/324
f 198/313/353 167/313/325 200/313/366
f 244/313/385 190/313/338 206/313/363
f 516/313/386 216/313/375 186/313/288 517/313/365
f 189/313/309 233/313/387 169/313/337
f 233/313/387 195/313/350 169/313/337
f 171/313/335 201/313/388 189/313/309
f 201/313/388 171/313/335 190/313/338
f 201/313/388 233/313/387 189/313/309
f 201/313/388 190/313/338 244/313/385
f 645/313/389 219/313/390 644/313/391
f 192/313/334 235/313/374 208/313/364
f 196/313/382 199/313/340 231/313/368
f 177/313/279 223/313/383 221/313/355
f 589/313/379 202/313/361 583/313/392
f 200/313/366 180/313/328 205/313/393
f 251/313/394 210/313/347 194/313/333
f 205/313/393 175/313/308 209/313/378
f 640/313/395 639/313/354 198/313/353
f 234/313/396 191/313/311 197/313/345
f 235/313/374 191/313/311 234/313/396
f 212/313/349 203/313/315 217/313/397
f 246/313/398 194/313/333 397/313/357
f 251/313/394 194/313/333 246/313/398
f 559/313/399 558/313/359 218/313/358
f 644/313/391 219/313/390 383/313/344 638/313/400
f 208/313/364 235/313/374 237/313/401
f 223/313/383 666/313/384 680/313/402
f 216/313/375 254/313/403 197/313/345
f 211/313/377 188/313/372 225/313/404
f 234/313/396 197/313/345 254/313/403
f 215/313/405 206/313/363 193/313/348
f 198/313/353 222/313/406 650/313/407 640/313/395
f 204/313/408 211/313/377 228/313/409
f 178/313/327 175/313/308 205/313/393
f 226/313/410 204/313/408 228/313/409
f 226/313/410 179/313/411 204/313/408
f 213/313/412 582/313/413 583/313/392 202/313/361
f 403/313/414 397/313/357 226/313/410
f 246/313/398 397/313/357 403/313/414
f 212/313/349 217/313/397 260/313/415
f 582/313/413 213/313/412 219/313/390 645/313/389
f 214/313/373 215/313/405 193/313/348
f 676/313/362 195/313/350 242/313/416 681/313/417
f 200/313/366 205/313/393 238/313/418
f 196/313/382 231/313/368 232/313/419
f 203/313/315 227/313/367 217/313/397
f 217/313/397 227/313/367 256/313/420
f 227/313/367 207/313/346 236/313/421
f 222/313/406 198/313/353 200/313/366
f 188/313/372 249/313/422 225/313/404
f 188/313/372 220/313/371 249/313/422
f 219/313/390 236/313/421 207/313/346
f 215/313/405 244/313/385 206/313/363
f 228/313/409 211/313/377 243/313/423
f 205/313/393 209/313/378 230/313/424
f 253/313/425 210/313/347 251/313/394
f 231/313/368 210/313/347 253/313/425
f 243/313/423 211/313/377 225/313/404
f 260/313/415 220/313/371 212/313/349
f 218/313/358 394/313/426 562/313/427 559/313/399
f 233/313/387 242/313/416 195/313/350
f 232/313/419 202/313/361 196/313/382
f 223/313/383 252/313/428 221/313/355
f 214/313/373 252/313/428 215/313/405
f 641/313/429 224/313/381 642/313/380
f 202/313/361 232/313/419 213/313/412
f 230/313/424 209/313/378 224/313/381
f 263/313/430 220/313/371 260/313/415
f 244/313/385 275/313/431 201/313/388
f 263/313/430 249/313/422 220/313/371
f 238/313/418 205/313/393 230/313/424
f 252/313/428 214/313/373 221/313/355
f 514/313/432 262/313/433 216/313/375 516/313/386
f 513/313/434 262/313/433 514/313/432
f 242/313/416 682/313/435 681/313/417
f 272/313/436 223/313/383 680/313/402 678/313/437
f 655/313/438 230/313/424 224/313/381 641/313/429
f 219/313/390 213/313/412 245/313/439
f 219/313/390 245/313/439 236/313/421
f 243/313/423 225/313/404 257/313/440
f 236/313/421 256/313/420 227/313/367
f 235/313/374 234/313/396 268/313/441
f 258/313/442 403/313/414 229/313/443
f 255/313/444 244/313/385 215/313/405
f 213/313/412 232/313/419 239/313/445
f 254/313/403 216/313/375 262/313/433
f 223/313/383 272/313/436 252/313/428
f 222/313/406 200/313/366 238/313/418
f 245/313/439 213/313/412 239/313/445
f 201/313/388 275/313/431 241/313/446
f 229/313/443 228/313/409 247/313/447
f 394/313/426 248/313/448 563/313/449 562/313/427
f 225/313/404 249/313/422 257/313/440
f 232/313/419 231/313/368 259/313/450
f 259/313/450 231/313/368 253/313/425
f 282/313/451 246/313/398 403/313/414
f 267/313/452 242/313/416 233/313/387
f 222/313/406 238/313/418 264/313/453
f 649/313/454 650/313/407 222/313/406
f 243/313/423 257/313/440 274/313/455
f 235/313/374 268/313/441 237/313/401
f 679/313/456 269/313/457 272/313/436 678/313/437
f 230/313/424 655/313/438 652/313/458
f 241/313/446 267/313/452 233/313/387
f 256/313/420 236/313/421 250/313/459
f 253/313/425 251/313/394 281/313/460
f 215/313/405 252/313/428 255/313/444
f 240/313/461 273/313/462 271/313/463
f 222/313/406 648/313/464 649/313/454
f 282/313/451 403/313/414 258/313/442
f 682/313/435 242/313/416 683/313/465
f 270/313/466 243/313/423 278/313/467
f 278/313/467 243/313/423 274/313/455
f 244/313/385 255/313/444 275/313/431
f 651/313/468 261/313/469 230/313/424 652/313/458
f 234/313/396 254/313/403 268/313/441
f 269/313/457 679/313/456 686/313/470
f 237/313/401 268/313/441 284/313/471
f 277/313/472 217/313/397 256/313/420
f 236/313/421 245/313/439 250/313/459
f 245/313/439 239/313/445 250/313/459
f 515/313/473 262/313/433 513/313/434
f 277/313/472 260/313/415 217/313/397
f 293/313/474 251/313/394 246/313/398
f 246/313/398 282/313/451 293/313/474
f 281/313/460 251/313/394 293/313/474
f 271/313/463 248/313/448 394/313/426
f 249/313/422 263/313/430 280/313/475
f 222/313/406 264/313/453 662/313/476 648/313/464
f 258/313/442 229/313/443 266/313/477
f 262/313/433 289/313/478 254/313/403
f 683/313/465 242/313/416 267/313/452 685/313/479
f 238/313/418 230/313/424 264/313/453
f 290/313/480 248/313/448 271/313/463
f 257/313/440 249/313/422 280/313/475
f 256/313/420 250/313/459 285/313/481
f 232/313/419 265/313/482 239/313/445
f 250/313/459 239/313/445 265/313/482
f 264/313/453 230/313/424 261/313/469
f 237/313/401 284/313/471 273/313/462
f 265/313/482 232/313/419 259/313/450
f 253/313/425 281/313/460 276/313/483
f 259/313/450 253/313/425 276/313/483
f 257/313/440 280/313/475 288/313/484
f 254/313/403 298/313/485 268/313/441
f 254/313/403 289/313/478 298/313/485
f 279/313/486 255/313/444 252/313/428
f 272/313/436 279/313/486 252/313/428
f 286/313/487 247/313/447 270/313/466
f 285/313/481 277/313/472 256/313/420
f 265/313/482 285/313/481 250/313/459
f 273/313/462 284/313/471 303/313/488
f 274/313/455 257/313/440 288/313/484
f 276/313/483 291/313/489 259/313/450
f 306/313/490 260/313/415 277/313/472
f 658/313/491 659/313/492 264/313/453 261/313/469
f 260/313/415 306/313/490 263/313/430
f 275/313/431 294/313/493 241/313/446
f 290/313/480 301/313/494 248/313/448
f 521/313/495 289/313/478 262/313/433 522/313/496
f 262/313/433 515/313/473 522/313/496
f 685/313/479 267/313/452 297/313/497 684/313/498
f 263/313/430 316/313/499 280/313/475
f 662/313/476 264/313/453 659/313/492
f 274/313/455 288/313/484 295/313/500
f 286/313/487 270/313/466 305/313/501
f 265/313/482 259/313/450 291/313/489
f 255/313/444 287/313/502 275/313/431
f 312/313/503 297/313/497 267/313/452
f 285/313/481 265/313/482 291/313/489
f 268/313/441 298/313/485 284/313/471
f 292/313/504 279/313/486 269/313/457
f 271/313/463 273/313/462 283/313/505
f 290/313/480 271/313/463 283/313/505
f 287/313/502 294/313/493 275/313/431
f 279/313/486 292/313/504 287/313/502
f 258/313/442 302/313/506 282/313/451
f 305/313/501 270/313/466 384/313/507
f 261/313/469 654/313/508 658/313/491
f 269/313/457 686/313/470 706/313/509
f 310/313/510 266/313/477 286/313/487
f 284/313/471 298/313/485 386/313/511
f 302/313/506 258/313/442 313/313/512
f 263/313/430 306/313/490 316/313/499
f 297/313/497 705/313/513 684/313/498
f 291/313/489 276/313/483 307/313/514
f 272/313/436 269/313/457 279/313/486
f 704/313/515 292/313/504 269/313/457 706/313/509
f 287/313/502 317/313/516 294/313/493
f 273/313/462 303/313/488 318/313/517
f 283/313/505 273/313/462 318/313/517
f 288/313/484 280/313/475 322/313/518
f 296/313/519 281/313/460 293/313/474
f 255/313/444 279/313/486 287/313/502
f 285/313/481 291/313/489 304/313/520
f 280/313/475 316/313/499 322/313/518
f 276/313/483 281/313/460 307/313/514
f 307/313/514 281/313/460 296/313/519
f 282/313/451 302/313/506 385/313/521
f 300/313/522 384/313/507 311/313/523
f 295/313/500 309/313/524 299/313/525
f 284/313/471 386/313/511 303/313/488
f 277/313/472 285/313/481 304/313/520
f 304/313/520 306/313/490 277/313/472
f 266/313/477 310/313/510 313/313/512
f 295/313/500 288/313/484 314/313/526
f 288/313/484 322/313/518 314/313/526
f 298/313/485 289/313/478 324/313/527
f 290/313/480 283/313/505 391/313/528
f 295/313/500 314/313/526 320/313/529
f 304/313/520 291/313/489 307/313/514
f 293/313/474 385/313/521 296/313/519
f 297/313/497 701/313/530 705/313/513
f 309/313/524 295/313/500 320/313/529
f 318/313/517 391/313/528 283/313/505
f 338/313/531 318/313/517 303/313/488
f 310/313/510 286/313/487 321/313/532
f 321/313/532 286/313/487 305/313/501
f 391/313/528 660/313/533 657/313/534 290/313/480
f 386/313/511 298/313/485 324/313/527
f 299/313/525 309/313/524 311/313/523
f 330/313/535 305/313/501 300/313/522
f 290/313/480 657/313/534 656/313/536 301/313/494
f 518/313/537 325/313/538 289/313/478 521/313/495
f 324/313/527 289/313/478 325/313/538
f 297/313/497 323/313/539 692/313/540 701/313/530
f 308/313/541 292/313/504 704/313/515 703/313/542
f 306/313/490 304/313/520 327/313/543
f 292/313/504 308/313/541 287/313/502
f 316/313/499 306/313/490 327/313/543
f 661/313/544 565/313/545 566/313/546 301/313/494
f 519/313/547 325/313/538 518/313/537
f 331/313/548 296/313/519 385/313/521
f 307/313/514 296/313/519 329/313/549
f 304/313/520 307/313/514 329/313/549
f 656/313/536 661/313/544 301/313/494
f 345/313/550 302/313/506 313/313/512
f 385/313/521 302/313/506 345/313/550
f 316/313/499 327/313/543 334/313/551
f 309/313/524 320/313/529 339/313/552
f 316/313/499 334/313/551 322/313/518
f 584/313/553 581/313/554 319/313/555
f 329/313/549 327/313/543 304/313/520
f 311/313/523 309/313/524 315/313/556
f 313/313/512 310/313/510 342/313/557
f 336/313/558 392/313/559 386/313/511
f 300/313/522 311/313/523 398/313/560
f 300/313/522 398/313/560 326/313/561
f 330/313/535 321/313/532 305/313/501
f 312/313/503 332/313/562 323/313/539
f 329/313/549 296/313/519 331/313/548
f 320/313/529 314/313/526 349/313/563
f 314/313/526 322/313/518 351/313/564
f 314/313/526 351/313/564 349/313/563
f 315/313/556 328/313/565 398/313/560
f 386/313/511 324/313/527 336/313/558
f 693/313/566 308/313/541 703/313/542
f 322/313/518 334/313/551 360/313/567
f 310/313/510 321/313/532 342/313/557
f 337/313/568 317/313/516 687/313/569 689/313/570
f 300/313/522 326/313/561 330/313/535
f 337/313/568 332/313/562 317/313/516
f 318/313/517 338/313/531 346/313/571
f 391/313/528 318/313/517 346/313/571
f 326/313/561 398/313/560 333/313/572
f 315/313/556 309/313/524 339/313/552
f 339/313/552 320/313/529 357/313/573
f 345/313/550 313/313/512 342/313/557
f 361/313/574 324/313/527 340/313/575
f 333/313/572 398/313/560 328/313/565
f 328/313/565 315/313/556 347/313/576
f 315/313/556 339/313/552 347/313/576
f 342/313/557 321/313/532 352/313/577
f 321/313/532 330/313/535 352/313/577
f 329/313/549 331/313/548 335/313/578
f 322/313/518 360/313/567 351/313/564
f 520/313/579 340/313/575 325/313/538 519/313/547
f 524/313/580 340/313/575 520/313/579
f 319/313/555 354/313/581 586/313/582 584/313/553
f 324/313/527 361/313/574 336/313/558
f 326/313/561 333/313/572 353/313/583
f 330/313/535 326/313/561 344/313/584
f 344/313/584 326/313/561 353/313/583
f 327/313/543 329/313/549 335/313/578
f 327/313/543 335/313/578 334/313/551
f 333/313/572 328/313/565 359/313/585
f 601/313/586 586/313/582 354/313/581
f 592/313/587 355/313/588 595/313/589
f 323/313/539 691/313/590 690/313/591
f 320/313/529 349/313/563 357/313/573
f 335/313/578 331/313/548 358/313/592
f 342/313/557 352/313/577 378/313/593
f 346/313/571 348/313/594 590/313/595 593/313/596
f 352/313/577 330/313/535 350/313/597
f 350/313/597 330/313/535 344/313/584
f 345/313/550 331/313/548 385/313/521
f 343/313/598 354/313/581 319/313/555
f 341/313/599 343/313/598 319/313/555
f 346/313/571 338/313/531 370/313/600
f 333/313/572 359/313/585 365/313/601
f 356/313/602 333/313/572 365/313/601
f 335/313/578 364/313/603 334/313/551
f 353/313/583 333/313/572 356/313/602
f 358/313/592 331/313/548 345/313/550
f 360/313/567 334/313/551 364/313/603
f 359/313/585 328/313/565 367/313/604
f 328/313/565 347/313/576 367/313/604
f 345/313/550 342/313/557 366/313/605
f 361/313/574 387/313/606 336/313/558
f 339/313/552 357/313/573 372/313/607
f 347/313/576 339/313/552 372/313/607
f 349/313/563 351/313/564 374/313/608
f 368/313/609 354/313/581 343/313/598
f 363/313/610 343/313/598 341/313/599
f 336/313/558 387/313/606 392/313/559
f 347/313/576 372/313/607 367/313/604
f 379/313/611 352/313/577 350/313/597
f 355/313/588 363/313/610 341/313/599
f 366/313/605 358/313/592 345/313/550
f 348/313/594 346/313/571 380/313/612
f 357/313/573 349/313/563 374/313/608
f 335/313/578 358/313/592 364/313/603
f 370/313/600 338/313/531 362/313/613
f 346/313/571 370/313/600 380/313/612
f 360/313/567 364/313/603 369/313/614
f 356/313/602 365/313/601 696/313/615 695/313/616
f 359/313/585 367/313/604 377/313/617
f 366/313/605 342/313/557 373/313/618
f 361/313/574 340/313/575 371/313/619
f 368/313/609 375/313/620 354/313/581
f 351/313/564 381/313/621 374/313/608
f 378/313/593 352/313/577 379/313/611
f 591/313/622 355/313/588 592/313/587
f 342/313/557 378/313/593 373/313/618
f 599/313/623 501/313/624 502/313/625
f 365/313/601 359/313/585 699/313/626 694/313/627
f 351/313/564 360/313/567 381/313/621
f 488/313/628 370/313/600 362/313/613 486/313/629
f 364/313/603 358/313/592 376/313/630
f 376/313/630 358/313/592 366/313/605
f 359/313/585 377/313/617 698/313/631 699/313/626
f 350/313/597 465/313/632 466/313/633 379/313/611
f 360/313/567 369/313/614 381/313/621
f 369/313/614 364/313/603 376/313/630
f 365/313/601 694/313/627 696/313/615
f 591/313/622 490/313/634 489/313/635 355/313/588
f 489/313/635 491/313/636 363/313/610 355/313/588
f 372/313/607 357/313/573 480/313/637 473/313/638
f 478/313/639 480/313/637 357/313/573 374/313/608
f 471/313/640 467/313/641 367/313/604 372/313/607
f 376/313/630 366/313/605 373/313/618
f 370/313/600 488/313/628 487/313/642 380/313/612
f 465/313/632 350/313/597 400/313/643 459/313/644
f 377/313/617 367/313/604 467/313/641 468/313/645
f 698/313/631 377/313/617 474/313/646 456/313/647
f 356/313/602 695/313/616 700/313/648
f 496/313/649 503/313/650 368/313/609 388/313/651
f 375/313/620 368/313/609 503/313/650 499/313/652
f 484/313/653 483/313/654 362/313/613 387/313/606
f 362/313/613 483/313/654 486/313/629
f 363/313/610 491/313/636 493/313/655
f 388/313/651 363/313/610 495/313/656 494/313/657
f 363/313/610 493/313/655 495/313/656
f 506/313/658 373/313/618 378/313/593 464/313/659
f 372/313/607 470/313/660 471/313/640
f 381/313/621 482/313/661 479/313/662 374/313/608
f 461/313/663 378/313/593 379/313/611 463/313/664
f 376/313/630 373/313/618 506/313/658 504/313/665
f 388/313/651 497/313/666 496/313/649
f 481/313/667 381/313/621 369/313/614 509/313/668
f 372/313/607 473/313/638 470/313/660
f 380/313/612 487/313/642 492/313/669
f 379/313/611 466/313/633 462/313/670
f 374/313/608 479/313/662 478/313/639
f 387/313/606 477/313/671 484/313/653
f 375/313/620 499/313/652 498/313/672
f 505/313/673 369/313/614 376/313/630 504/313/665
f 375/313/620 498/313/672 500/313/674
f 378/313/593 461/313/663 464/313/659
f 379/313/611 462/313/670 463/313/664
f 377/313/617 469/313/675 474/313/646
f 377/313/617 468/313/645 469/313/675
f 369/313/614 505/313/673 509/313/668
f 381/313/621 481/313/667 482/313/661
f 400/313/643 457/313/676 459/313/644
f 418/313/29 406/313/677 10/313/28
f 406/313/677 405/313/50 10/313/28
f 23/313/91 412/313/92 414/313/678
f 22/313/40 23/313/91 414/313/678 415/313/41
f 8/313/61 43/313/102 21/313/62
f 14/313/78 46/313/104 35/313/106
f 35/313/106 46/313/104 47/313/135
f 28/313/114 548/313/113 547/313/125 52/313/127
f 83/313/183 573/313/679 539/313/142 81/313/141
f 573/313/679 83/313/183 572/313/182
f 616/313/211 402/313/197 73/313/158 615/313/179
f 142/313/304 118/313/227 128/313/260
f 142/313/304 128/313/260 140/313/296
f 149/313/291 382/313/251 123/313/230
f 638/313/400 383/313/344 647/313/343
f 151/313/268 383/313/344 207/313/346
f 180/313/328 178/313/327 205/313/393
f 383/313/344 219/313/390 207/313/346
f 208/313/364 237/313/401 240/313/461
f 564/313/680 563/313/449 248/313/448
f 248/313/448 301/313/494 568/313/681 564/313/680
f 567/313/682 568/313/681 301/313/494
f 278/313/467 274/313/455 295/313/500
f 241/313/446 294/313/493 267/313/452
f 305/313/501 384/313/507 300/313/522
f 278/313/467 295/313/500 299/313/525
f 278/313/467 299/313/525 384/313/507
f 282/313/451 385/313/521 293/313/474
f 301/313/494 566/313/546 567/313/682
f 384/313/507 299/313/525 311/313/523
f 338/313/531 303/313/488 392/313/559
f 340/313/575 324/313/527 325/313/538
f 391/313/528 594/313/683 660/313/533
f 391/313/528 346/313/571 593/313/596 594/313/683
f 338/313/531 392/313/559 362/313/613
f 392/313/559 387/313/606 362/313/613
f 598/313/684 590/313/595 348/313/594
f 363/313/610 388/313/651 343/313/598
f 388/313/651 368/313/609 343/313/598
f 371/313/619 404/313/685 361/313/574
f 404/313/685 371/313/619 485/313/686 476/313/687
f 388/313/651 494/313/657 497/313/666
f 432/313/7 429/313/66 11/313/8
f 549/313/112 28/313/114 29/313/73 532/313/98
f 80/313/170 389/313/205 63/313/128
f 107/313/194 389/313/205 145/313/256
f 104/313/200 133/313/254 389/313/205
f 145/313/256 389/313/205 133/313/254
f 390/313/274 118/313/227 142/313/304
f 139/313/240 390/313/274 393/313/332
f 142/313/304 140/313/296 152/313/305
f 390/313/274 152/313/305 161/313/356
f 161/313/356 152/313/305 179/313/411
f 160/313/273 178/313/327 164/313/301
f 187/313/316 208/313/364 218/313/358
f 208/313/364 240/313/461 394/313/426
f 229/313/443 226/313/410 228/313/409
f 241/313/446 233/313/387 201/313/388
f 228/313/409 243/313/423 247/313/447
f 270/313/466 278/313/467 384/313/507
f 311/313/523 315/313/556 398/313/560
f 690/313/591 692/313/540 323/313/539
f 596/313/688 601/313/586 354/313/581
f 354/313/581 375/313/620 600/313/689 596/313/688
f 375/313/620 500/313/674 501/313/624 599/313/623 600/313/689
f 183/313/376 152/313/305 401/313/320
f 240/313/461 237/313/401 273/313/462
f 294/313/493 312/313/503 267/313/452
f 386/313/511 392/313/559 303/313/488
f 15/313/31 8/313/61 447/313/690 446/313/691
f 66/313/145 619/313/164 614/313/143
f 95/313/150 61/313/108 30/313/105
f 115/313/222 396/313/206 136/313/245
f 393/313/332 166/313/278 139/313/240
f 393/313/332 161/313/356 194/313/333
f 179/313/411 152/313/305 183/313/376
f 179/313/411 183/313/376 204/313/408
f 394/313/426 240/313/461 271/313/463
f 450/313/32 15/313/31 446/313/691
f 447/313/690 8/313/61 448/313/60
f 393/313/332 390/313/274 161/313/356
f 208/313/364 394/313/426 218/313/358
f 247/313/447 243/313/423 270/313/466
f 46/313/104 23/313/91 22/313/40
f 110/313/232 95/313/150 87/313/204
f 56/313/133 87/313/204 95/313/150
f 395/313/224 81/313/141 540/313/161 576/313/692
f 395/313/224 576/313/692 575/313/248
f 395/313/224 129/313/247 396/313/206
f 382/313/251 149/313/291 674/313/693 672/313/310
f 674/313/693 149/313/291 169/313/337 673/313/342
f 157/313/290 190/313/338 148/313/289
f 397/313/357 179/313/411 226/313/410
f 266/313/477 229/313/443 247/313/447
f 266/313/477 247/313/447 286/313/487
f 323/313/539 297/313/497 312/313/503
f 581/313/554 585/313/694 319/313/555
f 585/313/694 587/313/695 341/313/599 319/313/555
f 341/313/599 587/313/695 595/313/589 355/313/588
f 700/313/648 460/313/696 458/313/697 356/313/602
f 106/313/217 95/313/150 150/313/281
f 179/313/411 397/313/357 161/313/356
f 150/313/281 95/313/150 110/313/232
f 204/313/408 183/313/376 211/313/377
f 73/313/158 62/313/165 608/313/166 609/313/156
f 554/313/207 570/313/215 98/313/208
f 126/313/250 399/313/285 157/313/290
f 124/313/189 399/313/285 126/313/250
f 134/313/266 399/313/285 137/313/242
f 172/313/323 399/313/285 134/313/266
f 172/313/323 206/313/363 157/313/290
f 258/313/442 266/313/477 313/313/512
f 308/313/541 317/313/516 287/313/502
f 687/313/569 317/313/516 308/313/541 688/313/698
f 308/313/541 693/313/566 688/313/698
f 458/313/697 457/313/676 400/313/643 356/313/602
f 400/313/643 344/313/584 353/313/583
f 350/313/597 344/313/584 400/313/643
f 183/313/376 401/313/320 188/313/372
f 332/313/562 337/313/568 323/313/539
f 11/313/8 19/313/82 430/313/699 431/313/6
f 19/313/82 13/313/30 455/313/55 430/313/699
f 51/313/121 47/313/135 46/313/104
f 402/313/197 101/313/213 76/313/177
f 403/313/414 226/313/410 229/313/443
f 332/313/562 312/313/503 294/313/493
f 332/313/562 294/313/493 317/313/516
f 51/313/121 63/313/128 107/313/194
f 79/313/148 51/313/121 107/313/194
f 348/313/594 597/313/700 598/313/684
f 348/313/594 380/313/612 507/313/701 508/313/702 597/313/700
f 380/313/612 492/313/669 507/313/701
f 400/313/643 353/313/583 356/313/602
f 337/313/568 697/313/703 691/313/590 323/313/539
f 702/313/704 337/313/568 689/313/570
f 337/313/568 702/313/704 697/313/703
f 340/313/575 524/313/580 523/313/705 371/313/619
f 525/313/706 371/313/619 523/313/705
f 49/313/101 28/313/114 80/313/170
f 472/313/707 485/313/686 371/313/619 525/313/706
f 387/313/606 404/313/685 475/313/708 477/313/671
f 404/313/685 387/313/606 361/313/574
f 404/313/685 476/313/687 475/313/708
f 28/313/114 52/313/127 80/313/170
f 653/313/709 261/313/469 651/313/468
f 261/313/469 653/313/709 654/313/508
