# Blender 5.1.1
# www.blender.org
mtllib REV_7.mtl
o REV_cube_7
v -6.180000 -6.770000 -3.110000
v -6.163588 -6.810068 -3.109574
v -6.171017 -7.012477 -2.205930
v -6.177162 -7.261728 -2.273025
v -6.153988 -7.593465 -2.390225
v -6.136480 -7.620418 -2.256714
v -6.142754 -7.636448 -2.997237
v -6.148177 -7.623224 -2.690584
v -6.147864 -7.100322 -2.479749
v -6.159824 -7.381153 -2.777353
v -6.161745 -7.584247 -2.948318
v -6.168424 -7.026358 -2.505471
v -6.143585 -7.505371 -2.913624
v -6.177319 -7.264522 -2.458074
v -6.166941 -7.685596 -2.476048
v -6.158808 -6.945343 -2.517935
v -6.081002 -7.747912 -2.524060
v -6.173292 -7.620970 -2.321227
v -6.147410 -7.261611 -2.360757
v -6.127750 -6.941150 -2.219357
v -6.125959 -6.797800 -3.061471
v -6.136309 -7.354137 -2.687455
v -6.146039 -6.782895 -2.983547
v -6.121182 -7.192859 -2.695570
v -6.140689 -7.536903 -2.682413
v -6.111579 -7.188944 -2.798594
v -6.109299 -6.795134 -2.524848
v -6.144779 -6.862645 -2.206617
v -6.112518 -7.160387 -2.342840
v -6.132243 -7.614393 -2.457698
v -6.135296 -7.713154 -2.697174
v -6.106920 -7.017749 -2.467232
v -6.108860 -7.263223 -2.839504
v -6.104128 -7.107271 -2.668267
v -6.128345 -7.105361 -2.257366
v -6.099748 -7.408481 -2.917160
v -6.105446 -6.874705 -2.505816
v -6.108442 -7.545816 -2.299298
v -6.093783 -7.560688 -2.978728
v -6.098272 -7.092290 -2.405010
v -6.106606 -7.108804 -2.764580
v -6.096552 -6.956895 -2.692261
v -6.103872 -7.033141 -2.726059
v -6.041658 -7.630917 -3.008404
v -6.089815 -6.869417 -2.667524
v -6.090280 -7.705297 -3.038121
v -6.084228 -7.066482 -2.323285
v -6.083773 -6.790492 -2.657908
v -6.098238 -7.010306 -2.260509
v -6.081932 -6.976326 -2.774452
v -6.061981 -7.115188 -2.844906
v -6.067607 -7.033661 -2.815012
v -6.078085 -6.905524 -2.763389
v -6.060820 -7.586673 -2.217782
v -6.079089 -6.813106 -2.741585
v -6.075136 -6.933191 -2.458586
v -6.107566 -7.267791 -2.650760
v -6.064752 -6.922445 -2.276559
v -6.068558 -7.747618 -2.690552
v -6.057094 -7.194360 -2.869884
v -6.075916 -7.481948 -2.629518
v -6.066261 -7.644602 -2.514892
v -6.056218 -6.825129 -2.590580
v -6.080402 -7.663577 -2.668308
v -6.063007 -6.983689 -2.319591
v -6.054005 -7.481480 -2.961370
v -6.048966 -6.782470 -2.279148
v -6.066360 -7.475674 -2.325166
v -6.071725 -7.189874 -2.609581
v -6.064527 -7.001534 -2.388895
v -6.042997 -6.850816 -2.304245
v -6.050379 -7.109542 -2.584961
v -6.057337 -7.517489 -2.465034
v -6.041919 -6.900683 -2.365174
v -6.080635 -7.327438 -2.621027
v -6.000032 -7.461254 -2.491292
v -6.022770 -7.414626 -2.322392
v -6.051348 -7.451948 -2.408473
v -6.051363 -6.931972 -2.588850
v -6.028790 -6.852434 -2.823462
v -6.043288 -6.829705 -2.446450
v -5.993635 -7.201975 -2.565478
v -5.992533 -7.550218 -2.630281
v -6.025606 -7.490256 -2.247976
v -6.023620 -6.797207 -2.354338
v -5.996436 -6.774718 -2.538594
v -6.030794 -7.277923 -2.585305
v -6.014167 -7.376091 -2.593414
v -6.023546 -6.948956 -2.839381
v -6.042663 -7.339023 -2.922728
v -5.999042 -7.646557 -2.190382
v -6.005580 -7.401580 -2.943820
v -5.996027 -7.374646 -2.426913
v -5.973138 -7.557592 -2.201751
v -6.012596 -7.733054 -2.187047
v -5.965368 -6.953940 -2.535885
v -5.980196 -7.011539 -2.870879
v -5.988764 -7.648899 -2.666774
v -5.962897 -7.125232 -2.549637
v -5.994627 -7.555844 -2.979237
v -5.976073 -7.625496 -2.527853
v -5.968510 -7.460282 -2.609971
v -5.986465 -7.709479 -2.526303
v -6.004391 -7.554440 -2.515546
v -5.973917 -7.343213 -2.319257
v -5.918613 -7.583038 -2.675380
v -5.989564 -7.711115 -3.011100
v -5.984111 -7.135473 -2.887932
v -5.942671 -7.295790 -2.574325
v -5.946794 -7.485981 -2.210236
v -5.978773 -6.869514 -2.531482
v -5.923938 -7.765515 -2.709947
v -5.975518 -7.220953 -2.904212
v -5.952380 -7.286910 -2.402781
v -5.905937 -7.608199 -2.197992
v -5.899310 -7.082907 -2.882554
v -5.955112 -7.474096 -2.952317
v -5.926373 -7.749640 -2.775441
v -5.953403 -7.401556 -2.241159
v -5.948740 -7.724692 -2.723774
v -5.926155 -7.491276 -2.538270
v -5.945668 -7.638364 -2.971237
v -5.909924 -7.265843 -2.303303
v -5.938900 -7.317644 -2.480197
v -5.929709 -7.049626 -2.534353
v -5.925231 -7.351625 -2.250072
v -5.917585 -7.730380 -2.932894
v -5.921457 -7.751344 -2.487478
v -5.938231 -7.397395 -2.515239
v -5.918807 -6.991153 -2.528172
v -5.927189 -7.701301 -2.210598
v -5.931254 -7.764403 -2.619059
v -5.892228 -7.284756 -2.898042
v -5.861506 -7.710421 -2.555993
v -5.915186 -7.215148 -2.384583
v -5.902488 -7.247233 -2.481982
v -5.931763 -6.886845 -2.866285
v -5.899639 -6.817701 -2.519248
v -5.883878 -7.643734 -2.885795
v -5.915078 -6.806479 -2.857076
v -5.847722 -7.610696 -2.512343
v -5.879162 -7.316447 -2.545413
v -5.884354 -7.704605 -2.826744
v -5.905420 -7.560237 -2.927311
v -5.903544 -7.182257 -2.891410
v -5.885989 -7.158194 -2.438731
v -5.869078 -7.134226 -2.567626
v -5.835019 -7.025409 -2.849072
v -5.910285 -7.658757 -2.519660
v -5.882913 -7.451070 -2.210711
v -5.899194 -7.211288 -2.568815
v -5.869483 -7.750331 -2.282093
v -5.875913 -7.443735 -2.649735
v -5.886450 -7.691185 -2.655210
v -5.828745 -7.222666 -2.847033
v -5.845932 -7.083393 -2.400166
v -5.869131 -7.649533 -2.807729
v -5.905947 -7.373032 -2.604172
v -5.852386 -7.288498 -2.615128
v -5.865784 -7.185733 -2.517008
v -5.850939 -7.383520 -2.871191
v -5.861261 -7.162404 -2.331052
v -5.843413 -6.837166 -2.844391
v -5.867457 -7.583436 -2.746236
v -5.869399 -7.717544 -2.746665
v -5.852494 -7.257616 -2.555561
v -5.852617 -7.559393 -2.833444
v -5.864963 -7.515843 -2.701437
v -5.873205 -7.473194 -2.894423
v -5.846161 -7.059024 -2.569118
v -5.848137 -7.623821 -2.612224
v -5.816174 -7.693642 -2.319318
v -5.878048 -6.909806 -2.532587
v -5.843311 -7.092830 -2.503855
v -5.857357 -7.425047 -2.553950
v -5.841119 -7.512134 -2.768889
v -5.843823 -7.663524 -2.248253
v -5.884236 -7.527462 -2.200366
v -5.798653 -7.638784 -2.524060
v -5.838976 -7.732286 -2.377612
v -5.837008 -7.460002 -2.820225
v -5.837371 -7.689262 -2.461759
v -5.793692 -7.370088 -2.566906
v -5.823407 -7.524802 -2.532576
v -5.824850 -7.434236 -2.737112
v -5.839128 -7.134259 -2.855137
v -5.837504 -7.392146 -2.215939
v -5.828896 -7.359614 -2.673548
v -5.809307 -7.675385 -2.781667
v -5.822894 -7.006252 -2.455058
v -5.817844 -7.562614 -2.683340
v -5.819080 -7.384356 -2.805629
v -5.802114 -7.557176 -2.584418
v -5.809890 -7.000139 -2.539840
v -5.794721 -7.076633 -2.807367
v -5.815537 -7.164671 -2.568223
v -5.817800 -7.206263 -2.623091
v -5.786589 -7.590066 -2.762871
v -5.833788 -6.935047 -2.842716
v -5.801703 -7.270414 -2.685074
v -5.819516 -6.986095 -2.568583
v -5.815136 -7.235721 -2.257138
v -5.789530 -7.082472 -2.586345
v -5.797538 -7.074446 -2.322804
v -5.803804 -7.335134 -2.745841
v -5.797897 -7.766865 -2.812694
v -5.792749 -7.247928 -2.763573
v -5.798259 -6.941684 -2.422553
v -5.790215 -6.919225 -2.580601
v -5.778664 -7.184764 -2.703787
v -5.789980 -7.124123 -2.632503
v -5.752799 -7.321240 -2.231570
v -5.778040 -7.600791 -2.467221
v -5.789929 -7.163085 -2.785788
v -5.807910 -7.477225 -2.216717
v -5.780720 -6.864869 -2.458586
v -5.775754 -6.890628 -2.604496
v -5.803920 -7.011826 -2.375530
v -5.764244 -7.083913 -2.720484
v -5.788236 -7.712466 -2.494740
v -5.782074 -7.487659 -2.658387
v -5.738718 -6.980741 -2.334368
v -5.766739 -6.986243 -2.624759
v -5.724999 -7.765214 -2.478164
v -5.763962 -6.821331 -2.631473
v -5.777106 -7.040726 -2.632530
v -5.773695 -7.648648 -2.376343
v -5.767008 -6.980765 -2.768579
v -5.771615 -6.816947 -2.779583
v -5.755736 -6.980711 -2.685354
v -5.769998 -7.146086 -2.274272
v -5.757940 -6.893680 -2.637677
v -5.750125 -7.430309 -2.644032
v -5.766545 -7.014497 -2.613513
v -5.779948 -7.617645 -2.288191
v -5.752356 -6.882669 -2.706851
v -5.746619 -6.772825 -2.696186
v -5.777296 -7.300910 -2.578846
v -5.760831 -7.505588 -2.746499
v -5.753543 -7.527228 -2.261486
v -5.732668 -7.217434 -2.251122
v -5.757500 -7.441135 -2.541284
v -5.752033 -7.485419 -2.575840
v -5.724533 -7.370202 -2.678833
v -5.696543 -6.993250 -2.663886
v -5.740762 -7.434319 -2.726586
v -5.724252 -7.565181 -2.338959
v -5.757046 -7.226189 -2.595371
v -5.721816 -6.772791 -2.450637
v -5.746861 -7.150710 -2.609375
v -5.728365 -7.569726 -2.413269
v -5.726649 -6.888676 -2.373686
v -5.730716 -7.640472 -2.812835
v -5.743532 -7.429714 -2.240088
v -5.739410 -7.713257 -2.816669
v -5.704495 -7.069713 -2.290812
v -5.727401 -7.575442 -2.505742
v -5.711079 -6.816986 -2.405596
v -5.719897 -6.913983 -2.667814
v -5.725094 -7.516077 -2.480076
v -5.675984 -7.177103 -2.611063
v -5.716456 -7.675901 -2.479805
v -5.708309 -7.404042 -2.579112
v -5.686183 -7.489099 -2.521142
v -5.689358 -7.322312 -2.617754
v -5.661017 -6.935395 -2.333489
v -5.685939 -6.921119 -2.696862
v -5.696373 -7.294039 -2.705992
v -5.689361 -7.371749 -2.781410
v -5.648000 -7.560275 -2.490191
v -5.678153 -7.487605 -2.400759
v -5.695025 -7.550156 -2.814672
v -5.691454 -7.469628 -2.304871
v -5.708829 -7.365556 -2.553590
v -5.699452 -7.084556 -2.636946
v -5.667872 -6.859352 -2.725929
v -5.676583 -7.434682 -2.489852
v -5.661542 -7.159091 -2.272612
v -5.664469 -7.245954 -2.641407
v -5.666340 -7.364625 -2.280914
v -5.660967 -7.709069 -2.819046
v -5.658485 -7.276733 -2.793414
v -5.667614 -7.228117 -2.722589
v -5.627378 -7.731311 -2.497917
v -5.623682 -7.424213 -2.840204
v -5.638440 -7.188994 -2.793118
v -5.668596 -7.271669 -2.574220
v -5.584216 -7.557317 -2.828731
v -5.633155 -7.631526 -2.824667
v -5.601715 -7.192530 -2.600352
v -5.596971 -6.809874 -2.758507
v -5.634313 -7.402069 -2.364134
v -5.583375 -7.600605 -3.106131
v -5.609832 -6.786139 -2.396102
v -5.640683 -7.005182 -2.314259
v -5.627457 -7.347481 -2.502867
v -5.615471 -7.084453 -2.728763
v -5.595851 -7.330712 -2.438998
v -5.589987 -7.188941 -2.573097
v -5.616549 -6.864578 -2.363893
v -5.613649 -7.111061 -2.816975
v -5.591999 -7.030843 -2.819148
v -5.636298 -7.633603 -2.485291
v -5.599984 -7.110762 -2.618232
v -5.608014 -7.030501 -2.658484
v -5.629148 -7.497601 -2.834016
v -5.609050 -7.345802 -2.848364
v -5.625783 -7.281998 -2.568453
v -5.601602 -7.077697 -2.305845
v -5.598232 -7.501976 -2.496869
v -5.587057 -7.714588 -2.790988
v -5.616972 -6.966529 -2.690861
v -5.557798 -7.252218 -2.430043
v -5.600819 -7.307107 -2.347218
v -5.586751 -6.895241 -2.718554
v -5.579746 -7.019936 -2.325772
v -5.554168 -7.735234 -2.561708
v -5.587724 -7.672681 -3.107388
v -5.582664 -6.948563 -2.817229
v -5.569911 -7.585248 -2.501740
v -5.573627 -6.978880 -2.731264
v -5.596886 -7.110358 -2.653660
v -5.587139 -7.261746 -2.860951
v -5.575642 -7.147476 -2.325434
v -5.559142 -6.855879 -2.875257
v -5.580710 -7.258713 -2.513127
v -5.550578 -6.853472 -2.814382
v -5.560167 -7.341521 -2.522398
v -5.527562 -6.831386 -2.734024
v -5.570464 -7.179588 -2.881648
v -5.544365 -6.947334 -2.910717
v -5.536085 -7.631377 -2.789099
v -5.553593 -7.666482 -2.526577
v -5.526357 -7.038485 -2.612761
v -5.496381 -7.438541 -3.094372
v -5.577149 -6.950346 -2.346457
v -5.545231 -7.014688 -2.901985
v -5.534348 -6.785297 -2.861900
v -5.547076 -7.480448 -2.839855
v -5.528321 -7.401430 -2.856642
v -5.538547 -7.112974 -2.600554
v -5.529244 -7.111106 -2.555597
v -5.520058 -7.704459 -2.711952
v -5.526489 -6.835713 -2.951873
v -5.538337 -6.891007 -2.744075
v -5.533511 -7.177819 -2.495695
v -5.530145 -7.160321 -2.404126
v -5.530914 -7.069065 -2.370913
v -5.557384 -7.095408 -2.897398
v -5.514171 -6.899494 -2.395412
v -5.519022 -6.909400 -2.952092
v -5.528650 -6.813119 -2.406977
v -5.491307 -6.871383 -2.683689
v -5.516192 -6.772036 -2.766709
v -5.527192 -6.957427 -2.662328
v -5.514417 -7.190925 -2.556410
v -5.525775 -7.433407 -2.512285
v -5.487274 -7.157610 -2.922068
v -5.472261 -7.038089 -2.611413
v -5.479743 -6.847494 -2.711643
v -5.505021 -7.519137 -2.525615
v -5.481304 -7.538556 -2.787591
v -5.494982 -6.942725 -2.662084
v -5.488814 -6.803902 -3.016196
v -5.478831 -7.275801 -2.541975
v -5.507564 -6.801734 -2.774266
v -5.512405 -6.980405 -2.387594
v -5.508897 -7.327059 -2.876413
v -5.477222 -7.027351 -2.523027
v -5.500768 -7.525195 -3.097394
v -5.498285 -7.090234 -2.466877
v -5.478530 -7.070296 -2.947801
v -5.483634 -7.014854 -2.441061
v -5.472901 -7.610784 -2.713300
v -5.444962 -7.566708 -2.641541
v -5.472991 -6.781609 -2.460315
v -5.493357 -7.249502 -2.899939
v -5.468200 -6.961081 -2.575819
v -5.483571 -7.348734 -3.101197
v -5.463100 -6.941474 -2.476754
v -5.427800 -7.368172 -2.840241
v -5.475802 -6.984488 -2.974788
v -5.464544 -6.852656 -2.466029
v -5.439485 -7.452422 -2.565203
v -5.453847 -7.364727 -2.545950
v -5.442626 -6.876987 -2.548162
v -5.462169 -6.898251 -2.620099
v -5.454672 -7.448285 -2.813782
v -5.454844 -6.891213 -3.018158
v -5.421359 -6.883908 -2.665545
v -5.447150 -7.524901 -2.588548
v -5.429928 -7.534204 -2.707209
v -5.457467 -6.795491 -2.697377
v -5.432518 -6.829134 -2.615031
v -5.432752 -6.799593 -2.529032
v -5.443072 -7.122350 -2.582472
v -5.397634 -7.122252 -2.935539
v -5.410169 -7.467483 -2.743482
v -5.417381 -6.788680 -2.712260
v -5.386290 -7.379947 -2.614089
v -5.374361 -7.066843 -2.616760
v -5.386993 -7.293680 -2.590548
v -5.410009 -7.206408 -2.578659
v -5.403747 -7.206045 -2.901556
v -5.411347 -7.288626 -2.866771
v -5.403431 -7.475845 -2.650775
v -5.407472 -7.389153 -3.102598
v -5.411538 -6.812479 -3.065567
v -5.393823 -7.297904 -3.104199
v -5.354033 -7.298530 -2.801930
v -5.335697 -6.923282 -2.666790
v -5.372149 -6.962247 -3.006580
v -5.314147 -7.013972 -2.662566
v -5.348550 -6.881331 -3.040852
v -5.386909 -7.040274 -2.966654
v -5.345349 -7.306362 -2.670875
v -5.335448 -7.222907 -2.646225
v -5.308117 -7.203425 -2.805943
v -5.350018 -7.142233 -2.626584
v -5.351994 -6.851398 -2.685591
v -5.287990 -7.152956 -2.713763
v -5.328185 -7.155487 -2.880114
v -5.312529 -7.243874 -2.733879
v -5.309145 -7.002797 -2.960387
v -5.316487 -6.784752 -2.722848
v -5.282429 -6.867607 -2.716646
v -5.304932 -7.090280 -2.667701
v -5.285636 -6.932654 -2.985307
v -5.264050 -7.053891 -2.741457
v -5.309106 -6.804992 -3.072880
v -5.302474 -7.069447 -2.910254
v -5.276164 -7.120953 -2.816262
v -5.269211 -6.956368 -2.714960
v -5.234980 -6.795134 -2.784549
v -5.246773 -7.027480 -2.838448
v -5.253962 -6.980733 -2.911202
v -5.254833 -6.855813 -3.004550
v -5.239993 -6.978868 -2.784842
v -5.224472 -6.938753 -2.850374
v -5.232498 -6.897945 -2.780119
v -5.227159 -6.898350 -2.924714
v -5.225017 -6.777420 -3.032439
v -5.208254 -6.850369 -2.856540
v -5.203227 -6.812845 -2.940911
v -6.081038 -7.026363 -2.632642
v -5.974668 -6.808904 -2.850171
v -5.915267 -7.514996 -2.644531
v -5.747996 -6.848773 -2.647027
v -5.660095 -7.261559 -2.271545
v -5.694680 -7.464108 -2.801754
v -5.648438 -7.349636 -2.550461
v -5.582242 -7.221498 -2.330858
v -5.482215 -7.649221 -2.637373
v -5.491410 -7.604445 -2.565710
v -6.136697 -7.280107 -2.758431
v -6.010526 -7.028727 -2.556019
v -5.917436 -7.382715 -2.919816
v -5.847373 -7.638790 -2.704756
v -5.820099 -7.569095 -2.225465
v -5.802306 -6.925542 -2.500433
v -5.628822 -7.415775 -2.515517
v -5.662791 -6.776508 -2.753057
v -5.637636 -7.406729 -2.438236
v -5.560047 -7.256705 -2.549314
v -5.401823 -6.973606 -2.633502
v -6.177837 -7.480501 -2.759382
v -6.140391 -7.198061 -2.291996
v -6.145595 -7.442759 -2.690928
v -6.072392 -7.583488 -2.646207
v -5.914946 -7.572808 -2.537211
v -5.811370 -6.840695 -2.563313
v -5.785186 -6.851405 -2.552321
v -5.638995 -7.172642 -2.689523
v -5.384785 -7.389114 -2.775669
v -6.135576 -7.185886 -2.429721
v -5.971048 -7.316353 -2.923563
v -5.822724 -7.305278 -2.833755
v -5.553194 -7.035394 -2.651745
v -5.434664 -7.466387 -3.101887
v -5.366160 -7.389356 -2.697279
v -5.344327 -7.321124 -2.737657
v -6.159439 -7.430902 -2.844412
v -6.099218 -7.687443 -2.198853
v -5.904739 -7.661948 -2.738003
v -5.779156 -6.887540 -2.794737
v -6.086933 -6.861182 -2.242064
v -5.351795 -7.232258 -2.853092
v -6.109179 -7.530641 -2.385943
v -6.016711 -7.720745 -2.686332
v -5.839474 -7.310097 -2.235447
v -5.510781 -7.697224 -2.606424
v -6.114444 -7.334830 -2.867436
v -6.056125 -7.278501 -2.895950
v -5.910967 -6.993956 -2.874241
v -6.075414 -7.412312 -2.622679
v -6.180000 -7.770000 -2.204296
v -6.180000 -7.770000 -2.501016
v -6.180000 -7.767872 -2.499580
v -6.180000 -7.701628 -3.006794
v -6.180000 -7.722694 -3.013920
v -6.180000 -7.739510 -3.023936
v -6.180000 -7.770000 -3.042342
v -6.180000 -7.770000 -2.735406
v -6.180000 -7.760342 -2.732490
v -6.180000 -7.756667 -2.731499
v -6.180000 -7.731621 -2.224491
v -6.180000 -7.695925 -2.241338
v -6.180000 -7.585682 -2.922089
v -6.180000 -7.613404 -2.947315
v -6.180000 -7.682618 -2.728165
v -6.180000 -7.647455 -2.967067
v -6.180000 -7.658304 -2.723513
v -6.180000 -7.589900 -2.730290
v -6.180000 -7.694008 -2.469535
v -6.180000 -7.624761 -2.378533
v -6.180000 -7.628355 -2.327867
v -6.180000 -7.644742 -2.403016
v -6.180000 -7.643724 -2.299982
v -6.180000 -7.680594 -2.445380
v -6.180000 -7.676961 -2.251567
v -6.180000 -7.495624 -2.757131
v -6.180000 -7.486539 -2.768245
v -6.180000 -7.521269 -2.853157
v -6.180000 -7.568264 -2.730560
v -6.180000 -7.322085 -2.329452
v -6.180000 -7.336826 -2.398195
v -6.180000 -7.290124 -2.442666
v -6.180000 -7.269277 -2.459754
v -6.180000 -7.264062 -2.460695
v -6.180000 -7.280086 -2.284356
v -6.180000 -7.260279 -2.270099
v -6.180000 -7.253901 -2.464545
v -6.180000 -7.216363 -2.250747
v -6.180000 -7.180402 -2.486356
v -6.180000 -7.179255 -2.235385
v -6.180000 -7.174899 -2.233090
v -6.180000 -6.883997 -2.197786
v -6.180000 -6.923793 -2.201581
v -6.180000 -6.994513 -2.202648
v -6.180000 -7.012733 -2.203248
v -6.180000 -7.029412 -2.204234
v -6.180000 -7.096990 -2.221145
v -6.180000 -7.263577 -2.271432
v -6.180000 -7.556888 -2.899489
v -6.180000 -7.487276 -2.835245
v -6.180000 -7.049376 -2.511797
v -6.180000 -7.022583 -2.508328
v -6.180000 -7.087487 -2.506989
v -6.180000 -6.865161 -2.535717
v -6.180000 -6.935580 -2.520742
v -6.180000 -6.957960 -2.519723
v -6.180000 -7.149021 -2.499186
v -6.180000 -6.850893 -3.006684
v -6.180000 -6.860084 -3.021961
v -6.180000 -6.847729 -3.052000
v -6.180000 -6.770000 -2.935997
v -6.180000 -6.807505 -2.951948
v -6.180000 -6.770083 -2.935997
v -6.180000 -6.770000 -2.539581
v -6.180000 -6.770000 -2.209019
v -6.180000 -6.783607 -2.535899
v -6.180000 -6.797549 -2.205626
v -6.180000 -6.831233 -3.099207
v -6.180000 -6.818841 -3.110000
v -6.180000 -6.855664 -2.537081
v -6.180000 -6.857878 -2.536590
v -6.180000 -6.838820 -2.202176
v -6.157847 -6.770000 -2.963416
v -6.179960 -6.770000 -2.936011
v -6.116003 -6.770000 -2.224145
v -6.122430 -6.770000 -2.218789
v -6.125483 -6.770000 -2.217886
v -6.123232 -6.770000 -2.218297
v -6.134355 -6.770000 -2.992085
v -6.144619 -6.770000 -2.980062
v -6.083293 -6.770000 -2.678680
v -6.080767 -6.770000 -2.730335
v -6.051057 -6.770000 -2.783368
v -6.043744 -6.770000 -2.467651
v -6.026839 -6.770000 -2.424248
v -6.070157 -6.770000 -2.494214
v -6.114485 -6.770000 -3.044022
v -6.033827 -6.770000 -2.810618
v -6.078566 -6.770000 -2.643721
v -6.126750 -6.770000 -2.533607
v -6.062547 -6.770000 -2.603493
v -6.100020 -6.770000 -2.523560
v -6.022765 -6.770000 -2.346937
v -6.044280 -6.770000 -2.287597
v -6.050972 -6.770000 -2.276655
v -5.964914 -6.770000 -2.850476
v -5.935253 -6.770000 -2.853939
v -6.012041 -6.770000 -2.823469
v -5.985802 -6.770000 -2.536028
v -5.996829 -6.770000 -2.538798
v -6.003405 -6.770000 -2.545952
v -5.777463 -6.770000 -2.601284
v -5.764072 -6.770000 -2.590100
v -5.789474 -6.770000 -2.583086
v -5.837152 -6.770000 -2.541467
v -5.836548 -6.770000 -2.541747
v -5.904217 -6.770000 -2.518033
v -5.758174 -6.770000 -2.631891
v -5.760959 -6.770000 -2.598072
v -5.743803 -6.770000 -2.480514
v -5.758080 -6.770000 -2.498602
v -5.758242 -6.770000 -2.500465
v -5.622045 -6.770000 -2.405615
v -5.675226 -6.770000 -2.417429
v -5.716402 -6.770000 -2.448835
v -5.533064 -6.770000 -2.420143
v -5.590004 -6.770000 -2.406265
v -5.720800 -6.770000 -2.451360
v -6.020581 -6.770000 -2.377509
v -6.123086 -6.770000 -3.110000
v -6.117131 -6.770000 -3.098613
v -5.868264 -6.770000 -2.849875
v -5.892712 -6.770000 -2.854002
v -6.104240 -6.770000 -3.072771
v -5.765471 -6.770000 -2.771200
v -5.802006 -6.770000 -2.815408
v -5.746913 -6.770000 -2.692890
v -5.747236 -6.770000 -2.699556
v -5.746379 -6.770000 -2.695652
v -5.746421 -6.770000 -2.694581
v -5.810736 -6.770000 -2.823661
v -5.731743 -6.770000 -2.687896
v -5.729003 -6.770000 -2.690706
v -5.709177 -6.770000 -2.709899
v -5.529666 -6.770000 -2.902057
v -5.596972 -6.770000 -2.779610
v -5.654759 -6.770000 -2.759321
v -5.665378 -6.770000 -2.753733
v -5.512898 -6.770000 -2.766047
v -5.515704 -6.770000 -2.767810
v -5.499389 -6.770000 -2.784188
v -5.519558 -6.770000 -2.768279
v -5.521297 -6.770000 -2.842455
v -5.523976 -6.770000 -2.956374
v -5.509931 -6.770000 -2.980314
v -5.529580 -6.770000 -2.864418
v -5.477236 -6.770000 -2.745748
v -5.479183 -6.770000 -2.748571
v -5.470714 -6.770000 -2.743022
v -5.475560 -6.770000 -2.742724
v -5.488205 -6.770000 -2.764958
v -5.497689 -6.770000 -2.757243
v -5.419908 -6.770000 -2.610617
v -5.422935 -6.770000 -2.571786
v -5.435990 -6.770000 -2.653101
v -5.439422 -6.770000 -2.520027
v -5.444993 -6.770000 -2.699531
v -5.442035 -6.770000 -2.732289
v -5.422608 -6.770000 -2.724722
v -5.468555 -6.770000 -2.469108
v -5.486747 -6.770000 -2.454529
v -5.292053 -6.770000 -3.089903
v -5.232654 -6.770000 -3.044626
v -5.345169 -6.770000 -3.096002
v -5.247867 -6.770000 -2.781309
v -5.311571 -6.770000 -2.730834
v -5.327181 -6.770000 -2.726352
v -5.195409 -6.770000 -2.875299
v -5.195558 -6.770000 -2.886858
v -5.192733 -6.770000 -2.953591
v -5.218991 -6.770000 -3.023440
v -5.222468 -6.770000 -3.034459
v -5.203773 -6.770000 -2.855332
v -5.229816 -6.770000 -2.798711
v -5.390775 -6.770000 -3.095022
v -5.444355 -6.770000 -3.059886
v -5.401386 -6.770000 -2.719446
v -5.483251 -6.770000 -3.033337
v -6.079463 -7.770000 -2.187644
v -6.014515 -7.770000 -2.194905
v -6.067214 -7.770000 -2.186736
v -5.864676 -7.770000 -2.373988
v -5.876716 -7.770000 -2.311983
v -5.882807 -7.770000 -2.284889
v -5.914864 -7.770000 -2.249439
v -5.967212 -7.770000 -2.214041
v -5.945153 -7.770000 -2.222330
v -5.726042 -7.770000 -2.478642
v -5.752335 -7.770000 -2.482421
v -5.719790 -7.770000 -2.480371
v -5.614210 -7.770000 -2.526166
v -5.645328 -7.770000 -2.499961
v -5.543889 -7.770000 -2.636487
v -5.543988 -7.770000 -2.638193
v -5.563706 -7.770000 -2.722917
v -5.544695 -7.770000 -2.634619
v -5.573715 -7.770000 -2.560493
v -6.172740 -7.770000 -2.505969
v -6.170138 -7.770000 -2.730111
v -6.129330 -7.770000 -2.709488
v -6.157374 -7.770000 -2.510384
v -6.124356 -7.770000 -3.063532
v -6.150911 -7.770000 -3.053302
v -6.177780 -7.770000 -2.502134
v -6.162091 -7.770000 -2.196072
v -6.156539 -7.770000 -2.192877
v -6.086910 -7.770000 -2.521059
v -6.087320 -7.770000 -2.700112
v -6.046674 -7.770000 -2.701825
v -6.053094 -7.770000 -2.516528
v -6.014421 -7.770000 -2.705671
v -5.985053 -7.770000 -2.721221
v -5.934816 -7.770000 -2.622777
v -6.047458 -7.770000 -3.048705
v -6.029154 -7.770000 -3.043419
v -5.966794 -7.770000 -2.995867
v -5.958374 -7.770000 -2.754645
v -5.999671 -7.770000 -2.512472
v -5.950809 -7.770000 -2.493191
v -5.920140 -7.770000 -2.886010
v -5.911440 -7.770000 -2.848349
v -5.924290 -7.770000 -2.811952
v -5.883264 -7.770000 -2.434919
v -5.881115 -7.770000 -2.428350
v -5.891727 -7.770000 -2.442959
v -5.927281 -7.770000 -2.707438
v -5.925656 -7.770000 -2.711688
v -5.920470 -7.770000 -2.716663
v -5.884316 -7.770000 -2.539580
v -5.929318 -7.770000 -2.479973
v -5.798349 -7.770000 -2.812879
v -5.795045 -7.770000 -2.812727
v -5.803526 -7.770000 -2.810899
v -5.812090 -7.770000 -2.492830
v -5.823890 -7.770000 -2.502571
v -5.687855 -7.770000 -2.815550
v -5.626621 -7.770000 -2.793146
v -5.696030 -7.770000 -2.815322
v -5.583577 -7.770000 -2.748424
v -5.618765 -7.770000 -2.790293
v -5.764045 -7.770000 -2.813474
v -5.877895 -7.770000 -2.767099
v -5.926940 -7.770000 -2.933816
v -5.934419 -7.770000 -2.778377
v -5.926933 -7.770000 -2.607253
v -5.949080 -7.770000 -2.975765
v -5.933436 -7.770000 -2.616448
v -5.511687 -7.364870 -3.110000
v -5.497689 -7.341573 -3.110000
v -5.477543 -7.295842 -3.110000
v -5.377024 -7.291865 -3.110000
v -5.390746 -7.382854 -3.110000
v -5.382246 -7.306688 -3.110000
v -5.417137 -7.462121 -3.110000
v -5.425472 -7.486897 -3.110000
v -5.396570 -7.400507 -3.110000
v -5.391440 -7.240122 -3.110000
v -5.432609 -7.279038 -3.110000
v -6.164168 -6.809665 -3.110000
v -6.168265 -6.812219 -3.110000
v -6.163562 -6.809478 -3.110000
v -5.593567 -7.682832 -3.110000
v -5.594881 -7.672884 -3.110000
v -5.594168 -7.616176 -3.110000
v -5.593190 -7.603916 -3.110000
v -6.162961 -6.809232 -3.110000
v -5.561987 -7.501874 -3.110000
v -5.564054 -7.483341 -3.110000
v -5.582231 -7.548015 -3.110000
v -5.487326 -7.593046 -3.110000
v -5.458942 -7.525390 -3.110000
v -5.530662 -7.420968 -3.110000
v -5.578316 -7.673539 -3.110000
v -5.585344 -7.678221 -3.110000
v -5.514280 -7.601368 -3.110000
v -5.571172 -7.615864 -3.110000
v -5.589473 -7.596296 -3.110000
vn -1.0000 -0.0000 -0.0000
vn -0.0000 1.0000 -0.0000
vn -0.0000 -1.0000 -0.0000
vn -0.0000 -0.0000 -1.0000
vn 0.0617 -0.1498 -0.9868
vn 0.3452 -0.1692 -0.9232
vn 0.1595 -0.1292 -0.9787
vn 0.4283 -0.0973 -0.8984
vn 0.2231 -0.0525 -0.9734
vn -0.3125 0.4873 -0.8154
vn -0.3070 0.4919 -0.8148
vn -0.3127 0.4870 -0.8155
vn 0.5742 -0.0645 -0.8162
vn 0.5979 -0.3163 0.7365
vn 0.6327 -0.3994 0.6634
vn 0.7536 -0.3665 0.5457
vn -0.5399 0.3537 -0.7638
vn -0.3853 0.5162 -0.7649
vn -0.5392 0.3546 -0.7639
vn 0.8854 -0.3355 0.3217
vn 0.4863 -0.6555 -0.5778
vn 0.6478 -0.6752 -0.3528
vn 0.3476 -0.6159 -0.7071
vn 0.3452 -0.6093 -0.7139
vn 0.6640 -0.2134 -0.7166
vn 0.8186 -0.2645 -0.5099
vn 0.8198 -0.2873 -0.4954
vn 0.1762 0.0877 0.9804
vn 0.1594 0.1207 0.9798
vn 0.1723 0.0954 0.9804
vn 0.3329 -0.1195 -0.9354
vn 0.6285 -0.1739 0.7581
vn 0.3361 -0.0026 0.9418
vn 0.7013 -0.2224 0.6773
vn -0.4069 0.4088 -0.8169
vn -0.3801 0.3431 -0.8589
vn -0.6435 0.4158 -0.6427
vn 0.2524 -0.5071 -0.8241
vn 0.7483 -0.2541 0.6127
vn 0.3537 0.0064 0.9353
vn 0.1818 0.0861 0.9796
vn 0.2601 -0.0298 0.9651
vn 0.3131 -0.0169 0.9496
vn 0.2870 -0.0441 0.9569
vn 0.4395 -0.1134 0.8910
vn 0.5013 -0.1811 0.8461
vn -0.6364 0.4402 -0.6334
vn -0.6772 0.4028 -0.6157
vn -0.7569 0.4161 -0.5040
vn 0.7460 -0.2451 0.6192
vn 0.5469 -0.1713 0.8195
vn -0.4357 0.3954 0.8086
vn -0.4513 0.3854 0.8049
vn -0.3765 0.4314 0.8199
vn 0.9209 -0.2672 -0.2837
vn -0.3448 0.3037 0.8882
vn -0.2913 0.2579 0.9212
vn -0.4589 0.4024 0.7922
vn -0.6225 0.5007 -0.6015
vn -0.5701 0.4219 -0.7049
vn -0.4149 0.3292 -0.8482
vn -0.8652 0.1927 0.4630
vn -0.9562 0.1895 0.2231
vn -0.9585 0.2820 0.0418
vn -0.7884 0.5887 -0.1782
vn -0.7918 0.5950 0.1381
vn -0.7750 0.5915 0.2224
vn -0.7872 0.5833 -0.2002
vn 0.1309 -0.1384 -0.9817
vn 0.4600 -0.1613 -0.8731
vn 0.2865 -0.1432 -0.9473
vn 0.1077 -0.2597 -0.9597
vn 0.1811 -0.2091 -0.9610
vn 0.7145 -0.1906 -0.6731
vn 0.6203 -0.0984 -0.7782
vn 0.6290 -0.7205 -0.2920
vn 0.6859 -0.2742 0.6740
vn 0.7224 -0.2144 -0.6574
vn 0.3851 0.0267 0.9225
vn -0.6963 0.3618 -0.6199
vn -0.7812 0.4274 -0.4550
vn -0.8453 0.3258 -0.4234
vn 0.2130 -0.5782 -0.7876
vn -0.2521 0.3025 -0.9192
vn -0.1101 0.0024 -0.9939
vn 0.5190 -0.1061 0.8482
vn 0.3035 -0.0603 0.9509
vn 0.7611 -0.2143 0.6122
vn -0.7698 0.0249 0.6378
vn -0.6702 -0.0842 0.7374
vn -0.5993 -0.0661 0.7978
vn -0.3103 0.4011 -0.8619
vn -0.0116 0.3539 -0.9352
vn -0.1403 0.4251 -0.8942
vn -0.0321 -0.1261 -0.9915
vn -0.6149 -0.1073 0.7813
vn -0.4818 -0.1813 0.8573
vn -0.4180 -0.1765 0.8911
vn 0.9328 -0.3600 0.0188
vn 0.8508 -0.3202 0.4166
vn 0.7846 -0.4013 0.4726
vn 0.7627 -0.3928 0.5138
vn 0.7952 -0.5092 0.3293
vn -0.8420 0.0622 0.5358
vn -0.9751 0.2205 -0.0243
vn -0.7056 0.0046 0.7086
vn -0.7443 0.5621 0.3605
vn -0.6224 0.4998 0.6023
vn 0.9313 -0.3443 -0.1189
vn 0.7648 -0.6438 -0.0256
vn 0.7819 -0.6154 0.0994
vn 0.7530 -0.2566 0.6060
vn 0.9116 -0.2907 -0.2906
vn 0.8751 -0.2803 -0.3945
vn -0.3259 -0.2327 0.9163
vn -0.4440 -0.2407 0.8631
vn -0.4433 -0.2398 0.8637
vn -0.1770 -0.2327 0.9563
vn 0.7485 -0.2486 0.6147
vn 0.7315 -0.3010 0.6118
vn 0.7303 -0.2288 -0.6437
vn 0.5693 -0.1860 -0.8008
vn 0.3441 -0.1655 -0.9242
vn -0.2664 -0.2049 0.9418
vn 0.5644 -0.1669 -0.8085
vn 0.5948 -0.6713 -0.4422
vn -0.2807 0.3864 -0.8786
vn -0.8961 0.0923 0.4340
vn -0.9816 0.1888 -0.0274
vn 0.7957 -0.4606 0.3934
vn 0.8089 -0.2204 -0.5450
vn -0.8414 0.0511 0.5380
vn -0.5052 -0.0926 0.8580
vn -0.4051 -0.1042 0.9083
vn 0.9457 -0.3127 0.0884
vn 0.6623 -0.6668 -0.3417
vn 0.7670 -0.6354 -0.0890
vn 0.1261 0.2945 -0.9473
vn 0.8585 -0.1519 0.4898
vn 0.6584 -0.6692 -0.3444
vn 0.8015 -0.5182 0.2985
vn -0.9712 0.1062 0.2130
vn -0.9123 0.2005 -0.3571
vn -0.5675 0.2911 -0.7702
vn -0.2103 0.2880 -0.9343
vn -0.6310 -0.0331 0.7751
vn 0.2361 0.3071 -0.9219
vn -0.3318 0.2063 -0.9205
vn 0.1035 -0.2853 0.9528
vn -0.5624 0.2272 -0.7951
vn -0.8277 0.2421 -0.5063
vn -0.9569 0.1578 -0.2438
vn 0.6753 -0.0477 0.7360
vn 0.5666 0.0102 0.8240
vn 0.9343 -0.2954 0.1998
vn -0.9470 0.0845 0.3099
vn -0.7123 -0.0105 0.7018
vn -0.0423 -0.3142 0.9484
vn 0.8199 -0.0442 0.5708
vn 0.7333 -0.0179 0.6796
vn 0.6389 0.0482 0.7678
vn -0.9907 0.1123 -0.0772
vn -0.4262 0.3700 0.8255
vn -0.5755 0.4372 0.6911
vn -0.0159 0.0775 0.9969
vn -0.4588 0.2660 -0.8478
vn -0.8823 0.0552 0.4675
vn -0.6463 -0.0182 0.7629
vn 0.9495 -0.2524 -0.1866
vn 0.9476 -0.2273 0.2243
vn -0.3128 0.2900 -0.9045
vn -0.7721 0.2880 -0.5665
vn -0.0191 0.2295 -0.9731
vn 0.8870 -0.1922 -0.4199
vn -0.7845 0.5714 0.2409
vn -0.8134 0.5627 -0.1476
vn -0.7731 0.1678 -0.6117
vn -0.6710 0.1962 -0.7150
vn -0.6592 0.4708 -0.5863
vn -0.6707 0.4141 -0.6154
vn -0.8078 0.5370 -0.2431
vn 0.6881 -0.2347 -0.6866
vn 0.8022 -0.1943 -0.5645
vn -0.9123 0.0946 -0.3985
vn -0.9930 0.0757 0.0901
vn -0.9868 0.0253 0.1597
vn -0.8960 0.1354 -0.4228
vn -0.9465 0.0543 -0.3181
vn -0.1893 -0.1908 0.9632
vn -0.9843 0.0482 0.1700
vn -0.9705 0.0248 -0.2398
vn -0.9998 0.0200 -0.0034
vn -0.9530 0.0337 0.3011
vn -0.7962 -0.0001 0.6050
vn -0.8495 0.0259 0.5270
vn -0.7608 -0.0177 0.6487
vn -0.5856 0.1317 -0.7998
vn -0.3025 0.1251 -0.9449
vn -0.6457 0.0729 -0.7601
vn 0.2485 0.2143 -0.9446
vn 0.0858 -0.2228 -0.9711
vn -0.4079 -0.0853 0.9091
vn -0.8507 0.0456 -0.5237
vn -0.7108 0.0657 -0.7003
vn 0.9807 -0.1938 -0.0269
vn -0.0753 0.1813 -0.9806
vn 0.1190 -0.2278 0.9664
vn -0.0836 -0.0049 -0.9965
vn -0.3867 0.1857 -0.9033
vn 0.5163 0.1488 -0.8434
vn 0.3664 0.2461 -0.8973
vn -0.4750 0.0023 0.8800
vn -0.7011 0.0710 0.7095
vn -0.2473 -0.1066 0.9631
vn 0.9241 -0.1318 0.3586
vn -0.6239 0.3380 -0.7046
vn -0.7886 0.5533 0.2683
vn -0.5259 -0.0070 0.8505
vn -0.3477 -0.0614 0.9356
vn 0.1189 -0.1463 -0.9821
vn 0.2018 -0.2598 -0.9443
vn 0.3466 0.1518 -0.9256
vn 0.9862 -0.1348 0.0961
vn -0.2096 0.1584 -0.9649
vn 0.3462 -0.2378 0.9075
vn 0.1466 -0.0737 0.9864
vn 0.2602 -0.2138 0.9416
vn 0.9588 -0.1835 -0.2170
vn 0.6983 0.0862 -0.7106
vn -0.1245 -0.1416 0.9821
vn -0.5034 -0.0301 0.8635
vn -0.8324 0.4752 -0.2851
vn -0.2898 -0.0234 0.9568
vn 0.1281 -0.1927 0.9729
vn 0.2975 -0.3369 0.8933
vn 0.2295 -0.3244 0.9177
vn 0.0916 -0.3751 0.9225
vn -0.7937 0.5210 0.3140
vn -0.5028 0.1059 -0.8579
vn -0.3415 0.0619 -0.9378
vn 0.6213 0.0800 -0.7794
vn 0.9821 -0.1731 -0.0744
vn -0.4806 0.4051 0.7778
vn -0.2833 0.0635 -0.9569
vn 0.4553 0.0931 -0.8855
vn 0.0671 0.2120 -0.9750
vn 0.5822 -0.3771 0.7203
vn 0.2861 -0.3450 0.8939
vn 0.6721 -0.4841 0.5603
vn 0.7862 -0.3809 0.4866
vn 0.7943 -0.4213 0.4377
vn 0.1184 -0.0544 0.9915
vn 0.0410 -0.1369 0.9897
vn 0.9691 -0.0926 0.2285
vn 0.3758 -0.3257 -0.8676
vn 0.4800 -0.4238 -0.7681
vn 0.4105 -0.2558 0.8752
vn -0.8698 0.4893 -0.0638
vn -0.5956 0.2186 -0.7729
vn -0.0544 0.0879 -0.9946
vn -0.2538 0.0473 -0.9661
vn 0.6192 -0.3894 0.6818
vn 0.5340 -0.3856 0.7524
vn 0.7538 -0.3654 0.5462
vn -0.1728 0.1971 0.9650
vn 0.2328 -0.1035 0.9670
vn -0.2437 0.2345 0.9411
vn 0.4132 -0.2352 0.8797
vn -0.2189 -0.0368 0.9750
vn 0.0427 -0.0213 0.9989
vn 0.5070 -0.3086 0.8048
vn 0.3058 -0.1753 0.9358
vn -0.7808 0.3628 -0.5087
vn 0.8865 -0.1339 -0.4430
vn 0.4859 -0.2691 0.8316
vn 0.5852 -0.5307 -0.6132
vn 0.5306 -0.4992 -0.6850
vn 0.2160 0.0912 -0.9721
vn 0.6703 -0.2735 0.6899
vn 0.1382 0.0928 -0.9860
vn 0.5741 0.0577 -0.8168
vn 0.7185 0.0139 -0.6953
vn 0.0848 -0.0709 0.9939
vn 0.0367 0.0590 -0.9976
vn 0.2821 -0.2661 -0.9217
vn -0.0773 0.0429 -0.9961
vn -0.7912 0.4833 0.3746
vn -0.8235 0.5239 0.2178
vn -0.8471 0.5312 0.0119
vn -0.8314 0.5342 -0.1529
vn -0.7879 0.5056 -0.3515
vn -0.7286 0.4718 -0.4965
vn 0.0035 -0.1025 -0.9947
vn -0.4777 0.4185 0.7724
vn -0.6750 0.4949 0.5472
vn 0.6048 -0.3874 0.6958
vn 0.1165 0.0329 0.9926
vn 0.7803 0.0540 -0.6231
vn 0.2872 0.0893 -0.9537
vn 0.6376 -0.2377 0.7328
vn 0.4354 -0.1637 0.8852
vn 0.8506 -0.4371 0.2922
vn -0.5392 0.1283 -0.8323
vn -0.7565 0.4388 0.4849
vn 0.9097 -0.1306 -0.3942
vn 0.2563 -0.0687 0.9642
vn -0.8395 0.3325 -0.4298
vn -0.8785 0.4678 0.0972
vn 0.7669 -0.0257 -0.6413
vn -0.0586 0.1843 0.9811
vn 0.9266 -0.2115 -0.3111
vn 0.9359 -0.2927 -0.1963
vn 0.6407 -0.3179 0.6989
vn 0.7293 -0.5516 0.4048
vn 0.7357 -0.5043 0.4521
vn 0.5303 -0.1599 0.8326
vn 0.1123 0.0149 -0.9936
vn -0.7238 0.4028 0.5602
vn -0.6431 0.4222 0.6389
vn 0.9399 -0.3349 0.0659
vn 0.9237 -0.3832 0.0017
vn 0.8202 -0.3043 0.4843
vn 0.6348 -0.0294 0.7721
vn -0.1578 -0.0830 -0.9840
vn 0.4036 -0.3367 -0.8507
vn 0.2652 -0.2798 -0.9227
vn -0.0088 0.1392 0.9902
vn -0.7160 0.4631 0.5224
vn -0.8612 0.5081 -0.0108
vn 0.8869 -0.3023 0.3494
vn 0.7519 -0.0097 -0.6592
vn -0.5791 0.3104 0.7539
vn 0.6312 0.0046 -0.7756
vn 0.9549 -0.2781 0.1037
vn 0.4002 -0.0999 0.9110
vn -0.9124 0.3994 -0.0896
vn -0.6998 0.4224 -0.5760
vn 0.5198 0.0310 -0.8537
vn -0.5896 0.3743 -0.7157
vn -0.6961 0.3768 -0.6111
vn 0.6593 -0.5054 -0.5566
vn 0.8033 -0.5909 -0.0746
vn 0.7977 -0.5456 -0.2570
vn 0.7047 -0.5497 -0.4487
vn -0.0287 -0.1705 -0.9849
vn 0.8243 -0.5651 -0.0347
vn 0.5632 -0.1685 0.8090
vn -0.2236 0.3314 0.9166
vn 0.4298 0.0241 -0.9026
vn 0.5106 -0.0793 0.8562
vn -0.3206 0.3426 0.8831
vn -0.8240 0.2492 -0.5088
vn -0.4536 0.3438 -0.8222
vn -0.2687 0.1548 -0.9507
vn 0.2642 0.0190 -0.9643
vn 0.9636 -0.1614 -0.2132
vn -0.8877 0.4099 0.2096
vn -0.9065 0.2682 -0.3260
vn 0.8427 -0.1589 0.5144
vn -0.1751 0.0830 -0.9810
vn 0.6019 -0.0468 -0.7972
vn 0.8403 -0.0375 -0.5409
vn 0.6593 -0.4871 -0.5727
vn -0.5858 0.0935 -0.8050
vn 0.8183 -0.5508 0.1644
vn 0.9511 -0.2431 0.1904
vn -0.8394 0.4340 -0.3273
vn 0.7522 -0.2077 0.6253
vn -0.6390 0.0946 -0.7634
vn 0.8394 -0.2503 0.4824
vn -0.1040 -0.1650 -0.9808
vn -0.5674 0.0924 0.8183
vn -0.5810 0.4105 0.7028
vn -0.2720 0.3412 0.8998
vn 0.9650 -0.2414 0.1029
vn 0.3160 -0.3498 -0.8819
vn 0.3214 -0.0507 0.9456
vn -0.9572 0.2857 0.0454
vn 0.9564 -0.1429 -0.2546
vn 0.9546 -0.1441 -0.2607
vn 0.7723 -0.0245 -0.6348
vn -0.8696 0.4388 0.2266
vn -0.8798 0.4394 -0.1816
vn -0.5695 0.2933 -0.7679
vn -0.4545 0.2171 0.8639
vn -0.4078 0.1980 0.8914
vn 0.8706 -0.1830 0.4566
vn -0.5996 0.3366 0.7261
vn -0.7761 0.4100 0.4791
vn 0.8638 -0.0430 -0.5021
vn 0.9270 -0.2100 0.3109
vn 0.8620 -0.0224 -0.5065
vn 0.7068 -0.0789 -0.7030
vn 0.0799 0.1870 0.9791
vn 0.4863 -0.2362 0.8413
vn 0.8184 0.0067 -0.5746
vn -0.1892 -0.1688 -0.9673
vn -0.7865 0.4505 0.4223
vn -0.9353 0.1301 -0.3291
vn -0.6997 0.0189 -0.7142
vn 0.8174 -0.5738 -0.0504
vn -0.1598 0.0685 -0.9848
vn 0.6637 -0.4755 -0.5774
vn 0.9857 -0.1678 0.0136
vn 0.9209 -0.0836 -0.3808
vn 0.2182 0.0823 0.9724
vn 0.4834 -0.1349 0.8649
vn 0.9739 -0.1321 -0.1844
vn -0.3427 -0.1273 -0.9308
vn -0.6816 0.3286 -0.6538
vn -0.3100 0.1206 -0.9431
vn -0.8549 0.3544 0.3790
vn 0.9264 -0.0347 0.3749
vn 0.8341 -0.0997 0.5425
vn 0.7736 -0.0633 0.6305
vn -0.8878 0.4603 0.0050
vn -0.7735 0.3393 -0.5353
vn -0.2278 0.7990 0.5566
vn 0.7855 -0.5544 0.2752
vn 0.7455 -0.4583 0.4840
vn 0.9920 -0.1139 -0.0548
vn -0.7098 -0.1407 -0.6902
vn 0.3756 -0.8079 -0.4542
vn -0.9743 0.2249 -0.0144
vn 0.9789 -0.1709 0.1123
vn -0.3995 0.2974 0.8671
vn 0.9133 -0.0340 -0.4058
vn -0.4058 0.3957 0.8238
vn -0.1693 0.0940 0.9811
vn 0.0383 -0.0472 0.9981
vn -0.7273 0.4293 0.5355
vn -0.2161 -0.2506 -0.9437
vn -0.0715 0.3151 0.9464
vn -0.0056 0.0056 -1.0000
vn -0.4767 0.4354 0.7637
vn 0.0358 -0.1071 0.9936
vn -0.9703 0.2120 -0.1164
vn 0.9038 -0.0423 -0.4258
vn 0.8210 -0.5286 -0.2158
vn 0.3028 0.1135 0.9463
vn 0.3590 -0.3467 -0.8665
vn -0.8378 -0.0015 -0.5459
vn 0.4571 0.0638 -0.8871
vn -0.1064 0.1106 0.9882
vn 0.8458 -0.4774 0.2381
vn -0.3880 0.1006 -0.9161
vn -0.0276 -0.0448 -0.9986
vn -0.0270 -0.0435 -0.9987
vn 0.9286 -0.1018 0.3567
vn -0.8741 0.4621 0.1496
vn 0.9962 -0.0128 -0.0862
vn -0.8616 0.3627 -0.3550
vn -0.8702 0.3564 0.3403
vn 0.9954 -0.0869 0.0406
vn -0.3451 -0.2993 -0.8896
vn -0.8926 0.3386 0.2977
vn -0.6358 0.4438 0.6315
vn -0.7162 0.4093 0.5653
vn 0.9961 -0.0806 -0.0362
vn 0.9700 -0.1348 0.2021
vn -0.6415 -0.1217 -0.7574
vn 0.7970 -0.3710 0.4767
vn 0.6632 -0.3095 0.6815
vn 0.9682 -0.0737 -0.2389
vn 0.9948 -0.0706 -0.0728
vn 0.9646 -0.1781 0.1944
vn -0.4778 0.4483 0.7555
vn -0.7289 0.3997 0.5559
vn 0.3356 -0.3658 -0.8680
vn 0.1114 -0.3130 -0.9432
vn -0.9239 0.3824 -0.0114
vn -0.6171 0.1616 -0.7702
vn -0.4271 0.3142 0.8479
vn 0.0933 -0.0989 -0.9907
vn 0.1447 -0.1088 -0.9835
vn -0.0448 0.3517 0.9350
vn -0.5908 0.3969 0.7024
vn -0.7898 0.2135 -0.5750
vn -0.4261 -0.2873 -0.8578
vn -0.4133 -0.2968 -0.8608
vn -0.5002 0.5261 0.6878
vn -0.3173 0.4521 0.8336
vn 0.8680 -0.4928 -0.0618
vn -0.8259 0.3953 0.4021
vn 0.2537 -0.1635 0.9533
vn 0.6809 -0.2061 0.7028
vn -0.9371 0.3375 -0.0894
vn 0.1116 -0.1060 -0.9881
vn 0.5287 -0.0510 0.8472
vn 0.0981 0.2800 0.9550
vn -0.0802 0.1366 0.9874
vn 0.1538 -0.0047 0.9881
vn -0.8269 0.4312 0.3610
vn 0.6851 -0.4858 -0.5428
vn 0.0410 0.1056 0.9936
vn 0.5697 -0.4158 -0.7089
vn 0.4170 -0.1989 0.8869
vn 0.0498 -0.4129 -0.9094
vn 0.7136 -0.4522 -0.5350
vn -0.2950 0.2483 0.9227
vn -0.8179 0.1916 -0.5425
vn 0.4376 0.1128 0.8921
vn 0.4017 -0.2332 0.8856
vn -0.9195 0.3832 -0.0872
vn -0.3582 -0.0161 -0.9335
vn 0.1541 -0.1897 -0.9697
vn -0.2133 -0.0694 -0.9745
vn -0.4620 -0.0130 -0.8868
vn 0.0864 0.3648 0.9271
vn 0.3578 -0.4055 -0.8412
vn 0.1727 -0.4173 -0.8922
vn 0.8789 -0.4187 0.2286
vn 0.0140 0.4021 0.9155
vn -0.1343 0.4258 0.8948
vn -0.0375 -0.4286 -0.9027
vn -0.4865 -0.3091 -0.8172
vn -0.3271 -0.4140 -0.8495
vn -0.0795 -0.4663 -0.8810
vn 0.6973 -0.0833 0.7119
vn -0.9004 0.2194 -0.3756
vn 0.8499 -0.4946 -0.1819
vn -0.4647 0.1290 0.8760
vn -0.3896 0.0831 0.9172
vn -0.1914 -0.0006 0.9815
vn 0.6119 -0.3199 0.7233
vn 0.8908 -0.4462 -0.0856
vn -0.5480 -0.0351 -0.8358
vn -0.3489 0.0090 0.9371
vn 0.3350 -0.2023 -0.9202
vn 0.8544 -0.3080 0.4185
vn 0.1460 -0.4295 -0.8912
vn -0.1902 0.0761 0.9788
vn -0.8956 0.4014 0.1916
vn -0.5432 0.3806 0.7484
vn -0.6129 0.4204 0.6690
vn 0.3774 -0.0843 0.9222
vn 0.7618 -0.4443 -0.4715
vn 0.7801 -0.4187 -0.4650
vn -0.9327 0.3352 0.1333
vn -0.9156 0.1826 -0.3583
vn 0.3903 0.2584 0.8837
vn 0.5455 -0.3113 -0.7782
vn 0.4894 -0.2904 -0.8223
vn 0.6077 -0.2478 0.7545
vn -0.3423 -0.0199 0.9394
vn -0.1009 -0.1931 0.9760
vn -0.0134 -0.1275 0.9918
vn 0.1681 -0.2379 -0.9566
vn -0.0593 0.2301 0.9713
vn -0.5296 0.3611 0.7675
vn -0.7623 0.4075 0.5029
vn 0.4813 0.1507 0.8635
vn 0.1783 0.3581 0.9165
vn -0.6151 -0.0653 -0.7858
vn 0.7748 -0.1949 0.6014
vn -0.9444 0.2021 -0.2593
vn 0.7209 -0.3852 0.5761
vn 0.7456 -0.3910 0.5397
vn -0.8645 0.3673 0.3431
vn 0.5742 -0.3338 -0.7476
vn 0.4740 0.2398 0.8473
vn -0.6828 0.0050 -0.7306
vn 0.6517 -0.4277 -0.6264
vn -0.3461 0.1486 0.9263
vn -0.2362 0.0180 0.9715
vn -0.1164 0.0490 0.9920
vn 0.0604 -0.2444 -0.9678
vn 0.7176 -0.3953 -0.5733
vn 0.6497 0.1477 0.7457
vn -0.6348 0.4214 0.6477
vn 0.9211 -0.3857 0.0523
vn -0.1107 0.3066 0.9454
vn -0.2547 0.3094 0.9162
vn 0.2681 0.0577 0.9616
vn 0.1240 -0.4693 -0.8743
vn 0.3122 -0.5195 -0.7954
vn 0.2360 0.1404 0.9616
vn 0.2082 -0.3425 0.9162
vn 0.2544 -0.1282 0.9586
vn 0.7995 -0.4951 0.3400
vn 0.4088 0.3045 0.8603
vn 0.8111 -0.0926 0.5775
vn -0.9826 0.1772 -0.0556
vn 0.3848 -0.4771 -0.7901
vn 0.5435 -0.4234 -0.7249
vn -0.7862 -0.0104 -0.6178
vn 0.5240 -0.1359 0.8408
vn 0.6348 -0.4288 -0.6428
vn 0.8308 -0.4516 -0.3252
vn 0.7834 -0.4500 -0.4288
vn 0.7604 0.0387 0.6483
vn -0.0926 -0.2657 -0.9596
vn 0.9233 -0.2532 0.2889
vn 0.1684 -0.1136 0.9792
vn -0.8990 0.3568 0.2541
vn -0.9608 0.2049 -0.1869
vn -0.8497 -0.0547 -0.5244
vn 0.8916 -0.3846 -0.2390
vn -0.7868 0.3941 0.4750
vn 0.7623 -0.3036 0.5716
vn -0.0208 -0.2567 -0.9663
vn 0.6142 -0.3818 -0.6906
vn -0.4315 0.2237 0.8740
vn -0.3713 0.1468 0.9168
vn -0.2025 0.1386 0.9694
vn 0.2920 -0.5081 -0.8103
vn -0.2097 -0.2395 -0.9480
vn -0.1941 0.0206 0.9808
vn 0.0443 -0.0814 0.9957
vn 0.8980 -0.4305 -0.0912
vn 0.4891 -0.0031 0.8722
vn -0.9442 0.3122 0.1048
vn -0.8153 0.3682 0.4469
vn 0.7278 0.1605 0.6668
vn 0.5746 0.3017 0.7608
vn 0.5316 -0.3928 -0.7504
vn -0.7810 -0.1070 -0.6153
vn -0.8950 -0.0225 -0.4456
vn -0.9466 0.0141 -0.3220
vn -0.9938 0.0633 -0.0918
vn -0.1199 0.1763 0.9770
vn -0.4632 -0.2756 -0.8423
vn 0.1657 0.2610 0.9510
vn -0.3936 0.4035 0.8260
vn 0.8443 -0.4373 -0.3097
vn 0.9376 -0.3176 -0.1413
vn 0.9025 -0.3234 -0.2845
vn -0.8694 -0.0189 -0.4938
vn -0.7422 -0.1845 -0.6443
vn -0.3310 -0.2326 -0.9145
vn 0.9476 -0.3116 0.0710
vn -0.4548 0.4224 0.7840
vn -0.5354 0.4224 0.7314
vn -0.9346 0.3177 0.1600
vn -0.1435 0.3602 0.9218
vn -0.8520 0.3431 0.3954
vn -0.8832 0.3311 0.3323
vn 0.4906 -0.3900 -0.7792
vn -0.4600 -0.2924 -0.8384
vn 0.8171 -0.3023 0.4909
vn 0.9299 -0.1626 0.3298
vn 0.8042 0.1317 0.5796
vn 0.8618 0.0038 0.5073
vn 0.7621 -0.4261 -0.4875
vn 0.4676 0.1099 0.8771
vn -0.7520 -0.3339 -0.5683
vn -0.7852 -0.3771 -0.4911
vn 0.5103 -0.4801 -0.7134
vn 0.8475 -0.3627 -0.3876
vn 0.5584 -0.6025 0.5703
vn 0.7249 -0.6818 -0.0981
vn -0.6864 -0.2353 -0.6881
vn 0.8996 -0.4263 0.0954
vn 0.7161 -0.1735 0.6761
vn 0.9561 -0.1066 0.2729
vn -0.1084 0.3953 0.9121
vn 0.1165 -0.1591 0.9804
vn 0.2819 -0.2003 0.9383
vn -0.8129 0.3621 0.4562
vn 0.8974 -0.4148 0.1501
vn -0.3106 -0.3811 -0.8708
vn -0.5323 -0.3056 -0.7895
vn 0.2074 -0.3691 -0.9060
vn 0.3043 -0.3715 -0.8771
vn 0.0711 -0.4290 -0.9005
vn 0.2630 -0.0515 0.9634
vn 0.1653 0.0369 0.9855
vn -0.0756 0.1478 0.9861
vn 0.2719 -0.1219 0.9546
vn 0.8735 -0.4330 -0.2225
vn 0.9385 -0.2741 -0.2101
vn 0.8320 -0.4361 -0.3430
vn -0.3109 0.4734 0.8242
vn -0.9646 -0.2585 0.0532
vn -0.1658 0.4319 0.8865
vn 0.1175 -0.4220 -0.8990
vn 0.8362 -0.4237 -0.3483
vn 0.9755 -0.2123 0.0578
vn -0.1864 -0.4967 -0.8477
vn 0.6983 -0.0636 0.7130
vn 0.9551 -0.0489 0.2922
vn 0.9031 0.0749 0.4228
vn 0.1337 -0.4365 -0.8897
vn 0.3959 0.1682 0.9028
vn 0.1239 0.2987 0.9463
vn 0.4321 -0.3952 -0.8106
vn -0.2796 0.4775 0.8330
vn 0.4087 0.2350 0.8819
vn 0.9811 -0.1513 0.1206
vn 0.0201 0.0990 0.9949
vn 0.8450 -0.2148 0.4897
vn 0.9194 -0.3502 0.1790
vn 0.8055 -0.4178 -0.4203
vn -0.0023 0.3608 0.9327
vn 0.2341 0.3557 0.9048
vn 0.9215 -0.2184 -0.3212
vn 0.9721 -0.1979 -0.1256
vn 0.6453 0.0145 0.7638
vn 0.6516 -0.4056 -0.6411
vn 0.7961 -0.4138 -0.4415
vn 0.3284 -0.2165 0.9194
vn 0.4450 -0.1489 0.8831
vn 0.8333 -0.1236 0.5389
vn 0.3242 0.0068 0.9460
vn 0.2585 -0.5114 -0.8195
vn 0.0131 -0.5418 -0.8404
vn 0.4454 -0.1480 0.8830
vn 0.3675 0.3253 0.8713
vn 0.1431 0.3257 0.9346
vn 0.6454 -0.4346 -0.6282
vn 0.6577 -0.4232 -0.6232
vn 0.6413 0.0951 0.7614
vn 0.9228 -0.2574 0.2866
vn 0.4282 -0.0792 0.9002
vn 0.3986 -0.0781 0.9138
vn 0.9354 -0.3532 0.0183
vn 0.3403 -0.5402 -0.7696
vn 0.5698 -0.4187 -0.7071
vn 0.4930 -0.4640 -0.7360
vn 0.7771 -0.0391 0.6281
vn 0.7977 0.0257 0.6025
vn 0.6401 0.1925 0.7438
vn 0.6537 -0.4378 -0.6173
vn 0.9360 -0.2155 0.2782
vn 0.8824 -0.3780 -0.2800
vn 0.9441 -0.3281 0.0329
vn 0.9252 -0.3623 -0.1133
vn 0.4907 0.2827 0.8242
vn 0.8234 -0.3730 -0.4277
vn 0.9181 -0.3430 -0.1984
vn 0.9405 -0.1467 0.3066
vn 0.8016 0.1262 0.5843
vn 0.6311 0.2280 0.7414
vn 0.8908 -0.3189 -0.3237
vn 0.9587 -0.1553 0.2383
vn 0.9358 -0.3219 -0.1439
vn 0.8438 0.1212 0.5228
vn 0.7301 -0.4384 -0.5242
vn 0.5276 -0.5375 -0.6578
vn 0.7803 -0.3991 -0.4815
vn 0.9175 -0.0240 0.3971
vn 0.9754 -0.2189 -0.0271
vn 0.9352 -0.2936 -0.1979
vn 0.9823 -0.1327 0.1325
vn 0.9801 -0.1197 0.1581
vn 0.9200 -0.0466 0.3891
vn 0.8874 -0.3295 -0.3225
vn 0.9421 -0.2837 -0.1788
vn 0.9846 -0.1751 -0.0009
vn 0.7552 -0.1914 -0.6269
vn -0.8986 0.2829 -0.3353
vn -0.9168 0.2897 -0.2749
vn -0.0306 0.0536 0.9981
vn -0.9601 0.2688 0.0769
vn -0.9363 0.0609 -0.3459
vn -0.8101 -0.1295 -0.5718
vn 0.8637 -0.4268 0.2682
vn -0.7983 0.0852 0.5963
vn 0.7562 -0.2240 -0.6148
vn 0.9158 -0.0769 0.3943
vn -0.9650 0.1507 -0.2145
vn -0.6827 -0.1942 -0.7044
vn -0.5810 -0.3091 -0.7529
vn 0.4259 0.1099 -0.8981
vn -0.5466 0.4830 0.6841
vn -0.4572 -0.2571 0.8514
vn -0.0708 0.1175 0.9905
vn -0.7232 0.5731 0.3854
vn -0.1413 -0.2863 0.9477
vn -0.6950 -0.2037 -0.6895
vn 0.8856 -0.4502 0.1145
vn 0.0531 -0.1751 0.9831
vn -0.7524 0.5194 -0.4051
vn 0.9020 -0.3829 0.1994
vn -0.7733 0.4883 -0.4044
vt 0.535116 0.018998
vt 0.527605 0.000532
vt 0.527246 0.000000
vt 0.601426 0.000000
vt 0.596377 0.009595
vt 0.592166 0.018519
vt 0.589608 0.023260
vt 0.577504 0.031569
vt 0.570533 0.035411
vt 0.557867 0.036310
vt 0.551746 0.031314
vt 0.541155 0.022351
vt 0.537562 0.125181
vt 0.541834 0.119969
vt 0.552951 0.108294
vt 0.570137 0.111979
vt 0.581411 0.122479
vt 0.584642 0.126606
vt 0.584975 0.127430
vt 0.589813 0.138409
vt 0.593654 0.147686
vt 0.594227 0.148775
vt 0.597214 0.168252
vt 0.601442 0.185147
vt 0.601688 0.189317
vt 0.601838 0.193872
vt 0.602105 0.211552
vt 0.603053 0.221501
vt 0.601956 0.232795
vt 0.601094 0.243113
vt 0.600245 0.250000
vt 0.517605 0.250000
vt 0.518525 0.246598
vt 0.518230 0.228584
vt 0.518352 0.228030
vt 0.518571 0.226210
vt 0.522314 0.208605
vt 0.522569 0.203010
vt 0.525418 0.186854
vt 0.524551 0.180156
vt 0.525753 0.170628
vt 0.527704 0.155245
vt 0.530911 0.147400
vt 0.536364 0.129025
vt 0.537326 0.126484
vt 0.439211 0.062183
vt 0.427628 0.053278
vt 0.421978 0.046079
vt 0.415671 0.039149
vt 0.410733 0.030636
vt 0.400801 0.017093
vt 0.399020 0.011826
vt 0.396516 0.007622
vt 0.391914 0.000000
vt 0.468648 0.000000
vt 0.469378 0.002414
vt 0.469625 0.003333
vt 0.470459 0.021845
vt 0.471622 0.027924
vt 0.469927 0.045025
vt 0.469860 0.050434
vt 0.463217 0.068594
vt 0.460439 0.070865
vt 0.443689 0.070681
vt 0.418501 0.249979
vt 0.418501 0.250000
vt 0.375000 0.250000
vt 0.375000 0.237790
vt 0.377698 0.234692
vt 0.389500 0.230568
vt 0.397010 0.227479
vt 0.400829 0.229777
vt 0.414513 0.240624
vt 0.597926 0.264192
vt 0.597803 0.264392
vt 0.596464 0.265999
vt 0.583336 0.282257
vt 0.580601 0.283930
vt 0.565766 0.289309
vt 0.558123 0.289855
vt 0.546438 0.288290
vt 0.535587 0.284064
vt 0.528946 0.277461
vt 0.521610 0.269995
vt 0.519098 0.263313
vt 0.598028 0.263629
vt 0.518493 0.298550
vt 0.522992 0.318946
vt 0.517133 0.335712
vt 0.517063 0.335863
vt 0.506728 0.347632
vt 0.502179 0.350634
vt 0.494527 0.355456
vt 0.479278 0.358272
vt 0.478855 0.358395
vt 0.478587 0.358405
vt 0.477611 0.358191
vt 0.459700 0.353632
vt 0.448648 0.344499
vt 0.446585 0.342316
vt 0.440031 0.327934
vt 0.439000 0.321822
vt 0.439015 0.311187
vt 0.439881 0.303771
vt 0.446633 0.291990
vt 0.449845 0.286543
vt 0.456658 0.282236
vt 0.469916 0.274808
vt 0.482830 0.274177
vt 0.491570 0.275359
vt 0.501627 0.279363
vt 0.516012 0.294149
vt 0.517800 0.295793
vt 0.418497 0.250010
vt 0.411646 0.255538
vt 0.407485 0.258845
vt 0.404479 0.261411
vt 0.391494 0.266379
vt 0.384307 0.268940
vt 0.377847 0.265717
vt 0.375000 0.264228
vt 0.502982 0.354760
vt 0.504975 0.353982
vt 0.527384 0.355439
vt 0.527849 0.355480
vt 0.532372 0.359049
vt 0.539660 0.364800
vt 0.540291 0.365899
vt 0.548143 0.376193
vt 0.551096 0.389489
vt 0.550934 0.397499
vt 0.547464 0.411734
vt 0.538868 0.423313
vt 0.535223 0.427861
vt 0.522493 0.435145
vt 0.509553 0.439266
vt 0.499846 0.440023
vt 0.489225 0.436002
vt 0.477617 0.433752
vt 0.466819 0.426110
vt 0.463189 0.420578
vt 0.460988 0.416775
vt 0.460547 0.416074
vt 0.460430 0.415110
vt 0.457597 0.395757
vt 0.462670 0.381310
vt 0.464067 0.378656
vt 0.475025 0.367706
vt 0.479823 0.362749
vt 0.480526 0.362064
vt 0.393885 0.489383
vt 0.391344 0.486837
vt 0.380024 0.471987
vt 0.378500 0.458708
vt 0.378744 0.447306
vt 0.387528 0.433911
vt 0.394166 0.424187
vt 0.407421 0.417517
vt 0.413406 0.414006
vt 0.426986 0.412583
vt 0.436395 0.412605
vt 0.441886 0.414676
vt 0.456453 0.420153
vt 0.461261 0.422949
vt 0.465357 0.425204
vt 0.466063 0.425691
vt 0.466744 0.427321
vt 0.469428 0.434491
vt 0.471319 0.439348
vt 0.472639 0.444654
vt 0.470912 0.463205
vt 0.469791 0.467107
vt 0.457173 0.483033
vt 0.452822 0.487546
vt 0.438667 0.494057
vt 0.433675 0.496148
vt 0.430786 0.496111
vt 0.414102 0.496817
vt 0.396640 0.490252
vt 0.472195 0.951263
vt 0.476082 0.958605
vt 0.477044 0.966669
vt 0.477472 0.976830
vt 0.475128 0.987333
vt 0.469972 0.997535
vt 0.468648 1.000000
vt 0.391914 1.000000
vt 0.389174 0.992728
vt 0.386617 0.986089
vt 0.390324 0.966864
vt 0.391645 0.962289
vt 0.403533 0.946699
vt 0.408559 0.942270
vt 0.419046 0.936735
vt 0.430998 0.935035
vt 0.440413 0.932860
vt 0.449512 0.936073
vt 0.457906 0.938605
vt 0.463839 0.944594
vt 0.543770 0.925816
vt 0.545412 0.925279
vt 0.559003 0.921169
vt 0.574504 0.924179
vt 0.581278 0.925702
vt 0.590140 0.933716
vt 0.596918 0.941288
vt 0.598990 0.946803
vt 0.603774 0.958629
vt 0.605816 0.971804
vt 0.605589 0.974866
vt 0.604281 0.994135
vt 0.603482 0.995523
vt 0.601426 1.000000
vt 0.527246 1.000000
vt 0.526966 0.999445
vt 0.526008 0.998185
vt 0.524904 0.994344
vt 0.522235 0.976727
vt 0.523368 0.968274
vt 0.524382 0.954918
vt 0.529202 0.942702
vt 0.532507 0.937330
vt 0.541760 0.927932
vt 0.449280 0.904587
vt 0.449318 0.903761
vt 0.449131 0.896011
vt 0.448669 0.879007
vt 0.448612 0.876964
vt 0.454214 0.861655
vt 0.454927 0.859691
vt 0.465394 0.850894
vt 0.471771 0.845927
vt 0.492952 0.840997
vt 0.493378 0.840972
vt 0.493845 0.841174
vt 0.512377 0.848429
vt 0.520958 0.858553
vt 0.527510 0.866332
vt 0.532407 0.884948
vt 0.532840 0.886511
vt 0.531895 0.893084
vt 0.529292 0.908023
vt 0.526857 0.910972
vt 0.517605 0.926079
vt 0.500687 0.936733
vt 0.498388 0.938359
vt 0.496806 0.938704
vt 0.475640 0.936820
vt 0.474578 0.936414
vt 0.473334 0.935117
vt 0.460725 0.924474
vt 0.449775 0.905882
vt 0.128958 0.509916
vt 0.127934 0.510555
vt 0.125000 0.512210
vt 0.125000 0.500000
vt 0.139228 0.500000
vt 0.129260 0.509808
vt 0.129109 0.509870
vt 0.271280 0.725721
vt 0.271458 0.711544
vt 0.271702 0.708479
vt 0.272632 0.706574
vt 0.274442 0.694504
vt 0.279503 0.682968
vt 0.278986 0.678335
vt 0.287334 0.662742
vt 0.292078 0.648717
vt 0.295578 0.642893
vt 0.300614 0.631460
vt 0.311848 0.627260
vt 0.322140 0.617530
vt 0.325744 0.630466
vt 0.324439 0.634172
vt 0.322314 0.653214
vt 0.320857 0.657627
vt 0.315716 0.673030
vt 0.313632 0.679224
vt 0.305264 0.688847
vt 0.298168 0.705761
vt 0.291430 0.707842
vt 0.277207 0.711466
vt 0.275421 0.725885
vt 0.273664 0.727055
vt 0.271608 0.728208
vt 0.000000 0.000000
s 0
f 514/1/1 498/2/1 497/3/1 496/4/1 506/5/1 507/6/1 520/7/1 518/8/1 516/9/1 515/10/1 517/11/1 519/12/1
f 528/13/1 527/14/1 526/15/1 525/16/1 530/17/1 543/18/1 531/19/1 533/20/1 535/21/1 536/22/1 542/23/1 541/24/1 540/25/1 539/26/1 538/27/1 537/28/1 567/29/1 562/30/1 560/31/1 559/32/1 561/33/1 565/34/1 566/35/1 549/36/1 550/37/1 551/38/1 547/39/1 546/40/1 548/41/1 552/42/1 534/43/1 532/44/1 529/45/1
f 523/46/1 544/47/1 508/48/1 509/49/1 511/50/1 499/51/1 500/52/1 501/53/1 502/54/1 503/55/1 504/56/1 505/57/1 510/58/1 512/59/1 513/60/1 524/61/1 521/62/1 522/63/1 545/64/1
f 558/65/1 556/66/1 1/67/1 564/68/1 563/69/1 555/70/1 554/71/1 553/72/1 557/73/1
f 573/74/2 571/75/2 570/76/2 590/77/2 589/78/2 588/79/2 614/80/2 580/81/2 579/82/2 581/83/2 587/84/2 585/85/2 559/32/2 560/31/2 572/86/2
f 594/87/2 602/88/2 600/89/2 601/90/2 599/91/2 597/92/2 603/93/2 622/94/2 625/95/2 624/96/2 623/97/2 620/98/2 621/99/2 626/100/2 617/101/2 618/102/2 592/103/2 591/104/2 593/105/2 583/106/2 578/107/2 577/108/2 576/109/2 584/110/2 586/111/2 596/112/2 595/113/2
f 1/67/2 556/66/2 569/114/2 568/115/2 575/116/2 574/117/2 582/118/2 619/119/2 616/120/2 615/121/2
f 604/122/2 598/123/2 607/124/2 606/125/2 605/126/2 613/127/2 610/128/2 609/129/2 608/130/2 612/131/2 611/132/2 656/133/2 655/134/2 651/135/2 649/136/2 648/137/2 650/138/2 652/139/2 645/140/2 647/141/2 634/142/2 635/143/2 637/144/2 631/145/2 632/146/2 633/147/2 629/148/2 628/149/2 627/150/2
f 667/151/2 658/152/2 657/153/2 659/154/2 670/155/2 671/156/2 673/157/2 640/158/2 639/159/2 630/160/2 641/161/2 638/162/2 636/163/2 646/164/2 643/165/2 642/166/2 644/167/2 653/168/2 654/169/2 672/170/2 662/171/2 661/172/2 660/173/2 669/174/2 668/175/2 663/176/2 664/177/2 665/178/2 666/179/2
f 707/180/3 706/181/3 704/182/3 703/183/3 695/184/3 694/185/3 503/186/3 502/187/3 698/188/3 697/189/3 709/190/3 710/191/3 711/192/3 741/193/3 738/194/3 715/195/3 716/196/3 717/197/3 739/198/3 712/199/3
f 718/200/3 719/201/3 677/202/3 678/203/3 679/204/3 680/205/3 682/206/3 681/207/3 675/208/3 676/209/3 674/210/3 701/211/3 700/212/3 496/213/3 497/214/3 699/215/3 693/216/3 696/217/3 702/218/3 705/219/3 713/220/3 714/221/3 725/222/3 720/223/3
f 726/224/3 727/225/3 736/226/3 733/227/3 731/228/3 732/229/3 735/230/3 734/231/3 690/232/3 689/233/3 688/234/3 691/235/3 692/236/3 686/237/3 687/238/3 685/239/3 683/240/3 684/241/3 729/242/3 730/243/3 724/244/3 740/245/3 742/246/3 708/247/3 721/248/3 722/249/3 723/250/3 737/251/3 728/252/3
f 754/253/4 755/254/4 564/255/4 1/256/4 615/257/4 761/258/4 756/259/4
f 758/260/4 759/261/4 760/262/4 772/263/4 764/264/4 762/265/4 763/266/4 767/267/4 743/268/4 744/269/4 745/270/4 753/271/4 752/272/4 746/273/4 748/274/4 747/275/4 751/276/4 749/277/4 750/278/4 766/279/4 765/280/4 770/281/4 771/282/4 768/283/4 769/284/4 757/285/4
s 1
f 550/286/5 16/286/6 551/286/7
f 551/286/7 16/286/6 12/286/8 547/286/9
f 698/286/10 502/286/11 501/286/12
f 547/286/9 12/286/8 546/286/13
f 531/286/14 543/286/15 4/286/16
f 699/286/17 497/286/18 498/286/19
f 543/286/15 530/286/20 4/286/16
f 2/286/21 563/286/22 564/286/23 755/286/24
f 529/286/25 14/286/26 528/286/27
f 572/286/28 560/286/29 562/286/30
f 549/286/31 16/286/6 550/286/5
f 569/286/32 556/286/33 558/286/34
f 7/286/35 499/286/36 511/286/37
f 754/286/38 2/286/21 755/286/24
f 533/286/39 531/286/14 4/286/16
f 28/286/40 567/286/41 537/286/42
f 539/286/43 540/286/44 3/286/45
f 540/286/44 541/286/46 3/286/45
f 11/286/47 509/286/48 508/286/49
f 11/286/47 7/286/35 511/286/37 509/286/48
f 35/286/50 3/286/45 541/286/46 542/286/51
f 700/286/52 506/286/53 496/286/54
f 527/286/55 528/286/27 14/286/26
f 701/286/56 483/286/57 507/286/58 506/286/53 700/286/52
f 699/286/17 498/286/19 514/286/59 15/286/60 693/286/61
f 521/286/62 466/286/63 522/286/64
f 515/286/65 516/286/66 18/286/67 5/286/68
f 561/286/69 27/286/70 565/286/71
f 27/286/70 561/286/69 559/286/72 585/286/73
f 12/286/8 9/286/74 548/286/75 546/286/13
f 555/286/76 563/286/22 2/286/21
f 542/286/51 536/286/77 35/286/50
f 548/286/75 9/286/74 552/286/78
f 562/286/30 567/286/41 28/286/40 573/286/79 572/286/28
f 13/286/80 544/286/81 523/286/82
f 2/286/21 754/286/38 756/286/83
f 696/286/84 693/286/61 15/286/60 17/286/85
f 3/286/45 20/286/86 538/286/87 539/286/43
f 3/286/45 49/286/88 20/286/86
f 513/286/89 512/286/90 8/286/91
f 3/286/45 35/286/50 49/286/88
f 500/286/92 46/286/93 697/286/94 698/286/10 501/286/12
f 702/286/95 696/286/84 17/286/85
f 510/286/96 505/286/97 31/286/98
f 31/286/98 8/286/91 512/286/90 510/286/96
f 4/286/16 19/286/99 467/286/100
f 23/286/101 557/286/102 553/286/103
f 544/286/81 13/286/80 11/286/47 508/286/49
f 468/286/104 10/286/105 466/286/63
f 25/286/106 468/286/104 466/286/63
f 7/286/35 46/286/93 500/286/92 499/286/36
f 38/286/107 18/286/67 6/286/108
f 527/286/55 14/286/26 19/286/99 526/286/109
f 20/286/86 28/286/40 537/286/42 538/286/87
f 2/286/21 21/286/110 554/286/111 555/286/76
f 21/286/110 23/286/101 553/286/103 554/286/111
f 558/286/34 557/286/102 23/286/101 568/286/112 569/286/32
f 40/286/113 475/286/114 9/286/74
f 695/286/115 31/286/98 505/286/97 504/286/116 694/286/117
f 64/286/118 8/286/91 31/286/98
f 23/286/101 575/286/119 568/286/112
f 535/286/120 467/286/100 35/286/50 536/286/77
f 32/286/121 9/286/74 12/286/8
f 32/286/121 40/286/113 9/286/74
f 37/286/122 16/286/6 549/286/31 566/286/123
f 64/286/118 469/286/124 8/286/91
f 27/286/70 585/286/73 587/286/125
f 756/286/83 761/286/126 2/286/21
f 11/286/47 39/286/127 7/286/35
f 27/286/70 37/286/122 566/286/123 565/286/71
f 11/286/47 13/286/80 39/286/127
f 19/286/99 14/286/26 475/286/114
f 22/286/128 455/286/129 10/286/105
f 23/286/101 574/286/130 575/286/119
f 12/286/8 16/286/6 32/286/121
f 56/286/131 16/286/6 37/286/122
f 57/286/132 455/286/129 22/286/128
f 495/286/133 468/286/104 61/286/134
f 468/286/104 495/286/133 22/286/128
f 19/286/99 475/286/114 29/286/135
f 21/286/110 616/286/136 619/286/137
f 7/286/35 44/286/138 46/286/93
f 20/286/86 49/286/88 58/286/139
f 615/286/140 616/286/136 21/286/110 2/286/21 761/286/126
f 582/286/141 574/286/130 23/286/101 21/286/110
f 7/286/35 39/286/127 44/286/138
f 24/286/142 26/286/143 455/286/129
f 36/286/144 66/286/145 13/286/80
f 57/286/132 22/286/128 75/286/146
f 75/286/146 22/286/128 495/286/133
f 66/286/145 39/286/127 13/286/80
f 709/286/147 697/286/94 46/286/93
f 17/286/85 15/286/60 62/286/148
f 83/286/149 61/286/134 469/286/124
f 60/286/150 33/286/151 26/286/143
f 24/286/142 41/286/152 26/286/143
f 573/286/79 28/286/40 486/286/153 571/286/154
f 35/286/50 29/286/135 47/286/155
f 34/286/156 41/286/152 24/286/142
f 57/286/132 69/286/157 24/286/142
f 59/286/158 64/286/118 31/286/98
f 21/286/110 619/286/137 582/286/141
f 69/286/157 34/286/156 24/286/142
f 67/286/159 590/286/160 570/286/161
f 34/286/156 43/286/162 41/286/152
f 54/286/163 84/286/164 38/286/107
f 483/286/57 91/286/165 54/286/163
f 60/286/150 493/286/166 33/286/151
f 445/286/167 34/286/156 72/286/168
f 70/286/169 40/286/113 32/286/121
f 49/286/88 47/286/155 65/286/170
f 35/286/50 47/286/155 49/286/88
f 72/286/168 34/286/156 69/286/157
f 493/286/166 90/286/171 492/286/172
f 66/286/145 36/286/144 92/286/173
f 90/286/171 92/286/173 36/286/144
f 81/286/174 56/286/131 37/286/122
f 37/286/122 27/286/70 81/286/174
f 38/286/107 68/286/175 488/286/176
f 38/286/107 84/286/164 68/286/175
f 40/286/113 70/286/169 47/286/155
f 43/286/162 52/286/177 41/286/152
f 41/286/152 52/286/177 51/286/178
f 30/286/179 488/286/176 73/286/180
f 73/286/180 488/286/176 78/286/181
f 587/286/125 581/286/182 27/286/70
f 581/286/182 579/286/183 81/286/174 27/286/70
f 53/286/184 42/286/185 45/286/186
f 42/286/185 50/286/187 43/286/162
f 42/286/185 53/286/184 50/286/187
f 43/286/162 50/286/187 52/286/177
f 45/286/186 55/286/188 53/286/184
f 70/286/169 32/286/121 56/286/131
f 75/286/146 495/286/133 88/286/189
f 48/286/190 55/286/188 45/286/186
f 577/286/191 55/286/188 48/286/190 576/286/192
f 48/286/190 584/286/193 576/286/192
f 78/286/181 488/286/176 68/286/175
f 62/286/148 30/286/179 73/286/180
f 47/286/155 70/286/169 65/286/170
f 584/286/193 48/286/190 63/286/194 586/286/195
f 79/286/196 45/286/186 42/286/185
f 79/286/196 42/286/185 445/286/167
f 49/286/88 65/286/170 58/286/139
f 53/286/184 89/286/197 50/286/187
f 52/286/177 50/286/187 89/286/197
f 52/286/177 97/286/198 51/286/178
f 55/286/188 80/286/199 53/286/184
f 53/286/184 80/286/199 89/286/197
f 66/286/145 100/286/200 39/286/127
f 39/286/127 100/286/200 44/286/138
f 705/286/201 702/286/95 17/286/85
f 87/286/202 69/286/157 57/286/132
f 55/286/188 577/286/191 578/286/203
f 63/286/194 48/286/190 45/286/186
f 63/286/194 45/286/186 79/286/196
f 583/286/204 80/286/199 55/286/188 578/286/203
f 56/286/131 74/286/205 70/286/169
f 74/286/205 56/286/131 81/286/174
f 57/286/132 75/286/146 87/286/202
f 60/286/150 113/286/206 493/286/166
f 102/286/207 88/286/189 495/286/133
f 102/286/207 61/286/134 83/286/149
f 101/286/208 62/286/148 104/286/209
f 107/286/210 46/286/93 44/286/138
f 46/286/93 107/286/210 710/286/211 709/286/147
f 74/286/205 58/286/139 65/286/170
f 104/286/209 62/286/148 73/286/180
f 63/286/194 86/286/212 596/286/213 586/286/195
f 82/286/214 72/286/168 69/286/157
f 58/286/139 71/286/215 486/286/153
f 73/286/180 78/286/181 76/286/216
f 78/286/181 68/286/175 77/286/217
f 86/286/212 595/286/218 596/286/213
f 79/286/196 111/286/219 63/286/194
f 17/286/85 103/286/220 713/286/221 705/286/201
f 17/286/85 62/286/148 103/286/220
f 71/286/215 58/286/139 74/286/205
f 117/286/222 66/286/145 92/286/173
f 65/286/170 70/286/169 74/286/205
f 100/286/200 66/286/145 117/286/222
f 71/286/215 85/286/223 67/286/159
f 82/286/214 69/286/157 87/286/202
f 103/286/220 62/286/148 101/286/208
f 51/286/178 108/286/224 60/286/150
f 60/286/150 108/286/224 113/286/206
f 51/286/178 97/286/198 108/286/224
f 86/286/212 63/286/194 111/286/219
f 681/286/225 95/286/226 675/286/227
f 89/286/197 97/286/198 52/286/177
f 81/286/174 579/286/183 580/286/228
f 711/286/229 710/286/211 107/286/210
f 99/286/230 72/286/168 82/286/214
f 99/286/230 456/286/231 72/286/168
f 78/286/181 77/286/217 93/286/232
f 104/286/209 73/286/180 76/286/216
f 456/286/231 96/286/233 79/286/196
f 77/286/217 68/286/175 84/286/164
f 109/286/234 87/286/202 88/286/189
f 71/286/215 74/286/205 85/286/223
f 706/286/235 489/286/236 59/286/158 704/286/237
f 93/286/232 77/286/217 105/286/238
f 76/286/216 78/286/181 93/286/232
f 79/286/196 96/286/233 111/286/219
f 74/286/205 81/286/174 85/286/223
f 593/286/239 446/286/240 80/286/199 583/286/204
f 100/286/200 122/286/241 44/286/138
f 44/286/138 122/286/241 107/286/210
f 85/286/223 81/286/174 580/286/228 614/286/242
f 77/286/217 119/286/243 105/286/238
f 446/286/240 593/286/239 591/286/244
f 113/286/206 133/286/245 476/286/246
f 106/286/247 83/286/149 98/286/248
f 712/286/249 739/286/250 118/286/251
f 77/286/217 84/286/164 119/286/243
f 138/286/252 86/286/212 111/286/219
f 125/286/253 456/286/231 99/286/230
f 85/286/223 614/286/242 588/286/254
f 714/286/255 713/286/221 103/286/220 128/286/256
f 158/286/257 109/286/234 88/286/189
f 158/286/257 88/286/189 102/286/207
f 93/286/232 105/286/238 114/286/258
f 76/286/216 93/286/232 129/286/259
f 89/286/197 137/286/260 97/286/198
f 104/286/209 76/286/216 121/286/261
f 118/286/251 120/286/262 707/286/263 712/286/249
f 109/286/234 82/286/214 87/286/202
f 120/286/262 484/286/264 98/286/248
f 94/286/265 91/286/165 115/286/266
f 84/286/164 94/286/265 110/286/267
f 91/286/165 95/286/226 131/286/268
f 91/286/165 131/286/268 115/286/266
f 86/286/212 594/286/269 595/286/218
f 594/286/269 86/286/212 138/286/252 602/286/270
f 110/286/267 119/286/243 84/286/164
f 106/286/247 447/286/271 83/286/149
f 99/286/230 82/286/214 151/286/272
f 129/286/259 93/286/232 124/286/273
f 124/286/273 93/286/232 114/286/258
f 122/286/241 127/286/274 107/286/210
f 682/286/275 131/286/268 95/286/226 681/286/225
f 720/286/276 725/286/277 128/286/256
f 97/286/198 116/286/278 108/286/224
f 153/286/279 158/286/257 102/286/207
f 494/286/280 148/286/281 116/286/278
f 100/286/200 144/286/282 122/286/241
f 96/286/233 125/286/253 130/286/283
f 151/286/272 82/286/214 109/286/234
f 137/286/260 446/286/240 140/286/284
f 101/286/208 149/286/285 103/286/220
f 140/286/284 446/286/240 591/286/244 592/286/286
f 742/286/287 132/286/288 708/286/289
f 721/286/290 112/286/291 722/286/292
f 149/286/285 128/286/256 103/286/220
f 104/286/209 121/286/261 470/286/293
f 119/286/243 126/286/294 105/286/238
f 114/286/258 105/286/238 123/286/295
f 105/286/238 126/286/294 123/286/295
f 115/286/266 131/286/268 177/286/296
f 110/286/267 94/286/265 178/286/297
f 107/286/210 127/286/274 741/286/298 711/286/229
f 145/286/299 113/286/206 108/286/224
f 116/286/278 145/286/299 108/286/224
f 151/286/272 109/286/234 159/286/300
f 117/286/222 144/286/282 100/286/200
f 147/286/301 99/286/230 151/286/272
f 125/286/253 99/286/230 147/286/301
f 739/286/250 717/286/302 118/286/251
f 142/286/303 129/286/259 124/286/273
f 740/286/304 132/286/288 742/286/287
f 144/286/282 139/286/305 122/286/241
f 173/286/306 111/286/219 96/286/233
f 138/286/252 111/286/219 173/286/306
f 456/286/231 125/286/253 96/286/233
f 113/286/206 145/286/299 133/286/245
f 114/286/258 136/286/307 124/286/273
f 135/286/308 114/286/258 123/286/295
f 136/286/307 114/286/258 135/286/308
f 117/286/222 169/286/309 144/286/282
f 119/286/243 150/286/310 126/286/294
f 738/286/311 741/286/298 127/286/274
f 715/286/312 738/286/311 127/286/274
f 680/286/313 679/286/314 152/286/315
f 131/286/268 682/286/275 680/286/313 152/286/315
f 119/286/243 110/286/267 150/286/310
f 122/286/241 139/286/305 127/286/274
f 170/286/316 125/286/253 147/286/301
f 140/286/284 592/286/286 618/286/317
f 134/286/318 132/286/288 740/286/304 724/286/319
f 143/286/320 118/286/251 717/286/302 716/286/321
f 124/286/273 136/286/307 142/286/303
f 173/286/306 96/286/233 130/286/283
f 158/286/257 159/286/300 109/286/234
f 125/286/253 170/286/316 130/286/283
f 106/286/247 168/286/322 447/286/271
f 173/286/306 471/286/323 138/286/252
f 129/286/259 142/286/303 175/286/324
f 141/286/325 470/286/293 184/286/326
f 150/286/310 187/286/327 126/286/294
f 135/286/308 123/286/295 162/286/328
f 127/286/274 143/286/320 716/286/321 715/286/312
f 154/286/329 112/286/291 132/286/288
f 164/286/330 168/286/322 106/286/247
f 145/286/299 155/286/331 133/286/245
f 730/286/332 134/286/318 724/286/319
f 148/286/281 186/286/333 116/286/278
f 484/286/264 157/286/334 164/286/330
f 138/286/252 600/286/335 602/286/270
f 131/286/268 152/286/315 177/286/296
f 135/286/308 146/286/336 136/286/307
f 145/286/299 116/286/278 186/286/333
f 154/286/329 165/286/337 112/286/291
f 494/286/280 199/286/338 148/286/281
f 112/286/291 165/286/337 737/286/339 723/286/340
f 182/286/341 180/286/342 719/286/343 718/286/344
f 149/286/285 182/286/341 128/286/256
f 142/286/303 183/286/345 175/286/324
f 180/286/342 677/286/346 719/286/343
f 184/286/326 121/286/261 175/286/324
f 135/286/308 162/286/328 146/286/336
f 201/286/347 173/286/306 130/286/283
f 137/286/260 199/286/338 494/286/280
f 123/286/295 126/286/294 490/286/348
f 139/286/305 143/286/320 127/286/274
f 163/286/349 137/286/260 140/286/284
f 199/286/338 137/286/260 163/286/349
f 600/286/335 138/286/252 471/286/323 601/286/350
f 162/286/328 123/286/295 202/286/351
f 145/286/299 186/286/333 155/286/331
f 136/286/307 146/286/336 160/286/352
f 728/286/353 737/286/339 165/286/337 206/286/354
f 163/286/349 140/286/284 618/286/317 617/286/355
f 144/286/282 167/286/356 139/286/305
f 130/286/283 170/286/316 201/286/347
f 139/286/305 157/286/334 143/286/320
f 146/286/336 162/286/328 156/286/357
f 139/286/305 167/286/356 157/286/334
f 146/286/336 156/286/357 174/286/358
f 160/286/352 146/286/336 174/286/358
f 170/286/316 147/286/301 211/286/359
f 728/286/353 206/286/354 726/286/360
f 163/286/349 617/286/355 626/286/361
f 186/286/333 148/286/281 195/286/362
f 213/286/363 182/286/341 141/286/325
f 142/286/303 136/286/307 166/286/364
f 166/286/364 136/286/307 160/286/352
f 180/286/342 152/286/315 678/286/365 677/286/346
f 185/286/366 153/286/279 168/286/322
f 154/286/329 458/286/367 165/286/337
f 197/286/368 151/286/272 159/286/300
f 197/286/368 147/286/301 151/286/272
f 160/286/352 174/286/358 196/286/369
f 158/286/257 153/286/279 188/286/370
f 188/286/370 153/286/279 185/286/366
f 166/286/364 238/286/371 142/286/303
f 142/286/303 238/286/371 183/286/345
f 159/286/300 158/286/257 188/286/370
f 209/286/372 173/286/306 201/286/347
f 162/286/328 204/286/373 156/286/357
f 162/286/328 202/286/351 231/286/374
f 126/286/294 187/286/327 490/286/348
f 176/286/375 164/286/330 167/286/356
f 162/286/328 231/286/374 204/286/373
f 242/286/376 184/286/326 175/286/324
f 178/286/297 215/286/377 150/286/310
f 174/286/358 156/286/357 190/286/378
f 192/286/379 181/286/380 161/286/381
f 176/286/375 168/286/322 164/286/330
f 171/286/382 191/286/383 458/286/367
f 211/286/359 147/286/301 197/286/368
f 189/286/384 206/286/354 165/286/337
f 729/286/385 220/286/386 134/286/318 730/286/332
f 176/286/375 185/286/366 168/286/322
f 144/286/282 169/286/309 167/286/356
f 181/286/380 176/286/375 167/286/356
f 201/286/347 170/286/316 226/286/387
f 179/286/388 171/286/382 134/286/318
f 179/286/388 134/286/318 220/286/386
f 156/286/357 204/286/373 218/286/389
f 173/286/306 209/286/372 471/286/323
f 161/286/381 477/286/390 192/286/379
f 141/286/325 184/286/326 213/286/363
f 159/286/300 200/286/391 197/286/368
f 190/286/378 156/286/357 218/286/389
f 229/286/392 163/286/349 626/286/361 621/286/393
f 242/286/376 175/286/324 183/286/345
f 166/286/364 160/286/352 196/286/369
f 187/286/327 150/286/310 215/286/377
f 200/286/391 159/286/300 188/286/370
f 241/286/394 231/286/374 202/286/351
f 178/286/297 459/286/395 215/286/377
f 163/286/349 229/286/392 485/286/396
f 181/286/380 185/286/366 176/286/375
f 248/286/397 166/286/364 196/286/369
f 193/286/398 191/286/383 171/286/382
f 194/286/399 174/286/358 190/286/378
f 203/286/400 196/286/369 174/286/358
f 203/286/400 174/286/358 194/286/399
f 227/286/401 182/286/341 213/286/363
f 211/286/359 226/286/387 170/286/316
f 189/286/384 255/286/402 206/286/354
f 184/286/326 242/286/376 260/286/403
f 205/286/404 188/286/370 185/286/366
f 179/286/388 193/286/398 171/286/382
f 155/286/331 186/286/333 214/286/405
f 186/286/333 195/286/362 214/286/405
f 212/286/406 187/286/327 254/286/407
f 205/286/404 185/286/366 192/286/379
f 477/286/390 155/286/331 207/286/408
f 203/286/400 250/286/409 196/286/369
f 205/286/404 200/286/391 188/286/370
f 189/286/384 198/286/410 253/286/411
f 189/286/384 253/286/411 255/286/402
f 208/286/412 190/286/378 218/286/389
f 471/286/323 225/286/413 597/286/414 599/286/415
f 221/286/416 191/286/383 193/286/398
f 221/286/416 239/286/417 191/286/383
f 477/286/390 205/286/404 192/286/379
f 207/286/408 205/286/404 477/286/390
f 217/286/418 471/286/323 209/286/372
f 172/286/419 227/286/401 235/286/420
f 214/286/405 195/286/362 219/286/421
f 238/286/371 166/286/364 248/286/397
f 234/286/422 203/286/400 194/286/399
f 201/286/347 223/286/423 209/286/372
f 250/286/409 248/286/397 196/286/369
f 194/286/399 190/286/378 460/286/424
f 210/286/425 211/286/359 197/286/368
f 257/286/426 193/286/398 179/286/388
f 199/286/338 228/286/427 148/286/281
f 208/286/412 218/286/389 222/286/428
f 200/286/391 210/286/425 197/286/368
f 220/286/386 729/286/385 684/286/429 224/286/430
f 218/286/389 204/286/373 222/286/428
f 234/286/422 194/286/399 209/286/372
f 226/286/387 223/286/423 201/286/347
f 202/286/351 212/286/406 241/286/394
f 243/286/431 221/286/416 193/286/398
f 243/286/431 193/286/398 257/286/426
f 203/286/400 275/286/432 250/286/409
f 239/286/417 198/286/410 191/286/383
f 204/286/373 256/286/433 222/286/428
f 207/286/408 200/286/391 205/286/404
f 195/286/362 148/286/281 228/286/427
f 219/286/421 195/286/362 228/286/427
f 727/286/434 726/286/360 206/286/354
f 208/286/412 222/286/428 252/286/435
f 209/286/372 223/286/423 234/286/422
f 683/286/436 224/286/430 684/286/429
f 204/286/373 231/286/374 256/286/433
f 472/286/437 217/286/418 209/286/372
f 155/286/331 214/286/405 207/286/408
f 260/286/403 213/286/363 184/286/326
f 217/286/418 225/286/413 471/286/323
f 229/286/392 621/286/393 620/286/438
f 219/286/421 226/286/387 211/286/359
f 210/286/425 200/286/391 207/286/408
f 214/286/405 210/286/425 207/286/408
f 227/286/401 213/286/363 251/286/439
f 219/286/421 210/286/425 214/286/405
f 231/286/374 241/286/394 278/286/440
f 242/286/376 183/286/345 274/286/441
f 219/286/421 211/286/359 210/286/425
f 238/286/371 274/286/441 183/286/345
f 275/286/432 203/286/400 234/286/422
f 472/286/437 209/286/372 460/286/424
f 448/286/442 217/286/418 472/286/437
f 232/286/443 225/286/413 217/286/418
f 262/286/444 257/286/426 179/286/388
f 262/286/444 179/286/388 220/286/386
f 235/286/420 227/286/401 247/286/445
f 198/286/410 272/286/446 253/286/411
f 224/286/430 262/286/444 220/286/386
f 206/286/354 255/286/402 733/286/447 736/286/448
f 206/286/354 736/286/448 727/286/434
f 225/286/413 603/286/449 597/286/414
f 448/286/442 232/286/443 217/286/418
f 243/286/431 233/286/450 221/286/416
f 236/286/451 225/286/413 232/286/443
f 221/286/416 233/286/450 246/286/452
f 221/286/416 246/286/452 239/286/417
f 216/286/453 208/286/412 252/286/435
f 230/286/454 223/286/423 226/286/387
f 234/286/422 223/286/423 245/286/455
f 606/286/456 216/286/453 249/286/457 605/286/458
f 230/286/454 226/286/387 219/286/421
f 236/286/451 228/286/427 485/286/396
f 227/286/401 251/286/439 247/286/445
f 603/286/449 225/286/413 237/286/459 622/286/460
f 232/286/443 259/286/461 223/286/423
f 245/286/455 223/286/423 259/286/461
f 228/286/427 230/286/454 219/286/421
f 236/286/451 229/286/392 237/286/459
f 230/286/454 228/286/427 236/286/451
f 231/286/374 278/286/440 256/286/433
f 230/286/454 232/286/443 223/286/423
f 448/286/442 259/286/461 232/286/443
f 273/286/462 254/286/407 240/286/463
f 237/286/459 225/286/413 236/286/451
f 237/286/459 623/286/464 624/286/465
f 237/286/459 625/286/466 622/286/460
f 236/286/451 232/286/443 230/286/454
f 245/286/455 275/286/432 234/286/422
f 240/286/463 235/286/420 247/286/445
f 249/286/457 216/286/453 258/286/467
f 216/286/453 252/286/435 258/286/467
f 263/286/468 233/286/450 243/286/431
f 287/286/469 238/286/371 248/286/397
f 274/286/441 238/286/371 287/286/469
f 250/286/409 261/286/470 248/286/397
f 233/286/450 244/286/471 246/286/452
f 251/286/439 213/286/363 260/286/403
f 272/286/446 198/286/410 239/286/417
f 239/286/417 246/286/452 450/286/472
f 237/286/459 624/286/465 625/286/466
f 264/286/473 243/286/431 257/286/426
f 289/286/474 253/286/411 272/286/446
f 255/286/402 253/286/411 281/286/475
f 222/286/428 266/286/476 252/286/435
f 240/286/463 247/286/445 273/286/462
f 249/286/457 613/286/477 605/286/458
f 244/286/471 233/286/450 263/286/468
f 269/286/478 246/286/452 244/286/471
f 245/286/455 259/286/461 267/286/479
f 264/286/473 263/286/468 243/286/431
f 448/286/442 276/286/480 259/286/461
f 239/286/417 450/286/472 272/286/446
f 246/286/452 269/286/478 450/286/472
f 287/286/469 248/286/397 261/286/470
f 610/286/481 249/286/457 258/286/467 609/286/482
f 251/286/439 260/286/403 271/286/483
f 265/286/484 244/286/471 263/286/468
f 685/286/485 224/286/430 683/286/436
f 253/286/411 289/286/474 281/286/475
f 254/286/407 273/286/462 280/286/486
f 269/286/478 244/286/471 268/286/487
f 613/286/477 249/286/457 610/286/481
f 255/286/402 281/286/475 731/286/488 733/286/447
f 265/286/484 268/286/487 244/286/471
f 280/286/486 449/286/489 212/286/406
f 256/286/433 295/286/490 222/286/428
f 270/286/491 264/286/473 257/286/426
f 303/286/492 257/286/426 262/286/444
f 270/286/491 257/286/426 303/286/492
f 261/286/470 250/286/409 275/286/432
f 279/286/493 268/286/487 265/286/484
f 259/286/461 276/286/480 267/286/479
f 222/286/428 295/286/490 266/286/476
f 271/286/483 260/286/403 277/286/494
f 270/286/491 310/286/495 264/286/473
f 287/286/469 261/286/470 299/286/496
f 284/286/497 262/286/444 224/286/430
f 245/286/455 267/286/479 312/286/498
f 296/286/499 274/286/441 287/286/469
f 310/286/495 461/286/500 264/286/473
f 268/286/487 282/286/501 269/286/478
f 256/286/433 278/286/440 309/286/502
f 687/286/503 284/286/497 224/286/430 685/286/485
f 283/286/504 282/286/501 268/286/487
f 283/286/504 268/286/487 279/286/493
f 285/286/505 450/286/472 269/286/478
f 277/286/494 274/286/441 296/286/499
f 289/286/474 272/286/446 288/286/506
f 295/286/490 256/286/433 309/286/502
f 303/286/492 262/286/444 284/286/497
f 272/286/446 450/286/472 306/286/507
f 272/286/446 306/286/507 288/286/506
f 282/286/501 307/286/508 269/286/478
f 269/286/478 307/286/508 285/286/505
f 258/286/467 252/286/435 300/286/509
f 299/286/496 261/286/470 304/286/510
f 275/286/432 245/286/455 305/286/511
f 280/286/486 273/286/462 292/286/512
f 609/286/482 258/286/467 294/286/513 608/286/514
f 300/286/509 294/286/513 258/286/467
f 261/286/470 275/286/432 304/286/510
f 304/286/510 275/286/432 305/286/511
f 291/286/515 462/286/516 632/286/517 631/286/518
f 278/286/440 324/286/519 309/286/502
f 305/286/511 245/286/455 312/286/498
f 273/286/462 271/286/483 292/286/512
f 252/286/435 266/286/476 300/286/509
f 283/286/504 286/286/520 282/286/501
f 271/286/483 277/286/494 463/286/521
f 772/286/522 760/286/523 293/286/524
f 686/286/525 284/286/497 687/286/503
f 298/286/526 463/286/521 296/286/499
f 307/286/508 282/286/501 323/286/527
f 760/286/523 759/286/528 293/286/524
f 732/286/529 731/286/488 281/286/475
f 280/286/486 292/286/512 314/286/530
f 315/286/531 267/286/479 276/286/480
f 312/286/498 267/286/479 315/286/531
f 293/286/524 764/286/532 772/286/522
f 473/286/533 286/286/520 283/286/504
f 308/286/534 290/286/535 279/286/493
f 280/286/486 314/286/530 449/286/489
f 320/286/536 310/286/495 270/286/491
f 286/286/520 323/286/527 282/286/501
f 450/286/472 285/286/505 306/286/507
f 279/286/493 473/286/533 283/286/504
f 296/286/499 287/286/469 326/286/537
f 320/286/536 270/286/491 303/286/492
f 342/286/538 299/286/496 304/286/510
f 473/286/533 297/286/539 301/286/540
f 266/286/476 336/286/541 300/286/509
f 281/286/475 311/286/542 735/286/543 732/286/529
f 333/286/544 303/286/492 284/286/497
f 289/286/474 311/286/542 281/286/475
f 758/286/545 757/286/546 318/286/547
f 285/286/505 339/286/548 306/286/507
f 328/286/549 308/286/534 451/286/550
f 290/286/535 322/286/551 473/286/533
f 473/286/533 322/286/551 297/286/539
f 292/286/512 298/286/526 314/286/530
f 295/286/490 309/286/502 316/286/552
f 295/286/490 336/286/541 266/286/476
f 326/286/537 287/286/469 299/286/496
f 473/286/533 301/286/540 286/286/520
f 294/286/513 612/286/553 608/286/514
f 295/286/490 316/286/552 336/286/541
f 330/286/554 323/286/527 286/286/520
f 449/286/489 314/286/530 452/286/555
f 301/286/540 330/286/554 286/286/520
f 297/286/539 302/286/556 301/286/540
f 315/286/531 276/286/480 291/286/515
f 318/286/547 293/286/524 759/286/528 758/286/545
f 692/286/557 317/286/558 284/286/497 686/286/525
f 333/286/544 284/286/497 317/286/558
f 321/286/559 302/286/556 297/286/539
f 289/286/474 288/286/506 332/286/560
f 289/286/474 332/286/560 311/286/542
f 294/286/513 300/286/509 352/286/561
f 301/286/540 349/286/562 330/286/554
f 304/286/510 305/286/511 334/286/563
f 302/286/556 349/286/562 301/286/540
f 767/286/564 763/286/565 335/286/566
f 320/286/536 303/286/492 333/286/544
f 307/286/508 340/286/567 285/286/505
f 285/286/505 340/286/567 339/286/548
f 734/286/568 735/286/543 311/286/542
f 300/286/509 336/286/541 350/286/569
f 300/286/509 350/286/569 352/286/561
f 478/286/570 297/286/539 322/286/551
f 478/286/570 321/286/559 297/286/539
f 314/286/530 298/286/526 313/286/571
f 356/286/572 290/286/535 464/286/573
f 357/286/574 461/286/500 310/286/495
f 637/286/575 354/286/576 291/286/515 631/286/518
f 306/286/507 339/286/548 288/286/506
f 365/286/577 464/286/573 328/286/549
f 318/286/547 769/286/578 768/286/579
f 692/286/557 691/286/580 317/286/558
f 612/286/553 294/286/513 352/286/561 611/286/581
f 309/286/502 348/286/582 316/286/552
f 321/286/559 319/286/583 302/286/556
f 354/286/576 329/286/584 291/286/515
f 305/286/511 312/286/498 355/286/585
f 334/286/563 305/286/511 355/286/585
f 349/286/562 302/286/556 337/286/586
f 361/286/587 310/286/495 320/286/536
f 357/286/574 310/286/495 361/286/587
f 309/286/502 324/286/519 348/286/582
f 315/286/531 355/286/585 312/286/498
f 302/286/556 319/286/583 337/286/586
f 313/286/571 452/286/555 314/286/530
f 329/286/584 353/286/588 315/286/531
f 311/286/542 343/286/589 690/286/590 734/286/568
f 353/286/588 355/286/585 315/286/531
f 316/286/552 348/286/582 367/286/591
f 316/286/552 367/286/591 336/286/541
f 330/286/554 377/286/592 323/286/527
f 324/286/519 452/286/555 347/286/593
f 293/286/524 318/286/547 768/286/579 771/286/594
f 327/286/595 325/286/596 319/286/583
f 319/286/583 325/286/596 331/286/597
f 319/286/583 331/286/597 337/286/586
f 346/286/598 326/286/537 299/286/496
f 321/286/559 345/286/599 319/286/583
f 454/286/600 320/286/536 333/286/544
f 323/286/527 377/286/592 368/286/601
f 357/286/574 328/286/549 461/286/500
f 342/286/538 304/286/510 334/286/563
f 332/286/560 288/286/506 362/286/602
f 311/286/542 332/286/560 343/286/589
f 327/286/595 319/286/583 345/286/599
f 339/286/548 362/286/602 288/286/506
f 744/286/603 743/286/604 379/286/605
f 354/286/576 637/286/575 635/286/606
f 324/286/519 347/286/593 348/286/582
f 349/286/562 358/286/607 330/286/554
f 762/286/608 370/286/609 335/286/566 763/286/565
f 689/286/610 690/286/590 343/286/589
f 454/286/600 361/286/587 320/286/536
f 313/286/571 326/286/537 346/286/598
f 767/286/564 335/286/566 379/286/605 743/286/604
f 313/286/571 347/286/593 452/286/555
f 385/286/611 365/286/577 328/286/549
f 327/286/595 338/286/612 325/286/596
f 366/286/613 338/286/612 327/286/595
f 611/286/581 352/286/561 376/286/614 656/286/615
f 366/286/613 327/286/595 345/286/599
f 347/286/593 313/286/571 346/286/598
f 339/286/548 340/286/567 388/286/616
f 331/286/597 325/286/596 351/286/617
f 351/286/617 325/286/596 344/286/618
f 338/286/612 344/286/618 325/286/596
f 385/286/611 328/286/549 357/286/574
f 639/286/619 344/286/618 338/286/612 630/286/620
f 358/286/607 377/286/592 330/286/554
f 379/286/605 745/286/621 744/286/603
f 351/286/617 382/286/622 331/286/597
f 396/286/623 341/286/624 356/286/572
f 382/286/622 337/286/586 331/286/597
f 362/286/602 374/286/625 332/286/560
f 369/286/626 342/286/538 334/286/563
f 369/286/626 334/286/563 378/286/627
f 336/286/541 367/286/591 350/286/569
f 344/286/618 639/286/619 640/286/628 364/286/629
f 337/286/586 372/286/630 349/286/562
f 337/286/586 382/286/622 372/286/630
f 348/286/582 347/286/593 371/286/631
f 345/286/599 363/286/632 360/286/633
f 338/286/612 641/286/634 630/286/620
f 363/286/632 478/286/570 359/286/635
f 366/286/613 636/286/636 638/286/637 338/286/612
f 338/286/612 638/286/637 641/286/634
f 339/286/548 388/286/616 362/286/602
f 340/286/567 381/286/638 388/286/616
f 396/286/623 359/286/635 341/286/624
f 371/286/631 346/286/598 342/286/538
f 371/286/631 342/286/538 369/286/626
f 344/286/618 389/286/639 351/286/617
f 364/286/629 389/286/639 344/286/618
f 366/286/613 345/286/599 360/286/633
f 347/286/593 346/286/598 371/286/631
f 391/286/640 361/286/587 454/286/600
f 378/286/627 334/286/563 355/286/585
f 348/286/582 373/286/641 367/286/591
f 371/286/631 373/286/641 348/286/582
f 349/286/562 372/286/630 358/286/607
f 332/286/560 374/286/625 343/286/589
f 376/286/614 655/286/642 656/286/615
f 350/286/569 383/286/643 352/286/561
f 393/286/644 353/286/588 329/286/584
f 393/286/644 329/286/584 354/286/576
f 365/286/577 403/286/645 356/286/572
f 643/286/646 366/286/613 360/286/633 642/286/647
f 382/286/622 351/286/617 389/286/639
f 352/286/561 383/286/643 376/286/614
f 635/286/606 634/286/648 354/286/576
f 355/286/585 353/286/588 387/286/649
f 645/286/650 393/286/644 354/286/576 647/286/651
f 634/286/648 647/286/651 354/286/576
f 378/286/627 355/286/585 387/286/649
f 340/286/567 368/286/601 381/286/638
f 364/286/629 640/286/628 673/286/652
f 403/286/645 396/286/623 356/286/572
f 374/286/625 453/286/653 343/286/589
f 384/286/654 357/286/574 361/286/587
f 384/286/654 385/286/611 357/286/574
f 383/286/643 350/286/569 380/286/655
f 380/286/655 350/286/569 367/286/591
f 390/286/656 360/286/633 363/286/632
f 370/286/609 765/286/657 766/286/658
f 366/286/613 646/286/659 636/286/636
f 391/286/640 454/286/600 375/286/660
f 364/286/629 408/286/661 389/286/639
f 391/286/640 384/286/654 361/286/587
f 366/286/613 643/286/646 646/286/659
f 408/286/661 364/286/629 673/286/652 671/286/662
f 380/286/655 367/286/591 373/286/641
f 358/286/607 372/286/630 397/286/663
f 358/286/607 397/286/663 404/286/664
f 389/286/639 412/286/665 382/286/622
f 407/286/666 379/286/605 335/286/566
f 745/286/621 379/286/605 409/286/667 753/286/668
f 335/286/566 370/286/609 479/286/669
f 362/286/602 392/286/670 374/286/625
f 394/286/671 353/286/588 393/286/644
f 387/286/649 353/286/588 394/286/671
f 373/286/641 371/286/631 369/286/626
f 393/286/644 645/286/650 652/286/672
f 653/286/673 644/286/674 399/286/675
f 372/286/630 415/286/676 397/286/663
f 382/286/622 415/286/676 372/286/630
f 373/286/641 369/286/626 380/286/655
f 388/286/616 398/286/677 362/286/602
f 362/286/602 398/286/677 392/286/670
f 369/286/626 378/286/627 380/286/655
f 386/286/678 378/286/627 387/286/649
f 392/286/670 375/286/660 374/286/625
f 408/286/661 671/286/662 670/286/679
f 642/286/647 360/286/633 399/286/675 644/286/674
f 390/286/656 399/286/675 360/286/633
f 402/286/680 365/286/577 385/286/611
f 376/286/614 395/286/681 651/286/682 655/286/642
f 389/286/639 408/286/661 414/286/683
f 401/286/684 359/286/635 396/286/623
f 401/286/684 465/286/685 359/286/635
f 377/286/592 405/286/686 368/286/601
f 479/286/669 407/286/666 335/286/566
f 380/286/655 378/286/627 386/286/678
f 402/286/680 403/286/645 365/286/577
f 399/286/675 654/286/687 653/286/673
f 411/286/688 390/286/656 465/286/685
f 376/286/614 383/286/643 395/286/681
f 409/286/667 379/286/605 407/286/666
f 380/286/655 386/286/678 383/286/643
f 395/286/681 649/286/689 651/286/682
f 412/286/665 415/286/676 382/286/622
f 409/286/667 752/286/690 753/286/668
f 383/286/643 386/286/678 395/286/681
f 368/286/601 405/286/686 381/286/638
f 400/286/691 385/286/611 384/286/654
f 391/286/640 406/286/692 384/286/654
f 386/286/678 387/286/649 394/286/671
f 388/286/616 474/286/693 398/286/677
f 400/286/691 402/286/680 385/286/611
f 399/286/675 672/286/694 654/286/687
f 411/286/688 420/286/695 390/286/656
f 389/286/639 414/286/683 412/286/665
f 395/286/681 386/286/678 394/286/671
f 420/286/695 399/286/675 390/286/656
f 650/286/696 648/286/697 394/286/671 393/286/644
f 419/286/698 396/286/623 403/286/645
f 393/286/644 652/286/672 650/286/696
f 395/286/681 394/286/671 648/286/697 649/286/689
f 401/286/684 396/286/623 419/286/698
f 404/286/664 397/286/663 422/286/699
f 400/286/691 384/286/654 406/286/692
f 381/286/638 405/286/686 410/286/700
f 479/286/669 750/286/701 749/286/702
f 381/286/638 410/286/700 474/286/693
f 398/286/677 406/286/692 392/286/670
f 417/286/703 403/286/645 402/286/680
f 752/286/690 409/286/667 746/286/704
f 430/286/705 408/286/661 670/286/679 659/286/706
f 751/286/707 407/286/666 479/286/669 749/286/702
f 672/286/694 399/286/675 425/286/708 662/286/709
f 420/286/695 425/286/708 399/286/675
f 415/286/676 431/286/710 397/286/663
f 422/286/699 397/286/663 431/286/710
f 419/286/698 403/286/645 417/286/703
f 405/286/686 487/286/711 410/286/700
f 413/286/712 465/286/685 401/286/684
f 402/286/680 400/286/691 416/286/713
f 409/286/667 407/286/666 747/286/714 748/286/715
f 413/286/712 411/286/688 465/286/685
f 407/286/666 751/286/707 747/286/714
f 408/286/661 430/286/705 414/286/683
f 416/286/713 400/286/691 480/286/716
f 417/286/703 402/286/680 416/286/713
f 430/286/705 659/286/706 657/286/717
f 414/286/683 428/286/718 412/286/665
f 412/286/665 424/286/719 415/286/676
f 427/286/720 413/286/712 401/286/684
f 401/286/684 419/286/698 427/286/720
f 433/286/721 411/286/688 413/286/712
f 433/286/721 426/286/722 411/286/688
f 412/286/665 428/286/718 424/286/719
f 430/286/705 437/286/723 414/286/683
f 414/286/683 437/286/723 428/286/718
f 417/286/703 421/286/724 419/286/698
f 410/286/700 418/286/725 423/286/726
f 410/286/700 423/286/726 481/286/727
f 415/286/676 424/286/719 431/286/710
f 417/286/703 416/286/713 423/286/726
f 423/286/726 421/286/724 417/286/703
f 425/286/708 661/286/728 662/286/709
f 426/286/722 425/286/708 420/286/695
f 426/286/722 420/286/695 411/286/688
f 427/286/720 419/286/698 421/286/724
f 424/286/719 436/286/729 431/286/710
f 404/286/664 422/286/699 487/286/711
f 431/286/710 432/286/730 422/286/699
f 429/286/731 433/286/721 413/286/712
f 426/286/722 434/286/732 425/286/708
f 661/286/728 425/286/708 434/286/732 660/286/733
f 423/286/726 418/286/725 421/286/724
f 429/286/731 413/286/712 427/286/720
f 429/286/731 427/286/720 421/286/724
f 428/286/718 436/286/729 424/286/719
f 428/286/718 441/286/734 436/286/729
f 432/286/730 429/286/731 421/286/724
f 438/286/735 433/286/721 429/286/731
f 431/286/710 435/286/736 432/286/730
f 435/286/736 429/286/731 432/286/730
f 434/286/732 669/286/737 660/286/733
f 442/286/738 658/286/739 667/286/740
f 440/286/741 426/286/722 433/286/721
f 440/286/741 433/286/721 438/286/735
f 437/286/723 441/286/734 428/286/718
f 436/286/729 435/286/736 431/286/710
f 440/286/741 434/286/732 426/286/722
f 441/286/734 439/286/742 436/286/729
f 435/286/736 438/286/735 429/286/731
f 436/286/729 439/286/742 435/286/736
f 437/286/723 444/286/743 441/286/734
f 439/286/742 438/286/735 435/286/736
f 440/286/741 443/286/744 434/286/732
f 439/286/742 440/286/741 438/286/735
f 434/286/732 443/286/744 663/286/745 668/286/746
f 434/286/732 668/286/746 669/286/737
f 443/286/744 440/286/741 439/286/742
f 441/286/734 443/286/744 439/286/742
f 444/286/743 443/286/744 441/286/734
f 666/286/747 665/286/748 444/286/743 442/286/738
f 664/286/749 663/286/745 443/286/744 444/286/743
f 444/286/743 665/286/748 664/286/749
f 442/286/738 667/286/740 666/286/747
f 532/286/750 14/286/26 529/286/25
f 482/286/751 13/286/80 523/286/82 545/286/752
f 13/286/80 482/286/751 36/286/144
f 10/286/105 455/286/129 33/286/151
f 10/286/105 492/286/172 482/286/751
f 26/286/143 41/286/152 51/286/178
f 445/286/167 43/286/162 34/286/156
f 445/286/167 42/286/185 43/286/162
f 60/286/150 26/286/143 51/286/178
f 675/286/227 95/286/226 676/286/753
f 446/286/240 137/286/260 80/286/199
f 89/286/197 80/286/199 137/286/260
f 153/286/279 102/286/207 447/286/271
f 83/286/149 447/286/271 102/286/207
f 110/286/267 178/286/297 150/286/310
f 447/286/271 168/286/322 153/286/279
f 723/286/340 722/286/292 112/286/291
f 98/286/248 484/286/264 106/286/247
f 154/286/329 132/286/288 134/286/318
f 123/286/295 490/286/348 202/286/351
f 182/286/341 149/286/285 141/286/325
f 154/286/329 134/286/318 171/286/382
f 490/286/348 187/286/327 212/286/406
f 167/286/356 164/286/330 157/286/334
f 460/286/424 208/286/412 216/286/453
f 194/286/399 460/286/424 209/286/372
f 216/286/453 606/286/456 607/286/754 472/286/437
f 277/286/494 260/286/403 242/286/376
f 472/286/437 460/286/424 216/286/453
f 212/286/406 449/286/489 241/286/394
f 448/286/442 604/286/755 627/286/756
f 241/286/394 449/286/489 278/286/440
f 277/286/494 242/286/376 274/286/441
f 451/286/550 265/286/484 263/286/468
f 308/286/534 265/286/484 451/286/550
f 265/286/484 308/286/534 279/286/493
f 278/286/440 452/286/555 324/286/519
f 452/286/555 278/286/440 449/286/489
f 315/286/531 291/286/515 329/286/584
f 323/286/527 368/286/601 307/286/508
f 368/286/601 340/286/567 307/286/508
f 346/286/598 299/286/496 342/286/538
f 461/286/500 328/286/549 451/286/550
f 478/286/570 363/286/632 321/286/559
f 454/286/600 333/286/544 491/286/757
f 358/286/607 404/286/664 377/286/592
f 404/286/664 405/286/686 377/286/592
f 422/286/699 432/286/730 418/286/725
f 430/286/705 442/286/738 437/286/723
f 442/286/738 430/286/705 657/286/717 658/286/739
f 442/286/738 444/286/743 437/286/723
f 8/286/91 25/286/106 524/286/758 513/286/89
f 521/286/62 524/286/758 25/286/106 466/286/63
f 552/286/78 9/286/74 475/286/114 534/286/759
f 468/286/104 22/286/128 10/286/105
f 32/286/121 16/286/6 56/286/131
f 455/286/129 26/286/143 33/286/151
f 24/286/142 455/286/129 57/286/132
f 29/286/135 475/286/114 40/286/113
f 47/286/155 29/286/135 40/286/113
f 67/286/159 85/286/223 588/286/254 589/286/760
f 98/286/248 83/286/149 469/286/124
f 98/286/248 64/286/118 489/286/236
f 67/286/159 589/286/760 590/286/160
f 456/286/231 445/286/167 72/286/168
f 456/286/231 79/286/196 445/286/167
f 87/286/202 75/286/146 88/286/189
f 90/286/171 476/286/246 92/286/173
f 121/286/261 76/286/216 129/286/259
f 708/286/289 132/286/288 112/286/291 721/286/290
f 94/286/265 115/286/266 178/286/297
f 175/286/324 121/286/261 129/286/259
f 679/286/314 678/286/365 152/286/315
f 458/286/367 189/286/384 165/286/337
f 171/286/382 458/286/367 154/286/329
f 198/286/410 189/286/384 458/286/367
f 198/286/410 458/286/367 191/286/383
f 459/286/395 177/286/296 235/286/420
f 459/286/395 240/286/463 215/286/377
f 192/286/379 185/286/366 181/286/380
f 240/286/463 459/286/395 235/286/420
f 460/286/424 190/286/378 208/286/412
f 472/286/437 598/286/761 604/286/755 448/286/442
f 247/286/445 251/286/439 271/286/483
f 247/286/445 271/286/483 273/286/462
f 461/286/500 263/286/468 264/286/473
f 461/286/500 451/286/550 263/286/468
f 462/286/516 629/286/762 633/286/763
f 462/286/516 633/286/763 632/286/517
f 276/286/480 462/286/516 291/286/515
f 271/286/483 463/286/521 292/286/512
f 463/286/521 277/286/494 296/286/499
f 292/286/512 463/286/521 298/286/526
f 464/286/573 290/286/535 308/286/534
f 464/286/573 308/286/534 328/286/549
f 356/286/572 464/286/573 365/286/577
f 341/286/624 478/286/570 322/286/551
f 465/286/685 390/286/656 363/286/632
f 92/286/173 457/286/764 117/286/222
f 169/286/309 117/286/222 457/286/764
f 484/286/264 164/286/330 106/286/247
f 363/286/632 345/286/599 321/286/559
f 10/286/105 482/286/751 466/286/63
f 533/286/39 4/286/16 467/286/100 535/286/120
f 467/286/100 19/286/99 29/286/135
f 61/286/134 468/286/104 25/286/106
f 467/286/100 29/286/135 35/286/50
f 8/286/91 469/286/124 25/286/106
f 469/286/124 61/286/134 25/286/106
f 486/286/153 67/286/159 570/286/161 571/286/154
f 20/286/86 486/286/153 28/286/40
f 54/286/163 91/286/165 94/286/265
f 54/286/163 94/286/265 84/286/164
f 486/286/153 71/286/215 67/286/159
f 104/286/209 470/286/293 101/286/208
f 101/286/208 470/286/293 149/286/285
f 149/286/285 470/286/293 141/286/325
f 470/286/293 121/286/261 184/286/326
f 128/286/256 182/286/341 718/286/344 720/286/276
f 133/286/245 477/286/390 161/286/381
f 161/286/381 181/286/380 169/286/309
f 169/286/309 181/286/380 167/286/356
f 172/286/419 180/286/342 227/286/401
f 471/286/323 599/286/415 601/286/350
f 290/286/535 473/286/533 279/286/493
f 341/286/624 322/286/551 290/286/535
f 356/286/572 341/286/624 290/286/535
f 764/286/532 293/286/524 370/286/609 762/286/608
f 363/286/632 359/286/635 465/286/685
f 474/286/693 481/286/727 480/286/716
f 381/286/638 474/286/693 388/286/616
f 474/286/693 410/286/700 481/286/727
f 466/286/63 482/286/751 545/286/752 522/286/64
f 534/286/759 475/286/114 14/286/26 532/286/750
f 98/286/248 469/286/124 64/286/118
f 472/286/437 607/286/754 598/286/761
f 483/286/57 54/286/163 6/286/108
f 493/286/166 476/286/246 90/286/171
f 113/286/206 476/286/246 493/286/166
f 714/286/255 128/286/256 725/286/277
f 115/286/266 177/286/296 459/286/395
f 143/286/320 157/286/334 484/286/264
f 177/286/296 152/286/315 172/286/419
f 155/286/331 477/286/390 133/286/245
f 177/286/296 172/286/419 235/286/420
f 187/286/327 215/286/377 254/286/407
f 178/286/297 115/286/266 459/286/395
f 237/286/459 229/286/392 620/286/438 623/286/464
f 359/286/635 478/286/570 341/286/624
f 750/286/701 479/286/669 370/286/609 766/286/658
f 406/286/692 391/286/640 375/286/660
f 398/286/677 480/286/716 406/286/692
f 406/286/692 375/286/660 392/286/670
f 416/286/713 480/286/716 481/286/727
f 481/286/727 423/286/726 416/286/713
f 36/286/144 482/286/751 492/286/172
f 457/286/764 161/286/381 169/286/309
f 152/286/315 180/286/342 172/286/419
f 406/286/692 480/286/716 400/286/691
f 180/286/342 182/286/341 227/286/401
f 474/286/693 480/286/716 398/286/677
f 483/286/57 6/286/108 520/286/765 507/286/58
f 694/286/117 504/286/116 503/286/766
f 674/286/767 483/286/57 701/286/56
f 676/286/753 95/286/226 483/286/57 674/286/767
f 483/286/57 95/286/226 91/286/165
f 163/286/349 485/286/396 199/286/338
f 199/286/338 485/286/396 228/286/427
f 236/286/451 485/286/396 229/286/392
f 254/286/407 215/286/377 240/286/463
f 343/286/589 453/286/653 491/286/757
f 418/286/725 432/286/730 421/286/724
f 476/286/246 133/286/245 457/286/764
f 476/286/246 457/286/764 92/286/173
f 161/286/381 457/286/764 133/286/245
f 143/286/320 484/286/264 118/286/251
f 518/286/768 520/286/765 6/286/108 18/286/67
f 486/286/153 20/286/86 58/286/139
f 703/286/769 59/286/158 31/286/98 695/286/115
f 704/286/237 59/286/158 703/286/769
f 212/286/406 254/286/407 280/286/486
f 298/286/526 296/286/499 326/286/537
f 313/286/571 298/286/526 326/286/537
f 404/286/664 487/286/711 405/286/686
f 487/286/711 418/286/725 410/286/700
f 487/286/711 422/286/699 418/286/725
f 453/286/653 374/286/625 375/286/660
f 454/286/600 453/286/653 375/286/660
f 488/286/176 5/286/68 38/286/107
f 30/286/179 5/286/68 488/286/176
f 707/286/263 120/286/262 489/286/236 706/286/235
f 120/286/262 98/286/248 489/286/236
f 202/286/351 490/286/348 212/286/406
f 448/286/442 627/286/756 628/286/770 276/286/480
f 409/286/667 748/286/715 746/286/704
f 492/286/172 10/286/105 33/286/151
f 317/286/558 491/286/757 333/286/544
f 454/286/600 491/286/757 453/286/653
f 489/286/236 64/286/118 59/286/158
f 491/286/757 317/286/558 691/286/580 688/286/771
f 343/286/589 491/286/757 688/286/771 689/286/610
f 6/286/108 54/286/163 38/286/107
f 518/286/768 18/286/67 516/286/66
f 15/286/60 30/286/179 62/286/148
f 492/286/172 90/286/171 36/286/144
f 33/286/151 493/286/166 492/286/172
f 97/286/198 494/286/280 116/286/278
f 765/286/657 370/286/609 293/286/524 770/286/772
f 5/286/68 18/286/67 38/286/107
f 293/286/524 771/286/594 770/286/772
f 519/286/773 15/286/60 514/286/59
f 525/286/774 526/286/109 19/286/99
f 102/286/207 495/286/133 61/286/134
f 97/286/198 137/286/260 494/286/280
f 769/286/578 318/286/547 757/286/546
f 19/286/99 4/286/16 530/286/20 525/286/774
f 118/286/251 484/286/264 120/286/262
f 629/286/762 462/286/516 276/286/480 628/286/770
f 30/286/179 15/286/60 519/286/773 517/286/775
f 5/286/68 30/286/179 517/286/775 515/286/65
