# Blender 5.1.1
# www.blender.org
mtllib REV_12.mtl
o REV_cube_12
v -7.747573 -6.618419 -2.232173
v -7.726768 -6.694945 -2.236177
v -7.732311 -6.669703 -2.297087
v -7.713231 -6.656335 -2.375323
v -7.705513 -6.750441 -2.219247
v -7.672796 -6.704658 -2.147511
v -7.693968 -6.743098 -2.327620
v -7.679408 -6.824608 -2.270180
v -7.646076 -6.614118 -2.444087
v -7.657069 -6.888107 -2.198781
v -7.634794 -6.922164 -2.293044
v -7.662925 -6.792597 -2.159594
v -7.639936 -7.455863 -2.476670
v -7.639122 -6.946152 -2.196465
v -7.639840 -6.699743 -2.416425
v -7.632318 -6.827256 -2.358881
v -7.611828 -7.026094 -2.251513
v -7.596102 -7.012673 -2.155087
v -7.617092 -6.765453 -2.398279
v -7.569478 -7.445387 -2.479732
v -7.607787 -6.831105 -2.111326
v -7.607488 -6.648557 -2.106416
v -7.594285 -6.929435 -2.117458
v -7.570400 -7.098207 -2.307389
v -7.569306 -7.173356 -2.184803
v -7.576118 -6.910453 -2.370807
v -7.547089 -6.741317 -2.424176
v -7.541664 -6.646853 -2.442718
v -7.511851 -7.159290 -2.360456
v -7.573671 -7.007498 -2.344418
v -7.551620 -6.822142 -2.409943
v -7.549450 -7.028894 -2.101146
v -7.540185 -7.256285 -2.181761
v -7.561477 -7.194633 -2.270646
v -7.508606 -7.066992 -2.378377
v -7.540852 -7.298266 -2.259309
v -7.506804 -7.210206 -2.109157
v -7.534816 -7.124253 -2.109808
v -7.494594 -6.977481 -2.395050
v -7.513673 -7.347714 -2.328957
v -7.518465 -6.873305 -2.073729
v -7.524927 -7.380823 -2.224617
v -7.512440 -7.451228 -2.291255
v -7.487867 -7.256230 -2.374975
v -7.518931 -7.324841 -2.178199
v -7.508691 -6.625211 -2.112010
v -7.498005 -7.544874 -2.317358
v -7.482684 -7.451262 -2.179832
v -7.505670 -7.090822 -2.478260
v -7.480143 -7.407538 -2.383135
v -7.481720 -7.528225 -2.220355
v -7.509348 -6.961375 -2.069088
v -7.479232 -7.488371 -2.387788
v -7.429745 -7.117210 -2.400558
v -7.472762 -7.374279 -2.134861
v -7.477100 -7.565166 -2.399776
v -7.477193 -6.888736 -2.404647
v -7.478366 -7.293320 -2.111673
v -7.424767 -6.908239 -2.068516
v -7.450735 -6.703884 -2.408678
v -7.446161 -7.149541 -2.066447
v -7.525596 -6.699711 -2.090508
v -7.440484 -7.041797 -2.472323
v -7.438204 -7.188823 -2.400120
v -7.459740 -6.797634 -2.409986
v -7.419299 -7.535522 -2.461317
v -7.450656 -6.630079 -2.401264
v -7.392330 -7.251273 -2.416563
v -7.441679 -6.809647 -2.081382
v -7.417835 -7.434695 -2.439409
v -7.433817 -7.342003 -2.411881
v -7.424299 -7.143171 -2.469289
v -7.415331 -6.642193 -2.166795
v -7.417661 -7.511874 -2.145041
v -7.398155 -7.084098 -2.064533
v -7.413903 -7.594375 -2.179372
v -7.391804 -6.671382 -2.333615
v -7.403299 -7.064421 -2.451607
v -7.414430 -7.233374 -2.070565
v -7.387594 -7.003770 -2.067302
v -7.400720 -7.430784 -2.109361
v -7.395539 -6.950625 -2.388933
v -7.383148 -6.747574 -2.142296
v -7.388030 -6.768429 -2.358109
v -7.364029 -6.689416 -2.240561
v -7.386770 -6.861415 -2.373528
v -7.410941 -7.035244 -2.397116
v -7.339911 -7.387605 -2.444824
v -7.339635 -7.171686 -2.400373
v -7.340311 -7.549452 -2.136182
v -7.371671 -6.996541 -2.472305
v -7.346089 -7.043810 -2.443489
v -7.383197 -7.328340 -2.082860
v -7.355707 -6.748483 -2.290889
v -7.362514 -6.848080 -2.118989
v -7.325931 -7.009131 -2.357283
v -7.331503 -7.086516 -2.380654
v -7.332332 -6.794970 -2.209314
v -7.336271 -6.827579 -2.304584
v -7.336175 -6.932370 -2.110373
v -7.331367 -7.475078 -2.471887
v -7.304161 -7.388046 -2.103738
v -7.309225 -6.893248 -2.183383
v -7.337265 -7.313403 -2.425586
v -7.330645 -7.070869 -2.087057
v -7.343462 -7.153772 -2.076170
v -7.333110 -7.133022 -2.458815
v -7.332193 -7.242240 -2.077629
v -7.287081 -7.256782 -2.397296
v -7.317590 -6.920474 -2.324331
v -7.306005 -6.873003 -2.253464
v -7.320474 -7.478089 -2.117360
v -7.299272 -7.012302 -2.123626
v -7.281730 -6.994800 -2.294116
v -7.286366 -6.960921 -2.172597
v -7.274040 -7.203170 -2.112988
v -7.285714 -7.292964 -2.101481
v -7.301025 -6.977406 -2.460145
v -7.263801 -7.101445 -2.450747
v -7.281468 -6.946643 -2.243999
v -7.269668 -7.131250 -2.343763
v -7.259808 -7.025654 -2.214545
v -7.265583 -7.069819 -2.301250
v -7.262348 -7.104279 -2.140579
v -7.246283 -7.199350 -2.341404
v -7.252323 -7.345582 -2.403431
v -7.231918 -7.342364 -2.144552
v -7.233730 -7.433577 -2.152704
v -7.247888 -7.436631 -2.434006
v -7.240945 -7.533526 -2.163610
v -7.227539 -7.189893 -2.184560
v -7.230816 -7.150805 -2.272784
v -7.235447 -7.260972 -2.143919
v -7.239718 -7.520552 -2.466583
v -7.183392 -7.498207 -2.392610
v -7.244301 -7.027066 -2.441848
v -7.230494 -6.945626 -2.457598
v -7.214602 -7.289393 -2.335810
v -7.200862 -7.287853 -2.200488
v -7.184491 -7.330658 -2.267522
v -7.170606 -7.554979 -2.250394
v -7.188354 -7.381562 -2.209827
v -7.161259 -7.001912 -2.436357
v -7.178545 -7.471304 -2.223423
v -7.187332 -7.395572 -2.348413
v -7.166325 -7.097598 -2.459671
v -7.169745 -7.414115 -2.277805
v -7.173708 -7.585910 -2.422501
v -7.163918 -7.487465 -2.307486
v -7.155099 -7.568991 -2.339915
v -7.138477 -6.917002 -2.451991
v -7.072601 -6.977280 -2.440201
v -7.091223 -7.050137 -2.451345
v -7.044143 -6.891530 -2.448081
v -7.007230 -6.814775 -2.477132
v -7.010695 -7.031268 -2.465693
v -7.207076 -7.236463 -2.261703
v -7.520800 -6.780632 -2.077739
v -7.240580 -7.106112 -2.219543
v -7.477543 -7.593492 -2.257514
v -7.595801 -6.735294 -2.097775
v -7.447520 -6.713418 -2.103673
v -7.590470 -7.082601 -2.176896
v -7.586922 -7.116932 -2.242537
v -7.528995 -7.252031 -2.321564
v -7.478348 -7.082539 -2.068696
v -7.456594 -7.006774 -2.059279
v -7.712864 -6.610000 -2.184203
v -7.673293 -6.610000 -2.139670
v -7.687978 -6.610000 -2.152233
v -7.684070 -6.610000 -2.145658
v -7.757922 -6.610000 -2.325325
v -7.756155 -6.610000 -2.330448
v -7.751431 -6.610000 -2.236374
v -7.755922 -6.610000 -2.298855
v -7.744641 -6.610000 -2.225431
v -7.646873 -6.610000 -2.445332
v -7.640858 -6.610000 -2.445248
v -7.654097 -6.610000 -2.440814
v -7.722132 -6.610000 -2.394215
v -7.463114 -6.610000 -2.409226
v -7.441574 -6.610000 -2.383669
v -7.518132 -6.610000 -2.435324
v -7.542481 -6.610000 -2.112463
v -7.493563 -6.610000 -2.127178
v -7.515659 -6.610000 -2.114191
v -7.394828 -6.610000 -2.256672
v -7.397078 -6.610000 -2.266349
v -7.415176 -6.610000 -2.348313
v -7.401028 -6.610000 -2.241007
v -7.428886 -6.610000 -2.169252
v -7.555818 -6.610000 -2.449827
v -7.609146 -6.610000 -2.110295
v -7.000000 -7.025759 -2.466704
v -7.000000 -7.039866 -2.479129
v -7.000000 -6.990413 -2.455143
v -7.000000 -7.040972 -2.480000
v -7.000000 -6.814034 -2.476604
v -7.000000 -6.824236 -2.473816
v -7.000000 -6.809720 -2.480000
v -7.000000 -6.889442 -2.449841
v -7.000000 -6.944283 -2.446417
v -7.000000 -6.957750 -2.445410
v -7.222047 -7.610000 -2.195398
v -7.304581 -7.610000 -2.157274
v -7.308619 -7.610000 -2.156049
v -7.166258 -7.610000 -2.270611
v -7.206873 -7.610000 -2.213565
v -7.160099 -7.610000 -2.306696
v -7.484865 -7.610000 -2.361005
v -7.491114 -7.610000 -2.335426
v -7.470144 -7.610000 -2.253344
v -7.482296 -7.610000 -2.293212
v -7.423247 -7.610000 -2.195565
v -7.452202 -7.610000 -2.446619
v -7.465581 -7.610000 -2.429951
v -7.150727 -7.610000 -2.353269
v -7.163620 -7.610000 -2.401953
v -7.169543 -7.610000 -2.430135
v -7.210534 -7.610000 -2.480000
v -7.420802 -7.610000 -2.480000
v -7.324167 -7.610000 -2.160605
v -7.404272 -7.610000 -2.182072
v -7.507058 -7.100965 -2.480000
v -7.507897 -7.088566 -2.480000
v -7.512579 -7.094099 -2.480000
v -7.451110 -7.034326 -2.480000
v -7.504775 -7.085950 -2.480000
v -7.281343 -7.153049 -2.480000
v -7.306117 -6.954195 -2.480000
v -7.359808 -6.980712 -2.480000
v -7.402687 -7.159653 -2.480000
v -7.428033 -7.165141 -2.480000
v -7.334654 -7.163268 -2.480000
v -7.437690 -7.030605 -2.480000
v -7.378150 -6.991429 -2.480000
v -7.266191 -6.934335 -2.480000
v -7.101982 -7.101776 -2.480000
v -7.154006 -7.113555 -2.480000
v -7.200504 -7.135264 -2.480000
v -7.175164 -6.895329 -2.480000
v -7.221616 -6.913413 -2.480000
v -7.004803 -6.810658 -2.480000
v -7.034872 -7.068573 -2.480000
v -7.068967 -7.086888 -2.480000
v -7.008839 -6.812987 -2.480000
v -7.018029 -6.816543 -2.480000
v -7.245629 -7.143440 -2.480000
v -7.123138 -6.871316 -2.480000
v -7.081371 -6.857528 -2.480000
v -7.675227 -7.457572 -2.480000
v -7.644986 -7.466956 -2.480000
v -7.641422 -7.448005 -2.480000
v -7.570330 -7.444788 -2.480000
v -7.633105 -7.465264 -2.480000
v -7.569564 -7.446333 -2.480000
v -7.569409 -7.444796 -2.480000
v -7.568454 -7.446320 -2.480000
v -7.563339 -7.444255 -2.480000
v -7.463001 -7.163085 -2.480000
v -7.409768 -7.566921 -2.480000
v -7.374218 -7.545021 -2.480000
v -7.214845 -7.600052 -2.480000
v -7.232783 -7.560401 -2.480000
v -7.268555 -7.533847 -2.480000
v -7.327986 -7.496277 -2.480000
vn -0.0000 1.0000 -0.0000
vn 1.0000 -0.0000 -0.0000
vn -0.0000 -1.0000 -0.0000
vn -0.0000 -0.0000 -1.0000
vn -0.8934 -0.2669 0.3614
vn -0.7949 -0.1858 0.5776
vn -0.9236 -0.3119 0.2229
vn -0.9280 -0.3661 0.0700
vn -0.8803 -0.4495 -0.1519
vn -0.9142 -0.3870 -0.1206
vn -0.7350 -0.4072 -0.5422
vn -0.8294 -0.4571 -0.3214
vn -0.6732 -0.3864 -0.6305
vn -0.9340 -0.2913 0.2068
vn -0.8352 -0.1432 0.5309
vn -0.7665 -0.2381 0.5964
vn -0.8371 -0.3888 -0.3848
vn -0.7120 -0.1170 0.6924
vn -0.7016 -0.0974 0.7059
vn -0.5139 -0.3963 -0.7608
vn -0.2915 -0.3183 -0.9021
vn -0.9226 -0.3124 0.2262
vn -0.2693 -0.3259 -0.9062
vn -0.4303 -0.3503 -0.8319
vn -0.0216 0.0424 0.9989
vn -0.0621 0.3794 0.9231
vn -0.0939 -0.0007 0.9956
vn -0.4883 -0.3236 -0.8104
vn -0.9306 -0.3408 -0.1336
vn -0.0327 -0.2737 0.9613
vn -0.8045 -0.2200 0.5517
vn -0.6888 -0.3349 -0.6429
vn -0.9308 -0.2665 0.2502
vn -0.8772 -0.3199 -0.3581
vn -0.4745 -0.0521 0.8787
vn -0.2707 0.0725 0.9599
vn -0.2053 0.0892 0.9746
vn 0.0220 0.0785 0.9967
vn -0.0131 0.3927 0.9196
vn -0.5916 -0.1116 0.7985
vn -0.5407 -0.2545 -0.8018
vn -0.9294 -0.2978 0.2179
vn -0.6843 -0.1503 0.7136
vn -0.3922 -0.0055 0.9199
vn 0.0685 -0.2885 0.9550
vn -0.0382 -0.2259 -0.9734
vn 0.1558 -0.1465 -0.9769
vn 0.1054 -0.1492 -0.9832
vn 0.0485 -0.2763 0.9598
vn -0.0398 -0.1742 -0.9839
vn -0.9477 -0.2894 -0.1344
vn -0.0185 0.4148 0.9097
vn -0.8564 -0.2622 0.4449
vn -0.7084 -0.2395 -0.6639
vn -0.2365 -0.2272 -0.9447
vn -0.8354 -0.2358 -0.4964
vn -0.9608 -0.2564 -0.1054
vn -0.2282 0.0236 0.9733
vn -0.6735 -0.2008 0.7114
vn -0.9195 -0.2173 0.3277
vn -0.9185 -0.2865 0.2724
vn -0.6372 -0.2275 0.7364
vn 0.0311 -0.0987 -0.9946
vn 0.5098 0.0234 -0.8600
vn -0.6556 -0.1037 -0.7480
vn -0.9418 -0.2302 -0.2451
vn 0.0577 -0.2165 0.9746
vn -0.3393 0.3411 0.8766
vn -0.2334 -0.0240 0.9721
vn -0.2531 0.1192 0.9601
vn -0.9040 -0.2670 0.3340
vn -0.2240 -0.1017 -0.9693
vn -0.4581 -0.1331 -0.8789
vn 0.4058 -0.0764 -0.9107
vn -0.9773 -0.2002 -0.0692
vn -0.1918 -0.1404 0.9713
vn -0.3463 0.3713 0.8615
vn 0.0419 0.0093 0.9991
vn -0.3136 -0.0965 0.9446
vn -0.6195 -0.1657 0.7673
vn -0.1099 -0.0124 0.9939
vn -0.3107 -0.0395 0.9497
vn -0.8730 -0.2351 0.4273
vn -0.1551 -0.2169 0.9638
vn -0.0977 -0.2839 0.9539
vn 0.3040 -0.0426 -0.9517
vn -0.5824 -0.2435 0.7755
vn -0.9542 -0.2266 0.1954
vn 0.2815 0.2850 0.9163
vn 0.5138 0.2930 0.8063
vn 0.2317 0.2413 0.9424
vn -0.8966 -0.1002 -0.4313
vn -0.2038 -0.1092 0.9729
vn -0.2882 0.0428 -0.9566
vn -0.6320 -0.0463 -0.7736
vn -0.8726 -0.1206 -0.4734
vn -0.3039 0.3297 0.8938
vn -0.2895 0.4541 0.8426
vn -0.9867 -0.1493 -0.0634
vn 0.6487 0.0964 -0.7549
vn 0.1148 0.0441 -0.9924
vn 0.5403 0.0016 -0.8415
vn -0.4636 0.1167 -0.8783
vn -0.7912 -0.2813 0.5430
vn -0.6397 -0.2652 0.7215
vn 0.0317 0.1869 0.9819
vn 0.4202 0.2875 0.8607
vn -0.7953 0.0519 -0.6039
vn -0.8580 -0.2686 0.4378
vn -0.8612 0.0402 -0.5067
vn -0.9934 -0.1086 -0.0357
vn 0.7350 0.3793 0.5620
vn 0.7038 0.3438 0.6217
vn 0.2253 0.1489 0.9629
vn -0.1284 0.0276 -0.9913
vn -0.9019 0.0465 -0.4294
vn -0.1576 -0.1271 0.9793
vn 0.2982 0.1928 0.9348
vn -0.9683 -0.0448 -0.2457
vn -0.9944 -0.0898 -0.0554
vn -0.8314 -0.2469 0.4978
vn -0.8911 -0.2560 0.3747
vn -0.9595 -0.1843 0.2130
vn 0.0266 -0.4417 0.8968
vn 0.3509 0.0756 -0.9334
vn -0.4645 -0.3150 0.8277
vn -0.4551 0.1837 -0.8713
vn -0.1153 0.1194 -0.9861
vn -0.8438 0.1331 -0.5199
vn 0.7375 0.1441 -0.6598
vn -0.5120 -0.3623 0.7789
vn -0.7119 -0.2532 0.6551
vn -0.3114 0.5892 0.7456
vn -0.2838 -0.2652 0.9215
vn -0.5543 0.2368 -0.7979
vn 0.5642 0.1104 -0.8182
vn 0.1345 -0.0202 0.9907
vn -0.0860 -0.1940 0.9772
vn -0.3533 -0.3665 0.8607
vn -0.7453 0.2040 -0.6348
vn 0.7801 0.1739 -0.6011
vn 0.3237 0.0922 0.9416
vn 0.6618 0.2479 0.7075
vn 0.8745 0.2284 -0.4279
vn -0.5748 0.2825 -0.7680
vn -0.7160 0.1834 -0.6735
vn -0.2815 0.0628 0.9575
vn -0.3142 0.5105 0.8004
vn -0.3735 0.5963 0.7106
vn 0.8655 0.2221 -0.4489
vn 0.2869 0.1699 -0.9428
vn 0.6792 0.2789 0.6789
vn 0.0056 -0.3980 0.9173
vn 0.0285 0.2782 -0.9601
vn 0.3390 0.0305 0.9403
vn 0.4639 0.1920 -0.8648
vn 0.1020 0.2103 -0.9723
vn -0.0137 0.3158 -0.9487
vn 0.9259 0.3124 -0.2125
vn 0.8535 0.3975 0.3369
vn -0.2994 0.3356 -0.8932
vn -0.0333 0.3526 -0.9352
vn 0.7367 0.3176 0.5971
vn 0.9345 0.3465 0.0819
vn 0.9291 0.3680 0.0376
vn -0.0371 -0.3057 0.9514
vn 0.0046 -0.5407 0.8412
vn 0.0353 -0.5745 0.8177
vn 0.1580 -0.2387 0.9582
vn -0.3009 0.5898 0.7494
vn 0.9231 0.2554 -0.2873
vn 0.0921 -0.2666 0.9594
vn -0.2548 -0.4134 0.8742
vn 0.9302 0.3197 0.1804
vn -0.1377 0.1207 0.9831
vn 0.2872 -0.0456 0.9568
vn 0.6226 0.1762 -0.7624
vn 0.7519 0.2042 0.6268
vn 0.5063 0.0889 0.8578
vn 0.4677 0.2456 -0.8491
vn 0.3080 -0.1563 0.9385
vn 0.8708 0.2739 -0.4083
vn 0.7911 0.2302 -0.5668
vn 0.8940 0.3210 0.3125
vn 0.5037 0.3243 -0.8007
vn -0.2103 0.4343 0.8759
vn -0.2899 0.5846 0.7578
vn 0.0688 -0.3193 0.9452
vn 0.4695 -0.0587 0.8810
vn 0.1344 -0.5349 0.8342
vn 0.8734 0.2660 -0.4079
vn -0.0346 0.0255 0.9991
vn 0.5552 0.2729 -0.7857
vn 0.7299 0.2551 -0.6341
vn 0.8942 0.2245 -0.3874
vn 0.5532 -0.1751 0.8144
vn 0.9451 0.3067 -0.1126
vn 0.4938 0.3534 -0.7946
vn 0.2467 0.3692 -0.8960
vn 0.9000 0.2820 0.3324
vn 0.7775 0.2542 -0.5752
vn 0.6428 -0.1068 0.7586
vn 0.3216 -0.1908 0.9274
vn 0.7182 -0.0308 0.6951
vn 0.8198 0.1721 0.5462
vn 0.6519 0.1006 0.7516
vn 0.1173 -0.5329 0.8380
vn 0.6381 0.3431 -0.6893
vn 0.9524 0.2926 -0.0853
vn -0.2051 0.4209 0.8836
vn -0.2484 0.5983 0.7618
vn -0.2880 0.5885 0.7555
vn 0.6473 -0.1506 0.7472
vn 0.9679 0.2390 0.0773
vn 0.9276 0.2008 0.3149
vn 0.7778 0.0963 0.6211
vn 0.8417 0.2716 -0.4666
vn 0.1453 -0.4624 0.8747
vn 0.8789 0.2329 -0.4163
vn 0.9474 0.2599 -0.1867
vn 0.9672 0.2470 0.0588
vn 0.8590 0.2649 -0.4381
vn 0.7301 0.3235 -0.6019
vn 0.9618 0.2562 -0.0964
vn 0.9391 0.1470 0.3106
vn 0.8522 0.2491 -0.4602
vn 0.1367 -0.5637 0.8146
vn -0.0234 -0.0076 0.9997
vn 0.8986 -0.0308 0.4378
vn 0.2251 -0.6955 0.6823
vn 0.9115 -0.0466 0.4087
vn 0.7767 -0.0952 0.6226
vn 0.9148 0.0532 0.4005
vn 0.8516 0.2864 -0.4391
vn 0.7325 0.3175 -0.6022
vn 0.9786 0.2017 -0.0395
vn -0.1520 0.3849 0.9103
vn -0.2425 0.5874 0.7721
vn 0.9406 -0.0491 0.3360
vn 0.1744 -0.3389 0.9245
vn 0.9944 0.1004 -0.0331
vn 0.9923 0.1220 0.0193
vn -0.2081 0.5611 0.8012
vn 0.9923 0.1163 -0.0416
vn 0.0705 -0.0470 0.9964
vn 0.9889 0.1292 -0.0731
vn 0.9514 0.1953 -0.2381
vn 0.9841 0.0229 0.1764
vn 0.2212 -0.5411 0.8114
vn 0.2469 -0.4985 0.8310
vn -0.0832 0.2896 0.9535
vn -0.2306 0.5197 0.8226
vn -0.1990 0.5299 0.8244
vn -0.2978 0.4929 0.8176
vn -0.3301 0.7068 0.6257
vn 0.2992 -0.4326 0.8505
vn 0.2901 -0.5008 0.8155
vn 0.0921 -0.0774 0.9927
vn 0.0482 0.0718 0.9963
vn 0.1521 -0.2843 0.9466
vn 0.4398 -0.5556 0.7056
vn 0.4277 -0.5675 0.7036
vn -0.1885 0.6337 0.7502
vn 0.0290 0.2107 0.9771
vn -0.0025 0.3291 0.9443
vn -0.1111 0.4537 0.8842
vn 0.3026 -0.4314 0.8499
vn -0.0854 0.0862 0.9926
vn -0.1200 0.6141 0.7801
vn 0.0366 0.1108 0.9932
vt 0.458586 0.328983
vt 0.460082 0.331677
vt 0.467426 0.347714
vt 0.466884 0.364380
vt 0.466452 0.371085
vt 0.463206 0.376609
vt 0.452687 0.392779
vt 0.434748 0.399743
vt 0.430832 0.401293
vt 0.428413 0.400731
vt 0.407922 0.396206
vt 0.399083 0.389607
vt 0.392693 0.384221
vt 0.386169 0.370467
vt 0.382543 0.361045
vt 0.383688 0.339786
vt 0.383667 0.338282
vt 0.384796 0.336476
vt 0.396446 0.319467
vt 0.412388 0.310961
vt 0.413669 0.310519
vt 0.420286 0.311019
vt 0.435907 0.312142
vt 0.438642 0.313840
vt 0.448949 0.321784
vt 0.456942 0.328006
vt 0.375849 0.551008
vt 0.376546 0.553559
vt 0.382540 0.569861
vt 0.383396 0.583571
vt 0.383648 0.586938
vt 0.381214 0.595103
vt 0.378324 0.603940
vt 0.375218 0.607466
vt 0.375000 0.607743
vt 0.375000 0.549930
vt 0.411144 0.872778
vt 0.404749 0.871216
vt 0.387512 0.866395
vt 0.383345 0.863051
vt 0.375000 0.855201
vt 0.375000 0.802633
vt 0.387466 0.792386
vt 0.394512 0.790905
vt 0.406683 0.787682
vt 0.418326 0.790025
vt 0.427347 0.791565
vt 0.441609 0.801718
vt 0.446150 0.805512
vt 0.455682 0.826145
vt 0.455988 0.827155
vt 0.454849 0.831042
vt 0.449482 0.851068
vt 0.446109 0.855812
vt 0.431664 0.867536
vt 0.421697 0.870574
vt 0.366282 0.614643
vt 0.357758 0.619222
vt 0.349505 0.622944
vt 0.336499 0.625889
vt 0.324874 0.631316
vt 0.313593 0.633360
vt 0.304664 0.635762
vt 0.291337 0.638317
vt 0.274328 0.637413
vt 0.267992 0.638785
vt 0.259250 0.638271
vt 0.248236 0.622741
vt 0.246855 0.621025
vt 0.248026 0.619641
vt 0.248806 0.618988
vt 0.262222 0.606081
vt 0.265577 0.605151
vt 0.280462 0.595357
vt 0.285048 0.592678
vt 0.298471 0.586049
vt 0.308452 0.581084
vt 0.319596 0.575853
vt 0.331209 0.571332
vt 0.344215 0.565329
vt 0.354657 0.561882
vt 0.370493 0.551636
vt 0.372790 0.550747
vt 0.373799 0.550164
vt 0.232886 0.709080
vt 0.232609 0.709083
vt 0.216724 0.713816
vt 0.213754 0.714239
vt 0.206193 0.711893
vt 0.214644 0.709501
vt 0.232417 0.708697
vt 0.232648 0.708699
vt 0.234165 0.708564
vt 0.316804 0.737600
vt 0.321289 0.747513
vt 0.322367 0.750000
vt 0.269799 0.750000
vt 0.272558 0.739230
vt 0.281445 0.733755
vt 0.293004 0.721569
vt 0.307861 0.730962
vt 0.000000 0.000000
s 0
f 171/1/1 169/2/1 193/3/1 184/4/1 186/5/1 185/6/1 191/7/1 190/8/1 187/9/1 188/10/1 189/11/1 182/12/1 181/13/1 183/14/1 192/15/1 178/16/1 177/17/1 179/18/1 180/19/1 173/20/1 172/21/1 175/22/1 174/23/1 176/24/1 168/25/1 170/26/1
f 198/27/2 199/28/2 201/29/2 202/30/2 203/31/2 196/32/2 194/33/2 195/34/2 197/35/2 200/36/2
f 211/37/3 210/38/3 216/39/3 215/40/3 221/41/3 220/42/3 219/43/3 218/44/3 217/45/3 209/46/3 207/47/3 208/48/3 204/49/3 205/50/3 206/51/3 222/52/3 223/53/3 214/54/3 212/55/3 213/56/3
f 200/36/4 197/35/4 244/57/4 245/58/4 238/59/4 239/60/4 240/61/4 248/62/4 229/63/4 234/64/4 232/65/4 233/66/4 260/67/4 224/68/4 226/69/4 225/70/4 228/71/4 227/72/4 235/73/4 236/74/4 231/75/4 230/76/4 237/77/4 242/78/4 241/79/4 249/80/4 250/81/4 247/82/4 246/83/4 243/84/4
f 258/85/4 256/86/4 255/87/4 252/88/4 251/89/4 253/90/4 254/91/4 257/92/4 259/93/4
f 264/94/4 263/95/4 220/96/4 221/97/4 261/98/4 262/99/4 266/100/4 265/101/4
s 1
f 1/102/5 176/102/6 174/102/7
f 1/102/5 174/102/7 175/102/8
f 172/102/9 3/102/10 1/102/5 175/102/8
f 4/102/11 173/102/12 180/102/13
f 3/102/10 172/102/9 173/102/12 4/102/11
f 3/102/10 2/102/14 1/102/5
f 2/102/14 170/102/15 168/102/16 1/102/5
f 1/102/5 168/102/16 176/102/6
f 4/102/11 7/102/17 3/102/10
f 6/102/18 171/102/19 170/102/15 2/102/14
f 179/102/20 9/102/21 4/102/11 180/102/13
f 7/102/17 2/102/14 3/102/10
f 5/102/22 6/102/18 2/102/14
f 7/102/17 5/102/22 2/102/14
f 177/102/23 9/102/21 179/102/20
f 4/102/11 15/102/24 7/102/17
f 13/102/25 253/102/26 251/102/27
f 9/102/21 15/102/24 4/102/11
f 15/102/24 19/102/28 7/102/17
f 7/102/17 8/102/29 5/102/22
f 251/102/27 252/102/30 13/102/25
f 8/102/29 12/102/31 5/102/22
f 5/102/22 12/102/31 6/102/18
f 7/102/17 16/102/32 8/102/29
f 7/102/17 19/102/28 16/102/32
f 8/102/29 10/102/33 12/102/31
f 8/102/29 11/102/34 10/102/33
f 169/102/35 22/102/36 193/102/37
f 6/102/18 22/102/36 169/102/35 171/102/19
f 13/102/25 20/102/38 254/102/39 253/102/26
f 16/102/32 11/102/34 8/102/29
f 10/102/33 21/102/40 12/102/31
f 26/102/41 11/102/34 16/102/32
f 14/102/42 23/102/43 10/102/33
f 23/102/43 21/102/40 10/102/33
f 21/102/40 161/102/44 12/102/31
f 255/102/45 13/102/25 252/102/30
f 9/102/21 177/102/23 178/102/46
f 28/102/47 9/102/21 178/102/46 192/102/48
f 256/102/49 20/102/38 13/102/25 255/102/45
f 27/102/50 19/102/28 15/102/24
f 27/102/50 15/102/24 28/102/47
f 17/102/51 14/102/42 11/102/34
f 20/102/38 257/102/52 254/102/39
f 14/102/42 18/102/53 23/102/43
f 17/102/51 18/102/53 14/102/42
f 30/102/54 11/102/34 26/102/41
f 16/102/32 31/102/55 26/102/41
f 17/102/51 24/102/56 164/102/57
f 30/102/54 17/102/51 11/102/34
f 19/102/28 31/102/55 16/102/32
f 23/102/43 41/102/58 21/102/40
f 31/102/55 19/102/28 27/102/50
f 30/102/54 24/102/56 17/102/51
f 38/102/59 163/102/60 25/102/61
f 38/102/59 25/102/61 37/102/62
f 57/102/63 26/102/41 31/102/55
f 28/102/47 60/102/64 27/102/50
f 29/102/65 34/102/66 24/102/56
f 258/102/67 20/102/38 256/102/49
f 225/102/68 226/102/69 49/102/70
f 34/102/66 33/102/71 25/102/61
f 30/102/54 26/102/41 39/102/72
f 39/102/72 26/102/41 57/102/63
f 33/102/71 37/102/62 25/102/61
f 30/102/54 35/102/73 24/102/56
f 24/102/56 35/102/73 29/102/65
f 28/102/47 192/102/48 183/102/74
f 34/102/66 36/102/75 33/102/71
f 226/102/69 224/102/76 49/102/70
f 49/102/70 228/102/77 225/102/68
f 257/102/52 20/102/38 259/102/78
f 30/102/54 39/102/72 35/102/73
f 38/102/59 166/102/79 32/102/80
f 32/102/80 167/102/81 52/102/82
f 36/102/75 45/102/83 33/102/71
f 20/102/38 258/102/67 259/102/78
f 260/102/84 72/102/85 49/102/70 224/102/76
f 31/102/55 27/102/50 65/102/86
f 65/102/86 27/102/50 60/102/64
f 33/102/71 58/102/87 37/102/62
f 42/102/88 45/102/83 36/102/75
f 46/102/89 185/102/90 186/102/91
f 40/102/92 42/102/88 36/102/75
f 37/102/62 61/102/93 38/102/59
f 64/102/94 44/102/95 29/102/65
f 44/102/95 40/102/92 165/102/96
f 228/102/77 49/102/70 63/102/97 227/102/98
f 40/102/92 43/102/99 42/102/88
f 33/102/71 45/102/83 58/102/87
f 67/102/100 60/102/64 28/102/47
f 39/102/72 87/102/101 35/102/73
f 67/102/100 28/102/47 183/102/74 181/102/102
f 57/102/63 31/102/55 65/102/86
f 44/102/95 71/102/103 40/102/92
f 43/102/99 48/102/104 42/102/88
f 42/102/88 55/102/105 45/102/83
f 46/102/89 62/102/106 162/102/107
f 50/102/108 43/102/99 40/102/92
f 71/102/103 50/102/108 40/102/92
f 43/102/99 51/102/109 48/102/104
f 43/102/99 53/102/110 47/102/111
f 47/102/111 51/102/109 43/102/99
f 55/102/105 58/102/87 45/102/83
f 185/102/90 46/102/89 73/102/112 191/102/113
f 52/102/82 59/102/114 41/102/58
f 43/102/99 50/102/108 53/102/110
f 42/102/88 48/102/104 55/102/105
f 54/102/115 35/102/73 87/102/101
f 56/102/116 47/102/111 53/102/110
f 37/102/62 79/102/117 61/102/93
f 69/102/118 41/102/58 59/102/114
f 47/102/111 56/102/116 210/102/119 211/102/120
f 212/102/121 160/102/122 213/102/123
f 233/102/124 72/102/85 260/102/84
f 82/102/125 87/102/101 39/102/72
f 37/102/62 58/102/87 79/102/117
f 82/102/125 39/102/72 57/102/63
f 63/102/97 49/102/70 72/102/85
f 51/102/109 74/102/126 48/102/104
f 70/102/127 53/102/110 50/102/108
f 68/102/128 71/102/103 44/102/95
f 64/102/94 68/102/128 44/102/95
f 210/102/119 56/102/116 216/102/129
f 84/102/130 65/102/86 60/102/64
f 76/102/131 160/102/122 212/102/121 214/102/132
f 63/102/97 235/102/133 227/102/98
f 48/102/104 81/102/134 55/102/105
f 66/102/135 56/102/116 53/102/110
f 66/102/135 53/102/110 70/102/127
f 86/102/136 82/102/125 57/102/63
f 74/102/126 81/102/134 48/102/104
f 61/102/93 75/102/137 166/102/79
f 51/102/109 76/102/131 74/102/126
f 81/102/134 93/102/138 55/102/105
f 223/102/139 76/102/131 214/102/132
f 56/102/116 66/102/135 215/102/140 216/102/129
f 67/102/100 181/102/102 182/102/141
f 71/102/103 70/102/127 50/102/108
f 80/102/142 100/102/143 59/102/114
f 86/102/136 57/102/63 65/102/86
f 58/102/87 93/102/138 79/102/117
f 55/102/105 93/102/138 58/102/87
f 77/102/144 84/102/130 60/102/64
f 261/102/145 221/102/146 215/102/140 66/102/135
f 78/102/147 63/102/97 72/102/85
f 235/102/133 63/102/97 91/102/148 236/102/149
f 78/102/147 91/102/148 63/102/97
f 77/102/144 60/102/64 67/102/100
f 84/102/130 86/102/136 65/102/86
f 77/102/144 67/102/100 182/102/141 189/102/150
f 89/102/151 68/102/128 64/102/94
f 100/102/143 95/102/152 59/102/114
f 89/102/151 64/102/94 54/102/115
f 78/102/147 72/102/85 107/102/153
f 71/102/103 88/102/154 70/102/127
f 79/102/117 106/102/155 61/102/93
f 61/102/93 106/102/155 75/102/137
f 97/102/156 54/102/115 87/102/101
f 97/102/156 89/102/151 54/102/115
f 68/102/128 104/102/157 71/102/103
f 71/102/103 104/102/157 88/102/154
f 101/102/158 66/102/135 70/102/127
f 95/102/152 69/102/118 59/102/114
f 77/102/144 189/102/150 188/102/159
f 73/102/112 190/102/160 191/102/113
f 66/102/135 262/102/161 261/102/145
f 66/102/135 101/102/158 266/102/162 262/102/161
f 83/102/163 85/102/164 73/102/112
f 73/102/112 85/102/164 187/102/165 190/102/160
f 74/102/126 76/102/131 90/102/166
f 232/102/167 72/102/85 233/102/124
f 234/102/168 107/102/153 72/102/85 232/102/167
f 74/102/126 112/102/169 81/102/134
f 74/102/126 90/102/166 112/102/169
f 91/102/148 231/102/170 236/102/149
f 94/102/171 84/102/130 77/102/144
f 69/102/118 95/102/152 83/102/163
f 206/102/172 90/102/166 76/102/131 222/102/173
f 95/102/152 98/102/174 83/102/163
f 107/102/153 92/102/175 78/102/147
f 91/102/148 78/102/147 92/102/175
f 93/102/138 108/102/176 79/102/117
f 79/102/117 108/102/176 106/102/155
f 101/102/158 70/102/127 88/102/154
f 188/102/159 187/102/165 85/102/164 77/102/144
f 82/102/125 96/102/177 87/102/101
f 80/102/142 113/102/178 100/102/143
f 75/102/137 105/102/179 80/102/142
f 80/102/142 105/102/179 113/102/178
f 109/102/180 104/102/157 68/102/128
f 109/102/180 68/102/128 89/102/151
f 85/102/164 94/102/171 77/102/144
f 81/102/134 102/102/181 93/102/138
f 81/102/134 112/102/169 102/102/181
f 83/102/163 98/102/174 85/102/164
f 94/102/171 99/102/182 84/102/130
f 84/102/130 99/102/182 86/102/136
f 106/102/155 105/102/179 75/102/137
f 110/102/183 86/102/136 99/102/182
f 100/102/143 103/102/184 95/102/152
f 96/102/177 82/102/125 110/102/183
f 85/102/164 98/102/174 94/102/171
f 110/102/183 82/102/125 86/102/136
f 96/102/177 97/102/156 87/102/101
f 129/102/185 101/102/158 88/102/154
f 91/102/148 92/102/175 118/102/186
f 231/102/170 91/102/148 118/102/186 230/102/187
f 92/102/175 107/102/153 119/102/188
f 93/102/138 117/102/189 108/102/176
f 102/102/181 117/102/189 93/102/138
f 98/102/174 99/102/182 94/102/171
f 229/102/190 107/102/153 234/102/168
f 103/102/184 98/102/174 95/102/152
f 123/102/191 97/102/156 96/102/177
f 92/102/175 136/102/192 118/102/186
f 126/102/193 88/102/154 104/102/157
f 129/102/185 88/102/154 126/102/193
f 121/102/194 89/102/151 97/102/156
f 114/102/195 96/102/177 110/102/183
f 114/102/195 123/102/191 96/102/177
f 90/102/166 130/102/196 112/102/169
f 103/102/184 111/102/197 98/102/174
f 111/102/197 99/102/182 98/102/174
f 101/102/158 134/102/198 265/102/199 266/102/162
f 100/102/143 115/102/200 103/102/184
f 125/102/201 109/102/180 89/102/151
f 125/102/201 89/102/151 121/102/194
f 121/102/194 97/102/156 123/102/191
f 111/102/197 110/102/183 99/102/182
f 113/102/178 115/102/200 100/102/143
f 102/102/181 112/102/169 128/102/202
f 129/102/185 134/102/198 101/102/158
f 205/102/203 130/102/196 90/102/166 206/102/172
f 127/102/204 117/102/189 102/102/181
f 105/102/179 124/102/205 113/102/178
f 126/102/193 104/102/157 109/102/180
f 119/102/188 136/102/192 92/102/175
f 108/102/176 116/102/206 106/102/155
f 106/102/155 124/102/205 105/102/179
f 106/102/155 116/102/206 124/102/205
f 248/102/207 119/102/188 107/102/153 229/102/190
f 108/102/176 117/102/189 116/102/206
f 264/102/208 265/102/199 134/102/198
f 120/102/209 114/102/195 110/102/183
f 120/102/209 110/102/183 111/102/197
f 103/102/184 120/102/209 111/102/197
f 137/102/210 242/102/211 237/102/212
f 118/102/186 137/102/210 237/102/212 230/102/187
f 102/102/181 128/102/202 127/102/204
f 115/102/200 120/102/209 103/102/184
f 204/102/213 130/102/196 205/102/203
f 124/102/205 122/102/214 113/102/178
f 113/102/178 122/102/214 115/102/200
f 136/102/192 137/102/210 118/102/186
f 116/102/206 131/102/215 124/102/205
f 115/102/200 122/102/214 120/102/209
f 117/102/189 133/102/216 116/102/206
f 116/102/206 133/102/216 131/102/215
f 117/102/189 127/102/204 133/102/216
f 122/102/214 114/102/195 120/102/209
f 122/102/214 123/102/191 114/102/195
f 112/102/169 130/102/196 128/102/202
f 125/102/201 138/102/217 109/102/180
f 136/102/192 119/102/188 146/102/218
f 145/102/219 129/102/185 126/102/193
f 132/102/220 121/102/194 123/102/191
f 131/102/215 132/102/220 159/102/221
f 138/102/217 126/102/193 109/102/180
f 148/102/222 263/102/223 264/102/208 134/102/198
f 157/102/224 138/102/217 125/102/201
f 127/102/204 139/102/225 133/102/216
f 134/102/198 129/102/185 135/102/226
f 157/102/224 125/102/201 132/102/220
f 240/102/227 146/102/218 119/102/188 248/102/207
f 135/102/226 129/102/185 145/102/219
f 136/102/192 146/102/218 143/102/228
f 130/102/196 144/102/229 128/102/202
f 145/102/219 126/102/193 138/102/217
f 239/102/230 146/102/218 240/102/227
f 133/102/216 139/102/225 131/102/215
f 131/102/215 139/102/225 157/102/224
f 141/102/231 130/102/196 204/102/213 208/102/232
f 130/102/196 141/102/231 144/102/229
f 127/102/204 142/102/233 139/102/225
f 128/102/202 142/102/233 127/102/204
f 263/102/223 148/102/222 219/102/234 220/102/235
f 137/102/210 136/102/192 143/102/228
f 135/102/226 148/102/222 134/102/198
f 140/102/236 138/102/217 157/102/224
f 242/102/211 137/102/210 151/102/237 241/102/238
f 137/102/210 143/102/228 151/102/237
f 139/102/225 140/102/236 157/102/224
f 138/102/217 140/102/236 145/102/219
f 142/102/233 140/102/236 139/102/225
f 208/102/232 207/102/239 141/102/231
f 128/102/202 144/102/229 142/102/233
f 143/102/228 146/102/218 153/102/240
f 135/102/226 145/102/219 149/102/241
f 142/102/233 147/102/242 140/102/236
f 144/102/229 147/102/242 142/102/233
f 151/102/237 249/102/243 241/102/238
f 147/102/242 145/102/219 140/102/236
f 147/102/242 149/102/241 145/102/219
f 150/102/244 148/102/222 135/102/226
f 141/102/231 149/102/241 144/102/229
f 144/102/229 149/102/241 147/102/242
f 143/102/228 153/102/240 152/102/245
f 151/102/237 143/102/228 152/102/245
f 150/102/244 135/102/226 149/102/241
f 148/102/222 150/102/244 217/102/246 218/102/247
f 218/102/247 219/102/234 148/102/222
f 150/102/244 141/102/231 207/102/239 209/102/248
f 141/102/231 150/102/244 149/102/241
f 146/102/218 239/102/230 238/102/249
f 245/102/250 153/102/240 146/102/218 238/102/249
f 150/102/244 209/102/248 217/102/246
f 151/102/237 152/102/245 154/102/251
f 249/102/243 151/102/237 154/102/251 250/102/252
f 154/102/251 155/102/253 247/102/254 250/102/252
f 247/102/254 155/102/253 246/102/255
f 153/102/240 156/102/256 152/102/245
f 244/102/257 156/102/256 153/102/240 245/102/250
f 154/102/251 152/102/245 203/102/258 202/102/259
f 196/102/260 203/102/258 152/102/245 156/102/256
f 197/102/261 195/102/262 156/102/256 244/102/257
f 243/102/263 246/102/255 155/102/253
f 154/102/251 202/102/259 201/102/264
f 155/102/253 154/102/251 201/102/264 199/102/265
f 155/102/253 199/102/265 198/102/266
f 156/102/256 195/102/262 194/102/267
f 9/102/21 28/102/47 15/102/24
f 158/102/268 62/102/106 161/102/44
f 76/102/131 223/102/139 222/102/173
f 132/102/220 123/102/191 159/102/221
f 132/102/220 125/102/201 121/102/194
f 131/102/215 157/102/224 132/102/220
f 69/102/118 158/102/268 41/102/58
f 69/102/118 83/102/163 162/102/107
f 131/102/215 159/102/221 124/102/205
f 159/102/221 123/102/191 122/102/214
f 124/102/205 159/102/221 122/102/214
f 29/102/65 44/102/95 165/102/96
f 160/102/122 47/102/111 211/102/120 213/102/123
f 47/102/111 160/102/122 51/102/109
f 160/102/122 76/102/131 51/102/109
f 161/102/44 21/102/40 158/102/268
f 6/102/18 161/102/44 22/102/36
f 161/102/44 6/102/18 12/102/31
f 22/102/36 62/102/106 46/102/89
f 62/102/106 22/102/36 161/102/44
f 54/102/115 29/102/65 35/102/73
f 46/102/89 162/102/107 73/102/112
f 29/102/65 54/102/115 64/102/94
f 73/102/112 162/102/107 83/102/163
f 158/102/268 21/102/40 41/102/58
f 11/102/34 14/102/42 10/102/33
f 158/102/268 162/102/107 62/102/106
f 162/102/107 158/102/268 69/102/118
f 17/102/51 163/102/60 18/102/53
f 18/102/53 32/102/80 23/102/43
f 32/102/80 52/102/82 23/102/43
f 34/102/66 25/102/61 164/102/57
f 17/102/51 164/102/57 163/102/60
f 165/102/96 40/102/92 36/102/75
f 80/102/142 167/102/81 75/102/137
f 243/102/263 155/102/253 198/102/266 200/102/269
f 29/102/65 165/102/96 34/102/66
f 34/102/66 165/102/96 36/102/75
f 52/102/82 41/102/58 23/102/43
f 163/102/60 32/102/80 18/102/53
f 32/102/80 163/102/60 38/102/59
f 163/102/60 164/102/57 25/102/61
f 34/102/66 164/102/57 24/102/56
f 22/102/36 46/102/89 184/102/270 193/102/37
f 156/102/256 194/102/267 196/102/260
f 186/102/91 184/102/270 46/102/89
f 52/102/82 167/102/81 59/102/114
f 166/102/79 167/102/81 32/102/80
f 38/102/59 61/102/93 166/102/79
f 166/102/79 75/102/137 167/102/81
f 167/102/81 80/102/142 59/102/114
