# Blender 5.1.1
# www.blender.org
mtllib REV_13.mtl
o REV_cube_13
v -7.688492 -5.394892 -2.999944
v -7.671821 -5.422132 -2.934242
v -7.647419 -4.502008 -3.297028
v -7.626825 -5.365284 -2.997169
v -7.624448 -5.490602 -3.136466
v -7.622066 -4.507575 -3.216359
v -7.588299 -5.364838 -3.072350
v -7.605681 -5.381844 -2.939774
v -7.620746 -5.486371 -2.899616
v -7.573847 -5.450847 -3.134592
v -7.554532 -5.372154 -3.111373
v -7.566218 -5.331377 -2.998047
v -7.510052 -4.564079 -3.080455
v -7.548242 -5.346372 -2.945429
v -7.501408 -5.421874 -3.135344
v -7.487724 -5.319067 -3.116089
v -7.484630 -5.277839 -3.023621
v -7.487392 -5.478497 -3.127182
v -7.537232 -5.433233 -2.904984
v -7.446056 -4.563550 -3.020025
v -7.479898 -5.302711 -2.952707
v -7.500273 -4.630633 -3.198429
v -7.471026 -5.379343 -3.144236
v -7.461301 -4.673459 -3.141702
v -7.428764 -4.672012 -3.232708
v -7.462312 -4.635161 -3.062137
v -7.459892 -5.487318 -2.928473
v -7.480052 -4.608964 -3.291282
v -7.461955 -5.409162 -2.901281
v -7.421943 -5.257635 -3.130157
v -7.420709 -5.425385 -3.142033
v -7.439368 -5.253804 -3.068808
v -7.447760 -5.329738 -2.923710
v -7.414275 -4.712925 -3.072585
v -7.426975 -5.236199 -3.013129
v -7.408071 -5.327843 -3.160083
v -7.384860 -4.564738 -2.979920
v -7.382286 -5.467564 -3.098887
v -7.423199 -5.270565 -2.967284
v -7.380511 -5.180049 -3.063406
v -7.368521 -5.442387 -2.951905
v -7.389760 -5.368679 -2.913248
v -7.355370 -5.375926 -3.157191
v -7.370949 -5.220255 -3.160232
v -7.385507 -4.735715 -3.166376
v -7.346338 -5.271521 -3.186064
v -7.374599 -5.272763 -2.939301
v -7.354611 -5.142820 -3.082916
v -7.360980 -4.747334 -3.008799
v -7.318232 -4.610807 -2.941194
v -7.341628 -5.464326 -3.047636
v -7.341393 -5.345987 -2.926712
v -7.312889 -5.415293 -3.111624
v -7.329846 -5.213369 -2.964099
v -7.313965 -4.517997 -2.972070
v -7.331581 -4.712581 -3.248547
v -7.307586 -5.067077 -3.151118
v -7.313597 -4.708466 -2.932622
v -7.311282 -4.794722 -2.969055
v -7.321675 -5.133694 -3.031941
v -7.268960 -5.302083 -3.187838
v -7.293664 -5.280016 -2.944365
v -7.288822 -5.204457 -3.223294
v -7.277921 -4.785098 -2.911784
v -7.286699 -4.634554 -3.293962
v -7.279774 -5.076937 -3.063334
v -7.276746 -5.004108 -3.215105
v -7.262119 -5.018337 -3.278672
v -7.264744 -5.369911 -2.985420
v -7.301611 -4.774244 -3.187088
v -7.254864 -5.129347 -3.263391
v -7.243612 -5.357817 -3.123873
v -7.271219 -4.753430 -3.231635
v -7.256943 -5.228148 -2.963474
v -7.232741 -4.743122 -2.878505
v -7.306076 -4.832410 -3.039400
v -7.232186 -4.575418 -3.282272
v -7.253357 -5.151075 -2.994288
v -7.227987 -4.676366 -3.261705
v -7.234423 -5.369337 -3.056242
v -7.258490 -5.016452 -3.114552
v -7.257746 -4.867117 -2.956132
v -7.261963 -4.840014 -3.134063
v -7.241018 -4.911743 -3.244993
v -7.231429 -4.793620 -3.206398
v -7.245554 -4.573923 -2.940280
v -7.226265 -5.293472 -2.980876
v -7.227705 -4.854719 -3.283623
v -7.214463 -5.253766 -3.211272
v -7.221581 -4.936963 -3.171989
v -7.195891 -4.933079 -2.906562
v -7.220107 -5.092695 -3.028740
v -7.226187 -4.848658 -2.880819
v -7.197238 -4.907122 -3.100807
v -7.191966 -5.179710 -3.257657
v -7.226050 -4.643898 -2.901541
v -7.209802 -4.513063 -2.991214
v -7.179678 -5.290302 -3.148118
v -7.172264 -4.909463 -2.847929
v -7.192175 -4.865661 -3.226941
v -7.184698 -5.023004 -3.074332
v -7.182630 -5.200202 -3.005165
v -7.184732 -5.303060 -3.050682
v -7.157835 -4.844082 -3.172004
v -7.165416 -4.791637 -3.286192
v -7.117331 -4.914629 -3.130409
v -7.161639 -5.141048 -3.025466
v -7.163842 -4.745956 -3.221817
v -7.143831 -4.646895 -3.225470
v -7.157918 -4.798049 -2.837909
v -7.155092 -4.956883 -3.123629
v -7.138876 -5.222423 -3.196665
v -7.151030 -5.011039 -2.951108
v -7.148559 -4.506287 -3.115791
v -7.134604 -4.558051 -3.188954
v -7.149953 -4.578929 -3.252355
v -7.119700 -5.004912 -3.041716
v -7.149479 -4.695113 -2.866929
v -7.128631 -5.202684 -3.062099
v -7.168083 -4.583037 -2.939237
v -7.126842 -4.893691 -3.177032
v -7.087247 -4.575298 -3.108293
v -7.123728 -5.224892 -3.115545
v -7.114182 -5.173855 -3.230988
v -7.119497 -5.055786 -3.076596
v -7.070197 -4.819633 -2.804088
v -7.115496 -4.511675 -3.200241
v -7.133982 -4.997999 -2.866004
v -7.106877 -5.140360 -3.073620
v -7.117446 -4.882064 -2.811058
v -7.131408 -4.630948 -2.910547
v -7.071714 -4.778262 -3.175560
v -7.118631 -4.546944 -3.029019
v -7.101703 -5.065639 -2.904150
v -7.086954 -5.118481 -3.269077
v -7.048802 -5.036285 -3.056621
v -7.075816 -5.071860 -2.994365
v -7.092768 -4.826428 -3.250996
v -7.071081 -4.735460 -2.843510
v -7.080527 -4.632504 -3.165213
v -7.094054 -4.965619 -2.801214
v -7.070709 -4.615151 -2.962122
v -7.086370 -4.664901 -3.249952
v -7.091100 -4.702313 -3.191154
v -7.081371 -4.971334 -3.144494
v -7.083567 -5.154019 -3.187019
v -7.051155 -4.868473 -3.150043
v -7.054408 -5.062243 -3.245385
v -7.075662 -5.107178 -2.923162
v -7.031563 -5.095147 -2.788847
v -7.080828 -4.598520 -3.178521
v -7.059426 -5.046474 -3.161745
v -7.059408 -5.112175 -2.861475
v -7.045918 -4.525784 -3.153196
v -7.039935 -5.150602 -2.903018
v -7.009054 -5.129836 -2.983187
v -7.057967 -4.669415 -2.902081
v -7.043489 -4.967091 -3.105654
v -7.043786 -4.905313 -2.773942
v -7.036689 -4.644406 -3.105121
v -7.027028 -4.975216 -3.226614
v -7.031995 -4.708293 -3.139469
v -7.036964 -4.662632 -3.164390
v -7.035420 -4.622626 -3.038793
v -7.027314 -4.720626 -3.286970
v -6.987528 -5.064771 -2.736151
v -7.014857 -4.724488 -3.205175
v -6.992885 -4.783165 -2.828493
v -6.995317 -4.594224 -3.109547
v -7.012376 -5.168244 -2.825655
v -6.989754 -4.794425 -3.128917
v -6.982770 -4.695982 -3.118261
v -6.974849 -4.712830 -3.064573
v -6.995349 -4.844695 -2.789479
v -6.985449 -4.725999 -2.888000
v -6.931903 -4.912350 -2.754569
v -6.984208 -5.085201 -3.046468
v -6.971969 -5.221731 -2.887275
v -6.971439 -4.987358 -3.096995
v -6.953011 -4.779277 -3.162853
v -6.982982 -4.689468 -2.970325
v -6.974626 -5.029988 -3.071239
v -6.931509 -5.281707 -2.839250
v -6.951689 -5.194442 -2.960901
v -6.926661 -5.239946 -2.733748
v -6.953269 -4.892961 -3.109164
v -6.920485 -4.757556 -2.930496
v -6.917714 -4.814320 -3.065356
v -6.951550 -4.779560 -3.270136
v -6.922917 -5.021400 -3.076174
v -6.928466 -4.735311 -3.073292
v -6.909245 -4.772330 -2.995507
v -6.914902 -4.789228 -2.868237
v -6.911942 -5.160422 -2.694498
v -6.925885 -5.145956 -3.019342
v -6.893953 -4.822061 -3.098313
v -6.906344 -5.070501 -2.698529
v -6.867896 -4.672815 -3.022480
v -6.859321 -5.218218 -2.982323
v -6.889539 -4.547622 -3.083838
v -6.876344 -4.900174 -3.049774
v -6.887371 -5.068643 -3.050586
v -6.865933 -5.340910 -2.863385
v -6.888612 -5.330021 -2.764421
v -6.896421 -5.268772 -2.921077
v -6.853122 -4.830638 -2.930135
v -6.883892 -4.930098 -3.069232
v -6.841045 -5.401910 -2.794492
v -6.876144 -4.747270 -3.028357
v -6.891098 -4.836617 -3.213253
v -6.840509 -4.907032 -2.793171
v -6.871790 -4.974521 -2.732124
v -6.871234 -5.203574 -2.670643
v -6.838903 -4.980000 -3.043836
v -6.836344 -4.800255 -3.000777
v -6.855527 -4.847764 -2.855051
v -6.804959 -5.306153 -2.944741
v -6.854377 -4.854104 -3.009421
v -6.847084 -5.370898 -2.710171
v -6.860878 -4.813102 -3.291775
v -6.830302 -4.897551 -3.163053
v -6.833292 -4.886432 -3.056786
v -6.852967 -5.285951 -2.666802
v -6.838631 -5.129932 -2.666119
v -6.778438 -4.982704 -2.761158
v -6.837624 -4.601292 -3.042299
v -6.827769 -5.139559 -3.018754
v -6.799691 -5.390539 -2.884228
v -6.813998 -5.359099 -2.648400
v -6.795950 -4.710366 -2.984155
v -6.809086 -4.856965 -3.261487
v -6.785451 -5.460174 -2.817972
v -6.774277 -5.218532 -2.986866
v -6.802742 -5.045271 -2.699019
v -6.784650 -4.538018 -3.105376
v -6.756110 -5.442428 -2.616107
v -6.795389 -4.925393 -2.977757
v -6.802934 -5.450122 -2.712408
v -6.793607 -4.938999 -3.094126
v -6.797659 -4.900877 -2.878328
v -6.814870 -4.955053 -3.010608
v -6.772484 -4.946928 -3.022751
v -6.802200 -5.048375 -3.019725
v -6.752138 -5.120450 -2.992347
v -6.767139 -4.506043 -3.282656
v -6.779283 -4.863972 -2.966664
v -6.771018 -5.294508 -2.613276
v -6.767655 -4.952653 -2.826591
v -6.781395 -5.206132 -2.634877
v -6.732486 -4.842144 -3.284837
v -6.748970 -5.024449 -2.970443
v -6.758786 -4.511302 -3.194371
v -6.723049 -5.430823 -2.897126
v -6.738013 -4.990964 -3.090033
v -6.736152 -5.334312 -2.596277
v -6.721831 -4.927904 -2.933708
v -6.762091 -4.953023 -3.151186
v -6.737206 -4.589190 -3.060312
v -6.747915 -4.779902 -2.945414
v -6.711841 -5.054688 -2.738018
v -6.746703 -4.914628 -3.223197
v -6.741879 -4.974283 -2.900940
v -6.703220 -5.263366 -2.608537
v -6.739312 -5.117105 -2.671288
v -6.707671 -5.285381 -2.957894
v -6.703227 -4.652910 -3.001990
v -6.705140 -5.019299 -2.830940
v -6.702286 -4.719755 -2.956270
v -6.709328 -5.015267 -2.995548
v -6.733665 -5.359334 -2.934160
v -7.569658 -4.557188 -3.293378
v -7.649206 -5.415072 -3.088181
v -7.536179 -5.328042 -3.064465
v -7.316921 -5.405940 -2.969124
v -7.286603 -5.418781 -3.052690
v -7.042555 -4.881815 -3.246166
v -6.701295 -5.042975 -2.909636
v -7.565241 -4.546886 -3.155343
v -7.348012 -4.784141 -3.098315
v -7.299802 -5.107070 -3.212994
v -6.926941 -4.644881 -3.061154
v -7.330579 -5.164816 -3.180082
v -7.200859 -4.943222 -3.008209
v -7.029076 -5.003290 -2.761146
v -6.790051 -4.639332 -3.013142
v -7.398308 -4.653759 -2.991993
v -7.078020 -5.048069 -2.822880
v -6.971493 -5.148215 -2.737409
v -7.139584 -4.956135 -3.081856
v -6.969361 -5.224659 -2.805058
v -7.509875 -4.615361 -3.132536
v -7.251173 -4.881301 -3.048414
v -7.550248 -4.589582 -3.207428
v -7.181850 -4.587400 -3.247312
v -6.926628 -4.843972 -2.801476
v -6.967013 -4.979803 -2.734910
v -7.700000 -5.500000 -3.128455
v -7.700000 -5.474254 -3.128192
v -7.700000 -5.500000 -2.907281
v -7.700000 -5.462179 -2.922657
v -7.700000 -5.399431 -3.001532
v -7.700000 -5.402771 -3.017242
v -7.700000 -5.421488 -2.960178
v -7.700000 -5.421525 -3.075917
v -7.700000 -5.431925 -2.938236
v -7.700000 -5.457293 -3.117177
v -7.628590 -4.500000 -3.220085
v -7.623188 -4.500000 -3.212652
v -7.615985 -4.500000 -3.199199
v -7.584262 -4.500000 -3.145335
v -7.546214 -4.500000 -3.104066
v -7.534918 -4.500000 -3.087042
v -7.463882 -4.500000 -3.034359
v -7.480916 -4.500000 -3.050438
v -7.649609 -4.500000 -3.298820
v -7.648851 -4.500000 -3.300000
v -7.648446 -4.500000 -3.295355
v -7.356720 -4.500000 -2.990638
v -7.394254 -4.500000 -3.002207
v -7.407030 -4.500000 -3.010517
v -7.216300 -4.500000 -3.300000
v -7.261736 -4.500000 -3.298133
v -7.265057 -4.500000 -3.300000
v -7.189852 -4.500000 -3.272685
v -7.193374 -4.500000 -3.213312
v -7.220542 -4.500000 -3.001554
v -7.301872 -4.500000 -2.990102
v -7.199609 -4.500000 -3.018940
v -7.321151 -4.500000 -2.984941
v -7.155161 -4.500000 -3.116698
v -7.158864 -4.500000 -3.099180
v -7.182468 -4.500000 -3.189874
v -7.116433 -4.500000 -3.204137
v -7.148793 -4.500000 -3.229242
v -7.102425 -4.500000 -3.196937
v -7.044688 -4.500000 -3.162422
v -7.168557 -4.500000 -3.047909
v -6.986385 -4.500000 -3.142052
v -6.831060 -4.500000 -3.133124
v -6.857798 -4.500000 -3.129792
v -6.798532 -4.500000 -3.171782
v -6.942719 -4.500000 -3.125414
v -6.961525 -4.500000 -3.133325
v -6.774849 -4.500000 -3.274849
v -6.782018 -4.500000 -3.300000
v -6.774296 -4.500000 -3.286088
v -6.773565 -4.500000 -3.200562
v -7.178061 -4.500000 -3.257592
v -7.192205 -4.500000 -3.212362
v -7.190642 -4.500000 -3.210925
v -6.700000 -4.719401 -2.956794
v -6.700000 -4.721807 -2.954979
v -6.700000 -4.774011 -2.936070
v -6.700000 -4.866891 -2.916550
v -6.700000 -4.843195 -2.915263
v -6.700000 -4.830804 -2.915114
v -6.700000 -4.560934 -3.156437
v -6.700000 -4.566356 -3.144635
v -6.700000 -4.600575 -3.068120
v -6.700000 -4.649476 -3.008095
v -6.700000 -4.574204 -3.129719
v -6.700000 -4.653280 -3.003495
v -6.700000 -4.655118 -3.000874
v -6.700000 -5.500000 -2.855346
v -6.700000 -5.437641 -2.896473
v -6.700000 -5.500000 -2.593411
v -6.700000 -5.422163 -2.582196
v -6.700000 -5.294034 -2.954112
v -6.700000 -5.282445 -2.954772
v -6.700000 -5.359648 -2.930891
v -6.700000 -5.410898 -2.905045
v -6.700000 -5.333093 -2.590995
v -6.700000 -5.383552 -2.579223
v -6.700000 -5.266943 -2.607165
v -6.700000 -5.263209 -2.609007
v -6.700000 -5.254625 -2.612881
v -6.700000 -5.061455 -2.748506
v -6.700000 -5.068744 -2.732858
v -6.700000 -5.121328 -2.689307
v -6.700000 -5.159085 -2.656477
v -6.700000 -5.183914 -2.965764
v -6.700000 -5.109742 -2.950576
v -6.700000 -5.195086 -2.964266
v -6.700000 -5.237896 -2.960024
v -6.700000 -5.190813 -2.644098
v -6.700000 -5.051822 -2.914305
v -6.700000 -5.044431 -2.908702
v -6.700000 -5.027121 -2.835830
v -6.700000 -4.977261 -3.170329
v -6.700000 -4.989225 -3.141582
v -6.700000 -5.025640 -3.088453
v -6.700000 -5.024303 -3.021542
v -6.700000 -5.009273 -2.975446
v -6.700000 -5.028675 -3.000328
v -6.700000 -5.025271 -2.985830
v -6.700000 -4.950887 -2.921108
v -6.700000 -5.025643 -2.827937
v -6.700000 -4.823973 -3.284181
v -6.700000 -4.864606 -3.270085
v -6.700000 -4.790521 -3.300000
v -6.700000 -4.906674 -3.235283
v -6.700000 -4.572871 -3.253341
v -6.700000 -4.573006 -3.257074
v -6.700000 -4.584227 -3.264892
v -6.700000 -4.634921 -3.300000
v -6.700000 -4.575016 -3.259728
v -6.700000 -4.960830 -3.195222
v -6.700000 -4.921222 -2.919128
v -6.700000 -5.096020 -2.947789
v -6.768319 -5.500000 -2.745384
v -6.763894 -5.500000 -2.787046
v -6.717520 -5.500000 -2.845107
v -6.745502 -5.500000 -2.654289
v -6.762454 -5.500000 -2.686336
v -6.707283 -5.500000 -2.854132
v -6.702907 -5.500000 -2.595016
v -7.692194 -5.500000 -2.905980
v -7.593282 -5.500000 -2.907012
v -7.606141 -5.500000 -3.130031
v -7.552030 -5.500000 -3.117735
v -7.619025 -5.500000 -3.131326
v -7.631546 -5.500000 -3.135800
v -7.622074 -5.500000 -2.902076
v -7.495374 -5.500000 -3.109970
v -7.505600 -5.500000 -3.119032
v -7.465845 -5.500000 -3.100233
v -7.465340 -5.500000 -2.935993
v -7.493358 -5.500000 -2.924830
v -7.393799 -5.500000 -3.011359
v -7.424697 -5.500000 -3.085343
v -7.403295 -5.500000 -3.025778
v -7.403723 -5.500000 -2.991496
v -7.434334 -5.500000 -2.965487
v -7.546906 -5.500000 -2.915335
v -7.481512 -4.602395 -3.300000
v -7.562833 -4.556660 -3.300000
v -7.570068 -4.554152 -3.300000
v -7.643365 -4.503570 -3.300000
v -7.646255 -4.501561 -3.300000
v -7.383931 -4.634463 -3.300000
v -7.418221 -4.622935 -3.300000
v -7.375791 -4.639106 -3.300000
v -7.336428 -4.632925 -3.300000
v -7.471656 -4.602537 -3.300000
v -7.165669 -4.780210 -3.300000
v -7.178427 -4.791709 -3.300000
v -7.136283 -4.780912 -3.300000
v -7.122468 -4.645494 -3.300000
v -7.204384 -4.522376 -3.300000
v -7.193018 -4.559730 -3.300000
v -7.149405 -4.608457 -3.300000
v -7.226702 -4.838779 -3.300000
v -7.231179 -4.856032 -3.300000
v -7.263781 -4.571714 -3.300000
v -7.247472 -4.931552 -3.300000
v -7.237609 -4.892347 -3.300000
v -7.292092 -4.623477 -3.300000
v -7.074182 -5.079404 -3.300000
v -7.059986 -5.050506 -3.300000
v -7.100580 -5.096636 -3.300000
v -7.079632 -4.675598 -3.300000
v -7.089624 -4.783279 -3.300000
v -7.037117 -4.713192 -3.300000
v -7.016434 -4.937377 -3.300000
v -7.020700 -4.918007 -3.300000
v -7.034534 -4.999430 -3.300000
v -7.026052 -4.881047 -3.300000
v -7.032801 -4.840446 -3.300000
v -7.052249 -4.820774 -3.300000
v -6.961665 -4.761067 -3.300000
v -7.018361 -4.721812 -3.300000
v -6.926022 -4.771172 -3.300000
v -6.863647 -4.805412 -3.300000
v -6.844755 -4.806854 -3.300000
v -6.760145 -4.528167 -3.300000
v -6.775724 -4.507241 -3.300000
v -6.733527 -4.810707 -3.300000
v -6.758758 -4.821251 -3.300000
v -6.710704 -4.618085 -3.300000
v -6.729502 -4.567570 -3.300000
v -6.802867 -4.814713 -3.300000
v -7.035026 -5.000990 -3.300000
v -7.255821 -4.977543 -3.300000
v -7.245506 -5.016141 -3.300000
v -7.155537 -5.117464 -3.300000
v -7.145548 -5.112624 -3.300000
v -7.165057 -5.121723 -3.300000
v -7.176633 -5.114327 -3.300000
v -7.230629 -5.086638 -3.300000
v -7.241047 -5.030752 -3.300000
vn -1.0000 -0.0000 -0.0000
vn -0.0000 1.0000 -0.0000
vn 1.0000 -0.0000 -0.0000
vn -0.0000 -1.0000 -0.0000
vn -0.0000 -0.0000 -1.0000
vn -0.3252 0.6593 0.6779
vn -0.2991 0.6146 0.7300
vn -0.3729 0.8245 0.4256
vn -0.3885 0.9182 0.0771
vn -0.3780 0.9190 0.1123
vn -0.2182 0.9347 -0.2806
vn -0.1768 0.3863 0.9053
vn -0.1479 0.3421 0.9280
vn -0.0231 0.0673 0.9975
vn -0.1525 0.3722 0.9155
vn -0.2748 0.7222 -0.6347
vn -0.2206 0.8594 -0.4613
vn -0.7701 -0.5666 0.2932
vn -0.7984 -0.3559 0.4856
vn -0.7904 -0.5269 0.3125
vn -0.0444 0.6013 -0.7978
vn -0.4794 0.8759 0.0550
vn -0.0322 0.3287 -0.9439
vn 0.0334 0.0477 -0.9983
vn 0.0260 -0.0901 -0.9956
vn -0.1067 0.0102 -0.9942
vn 0.0500 -0.1821 0.9820
vn -0.6566 -0.7539 -0.0224
vn -0.7790 -0.5855 0.2244
vn -0.6075 -0.7828 -0.1349
vn -0.3227 0.6329 0.7038
vn -0.7900 -0.4062 0.4593
vn 0.1965 -0.2639 -0.9443
vn 0.1641 -0.3988 -0.9022
vn 0.1727 -0.1777 0.9688
vn -0.5369 -0.8092 -0.2384
vn -0.5182 -0.7923 -0.3222
vn -0.5378 -0.7781 -0.3246
vn -0.5119 0.7206 -0.4676
vn -0.1271 0.1307 -0.9832
vn 0.0617 -0.2991 -0.9522
vn -0.6905 -0.7233 0.0023
vn -0.5122 0.8531 0.0999
vn -0.4839 0.4622 -0.7431
vn -0.3512 0.6389 0.6845
vn 0.1730 -0.1753 0.9692
vn -0.0324 0.1138 0.9930
vn -0.2581 -0.7919 -0.5535
vn -0.3795 -0.7868 -0.4867
vn -0.3927 -0.7918 -0.4679
vn -0.1347 -0.0147 -0.9908
vn -0.3356 0.7355 0.5886
vn 0.1303 -0.4298 -0.8935
vn 0.1786 -0.4773 -0.8604
vn -0.5643 0.8250 0.0305
vn -0.5429 0.7727 -0.3290
vn -0.2591 0.0549 -0.9643
vn -0.5361 0.5495 -0.6408
vn 0.3700 -0.6604 -0.6534
vn -0.6473 -0.0616 0.7598
vn -0.7374 -0.2791 0.6151
vn -0.6171 -0.0407 0.7858
vn -0.5777 0.0220 0.8159
vn 0.4324 -0.5900 0.6818
vn 0.3515 -0.4612 0.8147
vn 0.1925 -0.2344 0.9529
vn -0.7580 -0.4284 0.4919
vn -0.7101 -0.7038 0.0212
vn -0.7631 -0.5867 0.2709
vn 0.0638 -0.0201 0.9978
vn -0.1538 0.4218 0.8935
vn -0.4831 -0.7617 -0.4317
vn -0.6320 -0.7618 -0.1420
vn 0.2546 -0.6464 -0.7193
vn -0.4041 0.6937 0.5962
vn 0.0893 -0.3780 -0.9215
vn -0.6623 0.4920 -0.5650
vn -0.6965 0.6906 -0.1948
vn 0.3962 -0.7277 -0.5599
vn 0.3987 -0.7448 -0.5351
vn -0.5895 0.7453 0.3114
vn -0.3242 0.0266 -0.9456
vn -0.6780 -0.2305 0.6979
vn -0.4522 0.1418 0.8806
vn 0.4860 -0.6674 0.5642
vn 0.0926 -0.4295 -0.8983
vn 0.5310 -0.5404 0.6527
vn -0.7527 -0.6157 0.2333
vn 0.2199 -0.0385 0.9748
vn 0.5924 -0.6697 0.4478
vn -0.5739 -0.7679 -0.2847
vn -0.1351 0.4397 0.8879
vn 0.4462 -0.8585 -0.2527
vn -0.2199 -0.6565 -0.7216
vn -0.2325 -0.6479 -0.7254
vn -0.3334 -0.7112 -0.6189
vn -0.0791 0.4848 0.8711
vn -0.2640 0.3138 0.9120
vn -0.4329 0.2366 0.8698
vn -0.2157 0.5408 0.8130
vn -0.7133 0.3436 -0.6108
vn -0.7528 0.6509 0.0983
vn 0.4503 -0.6894 -0.5674
vn -0.3835 -0.0865 -0.9195
vn 0.5904 -0.8065 -0.0326
vn 0.6121 -0.7831 0.1102
vn -0.6177 -0.0801 0.7823
vn -0.3756 0.1809 0.9089
vn -0.5224 0.6411 0.5622
vn 0.3560 -0.0777 0.9312
vn -0.7690 -0.4943 0.4053
vn -0.4430 -0.7411 -0.5046
vn -0.8144 0.5791 0.0374
vn 0.1346 0.6548 0.7438
vn 0.0072 0.5836 0.8120
vn 0.2962 0.0684 0.9527
vn -0.7902 -0.4429 0.4236
vn 0.1230 -0.5194 -0.8456
vn -0.0385 0.4988 0.8659
vn 0.2331 -0.3885 -0.8915
vn 0.0852 -0.5291 -0.8443
vn 0.2942 -0.3431 -0.8921
vn 0.5835 -0.5606 0.5875
vn 0.5603 -0.6902 -0.4578
vn -0.4363 -0.1996 -0.8774
vn -0.8075 0.2470 -0.5357
vn -0.4905 -0.7370 -0.4650
vn -0.7318 -0.6812 0.0199
vn -0.6790 -0.7253 -0.1139
vn -0.4947 0.6617 0.5634
vn 0.0336 0.4796 0.8768
vn -0.7079 -0.2274 0.6687
vn -0.1305 -0.5858 -0.7999
vn 0.2733 -0.2866 -0.9182
vn 0.6591 -0.4932 0.5677
vn -0.2024 0.3617 0.9101
vn -0.8851 0.4654 0.0007
vn 0.6480 -0.7615 0.0149
vn -0.4468 0.1132 0.8875
vn 0.2931 0.6931 0.6586
vn 0.2424 0.7168 0.6538
vn -0.5927 0.6433 0.4846
vn -0.7841 -0.5598 0.2681
vn -0.8698 0.1039 -0.4824
vn -0.5487 -0.2760 -0.7891
vn 0.2966 0.2036 0.9331
vn -0.9256 0.3765 -0.0394
vn -0.8950 0.0146 -0.4459
vn -0.7328 -0.2807 0.6198
vn -0.7476 -0.2603 0.6110
vn -0.6710 -0.3573 0.6497
vn -0.6933 -0.2431 0.6784
vn -0.6848 -0.7141 -0.1453
vn -0.0152 0.5854 0.8106
vn 0.7624 -0.6434 0.0684
vn 0.0030 0.5242 0.8516
vn -0.8830 0.4093 0.2297
vn -0.1200 -0.6265 -0.7701
vn 0.6454 -0.2587 0.7187
vn -0.9781 0.2038 0.0414
vn -0.9906 0.1118 -0.0787
vn -0.5672 0.6222 0.5395
vn 0.2860 -0.2983 -0.9106
vn -0.3757 0.1560 0.9135
vn -0.7484 -0.1683 -0.6415
vn -0.5753 -0.3191 -0.7531
vn 0.1759 -0.5861 -0.7909
vn 0.5671 0.0037 -0.8236
vn 0.6056 0.0706 -0.7926
vn 0.6382 0.3142 -0.7028
vn 0.4664 0.7217 0.5115
vn 0.0304 -0.5591 -0.8285
vn -0.0359 -0.5388 -0.8417
vn -0.4767 -0.7115 -0.5162
vn -0.9604 0.2063 0.1872
vn -0.9709 0.2349 0.0473
vn -0.8242 0.4364 0.3610
vn -0.0792 0.4273 0.9006
vn -0.7982 -0.5140 0.3142
vn 0.6273 -0.6957 -0.3500
vn -0.7153 0.5222 0.4644
vn 0.2234 0.6451 0.7307
vn -0.7263 -0.6739 -0.1355
vn 0.5827 0.0029 0.8127
vn -0.2791 0.7051 0.6518
vn -0.5787 0.6093 0.5421
vn -0.4310 0.6613 0.6140
vn 0.7999 -0.5317 0.2783
vn 0.6572 0.7431 0.1265
vn 0.7176 0.6912 -0.0853
vn 0.6931 0.7170 -0.0750
vn 0.7394 0.6092 -0.2867
vn 0.6018 0.7440 0.2903
vn -0.2927 -0.4846 -0.8243
vn 0.0401 -0.6013 -0.7980
vn -0.6757 -0.2442 0.6956
vn 0.5539 0.0428 -0.8315
vn 0.5989 0.1488 -0.7869
vn -0.7452 -0.3896 0.5412
vn -0.7334 -0.2185 0.6438
vn -0.7601 -0.3559 0.5436
vn -0.5350 -0.6705 -0.5140
vn -0.7646 -0.6442 -0.0189
vn 0.4903 0.1824 0.8523
vn 0.8316 -0.2692 0.4858
vn 0.1891 0.6138 0.7665
vn 0.5742 0.7462 0.3368
vn -0.2421 0.7453 0.6212
vn 0.5520 0.3094 0.7743
vn -0.4666 0.0481 0.8832
vn 0.6043 -0.6503 -0.4603
vn -0.7642 -0.4794 0.4316
vn 0.1134 0.6665 0.7368
vn 0.0095 0.6195 0.7849
vn 0.5755 0.0304 -0.8172
vn -0.1532 -0.5724 -0.8055
vn 0.4226 -0.1262 -0.8975
vn 0.7322 0.4409 -0.5191
vn 0.6854 0.4429 -0.5779
vn 0.8683 -0.4918 0.0643
vn 0.7608 0.6181 -0.1979
vn 0.5621 -0.6450 -0.5177
vn 0.2987 -0.6435 -0.7048
vn 0.0667 0.5209 0.8510
vn 0.2918 0.6680 0.6846
vn -0.1696 0.3389 0.9254
vn -0.8122 -0.5714 0.1172
vn 0.2990 -0.6579 -0.6912
vn 0.6481 -0.5987 -0.4706
vn 0.7320 0.3301 -0.5960
vn 0.6216 0.3570 0.6972
vn -0.6054 -0.1835 0.7745
vn 0.2354 -0.2841 -0.9294
vn 0.3683 0.6766 0.6377
vn -0.7125 -0.6378 0.2925
vn -0.6935 -0.2361 0.6807
vn -0.4714 0.2044 0.8579
vn -0.6087 0.0642 0.7908
vn 0.8420 -0.0932 0.5313
vn -0.3139 0.1820 0.9318
vn 0.0345 0.7527 0.6575
vn 0.2809 0.7113 0.6443
vn 0.5211 0.7319 0.4390
vn 0.3384 -0.6918 -0.6379
vn 0.9000 -0.4345 -0.0336
vn 0.7649 0.3919 0.5112
vn -0.5941 -0.6885 -0.4159
vn -0.3251 -0.6001 -0.7308
vn -0.7736 -0.6187 -0.1366
vn -0.0671 -0.4837 -0.8727
vn -0.4205 -0.6951 -0.5831
vn 0.7436 0.6686 0.0083
vn 0.7967 -0.5131 -0.3194
vn -0.8120 -0.5124 0.2793
vn -0.7617 -0.3193 0.5637
vn -0.7536 -0.3825 0.5345
vn 0.9246 -0.0840 0.3715
vn -0.7164 -0.3912 0.5776
vn -0.5500 -0.0675 0.8324
vn 0.4596 0.7135 0.5289
vn 0.7053 0.2319 -0.6699
vn -0.6035 -0.7974 -0.0009
vn -0.5892 -0.8056 -0.0623
vn -0.6240 -0.7771 0.0821
vn 0.9316 -0.3601 -0.0507
vn 0.8798 -0.4383 -0.1840
vn 0.7889 0.4841 -0.3786
vn -0.7074 -0.6638 0.2429
vn 0.0097 0.4553 0.8903
vn 0.2253 0.5967 0.7702
vn -0.4768 0.3000 0.8263
vn -0.5347 0.2286 0.8136
vn 0.5967 0.1334 -0.7913
vn -0.5020 -0.8216 -0.2702
vn 0.9415 -0.3346 -0.0411
vn -0.5120 -0.6742 -0.5323
vn -0.7300 -0.6722 -0.1235
vn 0.9587 -0.0251 0.2834
vn 0.5903 0.5854 0.5557
vn -0.5286 0.0939 0.8437
vn -0.2218 -0.5431 -0.8098
vn 0.9563 -0.2924 -0.0013
vn -0.7984 -0.5334 0.2794
vn -0.0457 -0.4759 -0.8783
vn -0.3416 0.3433 0.8749
vn -0.3118 0.3357 0.8888
vn 0.4524 -0.0616 -0.8897
vn 0.9476 0.1869 0.2591
vn 0.9860 0.0387 0.1623
vn -0.7222 -0.3262 0.6100
vn 0.6892 0.7066 0.1604
vn -0.4065 0.3249 0.8539
vn 0.1330 -0.3134 -0.9403
vn 0.0775 0.4467 0.8913
vn 0.7876 0.5007 -0.3590
vn -0.2410 0.2163 0.9461
vn -0.6915 -0.2417 0.6807
vn -0.5260 -0.8140 -0.2465
vn -0.4842 -0.6625 -0.5714
vn -0.4430 -0.8216 -0.3587
vn -0.7291 -0.6471 0.2231
vn -0.5511 -0.0608 0.8322
vn -0.7061 -0.6731 -0.2200
vn 0.3123 0.6095 0.7287
vn 0.5502 0.6964 0.4607
vn -0.3526 -0.7780 -0.5200
vn -0.8028 -0.5460 0.2395
vn -0.1447 0.5291 0.8361
vn -0.2637 0.4503 0.8531
vn -0.7047 -0.2901 0.6475
vn 0.1201 0.4718 0.8735
vn 0.5506 0.1091 -0.8276
vn 0.7221 0.3313 -0.6073
vn -0.2833 0.1920 0.9396
vn -0.5429 -0.0517 0.8382
vn -0.1790 -0.5381 -0.8237
vn 0.2189 -0.2970 -0.9295
vn 0.6858 0.7081 0.1683
vn -0.7613 -0.6433 -0.0814
vn -0.7667 -0.3854 0.5135
vn 0.2081 -0.2816 -0.9367
vn 0.7694 0.6076 -0.1971
vn -0.5824 -0.7915 -0.1852
vn -0.5130 -0.6497 -0.5610
vn -0.7624 -0.5569 0.3295
vn -0.4464 0.1792 0.8767
vn -0.5193 0.1142 0.8469
vn -0.1874 -0.5216 -0.8323
vn 0.6634 0.2545 -0.7037
vn -0.8317 -0.5211 0.1916
vn 0.0742 0.6664 0.7419
vn -0.5169 -0.0356 0.8553
vn -0.6440 -0.1378 0.7525
vn -0.2881 -0.7669 -0.5735
vn -0.2767 -0.7467 -0.6049
vn 0.5808 0.0605 -0.8118
vn 0.7756 0.4492 -0.4435
vn -0.6630 -0.6381 -0.3915
vn 0.6225 0.6837 0.3808
vn 0.7652 0.6437 0.0066
vn -0.2015 0.2524 0.9464
vn -0.6741 -0.1715 0.7185
vn -0.6341 -0.7484 -0.1944
vn -0.6741 -0.1633 0.7203
vn 0.4762 0.6364 0.6069
vn -0.7780 -0.5396 0.3218
vn -0.7927 -0.5966 -0.1254
vn 0.2825 0.7691 0.5732
vn -0.1391 0.5243 0.8401
vn 0.1925 -0.2660 -0.9445
vn -0.8315 -0.4273 0.3551
vn -0.2749 -0.5089 -0.8158
vn 0.1485 0.5011 0.8525
vn 0.2374 0.7449 0.6236
vn -0.2007 0.2454 0.9484
vn -0.3408 0.2653 0.9019
vn 0.6898 0.2422 -0.6823
vn -0.2870 -0.7427 -0.6050
vn 0.7583 0.6404 0.1221
vn -0.7081 -0.7061 0.0034
vn 0.4916 0.6462 0.5838
vn -0.6628 -0.2219 0.7152
vn -0.7020 -0.2406 0.6703
vn -0.3993 0.1771 0.8995
vn 0.1369 -0.2825 -0.9495
vn -0.5264 -0.5881 -0.6140
vn -0.3989 0.0887 0.9127
vn 0.5141 0.0164 -0.8576
vn 0.4837 0.0151 -0.8751
vn 0.6977 0.6598 0.2789
vn 0.2006 0.4961 0.8448
vn 0.7924 0.4413 -0.4212
vn -0.8292 -0.5202 0.2046
vn 0.6176 0.7865 0.0011
vn 0.7036 0.6813 -0.2020
vn 0.6912 0.6804 -0.2436
vn -0.2939 -0.7069 -0.6433
vn -0.6761 -0.2742 0.6838
vn -0.5313 -0.7732 -0.3462
vn -0.7510 -0.5720 0.3299
vn -0.6881 -0.6223 -0.3732
vn 0.4448 0.8130 0.3758
vn 0.5778 0.7995 0.1642
vn 0.5448 0.8167 0.1904
vn 0.2315 0.7596 0.6078
vn -0.1079 -0.4304 -0.8962
vn -0.2668 -0.5144 -0.8150
vn -0.8307 -0.5558 -0.0313
vn -0.7614 -0.6009 -0.2431
vn 0.6961 0.6051 -0.3864
vn 0.7130 0.5806 -0.3930
vn 0.7202 0.5545 -0.4169
vn 0.0532 -0.5286 -0.8472
vn -0.1110 -0.6605 -0.7426
vn -0.0131 -0.5981 -0.8013
vn -0.6486 -0.7473 -0.1447
vn -0.3483 0.0876 0.9333
vn 0.3215 -0.1123 -0.9402
vn 0.4020 -0.0526 -0.9141
vn 0.5421 0.8108 0.2208
vn 0.4501 0.8027 0.3912
vn -0.8109 -0.4948 0.3124
vn -0.0964 0.5041 0.8582
vn -0.7691 -0.4456 0.4581
vn 0.8151 0.5578 -0.1566
vn 0.1945 -0.2202 -0.9559
vn 0.5365 0.6593 0.5268
vn 0.7297 0.2944 -0.6171
vn 0.1259 0.6540 0.7459
vn -0.0965 0.4848 0.8693
vn -0.5688 -0.5593 -0.6030
vn -0.3665 -0.5500 -0.7505
vn 0.7551 0.6472 0.1050
vn -0.6695 -0.2559 0.6973
vn 0.0293 0.3964 0.9176
vn 0.1262 0.4331 0.8925
vn -0.7943 -0.5556 0.2457
vn -0.3722 -0.7262 -0.5780
vn -0.4399 -0.7909 -0.4254
vn -0.5391 -0.0253 0.8418
vn -0.4767 0.0727 0.8760
vn -0.5364 -0.0451 0.8427
vn 0.3220 -0.0943 -0.9420
vn 0.4376 0.8015 0.4076
vn 0.2317 -0.3819 -0.8947
vn 0.2218 -0.4176 -0.8811
vn 0.2493 -0.4140 -0.8755
vn -0.0969 -0.6172 -0.7808
vn -0.0080 -0.5570 -0.8305
vn 0.0286 0.4364 0.8993
vn -0.0358 0.3407 0.9395
vn 0.7012 0.7116 -0.0439
vn 0.5969 0.1602 -0.7861
vn 0.6656 0.2307 -0.7098
vn 0.8006 0.5015 -0.3280
vn 0.7812 0.3770 -0.4976
vn 0.8047 0.4846 -0.3429
vn 0.7297 0.6450 -0.2267
vn -0.5646 -0.2315 0.7922
vn 0.7537 0.4629 -0.4665
vn 0.7531 0.4646 -0.4658
vn -0.7713 -0.4158 0.4819
vn -0.7098 -0.3343 0.6200
vn 0.7849 0.3088 -0.5371
vn 0.7118 0.3845 -0.5878
vn 0.0852 -0.3931 -0.9156
vn 0.0443 -0.4128 -0.9098
vn -0.4747 -0.7954 -0.3769
vn 0.3473 0.8032 0.4839
vn -0.1080 -0.4500 -0.8865
vn -0.1379 -0.5453 -0.8268
vn -0.2199 0.3349 0.9162
vn -0.1470 0.4042 0.9028
vn -0.6575 -0.7294 -0.1891
vn -0.7085 -0.7057 -0.0089
vn 0.3487 0.7260 0.5927
vn -0.4914 -0.0892 0.8664
vn -0.4353 -0.0078 0.9003
vn 0.7876 0.6014 -0.1340
vn 0.6671 0.4242 -0.6124
vn -0.5449 -0.0464 0.8372
vn -0.8228 -0.5682 -0.0120
vn 0.1105 0.4232 0.8993
vn -0.4797 -0.1251 0.8685
vn 0.3867 0.5957 0.7040
vn 0.4809 0.6293 0.6106
vn 0.7313 0.6648 0.1526
vn 0.6638 0.6804 0.3105
vn 0.3518 0.7406 0.5725
vn -0.1483 0.2298 0.9619
vn -0.0915 0.2836 0.9546
vn 0.0962 0.5784 0.8101
vn 0.1789 0.6397 0.7475
vn 0.4033 -0.0850 -0.9111
vn -0.8289 -0.4497 0.3328
vn 0.1625 -0.2707 -0.9489
vn -0.4410 -0.8259 -0.3514
vn -0.7369 -0.5783 0.3500
vn -0.4892 -0.8137 -0.3141
vn -0.7718 -0.4781 0.4192
vn -0.7336 -0.4128 0.5398
vn -0.7756 -0.2954 0.5579
vn -0.7206 -0.2118 0.6602
vn -0.1750 -0.7044 -0.6879
vn -0.2557 -0.7552 -0.6036
vn -0.6799 -0.1632 0.7149
vn 0.6137 0.3548 -0.7054
vn 0.4738 -0.1280 -0.8713
vn -0.7190 -0.6404 0.2703
vn -0.1101 -0.6756 -0.7290
vn -0.4875 0.1713 0.8562
vn 0.4901 0.0087 -0.8716
vn -0.7589 -0.2180 -0.6136
vn 0.9451 0.1468 0.2918
vn 0.7412 0.4607 0.4883
vt 0.417886 0.000000
vt 0.473180 0.000000
vt 0.469336 0.009455
vt 0.465441 0.017019
vt 0.459956 0.019628
vt 0.449617 0.025142
vt 0.445690 0.024307
vt 0.431021 0.019619
vt 0.420706 0.010677
vt 0.417952 0.006436
vt 0.396837 0.269203
vt 0.400200 0.271004
vt 0.413666 0.278934
vt 0.423984 0.288446
vt 0.428240 0.291270
vt 0.437391 0.304771
vt 0.441410 0.309029
vt 0.447371 0.323243
vt 0.449448 0.326436
vt 0.452340 0.335820
vt 0.453765 0.344712
vt 0.452474 0.349532
vt 0.449611 0.369864
vt 0.445265 0.375098
vt 0.438023 0.382861
vt 0.425205 0.385284
vt 0.420826 0.386210
vt 0.402532 0.379383
vt 0.397269 0.377339
vt 0.396909 0.376949
vt 0.396672 0.376657
vt 0.375467 0.359566
vt 0.375000 0.358736
vt 0.375000 0.262787
vt 0.375295 0.262598
vt 0.376161 0.262888
vt 0.394979 0.267853
vt 0.418647 0.439320
vt 0.417552 0.460550
vt 0.416719 0.467235
vt 0.407055 0.475367
vt 0.399860 0.481609
vt 0.381288 0.481288
vt 0.378478 0.481426
vt 0.375000 0.479495
vt 0.375000 0.370925
vt 0.381829 0.377537
vt 0.385602 0.380485
vt 0.392689 0.387802
vt 0.398966 0.395892
vt 0.400766 0.399394
vt 0.409395 0.413828
vt 0.414487 0.428404
vt 0.416669 0.434619
vt 0.461472 0.698509
vt 0.461307 0.695611
vt 0.459994 0.684474
vt 0.458934 0.673771
vt 0.458559 0.670978
vt 0.462356 0.652435
vt 0.463053 0.649005
vt 0.471424 0.637955
vt 0.472825 0.636108
vt 0.491043 0.631780
vt 0.493016 0.631411
vt 0.512873 0.640364
vt 0.516786 0.642186
vt 0.527673 0.655332
vt 0.535881 0.664771
vt 0.538975 0.672703
vt 0.546780 0.688656
vt 0.547748 0.690802
vt 0.548209 0.691736
vt 0.552251 0.708273
vt 0.555194 0.720888
vt 0.554451 0.730541
vt 0.551647 0.750000
vt 0.486163 0.750000
vt 0.475882 0.734410
vt 0.473739 0.727725
vt 0.467277 0.714912
vt 0.385732 0.518251
vt 0.386665 0.518218
vt 0.410891 0.515233
vt 0.413841 0.516589
vt 0.417570 0.518551
vt 0.432970 0.525144
vt 0.447976 0.537369
vt 0.449126 0.538320
vt 0.449782 0.538779
vt 0.460801 0.554850
vt 0.461255 0.555452
vt 0.465983 0.568503
vt 0.471222 0.582701
vt 0.471184 0.585799
vt 0.470862 0.591723
vt 0.470218 0.605305
vt 0.469723 0.612722
vt 0.456138 0.627318
vt 0.453543 0.631318
vt 0.449918 0.632169
vt 0.444614 0.631076
vt 0.427887 0.631410
vt 0.414604 0.622306
vt 0.407418 0.619315
vt 0.401195 0.615207
vt 0.391179 0.601668
vt 0.382479 0.591151
vt 0.378955 0.580993
vt 0.375000 0.572630
vt 0.375000 0.533730
vt 0.383777 0.521057
vt 0.385068 0.518754
vt 0.486467 0.751821
vt 0.551246 0.750727
vt 0.536428 0.761376
vt 0.528416 0.765614
vt 0.513654 0.767080
vt 0.503238 0.765974
vt 0.488723 0.754380
vt 0.473247 0.973320
vt 0.474481 0.980519
vt 0.473505 0.998049
vt 0.473180 1.000000
vt 0.417886 1.000000
vt 0.416050 0.982887
vt 0.417169 0.979756
vt 0.417492 0.976535
vt 0.420566 0.963008
vt 0.420242 0.951400
vt 0.422508 0.948844
vt 0.424942 0.941461
vt 0.428664 0.931174
vt 0.443556 0.925824
vt 0.447160 0.923450
vt 0.452126 0.925931
vt 0.458628 0.933584
vt 0.466002 0.941335
vt 0.468792 0.948340
vt 0.471166 0.961726
vt 0.206052 0.534776
vt 0.204017 0.533616
vt 0.195445 0.530734
vt 0.182086 0.525634
vt 0.179622 0.525599
vt 0.159292 0.514165
vt 0.157483 0.513538
vt 0.139159 0.500893
vt 0.138436 0.500390
vt 0.137787 0.500000
vt 0.233736 0.500000
vt 0.234055 0.517929
vt 0.226977 0.530869
vt 0.215893 0.533231
vt 0.293487 0.595262
vt 0.294825 0.604502
vt 0.295891 0.609344
vt 0.291366 0.624858
vt 0.291244 0.625248
vt 0.285003 0.637626
vt 0.281455 0.644851
vt 0.274855 0.649159
vt 0.263613 0.653156
vt 0.261116 0.654366
vt 0.258736 0.655431
vt 0.255842 0.653582
vt 0.242343 0.646660
vt 0.239738 0.632688
vt 0.238623 0.629035
vt 0.236045 0.619386
vt 0.238132 0.607888
vt 0.240598 0.598087
vt 0.242205 0.589008
vt 0.243325 0.584695
vt 0.255393 0.572927
vt 0.258583 0.570052
vt 0.265929 0.570228
vt 0.277594 0.570820
vt 0.286938 0.580194
vt 0.291800 0.585111
vt 0.280092 0.543899
vt 0.269383 0.536374
vt 0.262649 0.527114
vt 0.251745 0.514932
vt 0.248904 0.505594
vt 0.245925 0.500000
vt 0.354495 0.500000
vt 0.356069 0.501810
vt 0.359964 0.507042
vt 0.367625 0.516892
vt 0.372324 0.529521
vt 0.366618 0.577677
vt 0.360310 0.580313
vt 0.349283 0.578678
vt 0.338811 0.576714
vt 0.334088 0.576353
vt 0.318494 0.567793
vt 0.309584 0.565267
vt 0.295410 0.555453
vt 0.290721 0.553298
vt 0.000000 0.000000
s 0
f 297/1/1 299/2/1 300/3/1 305/4/1 303/5/1 301/6/1 302/7/1 304/8/1 306/9/1 298/10/1
f 308/11/2 309/12/2 310/13/2 311/14/2 312/15/2 314/16/2 313/17/2 320/18/2 319/19/2 318/20/2 329/21/2 327/22/2 326/23/2 328/24/2 337/25/2 331/26/2 330/27/2 332/28/2 350/29/2 349/30/2 325/31/2 322/32/2 323/33/2 316/34/2 315/35/2 317/36/2 307/37/2
f 342/38/2 340/39/2 339/40/2 341/41/2 347/42/2 344/43/2 346/44/2 345/45/2 321/46/2 324/47/2 348/48/2 334/49/2 333/50/2 335/51/2 336/52/2 338/53/2 343/54/2
f 368/55/3 369/56/3 384/57/3 383/58/3 381/59/3 382/60/3 409/61/3 386/62/3 387/63/3 388/64/3 397/65/3 377/66/3 378/67/3 379/68/3 380/69/3 385/70/3 376/71/3 375/72/3 374/73/3 372/74/3 373/75/3 367/76/3 366/77/3 364/78/3 365/79/3 371/80/3 370/81/3
f 403/82/3 402/83/3 357/84/3 358/85/3 361/86/3 359/87/3 360/88/3 362/89/3 363/90/3 351/91/3 352/92/3 353/93/3 356/94/3 355/95/3 354/96/3 408/97/3 396/98/3 393/99/3 395/100/3 394/101/3 392/102/3 391/103/3 390/104/3 389/105/3 407/106/3 401/107/3 399/108/3 398/109/3 400/110/3 405/111/3 404/112/3 406/113/3
f 415/114/4 364/78/4 366/77/4 416/115/4 413/116/4 414/117/4 410/118/4 411/119/4 412/120/4
f 418/121/4 423/122/4 417/123/4 299/124/4 297/125/4 422/126/4 421/127/4 419/128/4 420/129/4 425/130/4 424/131/4 426/132/4 430/133/4 431/134/4 429/135/4 432/136/4 433/137/4 427/138/4 428/139/4 434/140/4
f 442/141/5 440/142/5 441/143/5 444/144/5 435/145/5 436/146/5 437/147/5 438/148/5 439/149/5 316/150/5 323/151/5 454/152/5 457/153/5 443/154/5
f 467/155/5 465/156/5 464/157/5 466/158/5 482/159/5 459/160/5 458/161/5 460/162/5 486/163/5 485/164/5 487/165/5 488/166/5 489/167/5 490/168/5 484/169/5 483/170/5 455/171/5 456/172/5 453/173/5 452/174/5 446/175/5 445/176/5 447/177/5 462/178/5 469/179/5 468/180/5
f 461/181/5 448/182/5 451/183/5 450/184/5 449/185/5 321/186/5 345/187/5 476/188/5 475/189/5 480/190/5 479/191/5 405/111/5 400/110/5 477/192/5 478/193/5 481/194/5 474/195/5 473/196/5 472/197/5 470/198/5 471/199/5 463/200/5
s 1
f 305/201/6 2/201/7 303/201/8
f 303/201/8 2/201/7 1/201/9 301/201/10
f 301/201/10 1/201/9 302/201/11
f 305/201/6 300/201/12 2/201/7
f 417/201/13 9/201/14 2/201/7 300/201/12 299/201/15
f 1/201/9 272/201/16 304/201/17 302/201/11
f 6/201/18 308/201/19 307/201/20
f 304/201/17 272/201/16 306/201/21
f 272/201/16 1/201/9 4/201/22
f 298/201/23 5/201/24 422/201/25 297/201/26
f 272/201/16 5/201/24 298/201/23 306/201/21
f 423/201/27 9/201/14 417/201/13
f 3/201/28 317/201/29 315/201/30
f 1/201/9 2/201/7 8/201/31
f 4/201/22 1/201/9 8/201/31
f 6/201/18 309/201/32 308/201/19
f 5/201/24 419/201/33 421/201/34
f 3/201/28 6/201/18 307/201/20 317/201/29
f 418/201/35 9/201/14 423/201/27
f 8/201/31 2/201/7 9/201/14
f 3/201/28 271/201/36 6/201/18
f 3/201/28 439/201/37 438/201/38
f 272/201/16 4/201/22 7/201/39
f 10/201/40 5/201/24 272/201/16
f 5/201/24 10/201/40 420/201/41 419/201/33
f 271/201/36 293/201/42 6/201/18
f 7/201/39 4/201/22 12/201/43
f 10/201/40 7/201/39 11/201/44
f 4/201/22 8/201/31 14/201/45
f 4/201/22 14/201/45 12/201/43
f 434/201/46 19/201/47 9/201/14 418/201/35
f 14/201/45 8/201/31 19/201/47
f 435/201/48 28/201/49 271/201/36 436/201/50
f 15/201/51 10/201/40 11/201/44
f 12/201/43 14/201/45 21/201/52
f 10/201/40 15/201/51 18/201/53
f 10/201/40 18/201/53 425/201/54 420/201/41
f 12/201/43 21/201/52 17/201/55
f 7/201/39 12/201/43 273/201/56
f 273/201/56 12/201/43 17/201/55
f 15/201/51 11/201/44 23/201/57
f 23/201/57 11/201/44 16/201/58
f 424/201/59 425/201/54 18/201/53
f 314/201/60 13/201/61 20/201/62 313/201/63
f 427/201/64 27/201/65 428/201/66
f 13/201/61 26/201/67 20/201/62
f 24/201/68 26/201/67 291/201/69
f 19/201/47 29/201/70 14/201/45
f 21/201/52 14/201/45 33/201/71
f 14/201/45 29/201/70 33/201/71
f 19/201/47 434/201/46 428/201/66 27/201/65
f 25/201/72 22/201/73 28/201/49
f 426/201/74 424/201/59 18/201/53
f 25/201/72 24/201/68 22/201/73
f 29/201/70 19/201/47 27/201/65
f 21/201/52 39/201/75 17/201/55
f 31/201/76 18/201/53 15/201/51
f 31/201/76 15/201/51 23/201/57
f 30/201/77 16/201/58 32/201/78
f 38/201/79 18/201/53 31/201/76
f 18/201/53 38/201/79 430/201/80 426/201/74
f 21/201/52 33/201/71 39/201/75
f 35/201/81 32/201/78 17/201/55
f 17/201/55 39/201/75 35/201/81
f 23/201/57 16/201/58 36/201/82
f 36/201/82 16/201/58 30/201/77
f 286/201/83 37/201/84 20/201/62
f 433/201/85 27/201/65 427/201/64
f 43/201/86 31/201/76 36/201/82
f 41/201/87 29/201/70 27/201/65
f 24/201/68 34/201/88 26/201/67
f 34/201/88 286/201/83 26/201/67
f 31/201/76 23/201/57 36/201/82
f 33/201/71 29/201/70 42/201/89
f 41/201/87 42/201/89 29/201/70
f 432/201/90 41/201/87 27/201/65 433/201/85
f 45/201/91 24/201/68 25/201/72
f 33/201/71 42/201/89 47/201/92
f 39/201/75 33/201/71 47/201/92
f 38/201/79 431/201/93 430/201/80
f 45/201/91 34/201/88 24/201/68
f 56/201/94 45/201/91 25/201/72
f 442/201/95 56/201/94 25/201/72 440/201/96
f 37/201/84 55/201/97 318/201/98 319/201/99
f 54/201/100 35/201/81 39/201/75
f 44/201/101 30/201/77 40/201/102
f 53/201/103 38/201/79 31/201/76
f 53/201/103 31/201/76 43/201/86
f 40/201/102 35/201/81 54/201/100
f 36/201/82 30/201/77 46/201/104
f 46/201/104 30/201/77 44/201/101
f 38/201/79 51/201/105 429/201/106 431/201/93
f 54/201/100 39/201/75 47/201/92
f 51/201/105 41/201/87 432/201/90 429/201/106
f 43/201/86 36/201/82 46/201/104
f 286/201/83 58/201/107 50/201/108
f 40/201/102 54/201/100 60/201/109
f 41/201/87 52/201/110 42/201/89
f 47/201/92 42/201/89 52/201/110
f 49/201/111 58/201/107 286/201/83
f 56/201/94 70/201/112 45/201/91
f 44/201/101 40/201/102 48/201/113
f 53/201/103 51/201/105 38/201/79
f 48/201/113 40/201/102 60/201/109
f 55/201/97 327/201/114 329/201/115
f 47/201/92 52/201/110 62/201/116
f 49/201/111 59/201/117 58/201/107
f 61/201/118 43/201/86 46/201/104
f 50/201/108 86/201/119 55/201/97
f 65/201/120 443/201/121 457/201/122
f 47/201/92 62/201/116 54/201/100
f 52/201/110 41/201/87 274/201/123
f 72/201/124 53/201/103 43/201/86
f 72/201/124 43/201/86 61/201/118
f 46/201/104 44/201/101 63/201/125
f 63/201/125 44/201/101 282/201/126
f 83/201/127 76/201/128 279/201/129
f 70/201/112 279/201/129 45/201/91
f 48/201/113 60/201/109 66/201/130
f 54/201/100 78/201/131 60/201/109
f 59/201/117 64/201/132 58/201/107
f 61/201/118 46/201/104 63/201/125
f 73/201/133 70/201/112 56/201/94
f 56/201/94 79/201/134 73/201/133
f 52/201/110 69/201/135 62/201/116
f 58/201/107 96/201/136 50/201/108
f 57/201/137 48/201/113 66/201/130
f 51/201/105 275/201/138 274/201/123
f 64/201/132 75/201/139 58/201/107
f 75/201/139 96/201/136 58/201/107
f 327/201/114 55/201/97 97/201/140 326/201/141
f 86/201/119 97/201/140 55/201/97
f 57/201/137 66/201/130 81/201/142
f 82/201/143 64/201/132 59/201/117
f 63/201/125 280/201/144 71/201/145
f 54/201/100 74/201/146 78/201/131
f 82/201/143 59/201/117 76/201/128
f 54/201/100 62/201/116 74/201/146
f 280/201/144 67/201/147 68/201/148
f 53/201/103 72/201/124 275/201/138
f 449/201/149 324/201/150 321/201/151
f 82/201/143 93/201/152 64/201/132
f 93/201/152 75/201/139 64/201/132
f 76/201/128 83/201/127 292/201/153
f 70/201/112 83/201/127 279/201/129
f 66/201/130 101/201/154 81/201/142
f 72/201/124 80/201/155 275/201/138
f 67/201/147 57/201/137 81/201/142
f 66/201/130 60/201/109 92/201/156
f 60/201/109 78/201/131 92/201/156
f 68/201/148 67/201/147 84/201/157
f 85/201/158 70/201/112 73/201/133
f 85/201/158 83/201/127 70/201/112
f 62/201/116 69/201/135 87/201/159
f 87/201/159 74/201/146 62/201/116
f 68/201/148 84/201/157 455/201/160 483/201/161
f 67/201/147 81/201/142 90/201/162
f 108/201/163 73/201/133 79/201/134
f 108/201/163 85/201/158 73/201/133
f 93/201/152 110/201/164 75/201/139
f 66/201/130 92/201/156 101/201/154
f 71/201/145 68/201/148 490/201/165 489/201/166
f 63/201/125 89/201/167 61/201/118
f 67/201/147 90/201/162 84/201/157
f 69/201/135 80/201/155 87/201/159
f 77/201/168 322/201/169 325/201/170
f 328/201/171 326/201/141 97/201/140
f 63/201/125 71/201/145 95/201/172
f 104/201/173 83/201/127 85/201/158
f 104/201/173 94/201/174 83/201/127
f 77/201/168 79/201/134 65/201/120
f 453/201/175 456/201/176 88/201/177
f 456/201/176 455/201/160 84/201/157 88/201/177
f 75/201/139 118/201/178 96/201/136
f 91/201/179 93/201/152 82/201/143
f 98/201/180 72/201/124 61/201/118
f 98/201/180 61/201/118 89/201/167
f 452/201/181 453/201/175 88/201/177
f 86/201/119 120/201/182 97/201/140
f 283/201/183 91/201/179 82/201/143
f 86/201/119 96/201/136 120/201/182
f 89/201/167 63/201/125 95/201/172
f 78/201/131 74/201/146 102/201/184
f 102/201/184 74/201/146 87/201/159
f 88/201/177 105/201/185 446/201/186 452/201/181
f 84/201/157 100/201/187 88/201/177
f 84/201/157 90/201/162 100/201/187
f 110/201/164 118/201/178 75/201/139
f 103/201/188 87/201/159 80/201/155
f 331/201/189 114/201/190 330/201/191
f 114/201/190 332/201/192 330/201/191
f 103/201/188 80/201/155 72/201/124
f 120/201/182 133/201/193 97/201/140
f 489/201/166 488/201/194 71/201/145
f 487/201/195 95/201/172 71/201/145 488/201/194
f 91/201/179 99/201/196 93/201/152
f 109/201/197 79/201/134 294/201/198
f 99/201/196 110/201/164 93/201/152
f 116/201/199 348/201/200 324/201/150 449/201/149 450/201/201
f 103/201/188 72/201/124 98/201/180
f 117/201/202 113/201/203 283/201/183
f 78/201/131 107/201/204 92/201/156
f 107/201/204 78/201/131 102/201/184
f 88/201/177 100/201/187 105/201/185
f 109/201/197 108/201/163 79/201/134
f 119/201/205 102/201/184 103/201/188
f 96/201/136 118/201/178 131/201/206
f 97/201/140 133/201/193 337/201/207 328/201/171
f 108/201/163 104/201/173 85/201/158
f 445/201/208 446/201/186 105/201/185
f 92/201/156 125/201/209 101/201/154
f 92/201/156 107/201/204 125/201/209
f 99/201/196 130/201/210 110/201/164
f 112/201/211 89/201/167 95/201/172
f 112/201/211 98/201/180 89/201/167
f 91/201/179 128/201/212 99/201/196
f 90/201/162 121/201/213 100/201/187
f 90/201/162 111/201/214 121/201/213
f 108/201/163 109/201/197 144/201/215
f 102/201/184 119/201/205 107/201/204
f 106/201/216 94/201/174 104/201/173
f 132/201/217 104/201/173 108/201/163
f 114/201/190 115/201/218 350/201/219 332/201/192
f 98/201/180 123/201/220 103/201/188
f 119/201/205 103/201/188 123/201/220
f 331/201/189 337/201/207 133/201/193 114/201/190
f 133/201/193 122/201/221 114/201/190
f 124/201/222 95/201/172 487/201/195 485/201/223
f 124/201/222 112/201/211 95/201/172
f 110/201/164 139/201/224 118/201/178
f 100/201/187 121/201/213 138/201/225
f 110/201/164 130/201/210 126/201/226
f 101/201/154 125/201/209 111/201/214
f 100/201/187 138/201/225 105/201/185
f 126/201/226 139/201/224 110/201/164
f 134/201/227 128/201/212 113/201/203
f 114/201/190 122/201/221 115/201/218
f 486/201/228 135/201/229 124/201/222 485/201/223
f 123/201/220 98/201/180 112/201/211
f 140/201/230 109/201/197 115/201/218
f 111/201/214 125/201/209 145/201/231
f 99/201/196 128/201/212 141/201/232
f 141/201/232 130/201/210 99/201/196
f 147/201/233 106/201/216 104/201/173
f 144/201/215 132/201/217 108/201/163
f 132/201/217 147/201/233 104/201/173
f 131/201/206 118/201/178 157/201/234
f 116/201/199 143/201/235 151/201/236
f 154/201/237 127/201/238 151/201/236
f 129/201/239 107/201/204 119/201/205
f 125/201/209 107/201/204 129/201/239
f 140/201/230 144/201/215 109/201/197
f 141/201/232 159/201/240 130/201/210
f 447/201/241 445/201/208 105/201/185
f 105/201/185 138/201/225 462/201/242 447/201/241
f 131/201/206 142/201/243 120/201/182
f 118/201/178 139/201/224 157/201/234
f 460/201/244 135/201/229 486/201/228
f 146/201/245 123/201/220 112/201/211
f 146/201/245 112/201/211 124/201/222
f 121/201/213 111/201/214 145/201/231
f 119/201/205 123/201/220 129/201/239
f 122/201/221 140/201/230 115/201/218
f 120/201/182 142/201/243 133/201/193
f 138/201/225 121/201/213 276/201/246
f 137/201/247 134/201/227 113/201/203
f 136/201/248 137/201/247 117/201/202
f 129/201/239 123/201/220 146/201/245
f 137/201/247 149/201/249 134/201/227
f 158/201/250 117/201/202 289/201/251
f 158/201/250 136/201/248 117/201/202
f 130/201/210 159/201/240 126/201/226
f 142/201/243 164/201/252 133/201/193
f 458/201/253 135/201/229 460/201/244
f 131/201/206 157/201/234 142/201/243
f 133/201/193 164/201/252 122/201/221
f 149/201/249 153/201/254 134/201/227
f 153/201/254 150/201/255 287/201/256
f 125/201/209 152/201/257 145/201/231
f 151/201/236 143/201/235 163/201/258
f 121/201/213 145/201/231 276/201/246
f 124/201/222 135/201/229 146/201/245
f 141/201/232 287/201/256 284/201/259
f 139/201/224 175/201/260 157/201/234
f 140/201/230 162/201/261 144/201/215
f 463/201/262 165/201/263 143/201/235 461/201/264
f 148/201/265 146/201/245 135/201/229
f 459/201/266 148/201/265 135/201/229 458/201/253
f 122/201/221 160/201/267 140/201/230
f 160/201/267 122/201/221 164/201/252
f 163/201/258 143/201/235 167/201/268
f 167/201/268 143/201/235 165/201/263
f 159/201/240 174/201/269 126/201/226
f 168/201/270 139/201/224 126/201/226
f 174/201/269 168/201/270 126/201/226
f 162/201/261 132/201/217 144/201/215
f 127/201/238 335/201/271 333/201/272
f 148/201/265 152/201/257 146/201/245
f 171/201/273 147/201/233 132/201/217
f 471/201/274 165/201/263 463/201/262
f 148/201/265 459/201/266 482/201/275
f 106/201/216 147/201/233 158/201/250
f 137/201/247 156/201/276 149/201/249
f 156/201/276 155/201/277 149/201/249
f 162/201/261 140/201/230 160/201/267
f 161/201/278 152/201/257 148/201/265
f 155/201/277 153/201/254 149/201/249
f 139/201/224 168/201/270 175/201/260
f 138/201/225 469/201/279 462/201/242
f 169/201/280 154/201/237 151/201/236
f 141/201/232 284/201/259 159/201/240
f 169/201/280 151/201/236 163/201/258
f 136/201/248 177/201/281 137/201/247
f 177/201/281 156/201/276 137/201/247
f 466/201/282 161/201/278 148/201/265 482/201/275
f 153/201/254 170/201/283 150/201/255
f 155/201/277 170/201/283 153/201/254
f 182/201/284 136/201/248 158/201/250
f 182/201/284 177/201/281 136/201/248
f 154/201/237 169/201/280 343/201/285 338/201/286
f 162/201/261 171/201/273 132/201/217
f 186/201/287 158/201/250 147/201/233
f 465/201/288 276/201/246 161/201/278 464/201/289
f 163/201/258 167/201/268 172/201/290
f 157/201/234 181/201/291 142/201/243
f 142/201/243 181/201/291 164/201/252
f 336/201/292 154/201/237 338/201/286
f 171/201/273 186/201/287 147/201/233
f 157/201/234 175/201/260 181/201/291
f 179/201/293 182/201/284 158/201/250
f 159/201/240 176/201/294 174/201/269
f 173/201/295 160/201/267 164/201/252
f 464/201/289 161/201/278 466/201/282
f 284/201/259 296/201/296 159/201/240
f 173/201/295 162/201/261 160/201/267
f 169/201/280 163/201/258 172/201/290
f 170/201/283 288/201/297 150/201/255
f 165/201/263 189/201/298 167/201/268
f 164/201/252 181/201/291 173/201/295
f 184/201/299 155/201/277 156/201/276
f 470/201/300 189/201/298 165/201/263 471/201/274
f 186/201/287 179/201/293 158/201/250
f 172/201/290 167/201/268 180/201/301
f 166/201/302 296/201/296 284/201/259
f 178/201/303 170/201/283 155/201/277
f 173/201/295 171/201/273 162/201/261
f 167/201/268 189/201/298 180/201/301
f 176/201/294 295/201/304 174/201/269
f 193/201/305 175/201/260 168/201/270
f 178/201/303 155/201/277 184/201/299
f 472/201/306 189/201/298 470/201/300
f 178/201/303 290/201/307 170/201/283
f 343/201/285 169/201/280 200/201/308 342/201/309
f 191/201/310 172/201/290 180/201/301
f 296/201/296 212/201/311 176/201/294
f 179/201/293 186/201/287 207/201/312
f 186/201/287 171/201/273 188/201/313
f 197/201/314 288/201/297 194/201/315
f 156/201/276 177/201/281 195/201/316
f 190/201/317 182/201/284 179/201/293
f 188/201/313 171/201/273 173/201/295
f 187/201/318 181/201/291 175/201/260
f 193/201/305 187/201/318 175/201/260
f 290/201/307 183/201/319 185/201/320
f 202/201/321 177/201/281 182/201/284
f 202/201/321 195/201/316 177/201/281
f 181/201/291 192/201/322 173/201/295
f 173/201/295 192/201/322 188/201/313
f 195/201/316 184/201/299 156/201/276
f 180/201/301 189/201/298 210/201/323
f 205/201/324 178/201/303 184/201/299
f 179/201/293 207/201/312 190/201/317
f 180/201/301 210/201/323 196/201/325
f 191/201/310 180/201/301 196/201/325
f 181/201/291 187/201/318 192/201/322
f 198/201/326 281/201/327 191/201/310
f 205/201/324 183/201/319 178/201/303
f 296/201/296 197/201/314 212/201/311
f 184/201/299 195/201/316 199/201/328
f 202/201/321 182/201/284 190/201/317
f 188/201/313 201/201/329 186/201/287
f 183/201/319 204/201/330 185/201/320
f 200/201/308 340/201/331 342/201/309
f 199/201/328 205/201/324 184/201/299
f 185/201/320 213/201/332 194/201/315
f 201/201/329 207/201/312 186/201/287
f 191/201/310 196/201/325 209/201/333
f 210/201/323 189/201/298 220/201/334
f 473/201/335 220/201/334 189/201/298 472/201/306
f 207/201/312 214/201/336 190/201/317
f 190/201/317 214/201/336 202/201/321
f 198/201/326 191/201/310 209/201/333
f 218/201/337 188/201/313 192/201/322
f 203/201/338 204/201/330 183/201/319
f 216/201/339 206/201/340 193/201/305
f 194/201/315 224/201/341 197/201/314
f 213/201/332 224/201/341 194/201/315
f 185/201/320 223/201/342 213/201/332
f 204/201/330 223/201/342 185/201/320
f 221/201/343 196/201/325 210/201/323
f 218/201/337 201/201/329 188/201/313
f 209/201/333 196/201/325 215/201/344
f 295/201/304 216/201/339 193/201/305
f 192/201/322 187/201/318 206/201/340
f 206/201/340 218/201/337 192/201/322
f 205/201/324 203/201/338 183/201/319
f 187/201/318 193/201/305 206/201/340
f 295/201/304 211/201/345 216/201/339
f 196/201/325 221/201/343 222/201/346
f 203/201/338 208/201/347 204/201/330
f 235/201/348 200/201/308 226/201/349
f 215/201/344 196/201/325 222/201/346
f 202/201/321 227/201/350 195/201/316
f 199/201/328 195/201/316 227/201/350
f 208/201/347 219/201/351 204/201/330
f 217/201/352 203/201/338 205/201/324
f 219/201/351 223/201/342 204/201/330
f 234/201/353 212/201/311 197/201/314
f 340/201/331 200/201/308 235/201/348 339/201/354
f 223/201/342 249/201/355 213/201/332
f 230/201/356 209/201/333 215/201/344
f 241/201/357 214/201/336 201/201/329
f 207/201/312 201/201/329 214/201/336
f 220/201/334 231/201/358 210/201/323
f 210/201/323 231/201/358 221/201/343
f 218/201/337 241/201/357 201/201/329
f 211/201/345 240/201/359 216/201/339
f 222/201/346 221/201/343 239/201/360
f 225/201/361 211/201/345 212/201/311
f 215/201/344 222/201/346 246/201/362
f 249/201/355 224/201/341 213/201/332
f 219/201/351 229/201/363 223/201/342
f 259/201/364 215/201/344 246/201/362
f 233/201/365 217/201/352 199/201/328
f 228/201/366 208/201/347 203/201/338
f 228/201/366 203/201/338 217/201/352
f 197/201/314 224/201/341 234/201/353
f 229/201/363 247/201/367 223/201/342
f 214/201/336 243/201/368 202/201/321
f 234/201/353 225/201/361 212/201/311
f 243/201/368 227/201/350 202/201/321
f 227/201/350 243/201/368 244/201/369
f 230/201/356 215/201/344 259/201/364
f 211/201/345 248/201/370 240/201/359
f 248/201/370 211/201/345 225/201/361
f 249/201/355 264/201/371 224/201/341
f 237/201/372 241/201/357 218/201/337
f 243/201/368 214/201/336 241/201/357
f 216/201/339 240/201/359 206/201/340
f 208/201/347 238/201/373 219/201/351
f 344/201/374 245/201/375 346/201/376
f 221/201/343 231/201/358 261/201/377
f 238/201/373 236/201/378 229/201/363
f 239/201/360 221/201/343 257/201/379
f 221/201/343 261/201/377 257/201/379
f 246/201/362 222/201/346 242/201/380
f 228/201/366 232/201/381 208/201/347
f 222/201/346 239/201/360 242/201/380
f 233/201/365 199/201/328 227/201/350
f 223/201/342 247/201/367 249/201/355
f 224/201/341 264/201/371 234/201/353
f 341/201/382 252/201/383 347/201/384
f 341/201/382 339/201/354 235/201/348 252/201/383
f 232/201/381 238/201/373 208/201/347
f 235/201/348 226/201/349 258/201/385
f 217/201/352 270/201/386 228/201/366
f 252/201/383 245/201/375 344/201/374 347/201/384
f 244/201/369 233/201/365 227/201/350
f 253/201/387 232/201/381 228/201/366
f 253/201/387 228/201/366 270/201/386
f 410/201/388 238/201/373 232/201/381 411/201/389
f 345/201/390 346/201/376 245/201/375 476/201/391
f 476/201/391 245/201/375 475/201/392
f 250/201/393 231/201/358 481/201/394 478/201/395
f 239/201/360 257/201/379 254/201/396
f 229/201/363 236/201/378 255/201/397
f 383/201/398 233/201/365 244/201/369 381/201/399
f 357/201/400 252/201/383 235/201/348 358/201/401
f 261/201/377 231/201/358 250/201/393
f 414/201/402 238/201/373 410/201/388
f 258/201/385 226/201/349 285/201/403
f 413/201/404 236/201/378 238/201/373 414/201/402
f 239/201/360 254/201/396 242/201/380
f 262/201/405 237/201/372 240/201/359
f 265/201/406 217/201/352 233/201/365
f 270/201/386 217/201/352 265/201/406
f 260/201/407 225/201/361 234/201/353
f 251/201/408 243/201/368 241/201/357
f 251/201/408 241/201/357 237/201/372
f 266/201/409 230/201/356 268/201/410
f 268/201/410 230/201/356 259/201/364
f 411/201/389 232/201/381 412/201/411
f 253/201/387 415/201/412 412/201/411 232/201/381
f 264/201/371 260/201/407 234/201/353
f 225/201/361 267/201/413 248/201/370
f 248/201/370 262/201/405 240/201/359
f 256/201/414 246/201/362 242/201/380
f 244/201/369 243/201/368 251/201/408
f 264/201/371 249/201/355 385/201/415 380/201/416
f 247/201/367 229/201/363 255/201/397
f 242/201/380 269/201/417 256/201/414
f 407/201/418 389/201/419 257/201/379 261/201/377
f 262/201/405 251/201/408 237/201/372
f 259/201/364 246/201/362 355/201/420 356/201/421
f 354/201/422 355/201/420 246/201/362 256/201/414
f 233/201/365 383/201/398 384/201/423 265/201/406
f 358/201/401 235/201/348 258/201/385 361/201/424
f 248/201/370 267/201/413 262/201/405
f 398/201/425 250/201/393 477/201/426 400/201/427
f 401/201/428 261/201/377 250/201/393 399/201/429
f 242/201/380 254/201/396 269/201/417
f 260/201/407 267/201/413 225/201/361
f 376/201/430 385/201/415 249/201/355 263/201/431
f 247/201/367 263/201/431 249/201/355
f 252/201/383 357/201/400 402/201/432
f 382/201/433 244/201/369 251/201/408 409/201/434
f 244/201/369 382/201/433 381/201/399
f 387/201/435 386/201/436 277/201/437
f 245/201/375 252/201/383 402/201/432 403/201/438
f 416/201/439 236/201/378 413/201/404
f 475/201/392 245/201/375 403/201/438 406/201/440 480/201/441
f 256/201/414 269/201/417 393/201/442 396/201/443
f 480/201/441 406/201/440 404/201/444 479/201/445
f 270/201/386 370/201/446 371/201/447 253/201/387
f 254/201/396 257/201/379 389/201/419 390/201/448
f 258/201/385 359/201/449 361/201/424
f 253/201/387 365/201/450 364/201/451 415/201/412
f 253/201/387 371/201/447 365/201/450
f 353/201/452 352/201/453 268/201/410 259/201/364
f 259/201/364 356/201/421 353/201/452
f 269/201/417 254/201/396 391/201/454 392/201/455
f 359/201/449 258/201/385 266/201/409 360/201/456
f 255/201/397 236/201/378 367/201/457 373/201/458
f 255/201/397 263/201/431 247/201/367
f 261/201/377 401/201/428 407/201/418
f 277/201/437 267/201/413 388/201/459 387/201/435
f 479/201/445 404/201/444 405/201/460
f 256/201/414 408/201/461 354/201/422
f 256/201/414 396/201/443 408/201/461
f 250/201/393 398/201/425 399/201/429
f 394/201/462 269/201/417 392/201/455
f 263/201/431 375/201/463 376/201/430
f 254/201/396 390/201/448 391/201/454
f 416/201/439 366/201/464 367/201/457 236/201/378
f 260/201/407 264/201/371 379/201/465 378/201/466
f 264/201/371 380/201/416 379/201/465
f 397/201/467 267/201/413 260/201/407 377/201/468
f 266/201/409 362/201/469 360/201/456
f 263/201/431 255/201/397 372/201/470 374/201/471
f 397/201/467 388/201/459 267/201/413
f 266/201/409 268/201/410 351/201/472 363/201/473
f 265/201/406 384/201/423 369/201/474
f 269/201/417 395/201/475 393/201/442
f 395/201/475 269/201/417 394/201/462
f 370/201/446 270/201/386 265/201/406 368/201/476
f 255/201/397 373/201/458 372/201/470
f 266/201/409 363/201/473 362/201/469
f 260/201/407 378/201/466 377/201/468
f 268/201/410 352/201/453 351/201/472
f 263/201/431 374/201/471 375/201/463
f 265/201/406 369/201/474 368/201/476
f 421/201/34 422/201/25 5/201/24
f 10/201/40 272/201/16 7/201/39
f 437/201/477 271/201/36 3/201/28 438/201/38
f 11/201/44 273/201/56 16/201/58
f 273/201/56 11/201/44 7/201/39
f 16/201/58 17/201/55 32/201/78
f 17/201/55 16/201/58 273/201/56
f 32/201/78 35/201/81 40/201/102
f 30/201/77 32/201/78 40/201/102
f 274/201/123 41/201/87 51/201/105
f 52/201/110 274/201/123 69/201/135
f 80/201/155 69/201/135 275/201/138
f 274/201/123 275/201/138 69/201/135
f 53/201/103 275/201/138 51/201/105
f 102/201/184 87/201/159 103/201/188
f 450/201/201 451/201/478 116/201/199
f 335/201/271 127/201/238 154/201/237 336/201/292
f 288/201/297 185/201/320 194/201/315
f 281/201/327 198/201/326 226/201/349
f 198/201/326 209/201/333 230/201/356
f 226/201/349 198/201/326 285/201/403
f 238/201/373 229/201/363 219/201/351
f 262/201/405 277/201/437 251/201/408
f 251/201/408 277/201/437 386/201/436 409/201/434
f 267/201/413 277/201/437 262/201/405
f 439/201/37 3/201/28 315/201/30 316/201/479
f 278/201/480 310/201/481 309/201/32 6/201/18
f 278/201/480 311/201/482 310/201/481
f 13/201/61 312/201/483 311/201/482 278/201/480
f 28/201/49 22/201/73 293/201/42
f 45/201/91 279/201/129 34/201/88
f 34/201/88 279/201/129 49/201/111
f 76/201/128 49/201/111 279/201/129
f 49/201/111 76/201/128 59/201/117
f 57/201/137 280/201/144 282/201/126
f 50/201/108 96/201/136 86/201/119
f 283/201/183 113/201/203 91/201/179
f 127/201/238 116/201/199 151/201/236
f 166/201/302 197/201/314 296/201/296
f 281/201/327 172/201/290 191/201/310
f 436/201/50 271/201/36 437/201/477
f 280/201/144 57/201/137 67/201/147
f 71/201/145 280/201/144 68/201/148
f 172/201/290 281/201/327 169/201/280
f 169/201/280 281/201/327 200/201/308
f 226/201/349 200/201/308 281/201/327
f 293/201/42 278/201/480 6/201/18
f 444/201/484 28/201/49 435/201/48
f 441/201/485 440/201/96 25/201/72 28/201/49
f 286/201/83 50/201/108 37/201/84
f 63/201/125 282/201/126 280/201/144
f 283/201/183 82/201/143 292/201/153
f 283/201/183 94/201/174 289/201/251
f 116/201/199 127/201/238 334/201/486 348/201/200
f 284/201/259 150/201/255 166/201/302
f 150/201/255 288/201/297 166/201/302
f 199/201/328 217/201/352 205/201/324
f 266/201/409 285/201/403 230/201/356
f 258/201/385 285/201/403 266/201/409
f 28/201/49 293/201/42 271/201/36
f 350/201/219 115/201/218 294/201/198 349/201/487
f 285/201/403 198/201/326 230/201/356
f 48/201/113 282/201/126 44/201/101
f 57/201/137 282/201/126 48/201/113
f 127/201/238 333/201/272 334/201/486
f 113/201/203 128/201/212 91/201/179
f 8/201/31 9/201/14 19/201/47
f 49/201/111 286/201/83 34/201/88
f 117/201/202 137/201/247 113/201/203
f 128/201/212 134/201/227 287/201/256
f 128/201/212 287/201/256 141/201/232
f 153/201/254 287/201/256 134/201/227
f 287/201/256 150/201/255 284/201/259
f 288/201/297 197/201/314 166/201/302
f 454/201/488 77/201/168 65/201/120 457/201/122
f 37/201/84 50/201/108 55/201/97
f 286/201/83 20/201/62 26/201/67
f 443/201/121 65/201/120 56/201/94 442/201/95
f 94/201/174 106/201/216 289/201/251
f 461/201/264 143/201/235 448/201/489
f 158/201/250 289/201/251 106/201/216
f 474/201/490 220/201/334 473/201/335
f 231/201/358 220/201/334 474/201/490 481/201/394
f 250/201/393 478/201/395 477/201/426
f 143/201/235 116/201/199 451/201/478 448/201/489
f 283/201/183 289/201/251 117/201/202
f 290/201/307 185/201/320 288/201/297
f 290/201/307 288/201/297 170/201/283
f 13/201/61 314/201/60 312/201/483
f 313/201/63 20/201/62 320/201/491
f 183/201/319 290/201/307 178/201/303
f 444/201/484 441/201/485 28/201/49
f 320/201/491 20/201/62 37/201/84 319/201/99
f 65/201/120 79/201/134 56/201/94
f 291/201/69 13/201/61 278/201/480
f 291/201/69 22/201/73 24/201/68
f 291/201/69 26/201/67 13/201/61
f 55/201/97 329/201/115 318/201/98
f 292/201/153 83/201/127 94/201/174
f 295/201/304 176/201/294 211/201/345
f 292/201/153 82/201/143 76/201/128
f 292/201/153 94/201/174 283/201/183
f 323/201/492 322/201/169 77/201/168 454/201/488
f 293/201/42 291/201/69 278/201/480
f 484/201/493 490/201/165 68/201/148
f 120/201/182 96/201/136 131/201/206
f 294/201/198 79/201/134 77/201/168
f 174/201/269 295/201/304 168/201/270
f 295/201/304 193/201/305 168/201/270
f 206/201/340 237/201/372 218/201/337
f 115/201/218 109/201/197 294/201/198
f 294/201/198 77/201/168 325/201/170 349/201/487
f 293/201/42 22/201/73 291/201/69
f 152/201/257 129/201/239 146/201/245
f 152/201/257 125/201/209 129/201/239
f 276/201/246 145/201/231 161/201/278
f 176/201/294 212/201/311 211/201/345
f 276/201/246 467/201/494 468/201/495
f 296/201/296 176/201/294 159/201/240
f 145/201/231 152/201/257 161/201/278
f 469/201/279 138/201/225 276/201/246 468/201/495
f 467/201/494 276/201/246 465/201/288
f 68/201/148 483/201/161 484/201/493
f 240/201/359 237/201/372 206/201/340
f 81/201/142 101/201/154 111/201/214
f 81/201/142 111/201/214 90/201/162
