# Blender 5.1.1
# www.blender.org
mtllib REV_11.mtl
o REV_cube_11
v -8.700000 -4.570000 -3.950000
v -9.619051 -4.281961 -3.944847
v -9.592896 -4.333860 -3.925737
v -9.562145 -4.273798 -3.869026
v -9.550175 -4.404828 -3.928674
v -9.527123 -4.197108 -3.829475
v -9.520344 -4.137163 -3.893200
v -9.452127 -4.411509 -3.887164
v -9.521352 -4.345808 -3.858266
v -9.482071 -4.122544 -3.807970
v -9.500315 -4.272647 -3.795112
v -9.473305 -4.188643 -3.747797
v -9.461462 -4.083684 -3.871950
v -9.446878 -4.344544 -3.800264
v -9.439190 -4.264901 -3.730676
v -9.414449 -4.182911 -3.681649
v -9.430124 -4.106350 -3.730613
v -9.421202 -4.056238 -3.805554
v -9.368469 -4.380046 -3.827996
v -9.342636 -4.409368 -3.919828
v -9.373101 -4.327438 -3.743319
v -9.356299 -4.015351 -3.809791
v -9.368315 -4.257086 -3.673922
v -9.364074 -4.030430 -3.722827
v -9.348629 -4.177242 -3.614763
v -9.386254 -4.044312 -3.897071
v -9.285301 -3.985564 -3.772735
v -9.308840 -4.088315 -3.575130
v -9.329598 -4.029460 -3.638948
v -9.286235 -4.182476 -3.570517
v -9.282068 -4.365018 -3.857929
v -9.262840 -4.345769 -3.948062
v -9.292574 -4.012437 -3.859189
v -9.299874 -4.313035 -3.700194
v -9.246601 -4.137650 -3.521900
v -9.280343 -3.971392 -3.694569
v -9.305576 -4.352669 -3.777397
v -9.268148 -3.986372 -3.598772
v -9.243275 -4.027565 -3.520620
v -9.223867 -4.328373 -3.770003
v -9.180403 -3.934909 -3.552551
v -9.208419 -3.992601 -3.820465
v -9.208646 -4.266430 -3.946868
v -9.220986 -4.291235 -3.662389
v -9.211273 -4.049502 -3.890797
v -9.192066 -3.956379 -3.747661
v -9.205308 -4.310405 -3.870435
v -9.190763 -4.181710 -3.941784
v -9.190722 -4.084043 -3.466372
v -9.171141 -3.983076 -3.471094
v -9.195120 -3.930668 -3.652850
v -9.209394 -4.111561 -3.936974
v -9.144749 -4.284133 -3.718327
v -9.147835 -4.045321 -3.848922
v -9.218156 -4.234003 -3.571167
v -9.171145 -4.179957 -3.496153
v -9.154916 -4.283121 -3.806235
v -9.134333 -4.234729 -3.550561
v -9.116752 -4.136343 -3.437226
v -9.140006 -4.124146 -3.883904
v -9.143823 -4.267518 -3.622947
v -9.084233 -3.878759 -3.536361
v -9.119747 -3.915546 -3.484215
v -9.104615 -3.997102 -3.789901
v -9.066462 -4.240356 -3.581449
v -9.082595 -4.092978 -3.818113
v -9.104899 -3.929396 -3.703661
v -9.083624 -4.230334 -3.768181
v -9.105435 -3.897549 -3.617733
v -9.093681 -3.949983 -3.415617
v -9.050695 -3.969014 -3.355079
v -9.084316 -4.169890 -3.822944
v -9.060851 -4.088693 -3.382817
v -9.023685 -3.974549 -3.727613
v -9.070587 -4.248827 -3.671000
v -9.066851 -4.199841 -3.493651
v -9.025331 -4.062923 -3.771885
v -9.013464 -3.870461 -3.589918
v -9.023318 -3.908032 -3.659883
v -9.002722 -4.189576 -3.697625
v -9.031791 -3.872490 -3.450696
v -9.030719 -4.151451 -3.766280
v -9.001868 -3.852377 -3.520102
v -9.027796 -4.156555 -3.420445
v -9.003569 -3.951351 -3.322861
v -8.977056 -4.119806 -3.361181
v -9.027936 -3.906307 -3.383631
v -9.005020 -4.217944 -3.630965
v -9.006607 -4.032507 -3.326742
v -8.978213 -4.188426 -3.470340
v -8.955050 -3.951155 -3.678645
v -8.944512 -3.834575 -3.467836
v -8.940812 -4.172626 -3.621071
v -8.953705 -3.855895 -3.369103
v -8.984302 -4.207138 -3.554291
v -8.925313 -4.111159 -3.670729
v -8.919957 -3.901236 -3.288350
v -8.959027 -4.044888 -3.711583
v -8.893139 -4.016312 -3.662697
v -8.923955 -4.071404 -3.304103
v -8.935226 -3.989550 -3.281348
v -8.893879 -3.940066 -3.640025
v -8.898262 -4.174802 -3.525148
v -8.923545 -3.850589 -3.552520
v -8.859057 -4.035244 -3.257164
v -8.863335 -3.953782 -3.237425
v -8.891418 -4.131502 -3.360151
v -8.858914 -4.119065 -3.597543
v -8.862303 -3.823041 -3.318777
v -8.846662 -4.154672 -3.439276
v -8.818759 -3.844489 -3.528088
v -8.849359 -3.870227 -3.252144
v -8.870824 -3.804116 -3.413050
v -8.859590 -3.896894 -3.596457
v -8.789665 -4.077061 -3.264877
v -8.813066 -3.978833 -3.610823
v -8.808646 -4.127384 -3.515862
v -8.776566 -3.988697 -3.201462
v -8.769834 -4.130676 -3.436420
v -8.784897 -3.905777 -3.567334
v -8.747010 -3.809695 -3.469505
v -8.789300 -3.882817 -3.201312
v -8.778584 -3.781590 -3.379969
v -8.711311 -4.100854 -3.300658
v -8.708848 -3.833687 -3.180456
v -8.794674 -4.126861 -3.352091
v -8.728320 -3.960803 -3.555913
v -8.768983 -3.800259 -3.262855
v -8.724525 -3.911971 -3.163085
v -8.728437 -4.091839 -3.485795
v -8.723724 -3.871978 -3.524206
v -8.707584 -4.112045 -3.388444
v -8.710451 -4.053339 -3.219522
v -9.572759 -4.200142 -3.913990
v -9.377580 -4.097190 -3.651350
v -9.127896 -4.041602 -3.414951
v -9.073591 -4.017915 -3.372546
v -8.775970 -4.055559 -3.566486
v -9.296507 -4.253573 -3.623450
v -9.142115 -4.229469 -3.866331
v -8.873695 -3.821520 -3.487283
v -8.850905 -4.062593 -3.629813
v -8.854847 -4.095305 -3.302323
v -8.815702 -3.804613 -3.458744
v -8.943854 -3.893837 -3.621358
v -8.931908 -4.166587 -3.425044
v -8.981153 -4.119436 -3.728036
v -8.700000 -4.109908 -3.383721
v -8.700000 -4.106650 -3.395161
v -8.700000 -4.099227 -3.305101
v -8.700000 -4.097065 -3.292495
v -8.700000 -4.052036 -3.215829
v -8.700000 -4.057952 -3.225812
v -8.700000 -4.026359 -3.196942
v -8.700000 -3.950503 -3.159870
v -8.700000 -3.981031 -3.165949
v -8.700000 -3.830469 -3.177171
v -8.700000 -3.842480 -3.172356
v -8.700000 -3.820443 -3.189291
v -8.700000 -3.887894 -3.518662
v -8.700000 -3.859226 -3.507185
v -8.700000 -3.822696 -3.472312
v -8.700000 -3.758630 -3.333126
v -8.700000 -3.763314 -3.308830
v -8.700000 -3.781178 -3.411101
v -8.700000 -3.787182 -3.427459
v -8.700000 -3.778398 -3.237811
v -8.700000 -3.904241 -3.151483
v -8.700000 -3.952319 -3.540136
v -8.700000 -4.570000 -3.909256
v -8.700000 -4.560569 -3.950000
v -8.700000 -4.046195 -3.504392
v -8.700000 -4.026380 -3.524068
v -8.700000 -3.998527 -3.529908
v -8.700000 -4.085149 -3.466231
v -8.709146 -4.570000 -3.950000
v -9.622148 -4.284857 -3.950000
v -9.618279 -4.274615 -3.950000
v -9.573478 -4.400230 -3.950000
v -9.604792 -4.351416 -3.950000
v -9.612924 -4.324235 -3.950000
v -9.592486 -4.210893 -3.950000
v -9.465767 -4.089587 -3.950000
v -9.467180 -4.090349 -3.950000
v -9.468162 -4.091233 -3.950000
v -9.485624 -4.448650 -3.950000
v -9.418899 -4.436604 -3.950000
v -9.510821 -4.438290 -3.950000
v -9.554067 -4.421765 -3.950000
v -9.560855 -4.174469 -3.950000
v -9.535340 -4.140988 -3.950000
v -9.296211 -4.068340 -3.950000
v -9.387252 -4.065431 -3.950000
v -9.279467 -4.075890 -3.950000
v -9.289080 -4.068648 -3.950000
v -9.292197 -4.067967 -3.950000
v -9.210963 -4.268061 -3.950000
v -9.210390 -4.264441 -3.950000
v -9.262929 -4.344792 -3.950000
v -9.200254 -4.176510 -3.950000
v -9.197077 -4.186644 -3.950000
v -9.219131 -4.119390 -3.950000
v -9.337248 -4.405181 -3.950000
v -9.372934 -4.429035 -3.950000
v -9.264230 -4.346886 -3.950000
vn 1.0000 -0.0000 -0.0000
vn -0.0000 -1.0000 -0.0000
vn -0.0000 -0.0000 -1.0000
vn -0.7932 -0.2040 0.5738
vn -0.7136 -0.3529 0.6052
vn -0.7285 -0.2960 0.6178
vn -0.8656 0.3454 0.3626
vn -0.8543 -0.0113 0.5197
vn -0.8550 0.0962 0.5096
vn -0.4941 -0.5941 0.6348
vn -0.6462 -0.4638 0.6061
vn -0.4284 -0.6679 0.6086
vn -0.8222 0.4350 0.3672
vn -0.8308 0.4561 0.3190
vn -0.7896 -0.0611 0.6106
vn -0.7709 0.6108 0.1806
vn -0.5670 -0.4952 0.6582
vn -0.3000 -0.7381 0.6044
vn -0.8386 0.2330 0.4923
vn -0.7435 0.6373 0.2026
vn -0.7093 0.6907 0.1408
vn -0.6537 0.7566 0.0113
vn -0.7116 -0.2548 0.6547
vn -0.1193 -0.8297 0.5453
vn -0.1359 -0.8194 0.5568
vn -0.7835 0.5180 0.3434
vn -0.6164 0.7861 0.0466
vn -0.5826 0.8123 -0.0267
vn -0.3900 -0.6644 0.6375
vn -0.7912 0.0903 0.6049
vn 0.1515 -0.8878 0.4347
vn -0.7724 0.4396 0.4584
vn -0.6339 0.7624 0.1301
vn -0.5971 -0.3899 0.7011
vn -0.4432 0.8912 -0.0966
vn -0.2861 0.9212 -0.2638
vn -0.1305 0.9217 -0.3653
vn 0.2483 -0.9065 0.3416
vn 0.4066 -0.8938 0.1893
vn -0.7300 -0.0549 0.6812
vn 0.0419 -0.8977 0.4386
vn -0.2589 -0.7504 0.6081
vn -0.4897 -0.5173 0.7019
vn -0.6440 -0.1998 0.7385
vn -0.7764 0.2989 0.5548
vn -0.6470 0.7312 0.2164
vn 0.1239 -0.9184 0.3758
vn -0.4064 0.9108 -0.0723
vn -0.0862 -0.8411 0.5339
vn -0.0594 0.8671 -0.4946
vn 0.5952 -0.8036 -0.0052
vn -0.3057 0.9335 -0.1874
vn 0.4478 -0.8877 0.1074
vn -0.0621 0.9056 -0.4195
vn -0.3429 -0.6519 0.6763
vn -0.7103 0.5695 0.4136
vn -0.4887 0.8724 0.0100
vn -0.7154 0.1513 0.6821
vn 0.0555 0.8519 -0.5207
vn -0.2502 -0.7232 0.6437
vn -0.5234 -0.3566 0.7739
vn 0.6896 -0.7198 -0.0796
vn 0.7183 -0.6733 -0.1753
vn -0.6522 0.6660 0.3621
vn 0.3565 0.6579 -0.6633
vn 0.2588 0.7664 -0.5879
vn 0.3764 -0.9122 0.1622
vn 0.0885 0.8462 -0.5255
vn 0.7979 -0.5229 -0.3000
vn -0.7059 0.3207 0.6315
vn 0.5856 0.4226 -0.6917
vn 0.4162 0.5544 -0.7207
vn 0.5627 0.4263 -0.7082
vn -0.3662 0.9276 -0.0741
vn -0.5943 -0.2497 0.7645
vn 0.6762 -0.7081 -0.2031
vn 0.0687 -0.9045 0.4208
vn -0.0980 0.9174 -0.3857
vn -0.5765 0.7758 0.2563
vn 0.8217 -0.4130 -0.3927
vn 0.8160 -0.3460 -0.4631
vn 0.8257 -0.1374 -0.5471
vn -0.6133 -0.0987 0.7836
vn -0.6751 0.4134 0.6110
vn 0.7588 0.0377 -0.6502
vn 0.7059 0.2296 -0.6701
vn 0.0132 0.8702 -0.4925
vn 0.1407 -0.9422 0.3040
vn 0.7934 -0.0017 -0.6087
vn 0.4370 -0.8983 0.0452
vn -0.3558 -0.5845 0.7292
vn 0.6356 -0.7441 -0.2056
vn 0.4618 0.5127 -0.7238
vn -0.2654 0.9404 -0.2124
vn 0.7694 -0.3753 -0.5169
vn -0.3982 -0.5068 0.7646
vn -0.6193 -0.0012 0.7851
vn -0.5770 0.7151 0.3945
vn 0.6761 0.1723 -0.7164
vn 0.3433 0.6194 -0.7060
vn -0.4043 0.9141 0.0318
vn -0.0453 -0.8555 0.5159
vn -0.0353 -0.8576 0.5130
vn -0.6500 0.4651 0.6010
vn 0.6771 -0.6433 -0.3572
vn 0.6455 0.1753 -0.7433
vn 0.7512 -0.2084 -0.6264
vn 0.2500 -0.9359 0.2481
vn 0.4618 -0.8839 -0.0740
vn -0.1036 0.9293 -0.3546
vn -0.4776 0.8335 0.2779
vn -0.4607 -0.3924 0.7961
vn 0.3879 0.5444 -0.7437
vn 0.6552 -0.6247 -0.4247
vn 0.5086 -0.8519 -0.1248
vn 0.0883 0.8151 -0.5726
vn -0.2459 0.9661 -0.0781
vn -0.5912 0.6195 0.5165
vn 0.5976 0.1615 -0.7854
vn -0.1976 -0.7520 0.6288
vn -0.6558 0.2325 0.7182
vn -0.4913 -0.2300 0.8401
vn -0.6397 -0.0157 0.7684
vn 0.7105 -0.2798 -0.6456
vn 0.3335 -0.9377 0.0972
vn 0.3845 0.4879 -0.7836
vn 0.6166 0.1018 -0.7807
vn -0.2525 -0.6654 0.7025
vn -0.5682 0.2812 0.7733
vn 0.6985 -0.2411 -0.6737
vn -0.3101 0.9500 -0.0351
vn 0.6595 -0.3601 -0.6599
vn -0.0042 0.9033 -0.4290
vn -0.5106 0.7645 0.3934
vn 0.0758 -0.9232 0.3768
vn 0.1059 -0.9388 0.3278
vn -0.5583 0.4173 0.7170
vn 0.1806 0.7547 -0.6308
vn 0.3999 0.4364 -0.8060
vn 0.2990 0.6057 -0.7374
vn 0.5906 -0.7369 -0.3289
vn -0.4756 -0.0835 0.8757
vn 0.4021 -0.9120 -0.0811
vn -0.0457 -0.8550 0.5166
vn -0.3242 -0.5172 0.7921
vn -0.3100 0.9507 0.0075
vn 0.5332 0.0768 -0.8425
vn 0.2483 -0.9629 0.1058
vn -0.4547 0.8014 0.3885
vn 0.5937 -0.6277 -0.5035
vn -0.3485 -0.4216 0.8371
vn -0.4991 -0.0031 0.8666
vn -0.5408 0.4796 0.6911
vn -0.1612 -0.7462 0.6459
vn 0.1375 0.7730 -0.6193
vn 0.0962 -0.9430 0.3187
vn 0.4972 -0.7978 -0.3411
vn -0.5031 0.2931 0.8130
vn 0.5291 0.1175 -0.8404
vn 0.6067 -0.2547 -0.7531
vn -0.1559 -0.7316 0.6637
vn 0.3740 0.4490 -0.8115
vn -0.2198 0.9735 -0.0627
vn -0.3832 -0.3142 0.8686
vn -0.4333 0.7951 0.4243
vn -0.0664 0.9362 -0.3451
vn -0.1802 -0.7129 0.6777
vn 0.3588 -0.9281 -0.0999
vn 0.0842 -0.9413 0.3269
vn 0.5070 -0.7319 -0.4553
vn 0.0724 0.8396 -0.5384
vn 0.3143 0.4968 -0.8090
vn -0.1302 0.9397 -0.3162
vn -0.0612 0.9068 -0.4171
vn -0.4463 0.0288 0.8944
vn -0.3677 0.9121 0.1813
vn -0.2957 0.9549 0.0280
vn 0.5026 0.0515 -0.8630
vn -0.4656 0.5006 0.7298
vn -0.3687 -0.3348 0.8672
vn -0.3952 -0.1763 0.9015
vn -0.3006 -0.5409 0.7855
vn 0.5582 -0.3842 -0.7354
vn 0.5972 -0.4087 -0.6901
vn 0.5280 -0.1763 -0.8307
vn 0.5535 -0.5860 -0.5918
vn 0.3167 -0.9463 -0.0653
vn -0.4360 0.6826 0.5865
vn -0.4102 0.8065 0.4258
vn 0.4644 -0.7871 -0.4059
vn -0.7087 0.6873 0.1591
vn 0.4630 0.0937 -0.8814
vn 0.4068 0.3067 -0.8605
vn -0.4504 0.0969 0.8876
vn 0.2333 0.5938 -0.7701
vn 0.2710 -0.9626 0.0003
vn 0.1965 -0.9697 0.1452
vn -0.4703 0.2935 0.8323
vn 0.0060 -0.9102 0.4141
vn -0.0750 -0.8595 0.5057
vn -0.1567 -0.7046 0.6921
vn -0.4578 0.5309 0.7131
vn -0.1156 0.9361 -0.3321
vn 0.1598 0.7229 -0.6723
vn 0.3941 -0.8808 -0.2625
vt 0.568207 0.565117
vt 0.569411 0.568120
vt 0.574629 0.583560
vt 0.572532 0.595126
vt 0.571013 0.602758
vt 0.563265 0.614090
vt 0.558543 0.620509
vt 0.556047 0.621988
vt 0.539376 0.631766
vt 0.536225 0.632307
vt 0.516570 0.634977
vt 0.513710 0.634162
vt 0.495942 0.628787
vt 0.486402 0.619049
vt 0.481483 0.614095
vt 0.480023 0.607132
vt 0.477466 0.595580
vt 0.482834 0.579473
vt 0.485704 0.572306
vt 0.494422 0.563174
vt 0.505635 0.554295
vt 0.509725 0.552795
vt 0.529218 0.547157
vt 0.535293 0.548328
vt 0.553047 0.552099
vt 0.565177 0.562611
vt 0.385186 0.750000
vt 0.375000 0.750000
vt 0.375000 0.747642
vt 0.375000 0.752287
vt 0.372713 0.750000
vt 0.183558 0.629897
vt 0.203187 0.623858
vt 0.225947 0.624585
vt 0.226951 0.624492
vt 0.227730 0.624662
vt 0.230133 0.626472
vt 0.245217 0.637348
vt 0.249936 0.651628
vt 0.250731 0.654161
vt 0.247402 0.673610
vt 0.247259 0.674515
vt 0.234268 0.693698
vt 0.233943 0.694221
vt 0.215688 0.708795
vt 0.206766 0.714759
vt 0.195275 0.716651
vt 0.178594 0.719662
vt 0.172295 0.717072
vt 0.161483 0.712941
vt 0.156630 0.707557
vt 0.148802 0.695354
vt 0.146769 0.688559
vt 0.144463 0.678714
vt 0.145430 0.676154
vt 0.151878 0.660223
vt 0.159786 0.651117
vt 0.166165 0.642747
vt 0.182960 0.630308
vt 0.183205 0.630087
vt 0.000000 0.000000
s 0
f 157/1/1 158/2/1 168/3/1 155/4/1 156/5/1 154/6/1 152/7/1 153/8/1 151/9/1 150/10/1 148/11/1 149/12/1 175/13/1 172/14/1 173/15/1 174/16/1 169/17/1 160/18/1 161/19/1 162/20/1 166/21/1 165/22/1 163/23/1 164/24/1 167/25/1 159/26/1
f 170/27/1 1/28/1 171/29/1
f 176/30/2 1/28/2 170/27/2
f 1/28/3 176/31/3 171/29/3
f 183/32/3 193/33/3 192/34/3 196/35/3 195/36/3 194/37/3 202/38/3 200/39/3 201/40/3 198/41/3 197/42/3 199/43/3 205/44/3 203/45/3 204/46/3 187/47/3 186/48/3 188/49/3 189/50/3 179/51/3 180/52/3 181/53/3 177/54/3 178/55/3 182/56/3 190/57/3 191/58/3 185/59/3 184/60/3
s 1
f 181/61/4 180/61/5 3/61/6
f 178/61/7 177/61/8 2/61/9
f 3/61/6 2/61/9 177/61/8 181/61/4
f 5/61/10 3/61/6 180/61/5 179/61/11
f 179/61/11 189/61/12 5/61/10
f 2/61/9 134/61/13 182/61/14 178/61/7
f 3/61/6 4/61/15 2/61/9
f 134/61/13 2/61/9 4/61/15
f 190/61/16 182/61/14 134/61/13
f 5/61/10 9/61/17 3/61/6
f 188/61/18 5/61/10 189/61/12
f 4/61/15 3/61/6 9/61/17
f 4/61/15 6/61/19 134/61/13
f 134/61/13 7/61/20 191/61/21 190/61/16
f 185/61/22 191/61/21 7/61/20
f 6/61/19 4/61/15 11/61/23
f 11/61/23 4/61/15 9/61/17
f 8/61/24 9/61/17 5/61/10
f 186/61/25 8/61/24 5/61/10 188/61/18
f 7/61/20 6/61/19 10/61/26
f 7/61/20 13/61/27 184/61/28 185/61/22
f 7/61/20 10/61/26 13/61/27
f 8/61/24 14/61/29 9/61/17
f 12/61/30 6/61/19 11/61/23
f 11/61/23 9/61/17 14/61/29
f 6/61/19 12/61/30 10/61/26
f 187/61/31 8/61/24 186/61/25
f 12/61/30 17/61/32 10/61/26
f 10/61/26 18/61/33 13/61/27
f 17/61/32 18/61/33 10/61/26
f 15/61/34 11/61/23 14/61/29
f 183/61/35 184/61/28 13/61/27 26/61/36
f 193/61/37 183/61/35 26/61/36
f 204/61/38 20/61/39 8/61/24 187/61/31
f 12/61/30 16/61/40 17/61/32
f 18/61/33 26/61/36 13/61/27
f 14/61/29 8/61/24 19/61/41
f 19/61/41 8/61/24 20/61/39
f 21/61/42 15/61/34 14/61/29
f 15/61/34 16/61/40 12/61/30
f 19/61/41 21/61/42 14/61/29
f 23/61/43 16/61/40 15/61/34
f 25/61/44 135/61/45 16/61/40
f 23/61/43 25/61/44 16/61/40
f 17/61/32 24/61/46 18/61/33
f 21/61/42 23/61/43 15/61/34
f 37/61/47 21/61/42 19/61/41
f 24/61/46 22/61/48 18/61/33
f 18/61/33 22/61/48 26/61/36
f 34/61/49 23/61/43 21/61/42
f 192/61/50 193/61/37 26/61/36
f 203/61/51 20/61/39 204/61/38
f 24/61/46 27/61/52 22/61/48
f 31/61/53 19/61/41 20/61/39
f 22/61/48 33/61/54 26/61/36
f 27/61/52 33/61/54 22/61/48
f 19/61/41 31/61/53 37/61/47
f 139/61/55 23/61/43 34/61/49
f 135/61/45 29/61/56 24/61/46
f 29/61/56 36/61/57 24/61/46
f 24/61/46 36/61/57 27/61/52
f 135/61/45 28/61/58 29/61/56
f 37/61/47 34/61/49 21/61/42
f 26/61/36 33/61/54 196/61/59 192/61/50
f 55/61/60 30/61/61 139/61/55
f 135/61/45 25/61/44 28/61/58
f 205/61/62 32/61/63 20/61/39 203/61/51
f 28/61/58 38/61/64 29/61/56
f 38/61/64 36/61/57 29/61/56
f 33/61/54 45/61/65 195/61/66 196/61/59
f 40/61/67 34/61/49 37/61/47
f 139/61/55 30/61/61 25/61/44
f 27/61/52 42/61/68 33/61/54
f 31/61/53 20/61/39 32/61/63
f 199/61/69 32/61/63 205/61/62
f 39/61/70 38/61/64 28/61/58
f 202/61/71 194/61/72 52/61/73
f 38/61/64 51/61/74 36/61/57
f 35/61/75 28/61/58 30/61/61
f 35/61/75 39/61/70 28/61/58
f 47/61/76 31/61/53 32/61/63
f 44/61/77 139/61/55 34/61/49
f 55/61/60 139/61/55 44/61/77
f 33/61/54 42/61/68 45/61/65
f 194/61/72 195/61/66 45/61/65 52/61/73
f 40/61/67 44/61/77 34/61/49
f 51/61/74 46/61/78 36/61/57
f 39/61/70 41/61/79 38/61/64
f 36/61/57 46/61/78 27/61/52
f 40/61/67 37/61/47 31/61/53
f 197/61/80 43/61/81 32/61/63 199/61/69
f 30/61/61 55/61/60 35/61/75
f 47/61/76 40/61/67 31/61/53
f 38/61/64 41/61/79 51/61/74
f 43/61/81 47/61/76 32/61/63
f 198/61/82 43/61/81 197/61/80
f 35/61/75 49/61/83 39/61/70
f 39/61/70 50/61/84 41/61/79
f 202/61/71 52/61/73 48/61/85 200/61/86
f 51/61/74 67/61/87 46/61/78
f 44/61/77 61/61/88 55/61/60
f 200/61/86 48/61/85 201/61/89
f 50/61/84 39/61/70 49/61/83
f 53/61/90 44/61/77 40/61/67
f 56/61/91 35/61/75 55/61/60
f 56/61/91 49/61/83 35/61/75
f 201/61/89 48/61/85 43/61/81 198/61/82
f 57/61/92 40/61/67 47/61/76
f 53/61/90 40/61/67 57/61/92
f 53/61/90 61/61/88 44/61/77
f 54/61/93 45/61/65 42/61/68
f 41/61/79 69/61/94 51/61/74
f 48/61/85 140/61/95 43/61/81
f 43/61/81 140/61/95 47/61/76
f 59/61/96 49/61/83 56/61/91
f 59/61/96 136/61/97 49/61/83
f 50/61/84 63/61/98 41/61/79
f 69/61/94 67/61/87 51/61/74
f 60/61/99 48/61/85 52/61/73
f 42/61/68 64/61/100 54/61/93
f 46/61/78 64/61/100 42/61/68
f 63/61/98 62/61/101 41/61/79
f 41/61/79 62/61/101 69/61/94
f 58/61/102 56/61/91 55/61/60
f 58/61/102 55/61/60 61/61/88
f 59/61/96 56/61/91 76/61/103
f 70/61/104 63/61/98 50/61/84
f 67/61/87 64/61/100 46/61/78
f 60/61/99 140/61/95 48/61/85
f 68/61/105 53/61/90 57/61/92
f 64/61/100 66/61/106 54/61/93
f 54/61/93 66/61/106 60/61/99
f 66/61/106 72/61/107 60/61/99
f 65/61/108 58/61/102 61/61/88
f 75/61/109 61/61/88 53/61/90
f 75/61/109 65/61/108 61/61/88
f 68/61/105 75/61/109 53/61/90
f 78/61/110 69/61/94 62/61/101
f 63/61/98 81/61/111 62/61/101
f 70/61/104 81/61/111 63/61/98
f 59/61/96 73/61/112 136/61/97
f 67/61/87 74/61/113 64/61/100
f 68/61/105 80/61/114 75/61/109
f 88/61/115 65/61/108 75/61/109
f 79/61/116 67/61/87 69/61/94
f 78/61/110 79/61/116 69/61/94
f 81/61/111 83/61/117 62/61/101
f 62/61/101 83/61/117 78/61/110
f 87/61/118 81/61/111 70/61/104
f 64/61/100 77/61/119 66/61/106
f 59/61/96 84/61/120 73/61/112
f 87/61/118 70/61/104 71/61/121
f 67/61/87 79/61/116 74/61/113
f 89/61/122 71/61/121 137/61/123
f 72/61/107 82/61/124 68/61/105
f 65/61/108 95/61/125 76/61/103
f 77/61/119 82/61/124 66/61/106
f 79/61/116 91/61/126 74/61/113
f 95/61/125 65/61/108 88/61/115
f 80/61/114 88/61/115 75/61/109
f 98/61/127 77/61/119 74/61/113
f 86/61/128 73/61/112 84/61/120
f 71/61/121 85/61/129 87/61/118
f 89/61/122 85/61/129 71/61/121
f 86/61/128 89/61/122 73/61/112
f 98/61/127 147/61/130 77/61/119
f 92/61/131 83/61/117 81/61/111
f 96/61/132 80/61/114 147/61/130
f 83/61/117 104/61/133 78/61/110
f 85/61/129 94/61/134 87/61/118
f 146/61/135 84/61/120 90/61/136
f 85/61/129 97/61/137 94/61/134
f 145/61/138 102/61/139 91/61/126
f 104/61/133 114/61/140 145/61/138
f 93/61/141 88/61/115 80/61/114
f 96/61/132 93/61/141 80/61/114
f 94/61/134 92/61/131 81/61/111
f 93/61/141 95/61/125 88/61/115
f 89/61/122 101/61/142 85/61/129
f 103/61/143 90/61/136 95/61/125
f 101/61/142 97/61/137 85/61/129
f 107/61/144 86/61/128 146/61/135
f 86/61/128 100/61/145 89/61/122
f 100/61/145 101/61/142 89/61/122
f 94/61/134 113/61/146 92/61/131
f 99/61/147 98/61/127 91/61/126
f 107/61/144 100/61/145 86/61/128
f 83/61/117 92/61/131 104/61/133
f 93/61/141 103/61/143 95/61/125
f 103/61/143 110/61/148 146/61/135
f 94/61/134 109/61/149 113/61/146
f 97/61/137 109/61/149 94/61/134
f 93/61/141 108/61/150 103/61/143
f 96/61/132 108/61/150 93/61/141
f 105/61/151 106/61/152 101/61/142
f 106/61/152 97/61/137 101/61/142
f 102/61/139 99/61/147 91/61/126
f 100/61/145 105/61/151 101/61/142
f 106/61/152 112/61/153 97/61/137
f 112/61/153 109/61/149 97/61/137
f 107/61/144 143/61/154 100/61/145
f 111/61/155 114/61/140 104/61/133
f 110/61/148 126/61/156 107/61/144
f 117/61/157 103/61/143 108/61/150
f 106/61/152 122/61/158 112/61/153
f 116/61/159 142/61/160 99/61/147
f 99/61/147 102/61/139 116/61/159
f 126/61/156 115/61/161 143/61/154
f 111/61/155 120/61/162 114/61/140
f 117/61/157 110/61/148 103/61/143
f 109/61/149 123/61/163 113/61/146
f 115/61/161 118/61/164 105/61/151
f 118/61/164 122/61/158 106/61/152
f 112/61/153 128/61/165 109/61/149
f 122/61/158 128/61/165 112/61/153
f 113/61/146 123/61/163 144/61/166
f 109/61/149 128/61/165 123/61/163
f 120/61/162 116/61/159 114/61/140
f 133/61/167 118/61/164 115/61/161
f 119/61/168 110/61/148 117/61/157
f 119/61/168 126/61/156 110/61/148
f 124/61/169 115/61/161 126/61/156
f 124/61/169 133/61/167 115/61/161
f 117/61/157 130/61/170 119/61/168
f 121/61/171 131/61/172 111/61/155
f 123/61/163 165/61/173 166/61/174 121/61/171
f 118/61/164 129/61/175 122/61/158
f 128/61/165 164/61/176 163/61/177 123/61/163
f 120/61/162 127/61/178 116/61/159
f 131/61/172 127/61/178 120/61/162
f 125/61/179 128/61/165 122/61/158
f 123/61/163 163/61/177 165/61/173
f 129/61/175 125/61/179 122/61/158
f 129/61/175 118/61/164 156/61/180 155/61/181
f 154/61/182 156/61/180 118/61/164 133/61/167
f 173/61/183 138/61/184 127/61/178 174/61/185
f 138/61/184 173/61/183 172/61/186 130/61/170
f 119/61/168 132/61/187 126/61/156
f 125/61/179 159/61/188 167/61/189 128/61/165
f 128/61/165 167/61/189 164/61/176
f 130/61/170 172/61/186 175/61/190
f 170/61/191 171/61/191 176/61/191
f 169/61/192 127/61/178 131/61/172 160/61/193
f 127/61/178 169/61/192 174/61/185
f 129/61/175 155/61/181 168/61/194
f 131/61/172 161/61/195 160/61/193
f 148/61/196 150/61/197 124/61/169 132/61/187
f 125/61/179 129/61/175 168/61/194 158/61/198
f 151/61/199 153/61/200 133/61/167 124/61/169
f 124/61/169 150/61/197 151/61/199
f 133/61/167 152/61/201 154/61/182
f 133/61/167 153/61/200 152/61/201
f 125/61/179 158/61/198 157/61/202
f 125/61/179 157/61/202 159/61/188
f 134/61/13 6/61/19 7/61/20
f 16/61/40 135/61/45 17/61/32
f 135/61/45 24/61/46 17/61/32
f 25/61/44 30/61/61 28/61/58
f 140/61/95 57/61/92 47/61/76
f 49/61/83 136/61/97 50/61/84
f 76/61/103 56/61/91 58/61/102
f 50/61/84 136/61/97 70/61/104
f 65/61/108 76/61/103 58/61/102
f 137/61/123 70/61/104 136/61/97
f 70/61/104 137/61/123 71/61/121
f 73/61/112 137/61/123 136/61/97
f 64/61/100 74/61/113 77/61/119
f 89/61/122 137/61/123 73/61/112
f 98/61/127 74/61/113 91/61/126
f 138/61/184 108/61/150 142/61/160
f 108/61/150 138/61/184 117/61/157
f 138/61/184 130/61/170 117/61/157
f 111/61/155 131/61/172 120/61/162
f 116/61/159 127/61/178 138/61/184
f 12/61/30 11/61/23 15/61/34
f 139/61/55 25/61/44 23/61/43
f 140/61/95 68/61/105 57/61/92
f 140/61/95 60/61/99 72/61/107
f 76/61/103 84/61/120 59/61/96
f 141/61/203 111/61/155 104/61/133
f 92/61/131 113/61/146 141/61/203
f 121/61/171 111/61/155 144/61/166
f 138/61/184 142/61/160 116/61/159
f 161/61/195 131/61/172 121/61/171 162/61/204
f 27/61/52 46/61/78 42/61/68
f 60/61/99 52/61/73 45/61/65
f 54/61/93 60/61/99 45/61/65
f 92/61/131 141/61/203 104/61/133
f 142/61/160 96/61/132 99/61/147
f 98/61/127 99/61/147 96/61/132
f 142/61/160 108/61/150 96/61/132
f 105/61/151 118/61/164 106/61/152
f 140/61/95 72/61/107 68/61/105
f 121/61/171 166/61/174 162/61/204
f 66/61/106 82/61/124 72/61/107
f 90/61/136 84/61/120 76/61/103
f 90/61/136 76/61/103 95/61/125
f 94/61/134 81/61/111 87/61/118
f 143/61/154 105/61/151 100/61/145
f 107/61/144 126/61/156 143/61/154
f 102/61/139 114/61/140 116/61/159
f 143/61/154 115/61/161 105/61/151
f 113/61/146 144/61/166 141/61/203
f 144/61/166 123/61/163 121/61/171
f 144/61/166 111/61/155 141/61/203
f 82/61/124 80/61/114 68/61/105
f 78/61/110 145/61/138 79/61/116
f 91/61/126 79/61/116 145/61/138
f 104/61/133 145/61/138 78/61/110
f 146/61/135 86/61/128 84/61/120
f 107/61/144 146/61/135 110/61/148
f 103/61/143 146/61/135 90/61/136
f 102/61/139 145/61/138 114/61/140
f 132/61/187 124/61/169 126/61/156
f 147/61/130 82/61/124 77/61/119
f 147/61/130 80/61/114 82/61/124
f 147/61/130 98/61/127 96/61/132
f 149/61/205 132/61/187 130/61/170 175/61/190
f 130/61/170 132/61/187 119/61/168
f 132/61/187 149/61/205 148/61/196
