# Blender 5.1.1
# www.blender.org
mtllib REV_2.mtl
o REV_cube_2
v -8.499104 -3.917598 -3.071448
v -8.495970 -3.826024 -3.068403
v -8.489660 -3.996700 -3.110374
v -8.462754 -4.049515 -3.248825
v -8.428571 -3.712037 -3.145623
v -8.448165 -3.800830 -3.390095
v -8.440337 -4.020712 -3.333860
v -8.396730 -3.702511 -3.256540
v -8.433784 -4.030278 -3.149912
v -8.460313 -3.891645 -3.419981
v -8.426129 -3.874402 -3.039065
v -8.476727 -3.993004 -3.391395
v -8.342957 -3.689532 -3.159215
v -8.354341 -3.819040 -3.014446
v -8.355303 -3.731783 -3.072805
v -8.375067 -3.766254 -3.343318
v -8.408893 -3.969410 -3.074041
v -8.322828 -3.971898 -3.057521
v -8.374041 -4.010828 -3.306683
v -8.314430 -3.689550 -3.234717
v -8.345612 -4.014112 -3.121701
v -8.348376 -4.031671 -3.219809
v -8.288556 -3.990377 -3.284369
v -8.367013 -3.864176 -3.382631
v -8.300612 -3.935167 -3.340261
v -8.274437 -3.759217 -3.010542
v -8.235868 -3.875238 -3.331542
v -8.236773 -3.704790 -3.256727
v -8.307516 -3.736795 -3.307480
v -8.278337 -4.021657 -3.159135
v -8.268664 -3.693123 -3.084160
v -8.263461 -3.860001 -2.987246
v -8.243294 -4.005910 -3.223124
v -8.257686 -4.001301 -3.090264
v -8.254300 -3.673963 -3.171061
v -8.251266 -3.949635 -3.022669
v -8.212317 -3.785140 -3.313728
v -8.162968 -3.680657 -3.203291
v -8.175966 -3.909344 -2.979194
v -8.189938 -3.810734 -2.967753
v -8.186656 -4.007982 -3.150368
v -8.206944 -3.948042 -3.286875
v -8.144376 -3.738324 -3.268630
v -8.180638 -3.710878 -3.015942
v -8.159930 -3.983604 -3.053661
v -8.168762 -3.869980 -3.307516
v -8.172678 -3.664868 -3.109826
v -8.101782 -3.943723 -2.990294
v -8.081418 -3.658884 -3.150290
v -8.091641 -3.859433 -2.944595
v -8.075427 -3.668260 -3.041647
v -8.097731 -3.999333 -3.126125
v -8.055718 -3.983903 -3.047767
v -8.109466 -3.748379 -2.966922
v -8.042427 -3.780830 -2.936468
v -8.079930 -3.978885 -3.195659
v -8.067948 -3.703673 -3.233257
v -8.047324 -4.020411 -3.485319
v -8.009349 -4.090723 -3.449131
v -8.024127 -3.851804 -3.271286
v -7.956644 -3.979871 -3.036235
v -7.949175 -3.798300 -3.261070
v -8.017993 -3.934279 -2.970473
v -7.984179 -3.852503 -2.924822
v -8.008013 -3.669985 -3.184125
v -8.007574 -3.708776 -2.965671
v -7.961509 -3.660365 -3.020032
v -7.995513 -3.646824 -3.104752
v -7.960238 -4.008337 -3.439682
v -7.925973 -3.883758 -3.244271
v -7.956182 -4.175118 -3.417291
v -7.905459 -3.927167 -2.950647
v -7.999584 -3.987807 -3.135645
v -7.926857 -3.668839 -3.171742
v -7.946954 -4.239593 -3.465746
v -7.947594 -3.765977 -2.923007
v -7.905421 -3.699487 -2.952399
v -7.915599 -3.946513 -3.188547
v -7.932687 -4.080387 -3.394592
v -7.880989 -3.831624 -2.908489
v -7.894778 -4.283894 -3.458372
v -7.889799 -3.982413 -3.113009
v -7.885752 -3.952210 -3.474887
v -7.866096 -4.012607 -3.407544
v -7.897201 -3.643660 -3.088789
v -7.906039 -4.165514 -3.368396
v -7.872215 -3.835483 -3.246617
v -7.863846 -3.740775 -3.229577
v -7.858524 -3.653997 -3.008411
v -7.859166 -3.752626 -2.912411
v -7.807798 -3.886497 -2.913272
v -7.881963 -4.250202 -3.378335
v -7.853513 -3.974512 -3.027380
v -7.839079 -4.092841 -3.348154
v -7.827413 -3.891237 -3.221322
v -7.811780 -3.947527 -3.167724
v -7.819157 -4.284091 -3.314799
v -7.831477 -3.669801 -3.160815
v -7.839645 -4.195148 -3.311576
v -7.779695 -3.794555 -2.893804
v -7.800172 -3.643973 -3.084489
v -7.810675 -3.943798 -2.960635
v -7.775220 -3.977891 -3.468378
v -7.730175 -4.069837 -3.339638
v -7.786146 -3.974334 -3.092180
v -7.761347 -4.139525 -3.285449
v -7.779969 -4.025178 -3.390426
v -7.769122 -4.226467 -3.261516
v -7.719872 -3.640483 -3.088116
v -7.714926 -3.707991 -2.921592
v -7.771229 -3.814761 -3.234869
v -7.765359 -3.653007 -3.004252
v -7.739470 -3.669971 -3.158643
v -7.690788 -4.182235 -3.237007
v -7.741932 -3.898841 -3.206566
v -7.753683 -3.972614 -3.010805
v -7.756685 -3.726896 -3.208275
v -7.677732 -3.809206 -2.886246
v -7.725688 -3.867741 -2.899474
v -7.685797 -3.977436 -3.074048
v -7.716564 -3.951855 -3.149390
v -7.730151 -3.930149 -2.937806
v -7.696312 -4.025910 -3.422476
v -7.672379 -3.852116 -3.223212
v -7.704492 -4.264549 -3.212711
v -7.661657 -3.720813 -3.200993
v -7.641495 -3.640726 -3.059248
v -7.687996 -3.781512 -3.225896
v -7.621757 -3.736119 -2.898850
v -7.663190 -4.115038 -3.293481
v -7.662552 -3.915107 -3.191294
v -7.639964 -3.906049 -2.911412
v -7.641620 -3.667331 -2.962037
v -7.659409 -3.966537 -2.986818
v -7.644968 -3.668469 -3.146899
v -7.597426 -4.157802 -3.257181
v -7.608204 -3.797332 -3.225747
v -7.632758 -4.073574 -3.373302
v -7.610284 -4.234931 -3.191391
v -7.623374 -4.066733 -3.475539
v -7.564203 -3.652064 -3.108798
v -7.610029 -3.958707 -3.141188
v -7.592165 -3.981337 -3.050100
v -7.576019 -3.688130 -2.936331
v -7.571978 -3.955059 -2.962396
v -7.576752 -3.826316 -2.882693
v -7.578371 -3.884488 -3.206857
v -7.568132 -4.117815 -3.338680
v -7.561753 -4.117087 -3.433062
v -7.572237 -3.647898 -3.009819
v -7.507541 -3.671623 -2.963005
v -7.523847 -4.162389 -3.301177
v -7.558957 -3.719537 -3.195737
v -7.514328 -4.259328 -3.494401
v -7.522304 -3.809506 -3.225560
v -7.526474 -3.977351 -3.099605
v -7.500436 -4.172146 -3.388635
v -7.515482 -3.746649 -2.899599
v -7.505566 -4.255362 -3.169414
v -7.505736 -3.943911 -3.161705
v -8.432066 -3.777662 -3.065106
v -8.111896 -3.820084 -3.293331
v -8.012357 -4.181014 -3.494720
v -7.807755 -3.700114 -2.938647
v -7.551635 -3.897768 -2.906619
v -8.338747 -3.911219 -3.022273
v -8.392596 -3.951570 -3.374438
v -8.045385 -3.776252 -3.271201
v -7.700475 -3.645556 -3.003906
v -8.295910 -3.827660 -3.350937
v -7.518223 -4.198483 -3.234115
v -8.466540 -3.728220 -3.313390
v -8.105015 -3.916394 -3.269000
v -7.975557 -3.721848 -3.236058
v -7.534425 -4.176954 -3.479999
v -8.012409 -3.933705 -3.233798
v -8.143957 -3.989526 -3.205460
v -8.500000 -4.058578 -3.251496
v -8.500000 -4.043079 -3.206285
v -8.500000 -4.035653 -3.165849
v -8.500000 -3.993245 -3.111303
v -8.500000 -4.007495 -3.126704
v -8.500000 -3.916801 -3.071775
v -8.500000 -3.918112 -3.071955
v -8.500000 -4.054091 -3.299455
v -8.500000 -4.005533 -3.395168
v -8.500000 -4.025289 -3.360582
v -8.500000 -4.046894 -3.331372
v -8.500000 -3.928028 -3.434339
v -8.500000 -3.883536 -3.434677
v -8.500000 -3.844608 -3.420541
v -8.500000 -3.980297 -3.413432
v -8.500000 -3.718146 -3.236260
v -8.500000 -3.722986 -3.294055
v -8.500000 -3.715690 -3.224812
v -8.500000 -3.716095 -3.217302
v -8.500000 -3.775354 -3.376922
v -8.500000 -3.812455 -3.411460
v -8.500000 -3.742333 -3.339509
v -8.500000 -3.750750 -3.129001
v -8.500000 -3.766044 -3.109874
v -8.500000 -3.815957 -3.077198
v -8.500000 -3.827772 -3.069981
v -7.500000 -3.868597 -2.893617
v -7.500000 -3.736974 -2.906626
v -7.500000 -3.749753 -2.898635
v -7.500000 -3.784415 -2.894959
v -7.500000 -3.845693 -2.885527
v -7.500000 -3.669959 -2.967121
v -7.500000 -3.673658 -2.960669
v -7.500000 -3.655907 -3.011512
v -7.500000 -3.642904 -3.049476
v -7.500000 -3.643335 -3.058113
v -7.500000 -4.254151 -3.174468
v -7.500000 -4.256880 -3.169629
v -7.500000 -4.268058 -3.158483
v -7.500000 -4.300000 -3.480300
v -7.500000 -4.275428 -3.483744
v -7.500000 -4.300000 -3.133903
v -7.500000 -4.172712 -3.388729
v -7.500000 -4.172492 -3.387885
v -7.500000 -4.173594 -3.389968
v -7.500000 -4.178215 -3.304991
v -7.500000 -4.247181 -3.471789
v -7.500000 -4.213497 -3.456163
v -7.500000 -4.201107 -3.256915
v -7.500000 -4.207280 -3.234355
v -7.500000 -3.979958 -3.016113
v -7.500000 -3.979405 -3.029685
v -7.500000 -3.979187 -3.098039
v -7.500000 -3.947545 -3.155490
v -7.500000 -3.924771 -2.927416
v -7.500000 -3.933406 -2.935548
v -7.500000 -3.944419 -3.162143
v -7.500000 -3.933263 -3.169705
v -7.500000 -3.977968 -3.009963
v -7.500000 -3.808863 -3.227192
v -7.500000 -3.787862 -3.220919
v -7.500000 -3.843866 -3.216775
v -7.500000 -3.669229 -3.142873
v -7.500000 -3.687857 -3.166600
v -7.500000 -3.736524 -3.205604
v -7.500000 -3.884429 -3.206522
v -7.744593 -4.300000 -3.246886
v -7.663448 -4.300000 -3.183338
v -7.703753 -4.300000 -3.215137
v -7.645226 -4.300000 -3.176835
v -7.557105 -4.300000 -3.145821
v -7.583125 -4.300000 -3.148088
v -7.874803 -4.300000 -3.442882
v -7.872533 -4.300000 -3.500000
v -7.871595 -4.300000 -3.485765
v -7.852698 -4.300000 -3.397363
v -7.823515 -4.300000 -3.345321
v -7.532057 -4.300000 -3.499096
v -7.533214 -4.300000 -3.500000
v -7.792495 -4.300000 -3.289969
v -7.811733 -4.300000 -3.318420
v -7.764880 -4.300000 -3.262993
v -7.759013 -3.982296 -3.500000
v -7.788597 -3.963075 -3.500000
v -7.687726 -4.021434 -3.500000
v -7.715858 -4.006239 -3.500000
v -7.631227 -4.070226 -3.500000
v -7.661283 -4.038740 -3.500000
v -7.548332 -4.183834 -3.500000
v -7.560513 -4.156258 -3.500000
v -7.585401 -4.125780 -3.500000
v -7.522245 -4.261929 -3.500000
v -7.521720 -4.252256 -3.500000
v -7.609495 -4.096903 -3.500000
v -8.059443 -4.001287 -3.500000
v -8.067595 -4.026482 -3.500000
v -8.056003 -4.052472 -3.500000
v -8.021350 -4.172249 -3.500000
v -8.014232 -4.181921 -3.500000
v -8.009324 -4.185601 -3.500000
v -8.049703 -4.109200 -3.500000
v -7.988221 -3.941208 -3.500000
v -7.986539 -3.939605 -3.500000
v -7.900221 -4.282154 -3.500000
v -7.929279 -4.257192 -3.500000
v -7.956213 -4.239816 -3.500000
v -7.857863 -3.948530 -3.500000
v -7.892468 -3.937554 -3.500000
v -7.985211 -3.939368 -3.500000
vn -1.0000 -0.0000 -0.0000
vn 1.0000 -0.0000 -0.0000
vn -0.0000 -1.0000 -0.0000
vn -0.0000 -0.0000 -1.0000
vn -0.3805 -0.0490 0.9235
vn -0.2994 -0.3519 0.8869
vn -0.3144 -0.2458 0.9169
vn 0.3422 -0.7660 -0.5442
vn 0.4578 -0.6767 -0.5767
vn 0.4386 -0.5687 -0.6958
vn 0.5223 -0.3732 -0.7668
vn -0.1721 -0.6582 0.7329
vn -0.2603 -0.5694 0.7798
vn -0.1101 -0.7956 0.5957
vn 0.0752 -0.9741 0.2132
vn 0.2282 -0.9681 0.1031
vn 0.2084 -0.9780 -0.0055
vn 0.3569 -0.9167 -0.1797
vn -0.4241 0.4936 0.7593
vn -0.4274 0.1870 0.8845
vn -0.3934 0.2630 0.8810
vn 0.0452 0.9812 -0.1874
vn 0.0318 0.8901 -0.4547
vn 0.1229 0.7987 -0.5890
vn 0.3725 0.1697 -0.9124
vn 0.3886 -0.0005 -0.9214
vn 0.5067 -0.2242 -0.8325
vn 0.0230 -0.9165 0.3994
vn -0.0108 -0.9330 0.3596
vn 0.1796 0.7148 -0.6758
vn 0.2484 0.5090 -0.8241
vn 0.2604 0.4288 -0.8651
vn 0.3350 0.2719 -0.9021
vn -0.3156 0.8009 0.5089
vn -0.2676 0.9038 0.3339
vn -0.1882 0.9732 0.1324
vn 0.3558 -0.8122 -0.4623
vn 0.3609 -0.8574 -0.3669
vn -0.0763 0.9547 -0.2875
vn -0.1486 0.9702 -0.1912
vn -0.1426 0.9883 -0.0537
vn -0.3191 -0.0901 0.9434
vn -0.3394 0.5216 0.7828
vn -0.1696 -0.6007 0.7813
vn -0.3240 0.6718 0.6661
vn 0.1772 -0.9802 -0.0890
vn 0.3664 0.0760 -0.9273
vn 0.1774 0.6172 -0.7666
vn -0.1413 -0.6983 0.7017
vn -0.2522 -0.3466 0.9035
vn -0.2109 0.9657 0.1518
vn 0.3123 -0.8168 -0.4850
vn 0.3922 -0.4362 -0.8099
vn -0.0192 -0.9122 0.4093
vn -0.3080 0.7295 0.6107
vn -0.0456 0.9490 -0.3119
vn 0.1199 0.6790 -0.7243
vn -0.3301 0.1996 0.9226
vn 0.1122 -0.9898 0.0883
vn 0.3138 -0.7804 -0.5408
vn -0.2477 0.8743 0.4174
vn -0.2969 0.4869 0.8215
vn 0.3696 -0.4085 -0.8346
vn 0.0084 -0.9030 0.4295
vn 0.2921 0.1955 -0.9362
vn -0.0936 0.9928 -0.0754
vn 0.2438 -0.9100 -0.3352
vn -0.1427 -0.6194 0.7720
vn -0.2631 -0.1087 0.9586
vn 0.1079 0.8084 -0.5786
vn 0.2529 0.3583 -0.8987
vn -0.2533 0.1515 0.9555
vn 0.1293 -0.9915 0.0155
vn -0.2350 0.7054 0.6687
vn 0.3366 -0.5985 -0.7269
vn -0.1373 0.9813 0.1351
vn -0.1932 -0.4449 0.8745
vn 0.3144 -0.1676 -0.9344
vn 0.3450 -0.1338 -0.9290
vn 0.2256 -0.8750 -0.4284
vn 0.0111 0.9095 -0.4156
vn -0.0357 -0.8848 0.4646
vn 0.1488 0.5758 -0.8040
vn -0.2466 0.4583 0.8539
vn 0.2401 0.0728 -0.9680
vn 0.0888 -0.9960 -0.0008
vn 0.2618 -0.4910 -0.8309
vn -0.1126 -0.6793 0.7252
vn -0.1732 0.9005 0.3989
vn 0.0602 0.7099 -0.7017
vn 0.0091 -0.9384 0.3453
vn 0.1872 -0.8619 -0.4712
vn -0.0614 0.9772 -0.2031
vn -0.1995 -0.1799 0.9632
vn -0.2241 0.2232 0.9487
vn -0.0924 -0.6595 0.7460
vn -0.1946 0.6442 0.7397
vn 0.1976 -0.6501 -0.7337
vn -0.4568 0.3412 0.8215
vn -0.5758 -0.0510 0.8160
vn -0.5552 0.1782 0.8124
vn -0.4498 0.4758 0.7558
vn 0.1187 -0.9708 -0.2086
vn -0.7165 -0.1207 0.6871
vn 0.0353 0.8728 -0.4867
vn -0.7027 -0.3467 0.6213
vn -0.6721 -0.6522 0.3507
vn -0.7203 -0.5182 0.4610
vn -0.1405 -0.2098 0.9676
vn -0.0580 0.9974 -0.0429
vn -0.1164 0.9123 0.3926
vn -0.7286 -0.2066 0.6530
vn -0.6637 -0.0398 0.7470
vn -0.3607 0.4670 0.8074
vn 0.0062 -0.9490 0.3152
vn 0.1284 0.5651 -0.8150
vn -0.2803 0.5703 0.7721
vn 0.1557 0.2892 -0.9445
vn 0.1923 -0.1725 -0.9660
vn -0.1655 0.2719 0.9480
vn -0.4856 0.2298 0.8435
vn 0.1718 0.1141 -0.9785
vn 0.1789 -0.4019 -0.8980
vn -0.7071 -0.2728 0.6523
vn -0.1339 0.6714 0.7289
vn -0.0125 0.9976 -0.0686
vn -0.0853 -0.6551 0.7507
vn 0.0754 0.8554 -0.5125
vn 0.1472 -0.7813 -0.6066
vn -0.6816 -0.6569 0.3225
vn 0.0866 -0.9780 -0.1897
vn -0.0031 -0.9624 0.2715
vn 0.1663 -0.0834 -0.9825
vn 0.0464 0.8096 0.5852
vn -0.1040 0.6561 0.7475
vn -0.6268 -0.0362 0.7783
vn 0.1006 0.8708 0.4813
vn -0.0561 0.9273 0.3700
vn -0.1403 -0.1299 0.9816
vn -0.1151 0.3342 0.9354
vn -0.6020 -0.7972 0.0454
vn -0.6512 -0.7390 0.1726
vn -0.6177 -0.7820 0.0830
vn -0.1252 0.6531 0.7468
vn 0.1314 0.4483 -0.8842
vn 0.0984 -0.8168 -0.5684
vn -0.3376 0.4472 0.8283
vn -0.1001 -0.4151 0.9042
vn -0.5414 -0.8400 0.0357
vn -0.5578 -0.8299 0.0159
vn -0.7238 -0.4415 0.5303
vn -0.7152 -0.6565 0.2397
vn 0.0424 0.8392 -0.5422
vn -0.7272 -0.5722 0.3791
vn -0.0612 -0.7907 0.6092
vn 0.1414 -0.4846 -0.8633
vn -0.6189 0.0393 0.7845
vn 0.2139 0.9040 0.3700
vn 0.0314 0.7687 0.6388
vn -0.0894 0.1134 0.9895
vn -0.0203 -0.9617 0.2735
vn -0.3096 0.4823 0.8195
vn 0.3011 0.8826 0.3610
vn -0.0139 0.9945 -0.1038
vn 0.0922 -0.0077 -0.9957
vn -0.0648 0.6581 0.7501
vn 0.0421 -0.9862 -0.1603
vn 0.3150 0.9037 0.2902
vn 0.0507 0.4982 -0.8656
vn -0.7446 -0.3255 0.5828
vn -0.7333 -0.5544 0.3936
vn 0.0155 0.7522 0.6587
vn -0.5574 0.1061 0.8234
vn -0.7769 -0.4603 0.4296
vn -0.7129 -0.1149 0.6918
vn 0.0168 0.8172 -0.5762
vn 0.0609 -0.5309 -0.8452
vn -0.6595 -0.0531 0.7498
vn -0.0649 -0.3211 0.9448
vn -0.0495 -0.7105 0.7020
vn 0.5015 0.8541 0.1380
vn -0.2226 0.4961 0.8392
vn 0.0175 -0.8603 -0.5095
vn -0.0100 0.9864 -0.1642
vn -0.6194 -0.0544 0.7832
vn -0.4936 0.1502 0.8566
vn 0.4740 0.8741 0.1062
vn -0.0580 0.9311 0.3601
vn 0.3822 0.8681 0.3168
vn -0.0547 0.0193 0.9983
vn -0.0761 0.5894 0.8042
vn 0.5105 0.8534 0.1058
vn 0.0486 -0.2470 -0.9678
vn -0.6152 -0.0666 0.7856
vn 0.0885 0.7526 0.6525
vn -0.0111 -0.9945 -0.1041
vn 0.0479 0.1927 -0.9801
vn 0.0431 0.9987 -0.0281
vn -0.0333 0.9436 0.3295
vn 0.0560 0.8456 -0.5308
vn -0.0207 -0.9180 0.3961
vn -0.0063 0.8431 0.5377
vn 0.0486 0.5377 -0.8418
vn 0.1638 0.7445 0.6472
vn 0.0361 -0.6255 -0.7794
vn 0.4041 0.8553 0.3243
vn -0.3825 0.2853 0.8788
vn -0.0244 0.4231 0.9057
vn -0.0311 -0.5477 0.8361
vn -0.0036 -0.8634 -0.5045
vn -0.1396 0.5379 0.8313
vn 0.6584 0.7442 -0.1125
vn 0.5761 0.8163 0.0414
vn 0.0180 0.9691 0.2458
vn -0.3415 0.3761 0.8614
vn 0.7095 0.6291 -0.3176
vn -0.0077 -0.0660 0.9978
vn 0.0424 0.0913 -0.9949
vn -0.0317 -0.9991 0.0288
vn 0.0371 0.7290 0.6835
vn 0.4854 0.8259 0.2869
vn 0.0194 -0.4453 -0.8952
vn -0.0173 -0.8470 0.5313
vn 0.0188 0.9411 -0.3376
vn 0.5044 0.8092 0.3013
vn 0.7260 0.6026 -0.3313
vn 0.0124 0.5664 -0.8241
vn -0.0259 -0.9652 -0.2600
vn -0.0181 -0.7539 0.6567
vn -0.0210 -0.6349 0.7723
vn -0.0093 -0.5149 0.8572
vn 0.2924 0.7914 0.5368
vn 0.6852 0.7163 -0.1319
vn 0.0928 0.7074 0.7007
vn -0.0466 -0.7530 -0.6563
vn -0.0495 -0.9835 0.1742
vn -0.0497 -0.9272 0.3713
vn 0.0185 -0.9992 -0.0364
vn 0.0330 0.8332 0.5521
vn 0.7265 0.6002 -0.3346
vn 0.7305 0.3027 -0.6121
vn 0.7583 0.4509 -0.4708
vn 0.6707 0.0906 -0.7362
vn 0.7065 0.2014 -0.6785
vn -0.0313 0.0124 -0.9994
vn 0.5993 -0.1205 -0.7914
vn 0.0369 0.3938 0.9184
vn 0.0042 -0.4322 -0.9018
vn -0.0075 -0.2523 -0.9676
vn -0.0254 0.9965 0.0793
vn 0.1045 0.9412 0.3212
vn -0.0112 -0.5967 -0.8024
vn 0.7153 0.6847 -0.1402
vn -0.0673 0.7404 -0.6688
vn -0.0455 0.8551 -0.5165
vn 0.7758 0.5376 -0.3304
vn 0.7701 0.4027 -0.4948
vn -0.0401 0.9920 -0.1200
vn -0.0040 0.9296 0.3685
vn -0.0275 0.4291 -0.9028
vn -0.0779 0.2851 -0.9553
vn 0.3966 0.8097 0.4326
vn 0.5253 0.7845 0.3295
vn 0.5637 0.7986 0.2109
vn 0.6174 0.7866 0.0039
vn 0.3317 0.7670 0.5492
vn -0.0731 0.0056 -0.9973
vn -0.0075 0.7419 0.6704
vn -0.0273 0.6157 0.7875
vn 0.0605 0.1461 0.9874
vn 0.0003 0.2980 0.9546
vn -0.1161 -0.7550 -0.6454
vn 0.2323 0.7673 0.5977
vn -0.1246 0.6155 0.7783
vn -0.0494 -0.8814 -0.4698
vn -0.0531 -0.9696 -0.2391
vn 0.7206 0.6092 -0.3311
vn -0.6686 -0.7071 0.2303
vn -0.1837 0.4903 0.8520
vn -0.0985 0.5515 0.8283
vn -0.1632 0.6017 0.7819
vn -0.0088 -0.3940 0.9191
vn 0.0033 -0.1318 0.9913
vn -0.6328 -0.7541 0.1760
vn 0.7380 0.5431 -0.4006
vn 0.5687 -0.1546 -0.8079
vn 0.6061 -0.1746 -0.7760
vn 0.5973 0.0006 -0.8020
vn 0.5021 -0.1200 -0.8564
vn 0.7360 0.2795 -0.6165
vt 0.445674 0.145976
vt 0.443797 0.146078
vt 0.440935 0.145463
vt 0.426486 0.144254
vt 0.415123 0.139417
vt 0.405770 0.131161
vt 0.397135 0.121886
vt 0.394865 0.113848
vt 0.391331 0.104116
vt 0.391415 0.092993
vt 0.396642 0.079926
vt 0.401208 0.073617
vt 0.409855 0.068678
vt 0.417157 0.063277
vt 0.425136 0.061477
vt 0.437126 0.060355
vt 0.448429 0.064230
vt 0.458538 0.066087
vt 0.468324 0.073126
vt 0.472174 0.076689
vt 0.482011 0.095472
vt 0.482056 0.095800
vt 0.482505 0.118057
vt 0.480700 0.121011
vt 0.472532 0.133489
vt 0.467750 0.137313
vt 0.402818 0.718178
vt 0.403029 0.718123
vt 0.423752 0.719554
vt 0.435771 0.725277
vt 0.441411 0.726820
vt 0.456383 0.738538
vt 0.457593 0.739220
vt 0.460379 0.742014
vt 0.466524 0.750000
vt 0.379925 0.750000
vt 0.379064 0.743857
vt 0.382053 0.736795
vt 0.385959 0.728374
vt 0.402508 0.718399
vt 0.492579 0.669851
vt 0.475490 0.669797
vt 0.461127 0.661886
vt 0.459464 0.661105
vt 0.457574 0.658316
vt 0.448370 0.646107
vt 0.445806 0.635967
vt 0.443202 0.627216
vt 0.444770 0.621966
vt 0.448599 0.609131
vt 0.458350 0.596964
vt 0.464282 0.592307
vt 0.485472 0.585834
vt 0.487631 0.585726
vt 0.497122 0.588977
vt 0.508220 0.592490
vt 0.509833 0.593414
vt 0.523344 0.609244
vt 0.525341 0.612438
vt 0.526260 0.621104
vt 0.528618 0.636423
vt 0.526596 0.642149
vt 0.518146 0.656193
vt 0.516113 0.658352
vt 0.497509 0.669492
vt 0.495972 0.669990
vt 0.454165 0.790862
vt 0.446216 0.800938
vt 0.438279 0.811148
vt 0.434252 0.816220
vt 0.427508 0.823124
vt 0.420395 0.827933
vt 0.413670 0.830879
vt 0.400659 0.838175
vt 0.389280 0.843701
vt 0.378559 0.842899
vt 0.375000 0.843133
vt 0.375000 0.758303
vt 0.375226 0.758014
vt 0.463545 0.764276
vt 0.462978 0.770781
vt 0.455791 0.786307
vt 0.244663 0.718062
vt 0.237574 0.702300
vt 0.235999 0.688118
vt 0.233101 0.681620
vt 0.235139 0.675322
vt 0.252945 0.660302
vt 0.253365 0.659901
vt 0.253697 0.659842
vt 0.276883 0.659389
vt 0.285534 0.662133
vt 0.302851 0.665769
vt 0.310247 0.670574
vt 0.321036 0.676560
vt 0.328068 0.680359
vt 0.334679 0.684685
vt 0.342193 0.692556
vt 0.347626 0.699226
vt 0.353650 0.706445
vt 0.359872 0.714064
vt 0.362917 0.720958
vt 0.369570 0.738064
vt 0.369439 0.740482
vt 0.366697 0.750000
vt 0.281867 0.750000
vt 0.274945 0.745538
vt 0.267680 0.739298
vt 0.260947 0.734954
vt 0.247669 0.721400
vt 0.246442 0.720480
vt 0.000000 0.000000
s 0
f 196/1/1 195/2/1 193/3/1 194/4/1 199/5/1 197/6/1 198/7/1 191/8/1 190/9/1 189/10/1 192/11/1 186/12/1 187/13/1 188/14/1 185/15/1 178/16/1 179/17/1 180/18/1 182/19/1 181/20/1 184/21/1 183/22/1 203/23/1 202/24/1 201/25/1 200/26/1
f 220/27/2 221/28/2 223/29/2 226/30/2 227/31/2 214/32/2 215/33/2 216/34/2 219/35/2 217/36/2 218/37/2 224/38/2 225/39/2 222/40/2
f 229/41/2 230/42/2 231/43/2 234/44/2 235/45/2 243/46/2 239/47/2 237/48/2 238/49/2 242/50/2 241/51/2 240/52/2 213/53/2 212/54/2 211/55/2 209/56/2 210/57/2 205/58/2 206/59/2 207/60/2 208/61/2 204/62/2 232/63/2 233/64/2 236/65/2 228/66/2
f 245/67/3 246/68/3 244/69/3 259/70/3 257/71/3 258/72/3 254/73/3 253/74/3 250/75/3 252/76/3 251/77/3 256/78/3 255/79/3 217/36/3 219/35/3 248/80/3 249/81/3 247/82/3
f 275/83/4 278/84/4 274/85/4 273/86/4 272/87/4 279/88/4 280/89/4 286/90/4 285/91/4 284/92/4 261/93/4 260/94/4 263/95/4 262/96/4 265/97/4 264/98/4 271/99/4 268/100/4 267/101/4 266/102/4 270/103/4 269/104/4 256/105/4 251/106/4 281/107/4 282/108/4 283/109/4 277/110/4 276/111/4
s 1
f 183/112/5 184/112/6 1/112/7
f 187/112/8 186/112/9 12/112/10
f 192/112/11 12/112/10 186/112/9
f 3/112/12 1/112/7 184/112/6 181/112/13
f 181/112/13 182/112/14 3/112/12
f 179/112/15 178/112/16 4/112/17
f 4/112/17 178/112/16 185/112/18
f 202/112/19 203/112/20 2/112/21
f 194/112/22 172/112/23 199/112/24
f 190/112/25 10/112/26 189/112/27
f 4/112/17 9/112/28 180/112/29 179/112/15
f 183/112/5 1/112/7 2/112/21 203/112/20
f 197/112/30 6/112/31 198/112/32
f 191/112/33 10/112/26 190/112/25
f 6/112/31 10/112/26 191/112/33 198/112/32
f 9/112/28 3/112/12 182/112/14 180/112/29
f 200/112/34 5/112/35 196/112/36
f 12/112/10 7/112/37 188/112/38 187/112/8
f 8/112/39 172/112/23 193/112/40 195/112/41
f 7/112/37 4/112/17 185/112/18 188/112/38
f 5/112/35 8/112/39 195/112/41 196/112/36
f 11/112/42 2/112/21 1/112/7
f 2/112/21 11/112/42 161/112/43
f 17/112/44 1/112/7 3/112/12
f 2/112/21 161/112/43 201/112/45 202/112/19
f 17/112/44 11/112/42 1/112/7
f 9/112/28 17/112/44 3/112/12
f 161/112/43 5/112/35 200/112/34 201/112/45
f 22/112/46 9/112/28 4/112/17
f 6/112/31 24/112/47 10/112/26
f 16/112/48 24/112/47 6/112/31
f 17/112/44 18/112/49 166/112/50
f 5/112/35 13/112/51 8/112/39
f 7/112/37 19/112/52 4/112/17
f 10/112/26 24/112/47 167/112/53
f 21/112/54 9/112/28 22/112/46
f 161/112/43 15/112/55 5/112/35
f 20/112/56 29/112/57 8/112/39
f 8/112/39 13/112/51 20/112/56
f 7/112/37 167/112/53 19/112/52
f 21/112/54 17/112/44 9/112/28
f 15/112/55 13/112/51 5/112/35
f 14/112/58 15/112/55 161/112/43
f 30/112/59 21/112/54 22/112/46
f 19/112/52 23/112/60 22/112/46
f 15/112/55 31/112/61 13/112/51
f 26/112/62 15/112/55 14/112/58
f 19/112/52 25/112/63 23/112/60
f 30/112/59 34/112/64 21/112/54
f 16/112/48 170/112/65 24/112/47
f 24/112/47 170/112/65 25/112/63
f 35/112/66 13/112/51 31/112/61
f 35/112/66 20/112/56 13/112/51
f 26/112/62 31/112/61 15/112/55
f 33/112/67 22/112/46 23/112/60
f 30/112/59 22/112/46 33/112/67
f 34/112/64 36/112/68 18/112/49
f 32/112/69 26/112/62 14/112/58
f 20/112/56 28/112/70 29/112/57
f 35/112/66 28/112/70 20/112/56
f 36/112/68 32/112/69 166/112/50
f 29/112/57 37/112/71 170/112/65
f 28/112/70 37/112/71 29/112/57
f 26/112/62 32/112/69 40/112/72
f 41/112/73 34/112/64 30/112/59
f 26/112/62 44/112/74 31/112/61
f 42/112/75 23/112/60 25/112/63
f 23/112/60 42/112/75 33/112/67
f 30/112/59 33/112/67 41/112/73
f 47/112/76 35/112/66 31/112/61
f 44/112/74 47/112/76 31/112/61
f 36/112/68 39/112/77 32/112/69
f 39/112/77 40/112/72 32/112/69
f 46/112/78 42/112/75 27/112/79
f 177/112/80 41/112/73 33/112/67
f 35/112/66 38/112/81 28/112/70
f 45/112/82 36/112/68 34/112/64
f 41/112/73 45/112/82 34/112/64
f 37/112/71 46/112/78 27/112/79
f 47/112/76 38/112/81 35/112/66
f 37/112/71 28/112/70 43/112/83
f 28/112/70 38/112/81 43/112/83
f 40/112/72 44/112/74 26/112/62
f 45/112/82 39/112/77 36/112/68
f 54/112/84 44/112/74 40/112/72
f 37/112/71 162/112/85 46/112/78
f 41/112/73 52/112/86 45/112/82
f 173/112/87 177/112/80 42/112/75
f 46/112/78 173/112/87 42/112/75
f 45/112/82 48/112/88 39/112/77
f 54/112/84 51/112/89 44/112/74
f 44/112/74 51/112/89 47/112/76
f 57/112/90 43/112/83 38/112/81
f 53/112/91 45/112/82 52/112/86
f 53/112/91 48/112/88 45/112/82
f 56/112/92 52/112/86 177/112/80
f 47/112/76 49/112/93 38/112/81
f 49/112/93 57/112/90 38/112/81
f 39/112/77 50/112/94 40/112/72
f 51/112/89 49/112/93 47/112/76
f 48/112/88 50/112/94 39/112/77
f 50/112/94 55/112/95 54/112/84
f 53/112/91 63/112/96 48/112/88
f 63/112/96 50/112/94 48/112/88
f 55/112/95 66/112/97 54/112/84
f 173/112/87 176/112/98 56/112/92
f 66/112/97 51/112/89 54/112/84
f 272/112/99 273/112/100 58/112/101
f 58/112/101 279/112/102 272/112/99
f 73/112/103 53/112/91 52/112/86
f 56/112/92 73/112/103 52/112/86
f 273/112/100 274/112/104 58/112/101
f 49/112/93 65/112/105 57/112/90
f 275/112/106 276/112/107 163/112/108
f 64/112/109 50/112/94 63/112/96
f 64/112/109 55/112/95 50/112/94
f 51/112/89 68/112/110 49/112/93
f 68/112/110 65/112/105 49/112/93
f 176/112/98 73/112/103 56/112/92
f 66/112/97 67/112/111 51/112/89
f 67/112/111 68/112/110 51/112/89
f 274/112/104 278/112/112 59/112/113 58/112/101
f 163/112/108 59/112/113 278/112/112 275/112/106
f 59/112/113 69/112/114 58/112/101
f 61/112/115 63/112/96 53/112/91
f 57/112/90 65/112/105 174/112/116
f 279/112/102 58/112/101 69/112/114 280/112/117
f 162/112/85 168/112/118 60/112/119
f 64/112/109 76/112/120 55/112/95
f 73/112/103 61/112/115 53/112/91
f 79/112/121 69/112/114 59/112/113
f 76/112/120 66/112/97 55/112/95
f 62/112/122 70/112/123 60/112/119
f 59/112/113 163/112/108 71/112/124
f 76/112/120 77/112/125 66/112/97
f 59/112/113 71/112/124 79/112/121
f 67/112/111 85/112/126 68/112/110
f 63/112/96 72/112/127 64/112/109
f 61/112/115 72/112/127 63/112/96
f 74/112/128 174/112/116 65/112/105
f 68/112/110 74/112/128 65/112/105
f 70/112/123 78/112/129 176/112/98
f 163/112/108 75/112/130 71/112/124
f 82/112/131 61/112/115 73/112/103
f 77/112/125 67/112/111 66/112/97
f 93/112/132 72/112/127 61/112/115
f 70/112/123 62/112/122 87/112/133
f 68/112/110 85/112/126 74/112/128
f 69/112/114 83/112/134 286/112/135 280/112/117
f 71/112/124 86/112/136 79/112/121
f 285/112/137 286/112/135 83/112/134
f 89/112/138 85/112/126 67/112/111
f 77/112/125 89/112/138 67/112/111
f 72/112/127 80/112/139 64/112/109
f 64/112/109 80/112/139 76/112/120
f 80/112/139 90/112/140 76/112/120
f 281/112/141 81/112/142 75/112/130 282/112/143
f 82/112/131 93/112/132 61/112/115
f 90/112/140 77/112/125 76/112/120
f 79/112/121 84/112/144 69/112/114
f 69/112/114 84/112/144 83/112/134
f 88/112/145 87/112/133 62/112/122
f 96/112/146 82/112/131 78/112/129
f 94/112/147 79/112/121 86/112/136
f 72/112/127 91/112/148 80/112/139
f 251/112/149 252/112/150 81/112/142 281/112/141
f 92/112/151 86/112/136 71/112/124
f 250/112/152 81/112/142 252/112/150
f 98/112/153 74/112/128 85/112/126
f 74/112/128 88/112/145 174/112/116
f 92/112/151 81/112/142 250/112/152 253/112/154
f 79/112/121 94/112/147 84/112/144
f 102/112/155 91/112/148 72/112/127
f 93/112/132 102/112/155 72/112/127
f 78/112/129 95/112/156 96/112/146
f 92/112/151 99/112/157 86/112/136
f 86/112/136 99/112/157 94/112/147
f 284/112/158 285/112/137 83/112/134
f 94/112/147 107/112/159 84/112/144
f 100/112/160 90/112/140 80/112/139
f 116/112/161 102/112/155 93/112/132
f 99/112/157 106/112/162 94/112/147
f 84/112/144 103/112/163 83/112/134
f 85/112/126 101/112/164 98/112/153
f 89/112/138 101/112/164 85/112/126
f 111/112/165 95/112/156 87/112/133
f 90/112/140 164/112/166 77/112/125
f 96/112/146 105/112/167 82/112/131
f 93/112/132 82/112/131 105/112/167
f 84/112/144 107/112/159 103/112/163
f 83/112/134 103/112/163 261/112/168 284/112/158
f 88/112/145 117/112/169 111/112/165
f 97/112/170 92/112/151 253/112/154 254/112/171
f 80/112/139 91/112/148 100/112/160
f 117/112/169 88/112/145 98/112/153
f 97/112/170 99/112/157 92/112/151
f 93/112/132 105/112/167 116/112/161
f 106/112/162 104/112/172 94/112/147
f 94/112/147 104/112/172 107/112/159
f 97/112/170 108/112/173 99/112/157
f 258/112/174 97/112/170 254/112/171
f 257/112/175 97/112/170 258/112/174
f 101/112/164 113/112/176 98/112/153
f 115/112/177 96/112/146 95/112/156
f 259/112/178 108/112/173 97/112/170 257/112/175
f 91/112/148 119/112/179 100/112/160
f 102/112/155 122/112/180 91/112/148
f 98/112/153 113/112/176 117/112/169
f 122/112/180 119/112/179 91/112/148
f 260/112/181 261/112/168 103/112/163
f 95/112/156 111/112/165 115/112/177
f 108/112/173 114/112/182 106/112/162
f 99/112/157 108/112/173 106/112/162
f 96/112/146 115/112/177 121/112/183
f 96/112/146 121/112/183 105/112/167
f 116/112/161 122/112/180 102/112/155
f 101/112/164 109/112/184 113/112/176
f 244/112/185 125/112/186 108/112/173 259/112/178
f 103/112/163 263/112/187 260/112/181
f 112/112/188 109/112/184 101/112/164
f 107/112/159 123/112/189 103/112/163
f 118/112/190 110/112/191 100/112/160
f 110/112/191 112/112/188 164/112/166
f 103/112/163 123/112/189 262/112/192 263/112/187
f 111/112/165 124/112/193 115/112/177
f 246/112/194 125/112/186 244/112/185
f 104/112/172 106/112/162 130/112/195
f 104/112/172 123/112/189 107/112/159
f 105/112/167 120/112/196 116/112/161
f 121/112/183 120/112/196 105/112/167
f 128/112/197 111/112/165 117/112/169
f 114/112/182 130/112/195 106/112/162
f 119/112/179 118/112/190 100/112/160
f 125/112/186 114/112/182 108/112/173
f 127/112/198 109/112/184 169/112/199
f 127/112/198 135/112/200 109/112/184
f 122/112/180 116/112/161 134/112/201
f 109/112/184 135/112/200 113/112/176
f 133/112/202 169/112/199 110/112/191
f 111/112/165 128/112/197 124/112/193
f 126/112/203 117/112/169 113/112/176
f 135/112/200 126/112/203 113/112/176
f 114/112/182 136/112/204 130/112/195
f 131/112/205 121/112/183 115/112/177
f 124/112/193 131/112/205 115/112/177
f 104/112/172 138/112/206 123/112/189
f 130/112/195 138/112/206 104/112/172
f 116/112/161 120/112/196 134/112/201
f 125/112/186 246/112/194 245/112/207
f 126/112/203 128/112/197 117/112/169
f 129/112/208 110/112/191 118/112/190
f 122/112/180 132/112/209 119/112/179
f 132/112/209 118/112/190 119/112/179
f 121/112/183 142/112/210 120/112/196
f 121/112/183 131/112/205 142/112/210
f 125/112/186 139/112/211 114/112/182
f 134/112/201 132/112/209 122/112/180
f 129/112/208 133/112/202 110/112/191
f 123/112/189 140/112/212 265/112/213 262/112/192
f 150/112/214 127/112/198 133/112/202
f 247/112/215 139/112/211 125/112/186 245/112/207
f 265/112/213 140/112/212 264/112/216
f 118/112/190 146/112/217 129/112/208
f 146/112/217 118/112/190 132/112/209
f 137/112/218 128/112/197 126/112/203
f 143/112/219 134/112/201 120/112/196
f 144/112/220 133/112/202 129/112/208
f 124/112/193 128/112/197 137/112/218
f 142/112/210 143/112/219 120/112/196
f 130/112/195 148/112/221 138/112/206
f 131/112/205 124/112/193 147/112/222
f 124/112/193 137/112/218 147/112/222
f 145/112/223 132/112/209 134/112/201
f 138/112/206 140/112/212 123/112/189
f 127/112/198 141/112/224 135/112/200
f 152/112/225 148/112/221 136/112/204
f 264/112/216 140/112/212 271/112/226
f 142/112/210 131/112/205 147/112/222
f 153/112/227 137/112/218 126/112/203
f 135/112/200 153/112/227 126/112/203
f 144/112/220 150/112/214 133/112/202
f 145/112/223 134/112/201 143/112/219
f 156/112/228 143/112/219 142/112/210
f 150/112/214 141/112/224 127/112/198
f 233/112/229 232/112/230 165/112/231 145/112/223
f 139/112/211 171/112/232 136/112/204
f 141/112/224 153/112/227 135/112/200
f 171/112/232 152/112/225 136/112/204
f 149/112/233 140/112/212 138/112/206
f 138/112/206 148/112/221 149/112/233
f 159/112/234 171/112/232 139/112/211
f 160/112/235 142/112/210 147/112/222
f 145/112/223 143/112/219 228/112/236 236/112/237
f 142/112/210 160/112/235 156/112/228
f 229/112/238 228/112/236 143/112/219 156/112/228
f 151/112/239 150/112/214 144/112/220
f 149/112/233 268/112/240 271/112/226 140/112/212
f 266/112/241 175/112/242 154/112/243 270/112/244
f 137/112/218 155/112/245 147/112/222
f 153/112/227 155/112/245 137/112/218
f 270/112/244 154/112/243 269/112/246
f 158/112/247 129/112/208 146/112/217
f 243/112/248 147/112/222 155/112/245 239/112/249
f 129/112/208 158/112/247 144/112/220
f 212/112/250 150/112/214 151/112/239 211/112/251
f 147/112/222 243/112/248 235/112/252 160/112/235
f 148/112/221 152/112/225 157/112/253
f 148/112/221 157/112/253 149/112/233
f 241/112/254 153/112/227 141/112/224 240/112/255
f 175/112/242 157/112/253 222/112/256 225/112/257
f 150/112/214 212/112/250 213/112/258 141/112/224
f 151/112/239 209/112/259 211/112/251
f 153/112/227 242/112/260 238/112/261 155/112/245
f 158/112/247 151/112/239 144/112/220
f 171/112/232 227/112/262 226/112/263
f 152/112/225 223/112/264 221/112/265 157/112/253
f 227/112/262 171/112/232 159/112/234 214/112/266
f 155/112/245 238/112/261 237/112/267
f 151/112/239 210/112/268 209/112/259
f 205/112/269 210/112/268 151/112/239 158/112/247
f 141/112/224 213/112/258 240/112/255
f 153/112/227 241/112/254 242/112/260
f 158/112/247 207/112/270 206/112/271
f 160/112/235 235/112/252 234/112/272
f 155/112/245 237/112/267 239/112/249
f 158/112/247 206/112/271 205/112/269
f 159/112/234 215/112/273 214/112/266
f 159/112/234 216/112/274 215/112/273
f 231/112/275 230/112/276 156/112/228 160/112/235
f 160/112/235 234/112/272 231/112/275
f 221/112/265 220/112/277 157/112/253
f 156/112/228 230/112/276 229/112/238
f 161/112/43 11/112/42 14/112/58
f 8/112/39 29/112/57 16/112/48
f 18/112/49 17/112/44 21/112/54
f 34/112/64 18/112/49 21/112/54
f 162/112/85 37/112/71 43/112/83
f 56/112/92 177/112/80 173/112/87
f 40/112/72 50/112/94 54/112/84
f 277/112/278 163/112/108 276/112/107
f 164/112/166 89/112/138 77/112/125
f 89/112/138 164/112/166 112/112/188
f 164/112/166 90/112/140 100/112/160
f 110/112/191 164/112/166 100/112/160
f 136/112/204 148/112/221 130/112/195
f 132/112/209 165/112/231 146/112/217
f 249/112/279 139/112/211 247/112/215
f 248/112/280 159/112/234 139/112/211 249/112/279
f 219/112/281 216/112/274 159/112/234 248/112/280
f 146/112/217 165/112/231 204/112/282 208/112/283
f 145/112/223 236/112/237 233/112/229
f 193/112/40 172/112/23 194/112/22
f 189/112/27 10/112/26 12/112/10 192/112/11
f 17/112/44 166/112/50 11/112/42
f 11/112/42 166/112/50 14/112/58
f 14/112/58 166/112/50 32/112/69
f 36/112/68 166/112/50 18/112/49
f 42/112/75 177/112/80 33/112/67
f 114/112/182 139/112/211 136/112/204
f 145/112/223 165/112/231 132/112/209
f 87/112/133 95/112/156 70/112/123
f 89/112/138 112/112/188 101/112/164
f 167/112/53 24/112/47 25/112/63
f 10/112/26 167/112/53 12/112/10
f 167/112/53 7/112/37 12/112/10
f 25/112/63 19/112/52 167/112/53
f 168/112/118 174/112/116 62/112/122
f 88/112/145 62/112/122 174/112/116
f 92/112/151 75/112/130 81/112/142
f 88/112/145 111/112/165 87/112/133
f 169/112/199 109/112/184 112/112/188
f 169/112/199 112/112/188 110/112/191
f 169/112/199 133/112/202 127/112/198
f 165/112/231 232/112/230 204/112/282
f 8/112/39 16/112/48 172/112/23
f 158/112/247 146/112/217 208/112/283 207/112/270
f 172/112/23 16/112/48 6/112/31
f 29/112/57 170/112/65 16/112/48
f 37/112/71 27/112/79 170/112/65
f 162/112/85 173/112/87 46/112/78
f 162/112/85 43/112/83 168/112/118
f 277/112/278 283/112/284 75/112/130 163/112/108
f 282/112/143 75/112/130 283/112/284
f 98/112/153 88/112/145 74/112/128
f 223/112/264 152/112/225 171/112/232 226/112/263
f 172/112/23 6/112/31 197/112/30 199/112/24
f 19/112/52 22/112/46 4/112/17
f 170/112/65 27/112/79 25/112/63
f 42/112/75 25/112/63 27/112/79
f 60/112/119 173/112/87 162/112/85
f 57/112/90 174/112/116 168/112/118
f 267/112/285 175/112/242 266/112/241
f 268/112/240 149/112/233 175/112/242 267/112/285
f 157/112/253 175/112/242 149/112/233
f 168/112/118 43/112/83 57/112/90
f 154/112/243 255/112/286 256/112/287 269/112/246
f 62/112/122 60/112/119 168/112/118
f 176/112/98 78/112/129 73/112/103
f 60/112/119 176/112/98 173/112/87
f 70/112/123 176/112/98 60/112/119
f 154/112/243 218/112/288 217/112/289 255/112/286
f 78/112/129 82/112/131 73/112/103
f 92/112/151 71/112/124 75/112/130
f 224/112/290 154/112/243 175/112/242 225/112/257
f 220/112/277 222/112/256 157/112/253
f 154/112/243 224/112/290 218/112/288
f 70/112/123 95/112/156 78/112/129
f 177/112/80 52/112/86 41/112/73
